G04 #@! TF.GenerationSoftware,KiCad,Pcbnew,(2018-01-18 revision 959767c09)-makepkg*
G04 #@! TF.CreationDate,2018-01-30T22:09:32+01:00*
G04 #@! TF.ProjectId,SensorPCB_V1.1,53656E736F725043425F56312E312E6B,rev?*
G04 #@! TF.SameCoordinates,Original*
G04 #@! TF.FileFunction,Copper,L2,Bot,Signal*
G04 #@! TF.FilePolarity,Positive*
%FSLAX46Y46*%
G04 Gerber Fmt 4.6, Leading zero omitted, Abs format (unit mm)*
G04 Created by KiCad (PCBNEW (2018-01-18 revision 959767c09)-makepkg) date 01/30/18 22:09:32*
%MOMM*%
%LPD*%
G01*
G04 APERTURE LIST*
%ADD10R,1.700000X1.700000*%
%ADD11O,1.700000X1.700000*%
%ADD12C,1.998980*%
%ADD13O,1.800000X1.800000*%
%ADD14R,1.800000X1.800000*%
%ADD15C,1.200000*%
%ADD16R,1.200000X1.200000*%
%ADD17C,0.800000*%
%ADD18C,0.250000*%
%ADD19C,0.254000*%
G04 APERTURE END LIST*
D10*
X41910000Y-19304000D03*
D11*
X39370000Y-19304000D03*
X36830000Y-19304000D03*
X34290000Y-19304000D03*
X34290000Y-15748000D03*
X36830000Y-15748000D03*
X39370000Y-15748000D03*
D10*
X41910000Y-15748000D03*
D12*
X57404000Y-26416000D03*
X54864000Y-26416000D03*
X59944000Y-26416000D03*
D13*
X16510000Y-57150000D03*
D14*
X16510000Y-49530000D03*
D15*
X17050000Y-34036000D03*
D16*
X19050000Y-34036000D03*
D11*
X26670000Y-66040000D03*
X26670000Y-63500000D03*
X26670000Y-60960000D03*
X26670000Y-58420000D03*
D10*
X26670000Y-55880000D03*
D17*
X40640000Y-27940000D03*
X27940000Y-46990000D03*
X40640000Y-64770000D03*
X43180000Y-53340000D03*
D18*
X25820000Y-31330000D02*
X23114000Y-34036000D01*
X23114000Y-34036000D02*
X19050000Y-34036000D01*
X25820000Y-26416000D02*
X25820000Y-31330000D01*
X54864000Y-26416000D02*
X25820000Y-26416000D01*
X19050000Y-33186000D02*
X19050000Y-34036000D01*
X26670000Y-63500000D02*
X24580010Y-61410010D01*
X24580010Y-61410010D02*
X24580010Y-56450010D01*
X24580010Y-56450010D02*
X17660000Y-49530000D01*
X17660000Y-49530000D02*
X16510000Y-49530000D01*
X24130000Y-58420000D02*
X17780000Y-58420000D01*
X17780000Y-58420000D02*
X16510000Y-57150000D01*
X24130000Y-63500000D02*
X24130000Y-58420000D01*
X26670000Y-66040000D02*
X24130000Y-63500000D01*
X40640000Y-27940000D02*
X55880000Y-27940000D01*
X55880000Y-27940000D02*
X57404000Y-26416000D01*
X41910000Y-20404000D02*
X41910000Y-15748000D01*
X41910000Y-20404000D02*
X41910000Y-19304000D01*
X57404000Y-26416000D02*
X55118000Y-24130000D01*
X55118000Y-24130000D02*
X45636000Y-24130000D01*
X45636000Y-24130000D02*
X41910000Y-20404000D01*
X23144010Y-32735990D02*
X18565008Y-32735990D01*
X24130000Y-31750000D02*
X23144010Y-32735990D01*
X24130000Y-26670000D02*
X24130000Y-31750000D01*
X33876999Y-16923001D02*
X24130000Y-26670000D01*
X38194999Y-16923001D02*
X33876999Y-16923001D01*
X39370000Y-15748000D02*
X38194999Y-16923001D01*
X18565008Y-32735990D02*
X18124999Y-33175999D01*
X18124999Y-33175999D02*
X18124999Y-37174999D01*
X18124999Y-37174999D02*
X27940000Y-46990000D01*
X27940000Y-59690000D02*
X27940000Y-46990000D01*
X26670000Y-60960000D02*
X27940000Y-59690000D01*
X43180000Y-62230000D02*
X40640000Y-64770000D01*
X43180000Y-53340000D02*
X43180000Y-62230000D01*
D19*
G36*
X62790000Y-50090000D02*
X53340000Y-50090000D01*
X53068295Y-50144046D01*
X52837954Y-50297954D01*
X52684046Y-50528295D01*
X52630000Y-50800000D01*
X52630000Y-69140000D01*
X23570000Y-69140000D01*
X23570000Y-66396890D01*
X25228524Y-66396890D01*
X25398355Y-66806924D01*
X25788642Y-67235183D01*
X26313108Y-67481486D01*
X26543000Y-67360819D01*
X26543000Y-66167000D01*
X26797000Y-66167000D01*
X26797000Y-67360819D01*
X27026892Y-67481486D01*
X27551358Y-67235183D01*
X27941645Y-66806924D01*
X28111476Y-66396890D01*
X27990155Y-66167000D01*
X26797000Y-66167000D01*
X26543000Y-66167000D01*
X25349845Y-66167000D01*
X25228524Y-66396890D01*
X23570000Y-66396890D01*
X23570000Y-59690000D01*
X23515954Y-59418295D01*
X23362046Y-59187954D01*
X23131705Y-59034046D01*
X22860000Y-58980000D01*
X13410000Y-58980000D01*
X13410000Y-57514742D01*
X15018954Y-57514742D01*
X15272034Y-58057576D01*
X15713583Y-58462240D01*
X16145260Y-58641036D01*
X16383000Y-58520378D01*
X16383000Y-57277000D01*
X16637000Y-57277000D01*
X16637000Y-58520378D01*
X16874740Y-58641036D01*
X17306417Y-58462240D01*
X17747966Y-58057576D01*
X18001046Y-57514742D01*
X17880997Y-57277000D01*
X16637000Y-57277000D01*
X16383000Y-57277000D01*
X15139003Y-57277000D01*
X15018954Y-57514742D01*
X13410000Y-57514742D01*
X13410000Y-56785258D01*
X15018954Y-56785258D01*
X15139003Y-57023000D01*
X16383000Y-57023000D01*
X16383000Y-55779622D01*
X16637000Y-55779622D01*
X16637000Y-57023000D01*
X17880997Y-57023000D01*
X18001046Y-56785258D01*
X17747966Y-56242424D01*
X17306417Y-55837760D01*
X16874740Y-55658964D01*
X16637000Y-55779622D01*
X16383000Y-55779622D01*
X16145260Y-55658964D01*
X15713583Y-55837760D01*
X15272034Y-56242424D01*
X15018954Y-56785258D01*
X13410000Y-56785258D01*
X13410000Y-33867036D01*
X15802193Y-33867036D01*
X15832518Y-34357413D01*
X15961836Y-34669617D01*
X16187265Y-34719130D01*
X16870395Y-34036000D01*
X16187265Y-33352870D01*
X15961836Y-33402383D01*
X15802193Y-33867036D01*
X13410000Y-33867036D01*
X13410000Y-31877000D01*
X22860000Y-31877000D01*
X22908601Y-31867333D01*
X22949803Y-31839803D01*
X22977333Y-31798601D01*
X22987000Y-31750000D01*
X22987000Y-31672738D01*
X23131705Y-31643954D01*
X23220725Y-31584473D01*
X22829208Y-31975990D01*
X18565008Y-31975990D01*
X18274169Y-32033842D01*
X18027607Y-32198589D01*
X17587598Y-32638598D01*
X17437478Y-32863269D01*
X17218964Y-32788193D01*
X16728587Y-32818518D01*
X16416383Y-32947836D01*
X16366870Y-33173265D01*
X17050000Y-33856395D01*
X17064143Y-33842253D01*
X17243748Y-34021858D01*
X17229605Y-34036000D01*
X17243748Y-34050143D01*
X17064143Y-34229748D01*
X17050000Y-34215605D01*
X16366870Y-34898735D01*
X16416383Y-35124164D01*
X16881036Y-35283807D01*
X17364999Y-35253879D01*
X17364999Y-37174999D01*
X17422851Y-37465838D01*
X17587598Y-37712400D01*
X26904965Y-47029767D01*
X26904821Y-47194971D01*
X27062058Y-47575515D01*
X27180000Y-47693663D01*
X27180000Y-54382560D01*
X25820000Y-54382560D01*
X25572235Y-54431843D01*
X25362191Y-54572191D01*
X25221843Y-54782235D01*
X25172560Y-55030000D01*
X25172560Y-55995146D01*
X25117411Y-55912609D01*
X18197401Y-48992599D01*
X18057440Y-48899080D01*
X18057440Y-48630000D01*
X18008157Y-48382235D01*
X17867809Y-48172191D01*
X17657765Y-48031843D01*
X17410000Y-47982560D01*
X15610000Y-47982560D01*
X15362235Y-48031843D01*
X15152191Y-48172191D01*
X15011843Y-48382235D01*
X14962560Y-48630000D01*
X14962560Y-50430000D01*
X15011843Y-50677765D01*
X15152191Y-50887809D01*
X15362235Y-51028157D01*
X15610000Y-51077440D01*
X17410000Y-51077440D01*
X17657765Y-51028157D01*
X17867809Y-50887809D01*
X17897929Y-50842731D01*
X23820010Y-56764812D01*
X23820010Y-61410010D01*
X23877862Y-61700849D01*
X24042609Y-61947411D01*
X25228790Y-63133592D01*
X25155907Y-63500000D01*
X25268946Y-64068285D01*
X25590853Y-64550054D01*
X25931553Y-64777702D01*
X25788642Y-64844817D01*
X25398355Y-65273076D01*
X25228524Y-65683110D01*
X25349845Y-65913000D01*
X26543000Y-65913000D01*
X26543000Y-65893000D01*
X26797000Y-65893000D01*
X26797000Y-65913000D01*
X27990155Y-65913000D01*
X28111476Y-65683110D01*
X27941645Y-65273076D01*
X27669972Y-64974971D01*
X39604821Y-64974971D01*
X39762058Y-65355515D01*
X40052954Y-65646919D01*
X40433223Y-65804820D01*
X40844971Y-65805179D01*
X41225515Y-65647942D01*
X41516919Y-65357046D01*
X41674820Y-64976777D01*
X41674966Y-64809836D01*
X43717401Y-62767401D01*
X43882148Y-62520840D01*
X43897233Y-62445000D01*
X43940000Y-62230000D01*
X43940000Y-54043761D01*
X44056919Y-53927046D01*
X44214820Y-53546777D01*
X44215179Y-53135029D01*
X44057942Y-52754485D01*
X43767046Y-52463081D01*
X43386777Y-52305180D01*
X42975029Y-52304821D01*
X42594485Y-52462058D01*
X42303081Y-52752954D01*
X42145180Y-53133223D01*
X42144821Y-53544971D01*
X42302058Y-53925515D01*
X42420000Y-54043663D01*
X42420000Y-61915198D01*
X40600233Y-63734965D01*
X40435029Y-63734821D01*
X40054485Y-63892058D01*
X39763081Y-64182954D01*
X39605180Y-64563223D01*
X39604821Y-64974971D01*
X27669972Y-64974971D01*
X27551358Y-64844817D01*
X27408447Y-64777702D01*
X27749147Y-64550054D01*
X28071054Y-64068285D01*
X28184093Y-63500000D01*
X28071054Y-62931715D01*
X27749147Y-62449946D01*
X27419974Y-62230000D01*
X27749147Y-62010054D01*
X28071054Y-61528285D01*
X28184093Y-60960000D01*
X28111210Y-60593592D01*
X28477401Y-60227401D01*
X28642148Y-59980840D01*
X28700000Y-59690000D01*
X28700000Y-51143599D01*
X36364699Y-51143599D01*
X36628281Y-51781515D01*
X37115918Y-52270004D01*
X37753373Y-52534699D01*
X38443599Y-52535301D01*
X39081515Y-52271719D01*
X39570004Y-51784082D01*
X39834699Y-51146627D01*
X39835301Y-50456401D01*
X39571719Y-49818485D01*
X39084082Y-49329996D01*
X38446627Y-49065301D01*
X37756401Y-49064699D01*
X37118485Y-49328281D01*
X36629996Y-49815918D01*
X36365301Y-50453373D01*
X36364699Y-51143599D01*
X28700000Y-51143599D01*
X28700000Y-47693761D01*
X28816919Y-47577046D01*
X28974820Y-47196777D01*
X28975179Y-46785029D01*
X28817942Y-46404485D01*
X28527046Y-46113081D01*
X28146777Y-45955180D01*
X27979836Y-45955034D01*
X18884999Y-36860197D01*
X18884999Y-35283440D01*
X19650000Y-35283440D01*
X19897765Y-35234157D01*
X20107809Y-35093809D01*
X20248157Y-34883765D01*
X20265614Y-34796000D01*
X23114000Y-34796000D01*
X23404839Y-34738148D01*
X23651401Y-34573401D01*
X26357401Y-31867401D01*
X26522148Y-31620839D01*
X26580000Y-31330000D01*
X26580000Y-30931599D01*
X36364699Y-30931599D01*
X36628281Y-31569515D01*
X37115918Y-32058004D01*
X37753373Y-32322699D01*
X38443599Y-32323301D01*
X39081515Y-32059719D01*
X39570004Y-31572082D01*
X39834699Y-30934627D01*
X39835301Y-30244401D01*
X39571719Y-29606485D01*
X39084082Y-29117996D01*
X38446627Y-28853301D01*
X37756401Y-28852699D01*
X37118485Y-29116281D01*
X36629996Y-29603918D01*
X36365301Y-30241373D01*
X36364699Y-30931599D01*
X26580000Y-30931599D01*
X26580000Y-27176000D01*
X39940344Y-27176000D01*
X39763081Y-27352954D01*
X39605180Y-27733223D01*
X39604821Y-28144971D01*
X39762058Y-28525515D01*
X40052954Y-28816919D01*
X40433223Y-28974820D01*
X40844971Y-28975179D01*
X41225515Y-28817942D01*
X41343663Y-28700000D01*
X55880000Y-28700000D01*
X56170839Y-28642148D01*
X56417401Y-28477401D01*
X56912917Y-27981885D01*
X57077453Y-28050206D01*
X57727694Y-28050774D01*
X58328655Y-27802462D01*
X58674199Y-27457520D01*
X59016927Y-27800846D01*
X59617453Y-28050206D01*
X60267694Y-28050774D01*
X60868655Y-27802462D01*
X61328846Y-27343073D01*
X61578206Y-26742547D01*
X61578774Y-26092306D01*
X61330462Y-25491345D01*
X60871073Y-25031154D01*
X60270547Y-24781794D01*
X59620306Y-24781226D01*
X59019345Y-25029538D01*
X58673801Y-25374480D01*
X58331073Y-25031154D01*
X57730547Y-24781794D01*
X57080306Y-24781226D01*
X56913111Y-24850309D01*
X55655401Y-23592599D01*
X55621579Y-23570000D01*
X62790000Y-23570000D01*
X62790000Y-50090000D01*
X62790000Y-50090000D01*
G37*
X62790000Y-50090000D02*
X53340000Y-50090000D01*
X53068295Y-50144046D01*
X52837954Y-50297954D01*
X52684046Y-50528295D01*
X52630000Y-50800000D01*
X52630000Y-69140000D01*
X23570000Y-69140000D01*
X23570000Y-66396890D01*
X25228524Y-66396890D01*
X25398355Y-66806924D01*
X25788642Y-67235183D01*
X26313108Y-67481486D01*
X26543000Y-67360819D01*
X26543000Y-66167000D01*
X26797000Y-66167000D01*
X26797000Y-67360819D01*
X27026892Y-67481486D01*
X27551358Y-67235183D01*
X27941645Y-66806924D01*
X28111476Y-66396890D01*
X27990155Y-66167000D01*
X26797000Y-66167000D01*
X26543000Y-66167000D01*
X25349845Y-66167000D01*
X25228524Y-66396890D01*
X23570000Y-66396890D01*
X23570000Y-59690000D01*
X23515954Y-59418295D01*
X23362046Y-59187954D01*
X23131705Y-59034046D01*
X22860000Y-58980000D01*
X13410000Y-58980000D01*
X13410000Y-57514742D01*
X15018954Y-57514742D01*
X15272034Y-58057576D01*
X15713583Y-58462240D01*
X16145260Y-58641036D01*
X16383000Y-58520378D01*
X16383000Y-57277000D01*
X16637000Y-57277000D01*
X16637000Y-58520378D01*
X16874740Y-58641036D01*
X17306417Y-58462240D01*
X17747966Y-58057576D01*
X18001046Y-57514742D01*
X17880997Y-57277000D01*
X16637000Y-57277000D01*
X16383000Y-57277000D01*
X15139003Y-57277000D01*
X15018954Y-57514742D01*
X13410000Y-57514742D01*
X13410000Y-56785258D01*
X15018954Y-56785258D01*
X15139003Y-57023000D01*
X16383000Y-57023000D01*
X16383000Y-55779622D01*
X16637000Y-55779622D01*
X16637000Y-57023000D01*
X17880997Y-57023000D01*
X18001046Y-56785258D01*
X17747966Y-56242424D01*
X17306417Y-55837760D01*
X16874740Y-55658964D01*
X16637000Y-55779622D01*
X16383000Y-55779622D01*
X16145260Y-55658964D01*
X15713583Y-55837760D01*
X15272034Y-56242424D01*
X15018954Y-56785258D01*
X13410000Y-56785258D01*
X13410000Y-33867036D01*
X15802193Y-33867036D01*
X15832518Y-34357413D01*
X15961836Y-34669617D01*
X16187265Y-34719130D01*
X16870395Y-34036000D01*
X16187265Y-33352870D01*
X15961836Y-33402383D01*
X15802193Y-33867036D01*
X13410000Y-33867036D01*
X13410000Y-31877000D01*
X22860000Y-31877000D01*
X22908601Y-31867333D01*
X22949803Y-31839803D01*
X22977333Y-31798601D01*
X22987000Y-31750000D01*
X22987000Y-31672738D01*
X23131705Y-31643954D01*
X23220725Y-31584473D01*
X22829208Y-31975990D01*
X18565008Y-31975990D01*
X18274169Y-32033842D01*
X18027607Y-32198589D01*
X17587598Y-32638598D01*
X17437478Y-32863269D01*
X17218964Y-32788193D01*
X16728587Y-32818518D01*
X16416383Y-32947836D01*
X16366870Y-33173265D01*
X17050000Y-33856395D01*
X17064143Y-33842253D01*
X17243748Y-34021858D01*
X17229605Y-34036000D01*
X17243748Y-34050143D01*
X17064143Y-34229748D01*
X17050000Y-34215605D01*
X16366870Y-34898735D01*
X16416383Y-35124164D01*
X16881036Y-35283807D01*
X17364999Y-35253879D01*
X17364999Y-37174999D01*
X17422851Y-37465838D01*
X17587598Y-37712400D01*
X26904965Y-47029767D01*
X26904821Y-47194971D01*
X27062058Y-47575515D01*
X27180000Y-47693663D01*
X27180000Y-54382560D01*
X25820000Y-54382560D01*
X25572235Y-54431843D01*
X25362191Y-54572191D01*
X25221843Y-54782235D01*
X25172560Y-55030000D01*
X25172560Y-55995146D01*
X25117411Y-55912609D01*
X18197401Y-48992599D01*
X18057440Y-48899080D01*
X18057440Y-48630000D01*
X18008157Y-48382235D01*
X17867809Y-48172191D01*
X17657765Y-48031843D01*
X17410000Y-47982560D01*
X15610000Y-47982560D01*
X15362235Y-48031843D01*
X15152191Y-48172191D01*
X15011843Y-48382235D01*
X14962560Y-48630000D01*
X14962560Y-50430000D01*
X15011843Y-50677765D01*
X15152191Y-50887809D01*
X15362235Y-51028157D01*
X15610000Y-51077440D01*
X17410000Y-51077440D01*
X17657765Y-51028157D01*
X17867809Y-50887809D01*
X17897929Y-50842731D01*
X23820010Y-56764812D01*
X23820010Y-61410010D01*
X23877862Y-61700849D01*
X24042609Y-61947411D01*
X25228790Y-63133592D01*
X25155907Y-63500000D01*
X25268946Y-64068285D01*
X25590853Y-64550054D01*
X25931553Y-64777702D01*
X25788642Y-64844817D01*
X25398355Y-65273076D01*
X25228524Y-65683110D01*
X25349845Y-65913000D01*
X26543000Y-65913000D01*
X26543000Y-65893000D01*
X26797000Y-65893000D01*
X26797000Y-65913000D01*
X27990155Y-65913000D01*
X28111476Y-65683110D01*
X27941645Y-65273076D01*
X27669972Y-64974971D01*
X39604821Y-64974971D01*
X39762058Y-65355515D01*
X40052954Y-65646919D01*
X40433223Y-65804820D01*
X40844971Y-65805179D01*
X41225515Y-65647942D01*
X41516919Y-65357046D01*
X41674820Y-64976777D01*
X41674966Y-64809836D01*
X43717401Y-62767401D01*
X43882148Y-62520840D01*
X43897233Y-62445000D01*
X43940000Y-62230000D01*
X43940000Y-54043761D01*
X44056919Y-53927046D01*
X44214820Y-53546777D01*
X44215179Y-53135029D01*
X44057942Y-52754485D01*
X43767046Y-52463081D01*
X43386777Y-52305180D01*
X42975029Y-52304821D01*
X42594485Y-52462058D01*
X42303081Y-52752954D01*
X42145180Y-53133223D01*
X42144821Y-53544971D01*
X42302058Y-53925515D01*
X42420000Y-54043663D01*
X42420000Y-61915198D01*
X40600233Y-63734965D01*
X40435029Y-63734821D01*
X40054485Y-63892058D01*
X39763081Y-64182954D01*
X39605180Y-64563223D01*
X39604821Y-64974971D01*
X27669972Y-64974971D01*
X27551358Y-64844817D01*
X27408447Y-64777702D01*
X27749147Y-64550054D01*
X28071054Y-64068285D01*
X28184093Y-63500000D01*
X28071054Y-62931715D01*
X27749147Y-62449946D01*
X27419974Y-62230000D01*
X27749147Y-62010054D01*
X28071054Y-61528285D01*
X28184093Y-60960000D01*
X28111210Y-60593592D01*
X28477401Y-60227401D01*
X28642148Y-59980840D01*
X28700000Y-59690000D01*
X28700000Y-51143599D01*
X36364699Y-51143599D01*
X36628281Y-51781515D01*
X37115918Y-52270004D01*
X37753373Y-52534699D01*
X38443599Y-52535301D01*
X39081515Y-52271719D01*
X39570004Y-51784082D01*
X39834699Y-51146627D01*
X39835301Y-50456401D01*
X39571719Y-49818485D01*
X39084082Y-49329996D01*
X38446627Y-49065301D01*
X37756401Y-49064699D01*
X37118485Y-49328281D01*
X36629996Y-49815918D01*
X36365301Y-50453373D01*
X36364699Y-51143599D01*
X28700000Y-51143599D01*
X28700000Y-47693761D01*
X28816919Y-47577046D01*
X28974820Y-47196777D01*
X28975179Y-46785029D01*
X28817942Y-46404485D01*
X28527046Y-46113081D01*
X28146777Y-45955180D01*
X27979836Y-45955034D01*
X18884999Y-36860197D01*
X18884999Y-35283440D01*
X19650000Y-35283440D01*
X19897765Y-35234157D01*
X20107809Y-35093809D01*
X20248157Y-34883765D01*
X20265614Y-34796000D01*
X23114000Y-34796000D01*
X23404839Y-34738148D01*
X23651401Y-34573401D01*
X26357401Y-31867401D01*
X26522148Y-31620839D01*
X26580000Y-31330000D01*
X26580000Y-30931599D01*
X36364699Y-30931599D01*
X36628281Y-31569515D01*
X37115918Y-32058004D01*
X37753373Y-32322699D01*
X38443599Y-32323301D01*
X39081515Y-32059719D01*
X39570004Y-31572082D01*
X39834699Y-30934627D01*
X39835301Y-30244401D01*
X39571719Y-29606485D01*
X39084082Y-29117996D01*
X38446627Y-28853301D01*
X37756401Y-28852699D01*
X37118485Y-29116281D01*
X36629996Y-29603918D01*
X36365301Y-30241373D01*
X36364699Y-30931599D01*
X26580000Y-30931599D01*
X26580000Y-27176000D01*
X39940344Y-27176000D01*
X39763081Y-27352954D01*
X39605180Y-27733223D01*
X39604821Y-28144971D01*
X39762058Y-28525515D01*
X40052954Y-28816919D01*
X40433223Y-28974820D01*
X40844971Y-28975179D01*
X41225515Y-28817942D01*
X41343663Y-28700000D01*
X55880000Y-28700000D01*
X56170839Y-28642148D01*
X56417401Y-28477401D01*
X56912917Y-27981885D01*
X57077453Y-28050206D01*
X57727694Y-28050774D01*
X58328655Y-27802462D01*
X58674199Y-27457520D01*
X59016927Y-27800846D01*
X59617453Y-28050206D01*
X60267694Y-28050774D01*
X60868655Y-27802462D01*
X61328846Y-27343073D01*
X61578206Y-26742547D01*
X61578774Y-26092306D01*
X61330462Y-25491345D01*
X60871073Y-25031154D01*
X60270547Y-24781794D01*
X59620306Y-24781226D01*
X59019345Y-25029538D01*
X58673801Y-25374480D01*
X58331073Y-25031154D01*
X57730547Y-24781794D01*
X57080306Y-24781226D01*
X56913111Y-24850309D01*
X55655401Y-23592599D01*
X55621579Y-23570000D01*
X62790000Y-23570000D01*
X62790000Y-50090000D01*
G36*
X52630000Y-22860000D02*
X52684046Y-23131705D01*
X52837954Y-23362046D01*
X52849858Y-23370000D01*
X45950802Y-23370000D01*
X43202704Y-20621902D01*
X43217809Y-20611809D01*
X43358157Y-20401765D01*
X43407440Y-20154000D01*
X43407440Y-18454000D01*
X43358157Y-18206235D01*
X43217809Y-17996191D01*
X43007765Y-17855843D01*
X42760000Y-17806560D01*
X42670000Y-17806560D01*
X42670000Y-17245440D01*
X42760000Y-17245440D01*
X43007765Y-17196157D01*
X43217809Y-17055809D01*
X43358157Y-16845765D01*
X43407440Y-16598000D01*
X43407440Y-14898000D01*
X43358157Y-14650235D01*
X43217809Y-14440191D01*
X43007765Y-14299843D01*
X42760000Y-14250560D01*
X41060000Y-14250560D01*
X40812235Y-14299843D01*
X40602191Y-14440191D01*
X40461843Y-14650235D01*
X40449403Y-14712777D01*
X40420054Y-14668853D01*
X39938285Y-14346946D01*
X39370000Y-14233907D01*
X38801715Y-14346946D01*
X38319946Y-14668853D01*
X38100000Y-14998026D01*
X37880054Y-14668853D01*
X37398285Y-14346946D01*
X36830000Y-14233907D01*
X36261715Y-14346946D01*
X35779946Y-14668853D01*
X35552298Y-15009553D01*
X35485183Y-14866642D01*
X35056924Y-14476355D01*
X34646890Y-14306524D01*
X34417000Y-14427845D01*
X34417000Y-15621000D01*
X34437000Y-15621000D01*
X34437000Y-15875000D01*
X34417000Y-15875000D01*
X34417000Y-15895000D01*
X34163000Y-15895000D01*
X34163000Y-15875000D01*
X32969181Y-15875000D01*
X32848514Y-16104892D01*
X33094817Y-16629358D01*
X33095352Y-16629846D01*
X23592599Y-26132599D01*
X23570000Y-26166421D01*
X23570000Y-15391108D01*
X32848514Y-15391108D01*
X32969181Y-15621000D01*
X34163000Y-15621000D01*
X34163000Y-14427845D01*
X33933110Y-14306524D01*
X33523076Y-14476355D01*
X33094817Y-14866642D01*
X32848514Y-15391108D01*
X23570000Y-15391108D01*
X23570000Y-13410000D01*
X52630000Y-13410000D01*
X52630000Y-22860000D01*
X52630000Y-22860000D01*
G37*
X52630000Y-22860000D02*
X52684046Y-23131705D01*
X52837954Y-23362046D01*
X52849858Y-23370000D01*
X45950802Y-23370000D01*
X43202704Y-20621902D01*
X43217809Y-20611809D01*
X43358157Y-20401765D01*
X43407440Y-20154000D01*
X43407440Y-18454000D01*
X43358157Y-18206235D01*
X43217809Y-17996191D01*
X43007765Y-17855843D01*
X42760000Y-17806560D01*
X42670000Y-17806560D01*
X42670000Y-17245440D01*
X42760000Y-17245440D01*
X43007765Y-17196157D01*
X43217809Y-17055809D01*
X43358157Y-16845765D01*
X43407440Y-16598000D01*
X43407440Y-14898000D01*
X43358157Y-14650235D01*
X43217809Y-14440191D01*
X43007765Y-14299843D01*
X42760000Y-14250560D01*
X41060000Y-14250560D01*
X40812235Y-14299843D01*
X40602191Y-14440191D01*
X40461843Y-14650235D01*
X40449403Y-14712777D01*
X40420054Y-14668853D01*
X39938285Y-14346946D01*
X39370000Y-14233907D01*
X38801715Y-14346946D01*
X38319946Y-14668853D01*
X38100000Y-14998026D01*
X37880054Y-14668853D01*
X37398285Y-14346946D01*
X36830000Y-14233907D01*
X36261715Y-14346946D01*
X35779946Y-14668853D01*
X35552298Y-15009553D01*
X35485183Y-14866642D01*
X35056924Y-14476355D01*
X34646890Y-14306524D01*
X34417000Y-14427845D01*
X34417000Y-15621000D01*
X34437000Y-15621000D01*
X34437000Y-15875000D01*
X34417000Y-15875000D01*
X34417000Y-15895000D01*
X34163000Y-15895000D01*
X34163000Y-15875000D01*
X32969181Y-15875000D01*
X32848514Y-16104892D01*
X33094817Y-16629358D01*
X33095352Y-16629846D01*
X23592599Y-26132599D01*
X23570000Y-26166421D01*
X23570000Y-15391108D01*
X32848514Y-15391108D01*
X32969181Y-15621000D01*
X34163000Y-15621000D01*
X34163000Y-14427845D01*
X33933110Y-14306524D01*
X33523076Y-14476355D01*
X33094817Y-14866642D01*
X32848514Y-15391108D01*
X23570000Y-15391108D01*
X23570000Y-13410000D01*
X52630000Y-13410000D01*
X52630000Y-22860000D01*
G36*
X40461843Y-16845765D02*
X40602191Y-17055809D01*
X40812235Y-17196157D01*
X41060000Y-17245440D01*
X41150000Y-17245440D01*
X41150000Y-17806560D01*
X41060000Y-17806560D01*
X40812235Y-17855843D01*
X40602191Y-17996191D01*
X40461843Y-18206235D01*
X40441261Y-18309708D01*
X40136924Y-18032355D01*
X39726890Y-17862524D01*
X39497000Y-17983845D01*
X39497000Y-19177000D01*
X39517000Y-19177000D01*
X39517000Y-19431000D01*
X39497000Y-19431000D01*
X39497000Y-20624155D01*
X39726890Y-20745476D01*
X40136924Y-20575645D01*
X40441261Y-20298292D01*
X40461843Y-20401765D01*
X40602191Y-20611809D01*
X40812235Y-20752157D01*
X41060000Y-20801440D01*
X41279080Y-20801440D01*
X41372599Y-20941401D01*
X45098599Y-24667401D01*
X45345161Y-24832148D01*
X45636000Y-24890000D01*
X54277053Y-24890000D01*
X53939345Y-25029538D01*
X53479154Y-25488927D01*
X53409779Y-25656000D01*
X26218802Y-25656000D01*
X32855928Y-19018874D01*
X32805000Y-19274907D01*
X32805000Y-19333093D01*
X32918039Y-19901378D01*
X33239946Y-20383147D01*
X33721715Y-20705054D01*
X34290000Y-20818093D01*
X34858285Y-20705054D01*
X35340054Y-20383147D01*
X35560000Y-20053974D01*
X35779946Y-20383147D01*
X36261715Y-20705054D01*
X36830000Y-20818093D01*
X37398285Y-20705054D01*
X37880054Y-20383147D01*
X38107702Y-20042447D01*
X38174817Y-20185358D01*
X38603076Y-20575645D01*
X39013110Y-20745476D01*
X39243000Y-20624155D01*
X39243000Y-19431000D01*
X39223000Y-19431000D01*
X39223000Y-19177000D01*
X39243000Y-19177000D01*
X39243000Y-17983845D01*
X39013110Y-17862524D01*
X38603076Y-18032355D01*
X38174817Y-18422642D01*
X38107702Y-18565553D01*
X37880054Y-18224853D01*
X37398285Y-17902946D01*
X36830000Y-17789907D01*
X36261715Y-17902946D01*
X35779946Y-18224853D01*
X35560000Y-18554026D01*
X35340054Y-18224853D01*
X34858285Y-17902946D01*
X34290000Y-17789907D01*
X34033967Y-17840835D01*
X34191801Y-17683001D01*
X38194999Y-17683001D01*
X38485838Y-17625149D01*
X38732400Y-17460402D01*
X39003592Y-17189210D01*
X39370000Y-17262093D01*
X39938285Y-17149054D01*
X40420054Y-16827147D01*
X40449403Y-16783223D01*
X40461843Y-16845765D01*
X40461843Y-16845765D01*
G37*
X40461843Y-16845765D02*
X40602191Y-17055809D01*
X40812235Y-17196157D01*
X41060000Y-17245440D01*
X41150000Y-17245440D01*
X41150000Y-17806560D01*
X41060000Y-17806560D01*
X40812235Y-17855843D01*
X40602191Y-17996191D01*
X40461843Y-18206235D01*
X40441261Y-18309708D01*
X40136924Y-18032355D01*
X39726890Y-17862524D01*
X39497000Y-17983845D01*
X39497000Y-19177000D01*
X39517000Y-19177000D01*
X39517000Y-19431000D01*
X39497000Y-19431000D01*
X39497000Y-20624155D01*
X39726890Y-20745476D01*
X40136924Y-20575645D01*
X40441261Y-20298292D01*
X40461843Y-20401765D01*
X40602191Y-20611809D01*
X40812235Y-20752157D01*
X41060000Y-20801440D01*
X41279080Y-20801440D01*
X41372599Y-20941401D01*
X45098599Y-24667401D01*
X45345161Y-24832148D01*
X45636000Y-24890000D01*
X54277053Y-24890000D01*
X53939345Y-25029538D01*
X53479154Y-25488927D01*
X53409779Y-25656000D01*
X26218802Y-25656000D01*
X32855928Y-19018874D01*
X32805000Y-19274907D01*
X32805000Y-19333093D01*
X32918039Y-19901378D01*
X33239946Y-20383147D01*
X33721715Y-20705054D01*
X34290000Y-20818093D01*
X34858285Y-20705054D01*
X35340054Y-20383147D01*
X35560000Y-20053974D01*
X35779946Y-20383147D01*
X36261715Y-20705054D01*
X36830000Y-20818093D01*
X37398285Y-20705054D01*
X37880054Y-20383147D01*
X38107702Y-20042447D01*
X38174817Y-20185358D01*
X38603076Y-20575645D01*
X39013110Y-20745476D01*
X39243000Y-20624155D01*
X39243000Y-19431000D01*
X39223000Y-19431000D01*
X39223000Y-19177000D01*
X39243000Y-19177000D01*
X39243000Y-17983845D01*
X39013110Y-17862524D01*
X38603076Y-18032355D01*
X38174817Y-18422642D01*
X38107702Y-18565553D01*
X37880054Y-18224853D01*
X37398285Y-17902946D01*
X36830000Y-17789907D01*
X36261715Y-17902946D01*
X35779946Y-18224853D01*
X35560000Y-18554026D01*
X35340054Y-18224853D01*
X34858285Y-17902946D01*
X34290000Y-17789907D01*
X34033967Y-17840835D01*
X34191801Y-17683001D01*
X38194999Y-17683001D01*
X38485838Y-17625149D01*
X38732400Y-17460402D01*
X39003592Y-17189210D01*
X39370000Y-17262093D01*
X39938285Y-17149054D01*
X40420054Y-16827147D01*
X40449403Y-16783223D01*
X40461843Y-16845765D01*
M02*
