G04 #@! TF.GenerationSoftware,KiCad,Pcbnew,(5.0.2)-1*
G04 #@! TF.CreationDate,2019-02-05T11:41:40+01:00*
G04 #@! TF.ProjectId,SensorPCB_V1.2,53656e73-6f72-4504-9342-5f56312e322e,rev?*
G04 #@! TF.SameCoordinates,Original*
G04 #@! TF.FileFunction,Soldermask,Top*
G04 #@! TF.FilePolarity,Negative*
%FSLAX46Y46*%
G04 Gerber Fmt 4.6, Leading zero omitted, Abs format (unit mm)*
G04 Created by KiCad (PCBNEW (5.0.2)-1) date 05/02/2019 11:41:40*
%MOMM*%
%LPD*%
G01*
G04 APERTURE LIST*
%ADD10C,0.100000*%
G04 APERTURE END LIST*
D10*
G36*
X46106393Y-56763553D02*
X46215872Y-56785330D01*
X46525252Y-56913479D01*
X46803687Y-57099523D01*
X47040477Y-57336313D01*
X47226521Y-57614748D01*
X47354670Y-57924128D01*
X47420000Y-58252565D01*
X47420000Y-58587435D01*
X47354670Y-58915872D01*
X47226521Y-59225252D01*
X47040477Y-59503687D01*
X46803687Y-59740477D01*
X46525252Y-59926521D01*
X46215872Y-60054670D01*
X46106393Y-60076447D01*
X45887437Y-60120000D01*
X45552563Y-60120000D01*
X45333607Y-60076447D01*
X45224128Y-60054670D01*
X44914748Y-59926521D01*
X44636313Y-59740477D01*
X44399523Y-59503687D01*
X44213479Y-59225252D01*
X44085330Y-58915872D01*
X44020000Y-58587435D01*
X44020000Y-58252565D01*
X44085330Y-57924128D01*
X44213479Y-57614748D01*
X44399523Y-57336313D01*
X44636313Y-57099523D01*
X44914748Y-56913479D01*
X45224128Y-56785330D01*
X45333607Y-56763553D01*
X45552563Y-56720000D01*
X45887437Y-56720000D01*
X46106393Y-56763553D01*
X46106393Y-56763553D01*
G37*
G36*
X41026393Y-56763553D02*
X41135872Y-56785330D01*
X41445252Y-56913479D01*
X41723687Y-57099523D01*
X41960477Y-57336313D01*
X42146521Y-57614748D01*
X42274670Y-57924128D01*
X42340000Y-58252565D01*
X42340000Y-58587435D01*
X42274670Y-58915872D01*
X42146521Y-59225252D01*
X41960477Y-59503687D01*
X41723687Y-59740477D01*
X41445252Y-59926521D01*
X41135872Y-60054670D01*
X41026393Y-60076447D01*
X40807437Y-60120000D01*
X40472563Y-60120000D01*
X40253607Y-60076447D01*
X40144128Y-60054670D01*
X39834748Y-59926521D01*
X39556313Y-59740477D01*
X39319523Y-59503687D01*
X39133479Y-59225252D01*
X39005330Y-58915872D01*
X38940000Y-58587435D01*
X38940000Y-58252565D01*
X39005330Y-57924128D01*
X39133479Y-57614748D01*
X39319523Y-57336313D01*
X39556313Y-57099523D01*
X39834748Y-56913479D01*
X40144128Y-56785330D01*
X40253607Y-56763553D01*
X40472563Y-56720000D01*
X40807437Y-56720000D01*
X41026393Y-56763553D01*
X41026393Y-56763553D01*
G37*
G36*
X35946393Y-56763553D02*
X36055872Y-56785330D01*
X36365252Y-56913479D01*
X36643687Y-57099523D01*
X36880477Y-57336313D01*
X37066521Y-57614748D01*
X37194670Y-57924128D01*
X37260000Y-58252565D01*
X37260000Y-58587435D01*
X37194670Y-58915872D01*
X37066521Y-59225252D01*
X36880477Y-59503687D01*
X36643687Y-59740477D01*
X36365252Y-59926521D01*
X36055872Y-60054670D01*
X35946393Y-60076447D01*
X35727437Y-60120000D01*
X35392563Y-60120000D01*
X35173607Y-60076447D01*
X35064128Y-60054670D01*
X34754748Y-59926521D01*
X34476313Y-59740477D01*
X34239523Y-59503687D01*
X34053479Y-59225252D01*
X33925330Y-58915872D01*
X33860000Y-58587435D01*
X33860000Y-58252565D01*
X33925330Y-57924128D01*
X34053479Y-57614748D01*
X34239523Y-57336313D01*
X34476313Y-57099523D01*
X34754748Y-56913479D01*
X35064128Y-56785330D01*
X35173607Y-56763553D01*
X35392563Y-56720000D01*
X35727437Y-56720000D01*
X35946393Y-56763553D01*
X35946393Y-56763553D01*
G37*
G36*
X32180000Y-60120000D02*
X28780000Y-60120000D01*
X28780000Y-56720000D01*
X32180000Y-56720000D01*
X32180000Y-60120000D01*
X32180000Y-60120000D01*
G37*
G36*
X38479196Y-49549958D02*
X38715780Y-49647954D01*
X38928705Y-49790226D01*
X39109774Y-49971295D01*
X39252046Y-50184220D01*
X39350042Y-50420804D01*
X39400000Y-50671960D01*
X39400000Y-50928040D01*
X39350042Y-51179196D01*
X39252046Y-51415780D01*
X39109774Y-51628705D01*
X38928705Y-51809774D01*
X38715780Y-51952046D01*
X38479196Y-52050042D01*
X38228040Y-52100000D01*
X37971960Y-52100000D01*
X37720804Y-52050042D01*
X37484220Y-51952046D01*
X37271295Y-51809774D01*
X37090226Y-51628705D01*
X36947954Y-51415780D01*
X36849958Y-51179196D01*
X36800000Y-50928040D01*
X36800000Y-50671960D01*
X36849958Y-50420804D01*
X36947954Y-50184220D01*
X37090226Y-49971295D01*
X37271295Y-49790226D01*
X37484220Y-49647954D01*
X37720804Y-49549958D01*
X37971960Y-49500000D01*
X38228040Y-49500000D01*
X38479196Y-49549958D01*
X38479196Y-49549958D01*
G37*
G36*
X30608707Y-48487597D02*
X30685836Y-48495193D01*
X30817787Y-48535220D01*
X30883763Y-48555233D01*
X31066172Y-48652733D01*
X31226054Y-48783946D01*
X31357267Y-48943828D01*
X31454767Y-49126237D01*
X31474780Y-49192213D01*
X31514807Y-49324164D01*
X31535080Y-49530000D01*
X31514807Y-49735836D01*
X31498308Y-49790226D01*
X31454767Y-49933763D01*
X31357267Y-50116172D01*
X31226054Y-50276054D01*
X31066172Y-50407267D01*
X30883763Y-50504767D01*
X30817787Y-50524780D01*
X30685836Y-50564807D01*
X30608707Y-50572404D01*
X30531580Y-50580000D01*
X30428420Y-50580000D01*
X30351293Y-50572404D01*
X30274164Y-50564807D01*
X30142213Y-50524780D01*
X30076237Y-50504767D01*
X29893828Y-50407267D01*
X29733946Y-50276054D01*
X29602733Y-50116172D01*
X29505233Y-49933763D01*
X29461692Y-49790226D01*
X29445193Y-49735836D01*
X29424920Y-49530000D01*
X29445193Y-49324164D01*
X29485220Y-49192213D01*
X29505233Y-49126237D01*
X29602733Y-48943828D01*
X29733946Y-48783946D01*
X29893828Y-48652733D01*
X30076237Y-48555233D01*
X30142213Y-48535220D01*
X30274164Y-48495193D01*
X30351293Y-48487597D01*
X30428420Y-48480000D01*
X30531580Y-48480000D01*
X30608707Y-48487597D01*
X30608707Y-48487597D01*
G37*
G36*
X28068707Y-48487597D02*
X28145836Y-48495193D01*
X28277787Y-48535220D01*
X28343763Y-48555233D01*
X28526172Y-48652733D01*
X28686054Y-48783946D01*
X28817267Y-48943828D01*
X28914767Y-49126237D01*
X28934780Y-49192213D01*
X28974807Y-49324164D01*
X28995080Y-49530000D01*
X28974807Y-49735836D01*
X28958308Y-49790226D01*
X28914767Y-49933763D01*
X28817267Y-50116172D01*
X28686054Y-50276054D01*
X28526172Y-50407267D01*
X28343763Y-50504767D01*
X28277787Y-50524780D01*
X28145836Y-50564807D01*
X28068707Y-50572404D01*
X27991580Y-50580000D01*
X27888420Y-50580000D01*
X27811293Y-50572404D01*
X27734164Y-50564807D01*
X27602213Y-50524780D01*
X27536237Y-50504767D01*
X27353828Y-50407267D01*
X27193946Y-50276054D01*
X27062733Y-50116172D01*
X26965233Y-49933763D01*
X26921692Y-49790226D01*
X26905193Y-49735836D01*
X26884920Y-49530000D01*
X26905193Y-49324164D01*
X26945220Y-49192213D01*
X26965233Y-49126237D01*
X27062733Y-48943828D01*
X27193946Y-48783946D01*
X27353828Y-48652733D01*
X27536237Y-48555233D01*
X27602213Y-48535220D01*
X27734164Y-48495193D01*
X27811293Y-48487597D01*
X27888420Y-48480000D01*
X27991580Y-48480000D01*
X28068707Y-48487597D01*
X28068707Y-48487597D01*
G37*
G36*
X34070000Y-50580000D02*
X31970000Y-50580000D01*
X31970000Y-48480000D01*
X34070000Y-48480000D01*
X34070000Y-50580000D01*
X34070000Y-50580000D01*
G37*
G36*
X18743352Y-48760743D02*
X18888941Y-48821048D01*
X19019973Y-48908601D01*
X19131399Y-49020027D01*
X19218952Y-49151059D01*
X19279257Y-49296648D01*
X19310000Y-49451205D01*
X19310000Y-49608795D01*
X19279257Y-49763352D01*
X19218952Y-49908941D01*
X19131399Y-50039973D01*
X19019973Y-50151399D01*
X18888941Y-50238952D01*
X18743352Y-50299257D01*
X18588795Y-50330000D01*
X18431205Y-50330000D01*
X18276648Y-50299257D01*
X18131059Y-50238952D01*
X18000027Y-50151399D01*
X17888601Y-50039973D01*
X17801048Y-49908941D01*
X17740743Y-49763352D01*
X17710000Y-49608795D01*
X17710000Y-49451205D01*
X17740743Y-49296648D01*
X17801048Y-49151059D01*
X17888601Y-49020027D01*
X18000027Y-48908601D01*
X18131059Y-48821048D01*
X18276648Y-48760743D01*
X18431205Y-48730000D01*
X18588795Y-48730000D01*
X18743352Y-48760743D01*
X18743352Y-48760743D01*
G37*
G36*
X17310000Y-50330000D02*
X15710000Y-50330000D01*
X15710000Y-48730000D01*
X17310000Y-48730000D01*
X17310000Y-50330000D01*
X17310000Y-50330000D01*
G37*
G36*
X23823352Y-48760743D02*
X23968941Y-48821048D01*
X24099973Y-48908601D01*
X24211399Y-49020027D01*
X24298952Y-49151059D01*
X24359257Y-49296648D01*
X24390000Y-49451205D01*
X24390000Y-49608795D01*
X24359257Y-49763352D01*
X24298952Y-49908941D01*
X24211399Y-50039973D01*
X24099973Y-50151399D01*
X23968941Y-50238952D01*
X23823352Y-50299257D01*
X23668795Y-50330000D01*
X23511205Y-50330000D01*
X23356648Y-50299257D01*
X23211059Y-50238952D01*
X23080027Y-50151399D01*
X22968601Y-50039973D01*
X22881048Y-49908941D01*
X22820743Y-49763352D01*
X22790000Y-49608795D01*
X22790000Y-49451205D01*
X22820743Y-49296648D01*
X22881048Y-49151059D01*
X22968601Y-49020027D01*
X23080027Y-48908601D01*
X23211059Y-48821048D01*
X23356648Y-48760743D01*
X23511205Y-48730000D01*
X23668795Y-48730000D01*
X23823352Y-48760743D01*
X23823352Y-48760743D01*
G37*
G36*
X22390000Y-50330000D02*
X20790000Y-50330000D01*
X20790000Y-48730000D01*
X22390000Y-48730000D01*
X22390000Y-50330000D01*
X22390000Y-50330000D01*
G37*
G36*
X53255000Y-48735000D02*
X51105000Y-48735000D01*
X51105000Y-47785000D01*
X53255000Y-47785000D01*
X53255000Y-48735000D01*
X53255000Y-48735000D01*
G37*
G36*
X60655000Y-48735000D02*
X58505000Y-48735000D01*
X58505000Y-47785000D01*
X60655000Y-47785000D01*
X60655000Y-48735000D01*
X60655000Y-48735000D01*
G37*
G36*
X45135530Y-45975710D02*
X45185379Y-45990831D01*
X45231311Y-46015382D01*
X45271574Y-46048426D01*
X45304618Y-46088689D01*
X45329169Y-46134621D01*
X45344290Y-46184470D01*
X45350000Y-46242444D01*
X45350000Y-47247556D01*
X45344290Y-47305530D01*
X45329169Y-47355379D01*
X45304618Y-47401311D01*
X45271574Y-47441574D01*
X45231311Y-47474618D01*
X45185379Y-47499169D01*
X45135530Y-47514290D01*
X45077556Y-47520000D01*
X43822444Y-47520000D01*
X43764470Y-47514290D01*
X43714621Y-47499169D01*
X43668689Y-47474618D01*
X43628426Y-47441574D01*
X43595382Y-47401311D01*
X43570831Y-47355379D01*
X43555710Y-47305530D01*
X43550000Y-47247556D01*
X43550000Y-46242444D01*
X43555710Y-46184470D01*
X43570831Y-46134621D01*
X43595382Y-46088689D01*
X43628426Y-46048426D01*
X43668689Y-46015382D01*
X43714621Y-45990831D01*
X43764470Y-45975710D01*
X43822444Y-45970000D01*
X45077556Y-45970000D01*
X45135530Y-45975710D01*
X45135530Y-45975710D01*
G37*
G36*
X48310530Y-45975710D02*
X48360379Y-45990831D01*
X48406311Y-46015382D01*
X48446574Y-46048426D01*
X48479618Y-46088689D01*
X48504169Y-46134621D01*
X48519290Y-46184470D01*
X48525000Y-46242444D01*
X48525000Y-47247556D01*
X48519290Y-47305530D01*
X48504169Y-47355379D01*
X48479618Y-47401311D01*
X48446574Y-47441574D01*
X48406311Y-47474618D01*
X48360379Y-47499169D01*
X48310530Y-47514290D01*
X48252556Y-47520000D01*
X46997444Y-47520000D01*
X46939470Y-47514290D01*
X46889621Y-47499169D01*
X46843689Y-47474618D01*
X46803426Y-47441574D01*
X46770382Y-47401311D01*
X46745831Y-47355379D01*
X46730710Y-47305530D01*
X46725000Y-47247556D01*
X46725000Y-46242444D01*
X46730710Y-46184470D01*
X46745831Y-46134621D01*
X46770382Y-46088689D01*
X46803426Y-46048426D01*
X46843689Y-46015382D01*
X46889621Y-45990831D01*
X46939470Y-45975710D01*
X46997444Y-45970000D01*
X48252556Y-45970000D01*
X48310530Y-45975710D01*
X48310530Y-45975710D01*
G37*
G36*
X60655000Y-47465000D02*
X58505000Y-47465000D01*
X58505000Y-46515000D01*
X60655000Y-46515000D01*
X60655000Y-47465000D01*
X60655000Y-47465000D01*
G37*
G36*
X53255000Y-47465000D02*
X51105000Y-47465000D01*
X51105000Y-46515000D01*
X53255000Y-46515000D01*
X53255000Y-47465000D01*
X53255000Y-47465000D01*
G37*
G36*
X60655000Y-46195000D02*
X58505000Y-46195000D01*
X58505000Y-45245000D01*
X60655000Y-45245000D01*
X60655000Y-46195000D01*
X60655000Y-46195000D01*
G37*
G36*
X53255000Y-46195000D02*
X51105000Y-46195000D01*
X51105000Y-45245000D01*
X53255000Y-45245000D01*
X53255000Y-46195000D01*
X53255000Y-46195000D01*
G37*
G36*
X48310530Y-43925710D02*
X48360379Y-43940831D01*
X48406311Y-43965382D01*
X48446574Y-43998426D01*
X48479618Y-44038689D01*
X48504169Y-44084621D01*
X48519290Y-44134470D01*
X48525000Y-44192444D01*
X48525000Y-45197556D01*
X48519290Y-45255530D01*
X48504169Y-45305379D01*
X48479618Y-45351311D01*
X48446574Y-45391574D01*
X48406311Y-45424618D01*
X48360379Y-45449169D01*
X48310530Y-45464290D01*
X48252556Y-45470000D01*
X46997444Y-45470000D01*
X46939470Y-45464290D01*
X46889621Y-45449169D01*
X46843689Y-45424618D01*
X46803426Y-45391574D01*
X46770382Y-45351311D01*
X46745831Y-45305379D01*
X46730710Y-45255530D01*
X46725000Y-45197556D01*
X46725000Y-44192444D01*
X46730710Y-44134470D01*
X46745831Y-44084621D01*
X46770382Y-44038689D01*
X46803426Y-43998426D01*
X46843689Y-43965382D01*
X46889621Y-43940831D01*
X46939470Y-43925710D01*
X46997444Y-43920000D01*
X48252556Y-43920000D01*
X48310530Y-43925710D01*
X48310530Y-43925710D01*
G37*
G36*
X45135530Y-43925710D02*
X45185379Y-43940831D01*
X45231311Y-43965382D01*
X45271574Y-43998426D01*
X45304618Y-44038689D01*
X45329169Y-44084621D01*
X45344290Y-44134470D01*
X45350000Y-44192444D01*
X45350000Y-45197556D01*
X45344290Y-45255530D01*
X45329169Y-45305379D01*
X45304618Y-45351311D01*
X45271574Y-45391574D01*
X45231311Y-45424618D01*
X45185379Y-45449169D01*
X45135530Y-45464290D01*
X45077556Y-45470000D01*
X43822444Y-45470000D01*
X43764470Y-45464290D01*
X43714621Y-45449169D01*
X43668689Y-45424618D01*
X43628426Y-45391574D01*
X43595382Y-45351311D01*
X43570831Y-45305379D01*
X43555710Y-45255530D01*
X43550000Y-45197556D01*
X43550000Y-44192444D01*
X43555710Y-44134470D01*
X43570831Y-44084621D01*
X43595382Y-44038689D01*
X43628426Y-43998426D01*
X43668689Y-43965382D01*
X43714621Y-43940831D01*
X43764470Y-43925710D01*
X43822444Y-43920000D01*
X45077556Y-43920000D01*
X45135530Y-43925710D01*
X45135530Y-43925710D01*
G37*
G36*
X60655000Y-44925000D02*
X58505000Y-44925000D01*
X58505000Y-43975000D01*
X60655000Y-43975000D01*
X60655000Y-44925000D01*
X60655000Y-44925000D01*
G37*
G36*
X53255000Y-44925000D02*
X51105000Y-44925000D01*
X51105000Y-43975000D01*
X53255000Y-43975000D01*
X53255000Y-44925000D01*
X53255000Y-44925000D01*
G37*
G36*
X16975000Y-44280000D02*
X14775000Y-44280000D01*
X14775000Y-42080000D01*
X16975000Y-42080000D01*
X16975000Y-44280000D01*
X16975000Y-44280000D01*
G37*
G36*
X23710639Y-42095916D02*
X23917986Y-42158815D01*
X23917988Y-42158816D01*
X24109084Y-42260958D01*
X24276581Y-42398419D01*
X24414042Y-42565916D01*
X24516184Y-42757012D01*
X24579084Y-42964362D01*
X24600322Y-43180000D01*
X24579084Y-43395638D01*
X24516184Y-43602988D01*
X24414042Y-43794084D01*
X24276581Y-43961581D01*
X24109084Y-44099042D01*
X23917988Y-44201184D01*
X23917986Y-44201185D01*
X23710639Y-44264084D01*
X23549038Y-44280000D01*
X23440962Y-44280000D01*
X23279361Y-44264084D01*
X23072014Y-44201185D01*
X23072012Y-44201184D01*
X22880916Y-44099042D01*
X22713419Y-43961581D01*
X22575958Y-43794084D01*
X22473816Y-43602988D01*
X22410916Y-43395638D01*
X22389678Y-43180000D01*
X22410916Y-42964362D01*
X22473816Y-42757012D01*
X22575958Y-42565916D01*
X22713419Y-42398419D01*
X22880916Y-42260958D01*
X23072012Y-42158816D01*
X23072014Y-42158815D01*
X23279361Y-42095916D01*
X23440962Y-42080000D01*
X23549038Y-42080000D01*
X23710639Y-42095916D01*
X23710639Y-42095916D01*
G37*
G36*
X27355530Y-38990710D02*
X27405379Y-39005831D01*
X27451311Y-39030382D01*
X27491574Y-39063426D01*
X27524618Y-39103689D01*
X27549169Y-39149621D01*
X27564290Y-39199470D01*
X27570000Y-39257444D01*
X27570000Y-40262556D01*
X27564290Y-40320530D01*
X27549169Y-40370379D01*
X27524618Y-40416311D01*
X27491574Y-40456574D01*
X27451311Y-40489618D01*
X27405379Y-40514169D01*
X27355530Y-40529290D01*
X27297556Y-40535000D01*
X26042444Y-40535000D01*
X25984470Y-40529290D01*
X25934621Y-40514169D01*
X25888689Y-40489618D01*
X25848426Y-40456574D01*
X25815382Y-40416311D01*
X25790831Y-40370379D01*
X25775710Y-40320530D01*
X25770000Y-40262556D01*
X25770000Y-39257444D01*
X25775710Y-39199470D01*
X25790831Y-39149621D01*
X25815382Y-39103689D01*
X25848426Y-39063426D01*
X25888689Y-39030382D01*
X25934621Y-39005831D01*
X25984470Y-38990710D01*
X26042444Y-38985000D01*
X27297556Y-38985000D01*
X27355530Y-38990710D01*
X27355530Y-38990710D01*
G37*
G36*
X54738707Y-38327597D02*
X54815836Y-38335193D01*
X54947787Y-38375220D01*
X55013763Y-38395233D01*
X55196172Y-38492733D01*
X55356054Y-38623946D01*
X55487267Y-38783828D01*
X55584767Y-38966237D01*
X55592423Y-38991475D01*
X55644807Y-39164164D01*
X55665080Y-39370000D01*
X55644807Y-39575836D01*
X55604780Y-39707787D01*
X55584767Y-39773763D01*
X55487267Y-39956172D01*
X55356054Y-40116054D01*
X55196172Y-40247267D01*
X55013763Y-40344767D01*
X54947787Y-40364780D01*
X54815836Y-40404807D01*
X54738707Y-40412404D01*
X54661580Y-40420000D01*
X54558420Y-40420000D01*
X54481293Y-40412404D01*
X54404164Y-40404807D01*
X54272213Y-40364780D01*
X54206237Y-40344767D01*
X54023828Y-40247267D01*
X53863946Y-40116054D01*
X53732733Y-39956172D01*
X53635233Y-39773763D01*
X53615220Y-39707787D01*
X53575193Y-39575836D01*
X53554920Y-39370000D01*
X53575193Y-39164164D01*
X53627577Y-38991475D01*
X53635233Y-38966237D01*
X53732733Y-38783828D01*
X53863946Y-38623946D01*
X54023828Y-38492733D01*
X54206237Y-38395233D01*
X54272213Y-38375220D01*
X54404164Y-38335193D01*
X54481293Y-38327597D01*
X54558420Y-38320000D01*
X54661580Y-38320000D01*
X54738707Y-38327597D01*
X54738707Y-38327597D01*
G37*
G36*
X58200000Y-40420000D02*
X56100000Y-40420000D01*
X56100000Y-38320000D01*
X58200000Y-38320000D01*
X58200000Y-40420000D01*
X58200000Y-40420000D01*
G37*
G36*
X23400000Y-40080000D02*
X21000000Y-40080000D01*
X21000000Y-38180000D01*
X23400000Y-38180000D01*
X23400000Y-40080000D01*
X23400000Y-40080000D01*
G37*
G36*
X17100000Y-38930000D02*
X14700000Y-38930000D01*
X14700000Y-34730000D01*
X17100000Y-34730000D01*
X17100000Y-38930000D01*
X17100000Y-38930000D01*
G37*
G36*
X27355530Y-36940710D02*
X27405379Y-36955831D01*
X27451311Y-36980382D01*
X27491574Y-37013426D01*
X27524618Y-37053689D01*
X27549169Y-37099621D01*
X27564290Y-37149470D01*
X27570000Y-37207444D01*
X27570000Y-38212556D01*
X27564290Y-38270530D01*
X27549169Y-38320379D01*
X27524618Y-38366311D01*
X27491574Y-38406574D01*
X27451311Y-38439618D01*
X27405379Y-38464169D01*
X27355530Y-38479290D01*
X27297556Y-38485000D01*
X26042444Y-38485000D01*
X25984470Y-38479290D01*
X25934621Y-38464169D01*
X25888689Y-38439618D01*
X25848426Y-38406574D01*
X25815382Y-38366311D01*
X25790831Y-38320379D01*
X25775710Y-38270530D01*
X25770000Y-38212556D01*
X25770000Y-37207444D01*
X25775710Y-37149470D01*
X25790831Y-37099621D01*
X25815382Y-37053689D01*
X25848426Y-37013426D01*
X25888689Y-36980382D01*
X25934621Y-36955831D01*
X25984470Y-36940710D01*
X26042444Y-36935000D01*
X27297556Y-36935000D01*
X27355530Y-36940710D01*
X27355530Y-36940710D01*
G37*
G36*
X23400000Y-37780000D02*
X21000000Y-37780000D01*
X21000000Y-35880000D01*
X23400000Y-35880000D01*
X23400000Y-37780000D01*
X23400000Y-37780000D01*
G37*
G36*
X23400000Y-35480000D02*
X21000000Y-35480000D01*
X21000000Y-33580000D01*
X23400000Y-33580000D01*
X23400000Y-35480000D01*
X23400000Y-35480000D01*
G37*
G36*
X58200000Y-35340000D02*
X56100000Y-35340000D01*
X56100000Y-33240000D01*
X58200000Y-33240000D01*
X58200000Y-35340000D01*
X58200000Y-35340000D01*
G37*
G36*
X54738707Y-33247597D02*
X54815836Y-33255193D01*
X54933319Y-33290831D01*
X55013763Y-33315233D01*
X55196172Y-33412733D01*
X55356054Y-33543946D01*
X55487267Y-33703828D01*
X55584767Y-33886237D01*
X55584767Y-33886238D01*
X55644807Y-34084164D01*
X55665080Y-34290000D01*
X55644807Y-34495836D01*
X55629118Y-34547556D01*
X55584767Y-34693763D01*
X55487267Y-34876172D01*
X55356054Y-35036054D01*
X55196172Y-35167267D01*
X55013763Y-35264767D01*
X54947787Y-35284780D01*
X54815836Y-35324807D01*
X54738707Y-35332403D01*
X54661580Y-35340000D01*
X54558420Y-35340000D01*
X54481293Y-35332403D01*
X54404164Y-35324807D01*
X54272213Y-35284780D01*
X54206237Y-35264767D01*
X54023828Y-35167267D01*
X53863946Y-35036054D01*
X53732733Y-34876172D01*
X53635233Y-34693763D01*
X53590882Y-34547556D01*
X53575193Y-34495836D01*
X53554920Y-34290000D01*
X53575193Y-34084164D01*
X53635233Y-33886238D01*
X53635233Y-33886237D01*
X53732733Y-33703828D01*
X53863946Y-33543946D01*
X54023828Y-33412733D01*
X54206237Y-33315233D01*
X54286681Y-33290831D01*
X54404164Y-33255193D01*
X54481293Y-33247597D01*
X54558420Y-33240000D01*
X54661580Y-33240000D01*
X54738707Y-33247597D01*
X54738707Y-33247597D01*
G37*
G36*
X50480530Y-33395710D02*
X50530379Y-33410831D01*
X50576311Y-33435382D01*
X50616574Y-33468426D01*
X50649618Y-33508689D01*
X50674169Y-33554621D01*
X50689290Y-33604470D01*
X50695000Y-33662444D01*
X50695000Y-34917556D01*
X50689290Y-34975530D01*
X50674169Y-35025379D01*
X50649618Y-35071311D01*
X50616574Y-35111574D01*
X50576311Y-35144618D01*
X50530379Y-35169169D01*
X50480530Y-35184290D01*
X50422556Y-35190000D01*
X49417444Y-35190000D01*
X49359470Y-35184290D01*
X49309621Y-35169169D01*
X49263689Y-35144618D01*
X49223426Y-35111574D01*
X49190382Y-35071311D01*
X49165831Y-35025379D01*
X49150710Y-34975530D01*
X49145000Y-34917556D01*
X49145000Y-33662444D01*
X49150710Y-33604470D01*
X49165831Y-33554621D01*
X49190382Y-33508689D01*
X49223426Y-33468426D01*
X49263689Y-33435382D01*
X49309621Y-33410831D01*
X49359470Y-33395710D01*
X49417444Y-33390000D01*
X50422556Y-33390000D01*
X50480530Y-33395710D01*
X50480530Y-33395710D01*
G37*
G36*
X48430530Y-33395710D02*
X48480379Y-33410831D01*
X48526311Y-33435382D01*
X48566574Y-33468426D01*
X48599618Y-33508689D01*
X48624169Y-33554621D01*
X48639290Y-33604470D01*
X48645000Y-33662444D01*
X48645000Y-34917556D01*
X48639290Y-34975530D01*
X48624169Y-35025379D01*
X48599618Y-35071311D01*
X48566574Y-35111574D01*
X48526311Y-35144618D01*
X48480379Y-35169169D01*
X48430530Y-35184290D01*
X48372556Y-35190000D01*
X47367444Y-35190000D01*
X47309470Y-35184290D01*
X47259621Y-35169169D01*
X47213689Y-35144618D01*
X47173426Y-35111574D01*
X47140382Y-35071311D01*
X47115831Y-35025379D01*
X47100710Y-34975530D01*
X47095000Y-34917556D01*
X47095000Y-33662444D01*
X47100710Y-33604470D01*
X47115831Y-33554621D01*
X47140382Y-33508689D01*
X47173426Y-33468426D01*
X47213689Y-33435382D01*
X47259621Y-33410831D01*
X47309470Y-33395710D01*
X47367444Y-33390000D01*
X48372556Y-33390000D01*
X48430530Y-33395710D01*
X48430530Y-33395710D01*
G37*
G36*
X27355530Y-33275710D02*
X27405379Y-33290831D01*
X27451311Y-33315382D01*
X27491574Y-33348426D01*
X27524618Y-33388689D01*
X27549169Y-33434621D01*
X27564290Y-33484470D01*
X27570000Y-33542444D01*
X27570000Y-34547556D01*
X27564290Y-34605530D01*
X27549169Y-34655379D01*
X27524618Y-34701311D01*
X27491574Y-34741574D01*
X27451311Y-34774618D01*
X27405379Y-34799169D01*
X27355530Y-34814290D01*
X27297556Y-34820000D01*
X26042444Y-34820000D01*
X25984470Y-34814290D01*
X25934621Y-34799169D01*
X25888689Y-34774618D01*
X25848426Y-34741574D01*
X25815382Y-34701311D01*
X25790831Y-34655379D01*
X25775710Y-34605530D01*
X25770000Y-34547556D01*
X25770000Y-33542444D01*
X25775710Y-33484470D01*
X25790831Y-33434621D01*
X25815382Y-33388689D01*
X25848426Y-33348426D01*
X25888689Y-33315382D01*
X25934621Y-33290831D01*
X25984470Y-33275710D01*
X26042444Y-33270000D01*
X27297556Y-33270000D01*
X27355530Y-33275710D01*
X27355530Y-33275710D01*
G37*
G36*
X27355530Y-31225710D02*
X27405379Y-31240831D01*
X27451311Y-31265382D01*
X27491574Y-31298426D01*
X27524618Y-31338689D01*
X27549169Y-31384621D01*
X27564290Y-31434470D01*
X27570000Y-31492444D01*
X27570000Y-32497556D01*
X27564290Y-32555530D01*
X27549169Y-32605379D01*
X27524618Y-32651311D01*
X27491574Y-32691574D01*
X27451311Y-32724618D01*
X27405379Y-32749169D01*
X27355530Y-32764290D01*
X27297556Y-32770000D01*
X26042444Y-32770000D01*
X25984470Y-32764290D01*
X25934621Y-32749169D01*
X25888689Y-32724618D01*
X25848426Y-32691574D01*
X25815382Y-32651311D01*
X25790831Y-32605379D01*
X25775710Y-32555530D01*
X25770000Y-32497556D01*
X25770000Y-31492444D01*
X25775710Y-31434470D01*
X25790831Y-31384621D01*
X25815382Y-31338689D01*
X25848426Y-31298426D01*
X25888689Y-31265382D01*
X25934621Y-31240831D01*
X25984470Y-31225710D01*
X26042444Y-31220000D01*
X27297556Y-31220000D01*
X27355530Y-31225710D01*
X27355530Y-31225710D01*
G37*
G36*
X48430530Y-30220710D02*
X48480379Y-30235831D01*
X48526311Y-30260382D01*
X48566574Y-30293426D01*
X48599618Y-30333689D01*
X48624169Y-30379621D01*
X48639290Y-30429470D01*
X48645000Y-30487444D01*
X48645000Y-31742556D01*
X48639290Y-31800530D01*
X48624169Y-31850379D01*
X48599618Y-31896311D01*
X48566574Y-31936574D01*
X48526311Y-31969618D01*
X48480379Y-31994169D01*
X48430530Y-32009290D01*
X48372556Y-32015000D01*
X47367444Y-32015000D01*
X47309470Y-32009290D01*
X47259621Y-31994169D01*
X47213689Y-31969618D01*
X47173426Y-31936574D01*
X47140382Y-31896311D01*
X47115831Y-31850379D01*
X47100710Y-31800530D01*
X47095000Y-31742556D01*
X47095000Y-30487444D01*
X47100710Y-30429470D01*
X47115831Y-30379621D01*
X47140382Y-30333689D01*
X47173426Y-30293426D01*
X47213689Y-30260382D01*
X47259621Y-30235831D01*
X47309470Y-30220710D01*
X47367444Y-30215000D01*
X48372556Y-30215000D01*
X48430530Y-30220710D01*
X48430530Y-30220710D01*
G37*
G36*
X50480530Y-30220710D02*
X50530379Y-30235831D01*
X50576311Y-30260382D01*
X50616574Y-30293426D01*
X50649618Y-30333689D01*
X50674169Y-30379621D01*
X50689290Y-30429470D01*
X50695000Y-30487444D01*
X50695000Y-31742556D01*
X50689290Y-31800530D01*
X50674169Y-31850379D01*
X50649618Y-31896311D01*
X50616574Y-31936574D01*
X50576311Y-31969618D01*
X50530379Y-31994169D01*
X50480530Y-32009290D01*
X50422556Y-32015000D01*
X49417444Y-32015000D01*
X49359470Y-32009290D01*
X49309621Y-31994169D01*
X49263689Y-31969618D01*
X49223426Y-31936574D01*
X49190382Y-31896311D01*
X49165831Y-31850379D01*
X49150710Y-31800530D01*
X49145000Y-31742556D01*
X49145000Y-30487444D01*
X49150710Y-30429470D01*
X49165831Y-30379621D01*
X49190382Y-30333689D01*
X49223426Y-30293426D01*
X49263689Y-30260382D01*
X49309621Y-30235831D01*
X49359470Y-30220710D01*
X49417444Y-30215000D01*
X50422556Y-30215000D01*
X50480530Y-30220710D01*
X50480530Y-30220710D01*
G37*
G36*
X38479196Y-29337958D02*
X38715780Y-29435954D01*
X38928705Y-29578226D01*
X39109774Y-29759295D01*
X39252046Y-29972220D01*
X39350042Y-30208804D01*
X39400000Y-30459960D01*
X39400000Y-30716040D01*
X39350042Y-30967196D01*
X39252046Y-31203780D01*
X39109774Y-31416705D01*
X38928705Y-31597774D01*
X38715780Y-31740046D01*
X38479196Y-31838042D01*
X38228040Y-31888000D01*
X37971960Y-31888000D01*
X37720804Y-31838042D01*
X37484220Y-31740046D01*
X37271295Y-31597774D01*
X37090226Y-31416705D01*
X36947954Y-31203780D01*
X36849958Y-30967196D01*
X36800000Y-30716040D01*
X36800000Y-30459960D01*
X36849958Y-30208804D01*
X36947954Y-29972220D01*
X37090226Y-29759295D01*
X37271295Y-29578226D01*
X37484220Y-29435954D01*
X37720804Y-29337958D01*
X37971960Y-29288000D01*
X38228040Y-29288000D01*
X38479196Y-29337958D01*
X38479196Y-29337958D01*
G37*
G36*
X58548707Y-25627597D02*
X58625836Y-25635193D01*
X58757787Y-25675220D01*
X58823763Y-25695233D01*
X59006172Y-25792733D01*
X59166054Y-25923946D01*
X59297267Y-26083828D01*
X59394767Y-26266237D01*
X59394767Y-26266238D01*
X59454807Y-26464164D01*
X59475080Y-26670000D01*
X59454807Y-26875836D01*
X59414780Y-27007787D01*
X59394767Y-27073763D01*
X59297267Y-27256172D01*
X59166054Y-27416054D01*
X59006172Y-27547267D01*
X58823763Y-27644767D01*
X58757787Y-27664780D01*
X58625836Y-27704807D01*
X58548707Y-27712404D01*
X58471580Y-27720000D01*
X58368420Y-27720000D01*
X58291293Y-27712404D01*
X58214164Y-27704807D01*
X58082213Y-27664780D01*
X58016237Y-27644767D01*
X57833828Y-27547267D01*
X57673946Y-27416054D01*
X57542733Y-27256172D01*
X57445233Y-27073763D01*
X57425220Y-27007787D01*
X57385193Y-26875836D01*
X57364920Y-26670000D01*
X57385193Y-26464164D01*
X57445233Y-26266238D01*
X57445233Y-26266237D01*
X57542733Y-26083828D01*
X57673946Y-25923946D01*
X57833828Y-25792733D01*
X58016237Y-25695233D01*
X58082213Y-25675220D01*
X58214164Y-25635193D01*
X58291293Y-25627596D01*
X58368420Y-25620000D01*
X58471580Y-25620000D01*
X58548707Y-25627597D01*
X58548707Y-25627597D01*
G37*
G36*
X56008707Y-25627597D02*
X56085836Y-25635193D01*
X56217787Y-25675220D01*
X56283763Y-25695233D01*
X56466172Y-25792733D01*
X56626054Y-25923946D01*
X56757267Y-26083828D01*
X56854767Y-26266237D01*
X56854767Y-26266238D01*
X56914807Y-26464164D01*
X56935080Y-26670000D01*
X56914807Y-26875836D01*
X56874780Y-27007787D01*
X56854767Y-27073763D01*
X56757267Y-27256172D01*
X56626054Y-27416054D01*
X56466172Y-27547267D01*
X56283763Y-27644767D01*
X56217787Y-27664780D01*
X56085836Y-27704807D01*
X56008707Y-27712404D01*
X55931580Y-27720000D01*
X55828420Y-27720000D01*
X55751293Y-27712404D01*
X55674164Y-27704807D01*
X55542213Y-27664780D01*
X55476237Y-27644767D01*
X55293828Y-27547267D01*
X55133946Y-27416054D01*
X55002733Y-27256172D01*
X54905233Y-27073763D01*
X54885220Y-27007787D01*
X54845193Y-26875836D01*
X54824920Y-26670000D01*
X54845193Y-26464164D01*
X54905233Y-26266238D01*
X54905233Y-26266237D01*
X55002733Y-26083828D01*
X55133946Y-25923946D01*
X55293828Y-25792733D01*
X55476237Y-25695233D01*
X55542213Y-25675220D01*
X55674164Y-25635193D01*
X55751293Y-25627596D01*
X55828420Y-25620000D01*
X55931580Y-25620000D01*
X56008707Y-25627597D01*
X56008707Y-25627597D01*
G37*
G36*
X54390000Y-27720000D02*
X52290000Y-27720000D01*
X52290000Y-25620000D01*
X54390000Y-25620000D01*
X54390000Y-27720000D01*
X54390000Y-27720000D01*
G37*
G36*
X36958707Y-18261597D02*
X37035836Y-18269193D01*
X37167787Y-18309220D01*
X37233763Y-18329233D01*
X37416172Y-18426733D01*
X37576054Y-18557946D01*
X37707267Y-18717828D01*
X37804767Y-18900237D01*
X37804767Y-18900238D01*
X37864807Y-19098164D01*
X37885080Y-19304000D01*
X37864807Y-19509836D01*
X37824780Y-19641787D01*
X37804767Y-19707763D01*
X37707267Y-19890172D01*
X37576054Y-20050054D01*
X37416172Y-20181267D01*
X37233763Y-20278767D01*
X37167787Y-20298780D01*
X37035836Y-20338807D01*
X36958707Y-20346404D01*
X36881580Y-20354000D01*
X36778420Y-20354000D01*
X36701293Y-20346404D01*
X36624164Y-20338807D01*
X36492213Y-20298780D01*
X36426237Y-20278767D01*
X36243828Y-20181267D01*
X36083946Y-20050054D01*
X35952733Y-19890172D01*
X35855233Y-19707763D01*
X35835220Y-19641787D01*
X35795193Y-19509836D01*
X35774920Y-19304000D01*
X35795193Y-19098164D01*
X35855233Y-18900238D01*
X35855233Y-18900237D01*
X35952733Y-18717828D01*
X36083946Y-18557946D01*
X36243828Y-18426733D01*
X36426237Y-18329233D01*
X36492213Y-18309220D01*
X36624164Y-18269193D01*
X36701293Y-18261597D01*
X36778420Y-18254000D01*
X36881580Y-18254000D01*
X36958707Y-18261597D01*
X36958707Y-18261597D01*
G37*
G36*
X42960000Y-20354000D02*
X40860000Y-20354000D01*
X40860000Y-18254000D01*
X42960000Y-18254000D01*
X42960000Y-20354000D01*
X42960000Y-20354000D01*
G37*
G36*
X39498707Y-18261597D02*
X39575836Y-18269193D01*
X39707787Y-18309220D01*
X39773763Y-18329233D01*
X39956172Y-18426733D01*
X40116054Y-18557946D01*
X40247267Y-18717828D01*
X40344767Y-18900237D01*
X40344767Y-18900238D01*
X40404807Y-19098164D01*
X40425080Y-19304000D01*
X40404807Y-19509836D01*
X40364780Y-19641787D01*
X40344767Y-19707763D01*
X40247267Y-19890172D01*
X40116054Y-20050054D01*
X39956172Y-20181267D01*
X39773763Y-20278767D01*
X39707787Y-20298780D01*
X39575836Y-20338807D01*
X39498707Y-20346404D01*
X39421580Y-20354000D01*
X39318420Y-20354000D01*
X39241293Y-20346404D01*
X39164164Y-20338807D01*
X39032213Y-20298780D01*
X38966237Y-20278767D01*
X38783828Y-20181267D01*
X38623946Y-20050054D01*
X38492733Y-19890172D01*
X38395233Y-19707763D01*
X38375220Y-19641787D01*
X38335193Y-19509836D01*
X38314920Y-19304000D01*
X38335193Y-19098164D01*
X38395233Y-18900238D01*
X38395233Y-18900237D01*
X38492733Y-18717828D01*
X38623946Y-18557946D01*
X38783828Y-18426733D01*
X38966237Y-18329233D01*
X39032213Y-18309220D01*
X39164164Y-18269193D01*
X39241293Y-18261597D01*
X39318420Y-18254000D01*
X39421580Y-18254000D01*
X39498707Y-18261597D01*
X39498707Y-18261597D01*
G37*
G36*
X34418707Y-18261597D02*
X34495836Y-18269193D01*
X34627787Y-18309220D01*
X34693763Y-18329233D01*
X34876172Y-18426733D01*
X35036054Y-18557946D01*
X35167267Y-18717828D01*
X35264767Y-18900237D01*
X35264767Y-18900238D01*
X35324807Y-19098164D01*
X35345080Y-19304000D01*
X35324807Y-19509836D01*
X35284780Y-19641787D01*
X35264767Y-19707763D01*
X35167267Y-19890172D01*
X35036054Y-20050054D01*
X34876172Y-20181267D01*
X34693763Y-20278767D01*
X34627787Y-20298780D01*
X34495836Y-20338807D01*
X34418707Y-20346404D01*
X34341580Y-20354000D01*
X34238420Y-20354000D01*
X34161293Y-20346404D01*
X34084164Y-20338807D01*
X33952213Y-20298780D01*
X33886237Y-20278767D01*
X33703828Y-20181267D01*
X33543946Y-20050054D01*
X33412733Y-19890172D01*
X33315233Y-19707763D01*
X33295220Y-19641787D01*
X33255193Y-19509836D01*
X33234920Y-19304000D01*
X33255193Y-19098164D01*
X33315233Y-18900238D01*
X33315233Y-18900237D01*
X33412733Y-18717828D01*
X33543946Y-18557946D01*
X33703828Y-18426733D01*
X33886237Y-18329233D01*
X33952213Y-18309220D01*
X34084164Y-18269193D01*
X34161293Y-18261597D01*
X34238420Y-18254000D01*
X34341580Y-18254000D01*
X34418707Y-18261597D01*
X34418707Y-18261597D01*
G37*
G36*
X42960000Y-16798000D02*
X40860000Y-16798000D01*
X40860000Y-14698000D01*
X42960000Y-14698000D01*
X42960000Y-16798000D01*
X42960000Y-16798000D01*
G37*
G36*
X39498707Y-14705596D02*
X39575836Y-14713193D01*
X39707787Y-14753220D01*
X39773763Y-14773233D01*
X39956172Y-14870733D01*
X40116054Y-15001946D01*
X40247267Y-15161828D01*
X40344767Y-15344237D01*
X40344767Y-15344238D01*
X40404807Y-15542164D01*
X40425080Y-15748000D01*
X40404807Y-15953836D01*
X40364780Y-16085787D01*
X40344767Y-16151763D01*
X40247267Y-16334172D01*
X40116054Y-16494054D01*
X39956172Y-16625267D01*
X39773763Y-16722767D01*
X39707787Y-16742780D01*
X39575836Y-16782807D01*
X39498707Y-16790404D01*
X39421580Y-16798000D01*
X39318420Y-16798000D01*
X39241293Y-16790404D01*
X39164164Y-16782807D01*
X39032213Y-16742780D01*
X38966237Y-16722767D01*
X38783828Y-16625267D01*
X38623946Y-16494054D01*
X38492733Y-16334172D01*
X38395233Y-16151763D01*
X38375220Y-16085787D01*
X38335193Y-15953836D01*
X38314920Y-15748000D01*
X38335193Y-15542164D01*
X38395233Y-15344238D01*
X38395233Y-15344237D01*
X38492733Y-15161828D01*
X38623946Y-15001946D01*
X38783828Y-14870733D01*
X38966237Y-14773233D01*
X39032213Y-14753220D01*
X39164164Y-14713193D01*
X39241293Y-14705596D01*
X39318420Y-14698000D01*
X39421580Y-14698000D01*
X39498707Y-14705596D01*
X39498707Y-14705596D01*
G37*
G36*
X36958707Y-14705596D02*
X37035836Y-14713193D01*
X37167787Y-14753220D01*
X37233763Y-14773233D01*
X37416172Y-14870733D01*
X37576054Y-15001946D01*
X37707267Y-15161828D01*
X37804767Y-15344237D01*
X37804767Y-15344238D01*
X37864807Y-15542164D01*
X37885080Y-15748000D01*
X37864807Y-15953836D01*
X37824780Y-16085787D01*
X37804767Y-16151763D01*
X37707267Y-16334172D01*
X37576054Y-16494054D01*
X37416172Y-16625267D01*
X37233763Y-16722767D01*
X37167787Y-16742780D01*
X37035836Y-16782807D01*
X36958707Y-16790404D01*
X36881580Y-16798000D01*
X36778420Y-16798000D01*
X36701293Y-16790404D01*
X36624164Y-16782807D01*
X36492213Y-16742780D01*
X36426237Y-16722767D01*
X36243828Y-16625267D01*
X36083946Y-16494054D01*
X35952733Y-16334172D01*
X35855233Y-16151763D01*
X35835220Y-16085787D01*
X35795193Y-15953836D01*
X35774920Y-15748000D01*
X35795193Y-15542164D01*
X35855233Y-15344238D01*
X35855233Y-15344237D01*
X35952733Y-15161828D01*
X36083946Y-15001946D01*
X36243828Y-14870733D01*
X36426237Y-14773233D01*
X36492213Y-14753220D01*
X36624164Y-14713193D01*
X36701293Y-14705596D01*
X36778420Y-14698000D01*
X36881580Y-14698000D01*
X36958707Y-14705596D01*
X36958707Y-14705596D01*
G37*
G36*
X34418707Y-14705596D02*
X34495836Y-14713193D01*
X34627787Y-14753220D01*
X34693763Y-14773233D01*
X34876172Y-14870733D01*
X35036054Y-15001946D01*
X35167267Y-15161828D01*
X35264767Y-15344237D01*
X35264767Y-15344238D01*
X35324807Y-15542164D01*
X35345080Y-15748000D01*
X35324807Y-15953836D01*
X35284780Y-16085787D01*
X35264767Y-16151763D01*
X35167267Y-16334172D01*
X35036054Y-16494054D01*
X34876172Y-16625267D01*
X34693763Y-16722767D01*
X34627787Y-16742780D01*
X34495836Y-16782807D01*
X34418707Y-16790404D01*
X34341580Y-16798000D01*
X34238420Y-16798000D01*
X34161293Y-16790404D01*
X34084164Y-16782807D01*
X33952213Y-16742780D01*
X33886237Y-16722767D01*
X33703828Y-16625267D01*
X33543946Y-16494054D01*
X33412733Y-16334172D01*
X33315233Y-16151763D01*
X33295220Y-16085787D01*
X33255193Y-15953836D01*
X33234920Y-15748000D01*
X33255193Y-15542164D01*
X33315233Y-15344238D01*
X33315233Y-15344237D01*
X33412733Y-15161828D01*
X33543946Y-15001946D01*
X33703828Y-14870733D01*
X33886237Y-14773233D01*
X33952213Y-14753220D01*
X34084164Y-14713193D01*
X34161293Y-14705596D01*
X34238420Y-14698000D01*
X34341580Y-14698000D01*
X34418707Y-14705596D01*
X34418707Y-14705596D01*
G37*
M02*
