M48
;DRILL file {KiCad (5.0.2)-1} date 05/02/2019 11:41:42
;FORMAT={-:-/ absolute / inch / decimal}
FMAT,2
INCH,TZ
T1C0.0157
T2C0.0236
T3C0.0354
T4C0.0394
T5C0.0598
%
G90
G05
T1
X0.575Y-1.95
X1.125Y-1.075
X1.85Y-1.5
X1.875Y-1.55
X1.95Y-1.05
X1.95Y-1.5
T2
X0.85Y-1.95
X0.9287Y-1.95
X0.65Y-1.95
X0.7287Y-1.95
T3
X0.625Y-1.7
X0.925Y-1.7
T4
X1.35Y-0.76
X1.45Y-0.76
X1.55Y-0.76
X1.65Y-0.76
X1.35Y-0.62
X1.45Y-0.62
X1.55Y-0.62
X1.65Y-0.62
X2.15Y-1.55
X2.25Y-1.55
X1.1Y-1.95
X1.2Y-1.95
X1.3Y-1.95
X2.1Y-1.05
X2.2Y-1.05
X2.3Y-1.05
X2.15Y-1.35
X2.25Y-1.35
T5
X1.2Y-2.3
X1.4Y-2.3
X1.6Y-2.3
X1.8Y-2.3
T0
M30
