G04 #@! TF.GenerationSoftware,KiCad,Pcbnew,(5.0.2)-1*
G04 #@! TF.CreationDate,2019-02-05T11:41:40+01:00*
G04 #@! TF.ProjectId,SensorPCB_V1.2,53656e73-6f72-4504-9342-5f56312e322e,rev?*
G04 #@! TF.SameCoordinates,Original*
G04 #@! TF.FileFunction,Paste,Top*
G04 #@! TF.FilePolarity,Positive*
%FSLAX46Y46*%
G04 Gerber Fmt 4.6, Leading zero omitted, Abs format (unit mm)*
G04 Created by KiCad (PCBNEW (5.0.2)-1) date 05/02/2019 11:41:40*
%MOMM*%
%LPD*%
G01*
G04 APERTURE LIST*
%ADD10C,0.100000*%
%ADD11C,1.150000*%
%ADD12R,1.750000X0.550000*%
%ADD13R,2.000000X3.800000*%
%ADD14R,2.000000X1.500000*%
G04 APERTURE END LIST*
D10*
G04 #@! TO.C,C2*
G36*
X27144505Y-31421204D02*
X27168773Y-31424804D01*
X27192572Y-31430765D01*
X27215671Y-31439030D01*
X27237850Y-31449520D01*
X27258893Y-31462132D01*
X27278599Y-31476747D01*
X27296777Y-31493223D01*
X27313253Y-31511401D01*
X27327868Y-31531107D01*
X27340480Y-31552150D01*
X27350970Y-31574329D01*
X27359235Y-31597428D01*
X27365196Y-31621227D01*
X27368796Y-31645495D01*
X27370000Y-31669999D01*
X27370000Y-32320001D01*
X27368796Y-32344505D01*
X27365196Y-32368773D01*
X27359235Y-32392572D01*
X27350970Y-32415671D01*
X27340480Y-32437850D01*
X27327868Y-32458893D01*
X27313253Y-32478599D01*
X27296777Y-32496777D01*
X27278599Y-32513253D01*
X27258893Y-32527868D01*
X27237850Y-32540480D01*
X27215671Y-32550970D01*
X27192572Y-32559235D01*
X27168773Y-32565196D01*
X27144505Y-32568796D01*
X27120001Y-32570000D01*
X26219999Y-32570000D01*
X26195495Y-32568796D01*
X26171227Y-32565196D01*
X26147428Y-32559235D01*
X26124329Y-32550970D01*
X26102150Y-32540480D01*
X26081107Y-32527868D01*
X26061401Y-32513253D01*
X26043223Y-32496777D01*
X26026747Y-32478599D01*
X26012132Y-32458893D01*
X25999520Y-32437850D01*
X25989030Y-32415671D01*
X25980765Y-32392572D01*
X25974804Y-32368773D01*
X25971204Y-32344505D01*
X25970000Y-32320001D01*
X25970000Y-31669999D01*
X25971204Y-31645495D01*
X25974804Y-31621227D01*
X25980765Y-31597428D01*
X25989030Y-31574329D01*
X25999520Y-31552150D01*
X26012132Y-31531107D01*
X26026747Y-31511401D01*
X26043223Y-31493223D01*
X26061401Y-31476747D01*
X26081107Y-31462132D01*
X26102150Y-31449520D01*
X26124329Y-31439030D01*
X26147428Y-31430765D01*
X26171227Y-31424804D01*
X26195495Y-31421204D01*
X26219999Y-31420000D01*
X27120001Y-31420000D01*
X27144505Y-31421204D01*
X27144505Y-31421204D01*
G37*
D11*
X26670000Y-31995000D03*
D10*
G36*
X27144505Y-33471204D02*
X27168773Y-33474804D01*
X27192572Y-33480765D01*
X27215671Y-33489030D01*
X27237850Y-33499520D01*
X27258893Y-33512132D01*
X27278599Y-33526747D01*
X27296777Y-33543223D01*
X27313253Y-33561401D01*
X27327868Y-33581107D01*
X27340480Y-33602150D01*
X27350970Y-33624329D01*
X27359235Y-33647428D01*
X27365196Y-33671227D01*
X27368796Y-33695495D01*
X27370000Y-33719999D01*
X27370000Y-34370001D01*
X27368796Y-34394505D01*
X27365196Y-34418773D01*
X27359235Y-34442572D01*
X27350970Y-34465671D01*
X27340480Y-34487850D01*
X27327868Y-34508893D01*
X27313253Y-34528599D01*
X27296777Y-34546777D01*
X27278599Y-34563253D01*
X27258893Y-34577868D01*
X27237850Y-34590480D01*
X27215671Y-34600970D01*
X27192572Y-34609235D01*
X27168773Y-34615196D01*
X27144505Y-34618796D01*
X27120001Y-34620000D01*
X26219999Y-34620000D01*
X26195495Y-34618796D01*
X26171227Y-34615196D01*
X26147428Y-34609235D01*
X26124329Y-34600970D01*
X26102150Y-34590480D01*
X26081107Y-34577868D01*
X26061401Y-34563253D01*
X26043223Y-34546777D01*
X26026747Y-34528599D01*
X26012132Y-34508893D01*
X25999520Y-34487850D01*
X25989030Y-34465671D01*
X25980765Y-34442572D01*
X25974804Y-34418773D01*
X25971204Y-34394505D01*
X25970000Y-34370001D01*
X25970000Y-33719999D01*
X25971204Y-33695495D01*
X25974804Y-33671227D01*
X25980765Y-33647428D01*
X25989030Y-33624329D01*
X25999520Y-33602150D01*
X26012132Y-33581107D01*
X26026747Y-33561401D01*
X26043223Y-33543223D01*
X26061401Y-33526747D01*
X26081107Y-33512132D01*
X26102150Y-33499520D01*
X26124329Y-33489030D01*
X26147428Y-33480765D01*
X26171227Y-33474804D01*
X26195495Y-33471204D01*
X26219999Y-33470000D01*
X27120001Y-33470000D01*
X27144505Y-33471204D01*
X27144505Y-33471204D01*
G37*
D11*
X26670000Y-34045000D03*
G04 #@! TD*
D12*
G04 #@! TO.C,U4*
X59580000Y-48260000D03*
X59580000Y-46990000D03*
X59580000Y-45720000D03*
X59580000Y-44450000D03*
X52180000Y-44450000D03*
X52180000Y-45720000D03*
X52180000Y-46990000D03*
X52180000Y-48260000D03*
G04 #@! TD*
D13*
G04 #@! TO.C,U3*
X15900000Y-36830000D03*
D14*
X22200000Y-36830000D03*
X22200000Y-34530000D03*
X22200000Y-39130000D03*
G04 #@! TD*
D10*
G04 #@! TO.C,R1*
G36*
X27144505Y-37136204D02*
X27168773Y-37139804D01*
X27192572Y-37145765D01*
X27215671Y-37154030D01*
X27237850Y-37164520D01*
X27258893Y-37177132D01*
X27278599Y-37191747D01*
X27296777Y-37208223D01*
X27313253Y-37226401D01*
X27327868Y-37246107D01*
X27340480Y-37267150D01*
X27350970Y-37289329D01*
X27359235Y-37312428D01*
X27365196Y-37336227D01*
X27368796Y-37360495D01*
X27370000Y-37384999D01*
X27370000Y-38035001D01*
X27368796Y-38059505D01*
X27365196Y-38083773D01*
X27359235Y-38107572D01*
X27350970Y-38130671D01*
X27340480Y-38152850D01*
X27327868Y-38173893D01*
X27313253Y-38193599D01*
X27296777Y-38211777D01*
X27278599Y-38228253D01*
X27258893Y-38242868D01*
X27237850Y-38255480D01*
X27215671Y-38265970D01*
X27192572Y-38274235D01*
X27168773Y-38280196D01*
X27144505Y-38283796D01*
X27120001Y-38285000D01*
X26219999Y-38285000D01*
X26195495Y-38283796D01*
X26171227Y-38280196D01*
X26147428Y-38274235D01*
X26124329Y-38265970D01*
X26102150Y-38255480D01*
X26081107Y-38242868D01*
X26061401Y-38228253D01*
X26043223Y-38211777D01*
X26026747Y-38193599D01*
X26012132Y-38173893D01*
X25999520Y-38152850D01*
X25989030Y-38130671D01*
X25980765Y-38107572D01*
X25974804Y-38083773D01*
X25971204Y-38059505D01*
X25970000Y-38035001D01*
X25970000Y-37384999D01*
X25971204Y-37360495D01*
X25974804Y-37336227D01*
X25980765Y-37312428D01*
X25989030Y-37289329D01*
X25999520Y-37267150D01*
X26012132Y-37246107D01*
X26026747Y-37226401D01*
X26043223Y-37208223D01*
X26061401Y-37191747D01*
X26081107Y-37177132D01*
X26102150Y-37164520D01*
X26124329Y-37154030D01*
X26147428Y-37145765D01*
X26171227Y-37139804D01*
X26195495Y-37136204D01*
X26219999Y-37135000D01*
X27120001Y-37135000D01*
X27144505Y-37136204D01*
X27144505Y-37136204D01*
G37*
D11*
X26670000Y-37710000D03*
D10*
G36*
X27144505Y-39186204D02*
X27168773Y-39189804D01*
X27192572Y-39195765D01*
X27215671Y-39204030D01*
X27237850Y-39214520D01*
X27258893Y-39227132D01*
X27278599Y-39241747D01*
X27296777Y-39258223D01*
X27313253Y-39276401D01*
X27327868Y-39296107D01*
X27340480Y-39317150D01*
X27350970Y-39339329D01*
X27359235Y-39362428D01*
X27365196Y-39386227D01*
X27368796Y-39410495D01*
X27370000Y-39434999D01*
X27370000Y-40085001D01*
X27368796Y-40109505D01*
X27365196Y-40133773D01*
X27359235Y-40157572D01*
X27350970Y-40180671D01*
X27340480Y-40202850D01*
X27327868Y-40223893D01*
X27313253Y-40243599D01*
X27296777Y-40261777D01*
X27278599Y-40278253D01*
X27258893Y-40292868D01*
X27237850Y-40305480D01*
X27215671Y-40315970D01*
X27192572Y-40324235D01*
X27168773Y-40330196D01*
X27144505Y-40333796D01*
X27120001Y-40335000D01*
X26219999Y-40335000D01*
X26195495Y-40333796D01*
X26171227Y-40330196D01*
X26147428Y-40324235D01*
X26124329Y-40315970D01*
X26102150Y-40305480D01*
X26081107Y-40292868D01*
X26061401Y-40278253D01*
X26043223Y-40261777D01*
X26026747Y-40243599D01*
X26012132Y-40223893D01*
X25999520Y-40202850D01*
X25989030Y-40180671D01*
X25980765Y-40157572D01*
X25974804Y-40133773D01*
X25971204Y-40109505D01*
X25970000Y-40085001D01*
X25970000Y-39434999D01*
X25971204Y-39410495D01*
X25974804Y-39386227D01*
X25980765Y-39362428D01*
X25989030Y-39339329D01*
X25999520Y-39317150D01*
X26012132Y-39296107D01*
X26026747Y-39276401D01*
X26043223Y-39258223D01*
X26061401Y-39241747D01*
X26081107Y-39227132D01*
X26102150Y-39214520D01*
X26124329Y-39204030D01*
X26147428Y-39195765D01*
X26171227Y-39189804D01*
X26195495Y-39186204D01*
X26219999Y-39185000D01*
X27120001Y-39185000D01*
X27144505Y-39186204D01*
X27144505Y-39186204D01*
G37*
D11*
X26670000Y-39760000D03*
G04 #@! TD*
D10*
G04 #@! TO.C,R2*
G36*
X48219505Y-33591204D02*
X48243773Y-33594804D01*
X48267572Y-33600765D01*
X48290671Y-33609030D01*
X48312850Y-33619520D01*
X48333893Y-33632132D01*
X48353599Y-33646747D01*
X48371777Y-33663223D01*
X48388253Y-33681401D01*
X48402868Y-33701107D01*
X48415480Y-33722150D01*
X48425970Y-33744329D01*
X48434235Y-33767428D01*
X48440196Y-33791227D01*
X48443796Y-33815495D01*
X48445000Y-33839999D01*
X48445000Y-34740001D01*
X48443796Y-34764505D01*
X48440196Y-34788773D01*
X48434235Y-34812572D01*
X48425970Y-34835671D01*
X48415480Y-34857850D01*
X48402868Y-34878893D01*
X48388253Y-34898599D01*
X48371777Y-34916777D01*
X48353599Y-34933253D01*
X48333893Y-34947868D01*
X48312850Y-34960480D01*
X48290671Y-34970970D01*
X48267572Y-34979235D01*
X48243773Y-34985196D01*
X48219505Y-34988796D01*
X48195001Y-34990000D01*
X47544999Y-34990000D01*
X47520495Y-34988796D01*
X47496227Y-34985196D01*
X47472428Y-34979235D01*
X47449329Y-34970970D01*
X47427150Y-34960480D01*
X47406107Y-34947868D01*
X47386401Y-34933253D01*
X47368223Y-34916777D01*
X47351747Y-34898599D01*
X47337132Y-34878893D01*
X47324520Y-34857850D01*
X47314030Y-34835671D01*
X47305765Y-34812572D01*
X47299804Y-34788773D01*
X47296204Y-34764505D01*
X47295000Y-34740001D01*
X47295000Y-33839999D01*
X47296204Y-33815495D01*
X47299804Y-33791227D01*
X47305765Y-33767428D01*
X47314030Y-33744329D01*
X47324520Y-33722150D01*
X47337132Y-33701107D01*
X47351747Y-33681401D01*
X47368223Y-33663223D01*
X47386401Y-33646747D01*
X47406107Y-33632132D01*
X47427150Y-33619520D01*
X47449329Y-33609030D01*
X47472428Y-33600765D01*
X47496227Y-33594804D01*
X47520495Y-33591204D01*
X47544999Y-33590000D01*
X48195001Y-33590000D01*
X48219505Y-33591204D01*
X48219505Y-33591204D01*
G37*
D11*
X47870000Y-34290000D03*
D10*
G36*
X50269505Y-33591204D02*
X50293773Y-33594804D01*
X50317572Y-33600765D01*
X50340671Y-33609030D01*
X50362850Y-33619520D01*
X50383893Y-33632132D01*
X50403599Y-33646747D01*
X50421777Y-33663223D01*
X50438253Y-33681401D01*
X50452868Y-33701107D01*
X50465480Y-33722150D01*
X50475970Y-33744329D01*
X50484235Y-33767428D01*
X50490196Y-33791227D01*
X50493796Y-33815495D01*
X50495000Y-33839999D01*
X50495000Y-34740001D01*
X50493796Y-34764505D01*
X50490196Y-34788773D01*
X50484235Y-34812572D01*
X50475970Y-34835671D01*
X50465480Y-34857850D01*
X50452868Y-34878893D01*
X50438253Y-34898599D01*
X50421777Y-34916777D01*
X50403599Y-34933253D01*
X50383893Y-34947868D01*
X50362850Y-34960480D01*
X50340671Y-34970970D01*
X50317572Y-34979235D01*
X50293773Y-34985196D01*
X50269505Y-34988796D01*
X50245001Y-34990000D01*
X49594999Y-34990000D01*
X49570495Y-34988796D01*
X49546227Y-34985196D01*
X49522428Y-34979235D01*
X49499329Y-34970970D01*
X49477150Y-34960480D01*
X49456107Y-34947868D01*
X49436401Y-34933253D01*
X49418223Y-34916777D01*
X49401747Y-34898599D01*
X49387132Y-34878893D01*
X49374520Y-34857850D01*
X49364030Y-34835671D01*
X49355765Y-34812572D01*
X49349804Y-34788773D01*
X49346204Y-34764505D01*
X49345000Y-34740001D01*
X49345000Y-33839999D01*
X49346204Y-33815495D01*
X49349804Y-33791227D01*
X49355765Y-33767428D01*
X49364030Y-33744329D01*
X49374520Y-33722150D01*
X49387132Y-33701107D01*
X49401747Y-33681401D01*
X49418223Y-33663223D01*
X49436401Y-33646747D01*
X49456107Y-33632132D01*
X49477150Y-33619520D01*
X49499329Y-33609030D01*
X49522428Y-33600765D01*
X49546227Y-33594804D01*
X49570495Y-33591204D01*
X49594999Y-33590000D01*
X50245001Y-33590000D01*
X50269505Y-33591204D01*
X50269505Y-33591204D01*
G37*
D11*
X49920000Y-34290000D03*
G04 #@! TD*
D10*
G04 #@! TO.C,R3*
G36*
X50269505Y-30416204D02*
X50293773Y-30419804D01*
X50317572Y-30425765D01*
X50340671Y-30434030D01*
X50362850Y-30444520D01*
X50383893Y-30457132D01*
X50403599Y-30471747D01*
X50421777Y-30488223D01*
X50438253Y-30506401D01*
X50452868Y-30526107D01*
X50465480Y-30547150D01*
X50475970Y-30569329D01*
X50484235Y-30592428D01*
X50490196Y-30616227D01*
X50493796Y-30640495D01*
X50495000Y-30664999D01*
X50495000Y-31565001D01*
X50493796Y-31589505D01*
X50490196Y-31613773D01*
X50484235Y-31637572D01*
X50475970Y-31660671D01*
X50465480Y-31682850D01*
X50452868Y-31703893D01*
X50438253Y-31723599D01*
X50421777Y-31741777D01*
X50403599Y-31758253D01*
X50383893Y-31772868D01*
X50362850Y-31785480D01*
X50340671Y-31795970D01*
X50317572Y-31804235D01*
X50293773Y-31810196D01*
X50269505Y-31813796D01*
X50245001Y-31815000D01*
X49594999Y-31815000D01*
X49570495Y-31813796D01*
X49546227Y-31810196D01*
X49522428Y-31804235D01*
X49499329Y-31795970D01*
X49477150Y-31785480D01*
X49456107Y-31772868D01*
X49436401Y-31758253D01*
X49418223Y-31741777D01*
X49401747Y-31723599D01*
X49387132Y-31703893D01*
X49374520Y-31682850D01*
X49364030Y-31660671D01*
X49355765Y-31637572D01*
X49349804Y-31613773D01*
X49346204Y-31589505D01*
X49345000Y-31565001D01*
X49345000Y-30664999D01*
X49346204Y-30640495D01*
X49349804Y-30616227D01*
X49355765Y-30592428D01*
X49364030Y-30569329D01*
X49374520Y-30547150D01*
X49387132Y-30526107D01*
X49401747Y-30506401D01*
X49418223Y-30488223D01*
X49436401Y-30471747D01*
X49456107Y-30457132D01*
X49477150Y-30444520D01*
X49499329Y-30434030D01*
X49522428Y-30425765D01*
X49546227Y-30419804D01*
X49570495Y-30416204D01*
X49594999Y-30415000D01*
X50245001Y-30415000D01*
X50269505Y-30416204D01*
X50269505Y-30416204D01*
G37*
D11*
X49920000Y-31115000D03*
D10*
G36*
X48219505Y-30416204D02*
X48243773Y-30419804D01*
X48267572Y-30425765D01*
X48290671Y-30434030D01*
X48312850Y-30444520D01*
X48333893Y-30457132D01*
X48353599Y-30471747D01*
X48371777Y-30488223D01*
X48388253Y-30506401D01*
X48402868Y-30526107D01*
X48415480Y-30547150D01*
X48425970Y-30569329D01*
X48434235Y-30592428D01*
X48440196Y-30616227D01*
X48443796Y-30640495D01*
X48445000Y-30664999D01*
X48445000Y-31565001D01*
X48443796Y-31589505D01*
X48440196Y-31613773D01*
X48434235Y-31637572D01*
X48425970Y-31660671D01*
X48415480Y-31682850D01*
X48402868Y-31703893D01*
X48388253Y-31723599D01*
X48371777Y-31741777D01*
X48353599Y-31758253D01*
X48333893Y-31772868D01*
X48312850Y-31785480D01*
X48290671Y-31795970D01*
X48267572Y-31804235D01*
X48243773Y-31810196D01*
X48219505Y-31813796D01*
X48195001Y-31815000D01*
X47544999Y-31815000D01*
X47520495Y-31813796D01*
X47496227Y-31810196D01*
X47472428Y-31804235D01*
X47449329Y-31795970D01*
X47427150Y-31785480D01*
X47406107Y-31772868D01*
X47386401Y-31758253D01*
X47368223Y-31741777D01*
X47351747Y-31723599D01*
X47337132Y-31703893D01*
X47324520Y-31682850D01*
X47314030Y-31660671D01*
X47305765Y-31637572D01*
X47299804Y-31613773D01*
X47296204Y-31589505D01*
X47295000Y-31565001D01*
X47295000Y-30664999D01*
X47296204Y-30640495D01*
X47299804Y-30616227D01*
X47305765Y-30592428D01*
X47314030Y-30569329D01*
X47324520Y-30547150D01*
X47337132Y-30526107D01*
X47351747Y-30506401D01*
X47368223Y-30488223D01*
X47386401Y-30471747D01*
X47406107Y-30457132D01*
X47427150Y-30444520D01*
X47449329Y-30434030D01*
X47472428Y-30425765D01*
X47496227Y-30419804D01*
X47520495Y-30416204D01*
X47544999Y-30415000D01*
X48195001Y-30415000D01*
X48219505Y-30416204D01*
X48219505Y-30416204D01*
G37*
D11*
X47870000Y-31115000D03*
G04 #@! TD*
D10*
G04 #@! TO.C,R4*
G36*
X44924505Y-46171204D02*
X44948773Y-46174804D01*
X44972572Y-46180765D01*
X44995671Y-46189030D01*
X45017850Y-46199520D01*
X45038893Y-46212132D01*
X45058599Y-46226747D01*
X45076777Y-46243223D01*
X45093253Y-46261401D01*
X45107868Y-46281107D01*
X45120480Y-46302150D01*
X45130970Y-46324329D01*
X45139235Y-46347428D01*
X45145196Y-46371227D01*
X45148796Y-46395495D01*
X45150000Y-46419999D01*
X45150000Y-47070001D01*
X45148796Y-47094505D01*
X45145196Y-47118773D01*
X45139235Y-47142572D01*
X45130970Y-47165671D01*
X45120480Y-47187850D01*
X45107868Y-47208893D01*
X45093253Y-47228599D01*
X45076777Y-47246777D01*
X45058599Y-47263253D01*
X45038893Y-47277868D01*
X45017850Y-47290480D01*
X44995671Y-47300970D01*
X44972572Y-47309235D01*
X44948773Y-47315196D01*
X44924505Y-47318796D01*
X44900001Y-47320000D01*
X43999999Y-47320000D01*
X43975495Y-47318796D01*
X43951227Y-47315196D01*
X43927428Y-47309235D01*
X43904329Y-47300970D01*
X43882150Y-47290480D01*
X43861107Y-47277868D01*
X43841401Y-47263253D01*
X43823223Y-47246777D01*
X43806747Y-47228599D01*
X43792132Y-47208893D01*
X43779520Y-47187850D01*
X43769030Y-47165671D01*
X43760765Y-47142572D01*
X43754804Y-47118773D01*
X43751204Y-47094505D01*
X43750000Y-47070001D01*
X43750000Y-46419999D01*
X43751204Y-46395495D01*
X43754804Y-46371227D01*
X43760765Y-46347428D01*
X43769030Y-46324329D01*
X43779520Y-46302150D01*
X43792132Y-46281107D01*
X43806747Y-46261401D01*
X43823223Y-46243223D01*
X43841401Y-46226747D01*
X43861107Y-46212132D01*
X43882150Y-46199520D01*
X43904329Y-46189030D01*
X43927428Y-46180765D01*
X43951227Y-46174804D01*
X43975495Y-46171204D01*
X43999999Y-46170000D01*
X44900001Y-46170000D01*
X44924505Y-46171204D01*
X44924505Y-46171204D01*
G37*
D11*
X44450000Y-46745000D03*
D10*
G36*
X44924505Y-44121204D02*
X44948773Y-44124804D01*
X44972572Y-44130765D01*
X44995671Y-44139030D01*
X45017850Y-44149520D01*
X45038893Y-44162132D01*
X45058599Y-44176747D01*
X45076777Y-44193223D01*
X45093253Y-44211401D01*
X45107868Y-44231107D01*
X45120480Y-44252150D01*
X45130970Y-44274329D01*
X45139235Y-44297428D01*
X45145196Y-44321227D01*
X45148796Y-44345495D01*
X45150000Y-44369999D01*
X45150000Y-45020001D01*
X45148796Y-45044505D01*
X45145196Y-45068773D01*
X45139235Y-45092572D01*
X45130970Y-45115671D01*
X45120480Y-45137850D01*
X45107868Y-45158893D01*
X45093253Y-45178599D01*
X45076777Y-45196777D01*
X45058599Y-45213253D01*
X45038893Y-45227868D01*
X45017850Y-45240480D01*
X44995671Y-45250970D01*
X44972572Y-45259235D01*
X44948773Y-45265196D01*
X44924505Y-45268796D01*
X44900001Y-45270000D01*
X43999999Y-45270000D01*
X43975495Y-45268796D01*
X43951227Y-45265196D01*
X43927428Y-45259235D01*
X43904329Y-45250970D01*
X43882150Y-45240480D01*
X43861107Y-45227868D01*
X43841401Y-45213253D01*
X43823223Y-45196777D01*
X43806747Y-45178599D01*
X43792132Y-45158893D01*
X43779520Y-45137850D01*
X43769030Y-45115671D01*
X43760765Y-45092572D01*
X43754804Y-45068773D01*
X43751204Y-45044505D01*
X43750000Y-45020001D01*
X43750000Y-44369999D01*
X43751204Y-44345495D01*
X43754804Y-44321227D01*
X43760765Y-44297428D01*
X43769030Y-44274329D01*
X43779520Y-44252150D01*
X43792132Y-44231107D01*
X43806747Y-44211401D01*
X43823223Y-44193223D01*
X43841401Y-44176747D01*
X43861107Y-44162132D01*
X43882150Y-44149520D01*
X43904329Y-44139030D01*
X43927428Y-44130765D01*
X43951227Y-44124804D01*
X43975495Y-44121204D01*
X43999999Y-44120000D01*
X44900001Y-44120000D01*
X44924505Y-44121204D01*
X44924505Y-44121204D01*
G37*
D11*
X44450000Y-44695000D03*
G04 #@! TD*
D10*
G04 #@! TO.C,R5*
G36*
X48099505Y-44121204D02*
X48123773Y-44124804D01*
X48147572Y-44130765D01*
X48170671Y-44139030D01*
X48192850Y-44149520D01*
X48213893Y-44162132D01*
X48233599Y-44176747D01*
X48251777Y-44193223D01*
X48268253Y-44211401D01*
X48282868Y-44231107D01*
X48295480Y-44252150D01*
X48305970Y-44274329D01*
X48314235Y-44297428D01*
X48320196Y-44321227D01*
X48323796Y-44345495D01*
X48325000Y-44369999D01*
X48325000Y-45020001D01*
X48323796Y-45044505D01*
X48320196Y-45068773D01*
X48314235Y-45092572D01*
X48305970Y-45115671D01*
X48295480Y-45137850D01*
X48282868Y-45158893D01*
X48268253Y-45178599D01*
X48251777Y-45196777D01*
X48233599Y-45213253D01*
X48213893Y-45227868D01*
X48192850Y-45240480D01*
X48170671Y-45250970D01*
X48147572Y-45259235D01*
X48123773Y-45265196D01*
X48099505Y-45268796D01*
X48075001Y-45270000D01*
X47174999Y-45270000D01*
X47150495Y-45268796D01*
X47126227Y-45265196D01*
X47102428Y-45259235D01*
X47079329Y-45250970D01*
X47057150Y-45240480D01*
X47036107Y-45227868D01*
X47016401Y-45213253D01*
X46998223Y-45196777D01*
X46981747Y-45178599D01*
X46967132Y-45158893D01*
X46954520Y-45137850D01*
X46944030Y-45115671D01*
X46935765Y-45092572D01*
X46929804Y-45068773D01*
X46926204Y-45044505D01*
X46925000Y-45020001D01*
X46925000Y-44369999D01*
X46926204Y-44345495D01*
X46929804Y-44321227D01*
X46935765Y-44297428D01*
X46944030Y-44274329D01*
X46954520Y-44252150D01*
X46967132Y-44231107D01*
X46981747Y-44211401D01*
X46998223Y-44193223D01*
X47016401Y-44176747D01*
X47036107Y-44162132D01*
X47057150Y-44149520D01*
X47079329Y-44139030D01*
X47102428Y-44130765D01*
X47126227Y-44124804D01*
X47150495Y-44121204D01*
X47174999Y-44120000D01*
X48075001Y-44120000D01*
X48099505Y-44121204D01*
X48099505Y-44121204D01*
G37*
D11*
X47625000Y-44695000D03*
D10*
G36*
X48099505Y-46171204D02*
X48123773Y-46174804D01*
X48147572Y-46180765D01*
X48170671Y-46189030D01*
X48192850Y-46199520D01*
X48213893Y-46212132D01*
X48233599Y-46226747D01*
X48251777Y-46243223D01*
X48268253Y-46261401D01*
X48282868Y-46281107D01*
X48295480Y-46302150D01*
X48305970Y-46324329D01*
X48314235Y-46347428D01*
X48320196Y-46371227D01*
X48323796Y-46395495D01*
X48325000Y-46419999D01*
X48325000Y-47070001D01*
X48323796Y-47094505D01*
X48320196Y-47118773D01*
X48314235Y-47142572D01*
X48305970Y-47165671D01*
X48295480Y-47187850D01*
X48282868Y-47208893D01*
X48268253Y-47228599D01*
X48251777Y-47246777D01*
X48233599Y-47263253D01*
X48213893Y-47277868D01*
X48192850Y-47290480D01*
X48170671Y-47300970D01*
X48147572Y-47309235D01*
X48123773Y-47315196D01*
X48099505Y-47318796D01*
X48075001Y-47320000D01*
X47174999Y-47320000D01*
X47150495Y-47318796D01*
X47126227Y-47315196D01*
X47102428Y-47309235D01*
X47079329Y-47300970D01*
X47057150Y-47290480D01*
X47036107Y-47277868D01*
X47016401Y-47263253D01*
X46998223Y-47246777D01*
X46981747Y-47228599D01*
X46967132Y-47208893D01*
X46954520Y-47187850D01*
X46944030Y-47165671D01*
X46935765Y-47142572D01*
X46929804Y-47118773D01*
X46926204Y-47094505D01*
X46925000Y-47070001D01*
X46925000Y-46419999D01*
X46926204Y-46395495D01*
X46929804Y-46371227D01*
X46935765Y-46347428D01*
X46944030Y-46324329D01*
X46954520Y-46302150D01*
X46967132Y-46281107D01*
X46981747Y-46261401D01*
X46998223Y-46243223D01*
X47016401Y-46226747D01*
X47036107Y-46212132D01*
X47057150Y-46199520D01*
X47079329Y-46189030D01*
X47102428Y-46180765D01*
X47126227Y-46174804D01*
X47150495Y-46171204D01*
X47174999Y-46170000D01*
X48075001Y-46170000D01*
X48099505Y-46171204D01*
X48099505Y-46171204D01*
G37*
D11*
X47625000Y-46745000D03*
G04 #@! TD*
M02*
