G04 #@! TF.GenerationSoftware,KiCad,Pcbnew,(5.0.2)-1*
G04 #@! TF.CreationDate,2019-02-05T11:41:40+01:00*
G04 #@! TF.ProjectId,SensorPCB_V1.2,53656e73-6f72-4504-9342-5f56312e322e,rev?*
G04 #@! TF.SameCoordinates,Original*
G04 #@! TF.FileFunction,Copper,L1,Top*
G04 #@! TF.FilePolarity,Positive*
%FSLAX46Y46*%
G04 Gerber Fmt 4.6, Leading zero omitted, Abs format (unit mm)*
G04 Created by KiCad (PCBNEW (5.0.2)-1) date 05/02/2019 11:41:40*
%MOMM*%
%LPD*%
G01*
G04 APERTURE LIST*
G04 #@! TA.AperFunction,NonConductor*
%ADD10C,0.006350*%
G04 #@! TD*
G04 #@! TA.AperFunction,ComponentPad*
%ADD11C,3.000000*%
G04 #@! TD*
G04 #@! TA.AperFunction,ComponentPad*
%ADD12R,3.000000X3.000000*%
G04 #@! TD*
G04 #@! TA.AperFunction,ComponentPad*
%ADD13R,1.200000X1.200000*%
G04 #@! TD*
G04 #@! TA.AperFunction,ComponentPad*
%ADD14C,1.200000*%
G04 #@! TD*
G04 #@! TA.AperFunction,ComponentPad*
%ADD15R,1.700000X1.700000*%
G04 #@! TD*
G04 #@! TA.AperFunction,ComponentPad*
%ADD16O,1.700000X1.700000*%
G04 #@! TD*
G04 #@! TA.AperFunction,Conductor*
%ADD17C,0.100000*%
G04 #@! TD*
G04 #@! TA.AperFunction,SMDPad,CuDef*
%ADD18C,1.150000*%
G04 #@! TD*
G04 #@! TA.AperFunction,ComponentPad*
%ADD19R,1.800000X1.800000*%
G04 #@! TD*
G04 #@! TA.AperFunction,ComponentPad*
%ADD20O,1.800000X1.800000*%
G04 #@! TD*
G04 #@! TA.AperFunction,SMDPad,CuDef*
%ADD21R,1.750000X0.550000*%
G04 #@! TD*
G04 #@! TA.AperFunction,SMDPad,CuDef*
%ADD22R,2.000000X3.800000*%
G04 #@! TD*
G04 #@! TA.AperFunction,SMDPad,CuDef*
%ADD23R,2.000000X1.500000*%
G04 #@! TD*
G04 #@! TA.AperFunction,ViaPad*
%ADD24C,0.800000*%
G04 #@! TD*
G04 #@! TA.AperFunction,Conductor*
%ADD25C,0.250000*%
G04 #@! TD*
G04 #@! TA.AperFunction,Conductor*
%ADD26C,0.254000*%
G04 #@! TD*
G04 APERTURE END LIST*
D10*
X53302504Y-28662380D02*
X53318228Y-28662380D01*
X53309761Y-29043333D01*
X53313390Y-29043333D01*
X53315809Y-29090952D01*
X53317019Y-29138571D01*
X53318228Y-29233809D01*
X53318228Y-29471904D01*
X53317019Y-29567142D01*
X53315809Y-29614761D01*
X53313390Y-29662380D01*
X53306133Y-29662380D01*
X53303714Y-29614761D01*
X53302504Y-29567142D01*
X53329114Y-29567142D02*
X53330323Y-29614761D01*
X53329114Y-29662380D01*
X53327904Y-29614761D01*
X53329114Y-29567142D01*
X53329114Y-29662380D01*
X53338790Y-28662380D02*
X53354514Y-28662380D01*
X53346047Y-29043333D01*
X53349676Y-29043333D01*
X53352095Y-29090952D01*
X53353304Y-29138571D01*
X53354514Y-29233809D01*
X53354514Y-29471904D01*
X53353304Y-29567142D01*
X53352095Y-29614761D01*
X53349676Y-29662380D01*
X53342419Y-29662380D01*
X53340000Y-29614761D01*
X53338790Y-29567142D01*
X53361771Y-28662380D02*
X53370238Y-29662380D01*
X53378704Y-28662380D01*
D11*
G04 #@! TO.P,J2,2*
G04 #@! TO.N,Net-(J2-Pad2)*
X35560000Y-58420000D03*
G04 #@! TO.P,J2,3*
G04 #@! TO.N,VCC*
X40640000Y-58420000D03*
D12*
G04 #@! TO.P,J2,1*
G04 #@! TO.N,Net-(J1-Pad2)*
X30480000Y-58420000D03*
D11*
G04 #@! TO.P,J2,4*
G04 #@! TO.N,GND*
X45720000Y-58420000D03*
G04 #@! TD*
D13*
G04 #@! TO.P,C3,1*
G04 #@! TO.N,VCC*
X21590000Y-49530000D03*
D14*
G04 #@! TO.P,C3,2*
G04 #@! TO.N,GND*
X23590000Y-49530000D03*
G04 #@! TD*
D15*
G04 #@! TO.P,J1,1*
G04 #@! TO.N,Net-(J1-Pad1)*
X33020000Y-49530000D03*
D16*
G04 #@! TO.P,J1,2*
G04 #@! TO.N,Net-(J1-Pad2)*
X30480000Y-49530000D03*
G04 #@! TO.P,J1,3*
G04 #@! TO.N,/DHT*
X27940000Y-49530000D03*
G04 #@! TD*
D15*
G04 #@! TO.P,U2,1*
G04 #@! TO.N,Net-(J3-Pad2)*
X41910000Y-15748000D03*
D16*
G04 #@! TO.P,U2,2*
G04 #@! TO.N,/DHT*
X39370000Y-15748000D03*
G04 #@! TO.P,U2,3*
G04 #@! TO.N,N/C*
X36830000Y-15748000D03*
G04 #@! TO.P,U2,4*
G04 #@! TO.N,GND*
X34290000Y-15748000D03*
G04 #@! TD*
D15*
G04 #@! TO.P,J6,1*
G04 #@! TO.N,VCC*
X57150000Y-39370000D03*
D16*
G04 #@! TO.P,J6,2*
G04 #@! TO.N,Net-(J6-Pad2)*
X54610000Y-39370000D03*
G04 #@! TD*
D15*
G04 #@! TO.P,U1,1*
G04 #@! TO.N,Net-(J3-Pad2)*
X41910000Y-19304000D03*
D16*
G04 #@! TO.P,U1,2*
G04 #@! TO.N,GND*
X39370000Y-19304000D03*
G04 #@! TO.P,U1,3*
G04 #@! TO.N,Net-(R3-Pad2)*
X36830000Y-19304000D03*
G04 #@! TO.P,U1,4*
G04 #@! TO.N,Net-(R2-Pad2)*
X34290000Y-19304000D03*
G04 #@! TD*
D17*
G04 #@! TO.N,VCC*
G04 #@! TO.C,C2*
G36*
X27144505Y-31421204D02*
X27168773Y-31424804D01*
X27192572Y-31430765D01*
X27215671Y-31439030D01*
X27237850Y-31449520D01*
X27258893Y-31462132D01*
X27278599Y-31476747D01*
X27296777Y-31493223D01*
X27313253Y-31511401D01*
X27327868Y-31531107D01*
X27340480Y-31552150D01*
X27350970Y-31574329D01*
X27359235Y-31597428D01*
X27365196Y-31621227D01*
X27368796Y-31645495D01*
X27370000Y-31669999D01*
X27370000Y-32320001D01*
X27368796Y-32344505D01*
X27365196Y-32368773D01*
X27359235Y-32392572D01*
X27350970Y-32415671D01*
X27340480Y-32437850D01*
X27327868Y-32458893D01*
X27313253Y-32478599D01*
X27296777Y-32496777D01*
X27278599Y-32513253D01*
X27258893Y-32527868D01*
X27237850Y-32540480D01*
X27215671Y-32550970D01*
X27192572Y-32559235D01*
X27168773Y-32565196D01*
X27144505Y-32568796D01*
X27120001Y-32570000D01*
X26219999Y-32570000D01*
X26195495Y-32568796D01*
X26171227Y-32565196D01*
X26147428Y-32559235D01*
X26124329Y-32550970D01*
X26102150Y-32540480D01*
X26081107Y-32527868D01*
X26061401Y-32513253D01*
X26043223Y-32496777D01*
X26026747Y-32478599D01*
X26012132Y-32458893D01*
X25999520Y-32437850D01*
X25989030Y-32415671D01*
X25980765Y-32392572D01*
X25974804Y-32368773D01*
X25971204Y-32344505D01*
X25970000Y-32320001D01*
X25970000Y-31669999D01*
X25971204Y-31645495D01*
X25974804Y-31621227D01*
X25980765Y-31597428D01*
X25989030Y-31574329D01*
X25999520Y-31552150D01*
X26012132Y-31531107D01*
X26026747Y-31511401D01*
X26043223Y-31493223D01*
X26061401Y-31476747D01*
X26081107Y-31462132D01*
X26102150Y-31449520D01*
X26124329Y-31439030D01*
X26147428Y-31430765D01*
X26171227Y-31424804D01*
X26195495Y-31421204D01*
X26219999Y-31420000D01*
X27120001Y-31420000D01*
X27144505Y-31421204D01*
X27144505Y-31421204D01*
G37*
D18*
G04 #@! TD*
G04 #@! TO.P,C2,1*
G04 #@! TO.N,VCC*
X26670000Y-31995000D03*
D17*
G04 #@! TO.N,GND*
G04 #@! TO.C,C2*
G36*
X27144505Y-33471204D02*
X27168773Y-33474804D01*
X27192572Y-33480765D01*
X27215671Y-33489030D01*
X27237850Y-33499520D01*
X27258893Y-33512132D01*
X27278599Y-33526747D01*
X27296777Y-33543223D01*
X27313253Y-33561401D01*
X27327868Y-33581107D01*
X27340480Y-33602150D01*
X27350970Y-33624329D01*
X27359235Y-33647428D01*
X27365196Y-33671227D01*
X27368796Y-33695495D01*
X27370000Y-33719999D01*
X27370000Y-34370001D01*
X27368796Y-34394505D01*
X27365196Y-34418773D01*
X27359235Y-34442572D01*
X27350970Y-34465671D01*
X27340480Y-34487850D01*
X27327868Y-34508893D01*
X27313253Y-34528599D01*
X27296777Y-34546777D01*
X27278599Y-34563253D01*
X27258893Y-34577868D01*
X27237850Y-34590480D01*
X27215671Y-34600970D01*
X27192572Y-34609235D01*
X27168773Y-34615196D01*
X27144505Y-34618796D01*
X27120001Y-34620000D01*
X26219999Y-34620000D01*
X26195495Y-34618796D01*
X26171227Y-34615196D01*
X26147428Y-34609235D01*
X26124329Y-34600970D01*
X26102150Y-34590480D01*
X26081107Y-34577868D01*
X26061401Y-34563253D01*
X26043223Y-34546777D01*
X26026747Y-34528599D01*
X26012132Y-34508893D01*
X25999520Y-34487850D01*
X25989030Y-34465671D01*
X25980765Y-34442572D01*
X25974804Y-34418773D01*
X25971204Y-34394505D01*
X25970000Y-34370001D01*
X25970000Y-33719999D01*
X25971204Y-33695495D01*
X25974804Y-33671227D01*
X25980765Y-33647428D01*
X25989030Y-33624329D01*
X25999520Y-33602150D01*
X26012132Y-33581107D01*
X26026747Y-33561401D01*
X26043223Y-33543223D01*
X26061401Y-33526747D01*
X26081107Y-33512132D01*
X26102150Y-33499520D01*
X26124329Y-33489030D01*
X26147428Y-33480765D01*
X26171227Y-33474804D01*
X26195495Y-33471204D01*
X26219999Y-33470000D01*
X27120001Y-33470000D01*
X27144505Y-33471204D01*
X27144505Y-33471204D01*
G37*
D18*
G04 #@! TD*
G04 #@! TO.P,C2,2*
G04 #@! TO.N,GND*
X26670000Y-34045000D03*
D13*
G04 #@! TO.P,C1,1*
G04 #@! TO.N,Net-(C1-Pad1)*
X16510000Y-49530000D03*
D14*
G04 #@! TO.P,C1,2*
G04 #@! TO.N,GND*
X18510000Y-49530000D03*
G04 #@! TD*
D15*
G04 #@! TO.P,J5,1*
G04 #@! TO.N,Net-(J3-Pad2)*
X57150000Y-34290000D03*
D16*
G04 #@! TO.P,J5,2*
G04 #@! TO.N,Net-(J5-Pad2)*
X54610000Y-34290000D03*
G04 #@! TD*
D19*
G04 #@! TO.P,D1,1*
G04 #@! TO.N,VCC*
X15875000Y-43180000D03*
D20*
G04 #@! TO.P,D1,2*
G04 #@! TO.N,GND*
X23495000Y-43180000D03*
G04 #@! TD*
D21*
G04 #@! TO.P,U4,1*
G04 #@! TO.N,Net-(U4-Pad1)*
X59580000Y-48260000D03*
G04 #@! TO.P,U4,2*
G04 #@! TO.N,Net-(J1-Pad1)*
X59580000Y-46990000D03*
G04 #@! TO.P,U4,3*
G04 #@! TO.N,Net-(R2-Pad2)*
X59580000Y-45720000D03*
G04 #@! TO.P,U4,4*
G04 #@! TO.N,GND*
X59580000Y-44450000D03*
G04 #@! TO.P,U4,5*
G04 #@! TO.N,Net-(U4-Pad5)*
X52180000Y-44450000D03*
G04 #@! TO.P,U4,6*
G04 #@! TO.N,Net-(R3-Pad2)*
X52180000Y-45720000D03*
G04 #@! TO.P,U4,7*
G04 #@! TO.N,Net-(J2-Pad2)*
X52180000Y-46990000D03*
G04 #@! TO.P,U4,8*
G04 #@! TO.N,VCC*
X52180000Y-48260000D03*
G04 #@! TD*
D22*
G04 #@! TO.P,U3,2*
G04 #@! TO.N,Net-(C1-Pad1)*
X15900000Y-36830000D03*
D23*
X22200000Y-36830000D03*
G04 #@! TO.P,U3,3*
G04 #@! TO.N,VCC*
X22200000Y-34530000D03*
G04 #@! TO.P,U3,1*
G04 #@! TO.N,GND*
X22200000Y-39130000D03*
G04 #@! TD*
D17*
G04 #@! TO.N,Net-(J3-Pad2)*
G04 #@! TO.C,R1*
G36*
X27144505Y-37136204D02*
X27168773Y-37139804D01*
X27192572Y-37145765D01*
X27215671Y-37154030D01*
X27237850Y-37164520D01*
X27258893Y-37177132D01*
X27278599Y-37191747D01*
X27296777Y-37208223D01*
X27313253Y-37226401D01*
X27327868Y-37246107D01*
X27340480Y-37267150D01*
X27350970Y-37289329D01*
X27359235Y-37312428D01*
X27365196Y-37336227D01*
X27368796Y-37360495D01*
X27370000Y-37384999D01*
X27370000Y-38035001D01*
X27368796Y-38059505D01*
X27365196Y-38083773D01*
X27359235Y-38107572D01*
X27350970Y-38130671D01*
X27340480Y-38152850D01*
X27327868Y-38173893D01*
X27313253Y-38193599D01*
X27296777Y-38211777D01*
X27278599Y-38228253D01*
X27258893Y-38242868D01*
X27237850Y-38255480D01*
X27215671Y-38265970D01*
X27192572Y-38274235D01*
X27168773Y-38280196D01*
X27144505Y-38283796D01*
X27120001Y-38285000D01*
X26219999Y-38285000D01*
X26195495Y-38283796D01*
X26171227Y-38280196D01*
X26147428Y-38274235D01*
X26124329Y-38265970D01*
X26102150Y-38255480D01*
X26081107Y-38242868D01*
X26061401Y-38228253D01*
X26043223Y-38211777D01*
X26026747Y-38193599D01*
X26012132Y-38173893D01*
X25999520Y-38152850D01*
X25989030Y-38130671D01*
X25980765Y-38107572D01*
X25974804Y-38083773D01*
X25971204Y-38059505D01*
X25970000Y-38035001D01*
X25970000Y-37384999D01*
X25971204Y-37360495D01*
X25974804Y-37336227D01*
X25980765Y-37312428D01*
X25989030Y-37289329D01*
X25999520Y-37267150D01*
X26012132Y-37246107D01*
X26026747Y-37226401D01*
X26043223Y-37208223D01*
X26061401Y-37191747D01*
X26081107Y-37177132D01*
X26102150Y-37164520D01*
X26124329Y-37154030D01*
X26147428Y-37145765D01*
X26171227Y-37139804D01*
X26195495Y-37136204D01*
X26219999Y-37135000D01*
X27120001Y-37135000D01*
X27144505Y-37136204D01*
X27144505Y-37136204D01*
G37*
D18*
G04 #@! TD*
G04 #@! TO.P,R1,1*
G04 #@! TO.N,Net-(J3-Pad2)*
X26670000Y-37710000D03*
D17*
G04 #@! TO.N,/DHT*
G04 #@! TO.C,R1*
G36*
X27144505Y-39186204D02*
X27168773Y-39189804D01*
X27192572Y-39195765D01*
X27215671Y-39204030D01*
X27237850Y-39214520D01*
X27258893Y-39227132D01*
X27278599Y-39241747D01*
X27296777Y-39258223D01*
X27313253Y-39276401D01*
X27327868Y-39296107D01*
X27340480Y-39317150D01*
X27350970Y-39339329D01*
X27359235Y-39362428D01*
X27365196Y-39386227D01*
X27368796Y-39410495D01*
X27370000Y-39434999D01*
X27370000Y-40085001D01*
X27368796Y-40109505D01*
X27365196Y-40133773D01*
X27359235Y-40157572D01*
X27350970Y-40180671D01*
X27340480Y-40202850D01*
X27327868Y-40223893D01*
X27313253Y-40243599D01*
X27296777Y-40261777D01*
X27278599Y-40278253D01*
X27258893Y-40292868D01*
X27237850Y-40305480D01*
X27215671Y-40315970D01*
X27192572Y-40324235D01*
X27168773Y-40330196D01*
X27144505Y-40333796D01*
X27120001Y-40335000D01*
X26219999Y-40335000D01*
X26195495Y-40333796D01*
X26171227Y-40330196D01*
X26147428Y-40324235D01*
X26124329Y-40315970D01*
X26102150Y-40305480D01*
X26081107Y-40292868D01*
X26061401Y-40278253D01*
X26043223Y-40261777D01*
X26026747Y-40243599D01*
X26012132Y-40223893D01*
X25999520Y-40202850D01*
X25989030Y-40180671D01*
X25980765Y-40157572D01*
X25974804Y-40133773D01*
X25971204Y-40109505D01*
X25970000Y-40085001D01*
X25970000Y-39434999D01*
X25971204Y-39410495D01*
X25974804Y-39386227D01*
X25980765Y-39362428D01*
X25989030Y-39339329D01*
X25999520Y-39317150D01*
X26012132Y-39296107D01*
X26026747Y-39276401D01*
X26043223Y-39258223D01*
X26061401Y-39241747D01*
X26081107Y-39227132D01*
X26102150Y-39214520D01*
X26124329Y-39204030D01*
X26147428Y-39195765D01*
X26171227Y-39189804D01*
X26195495Y-39186204D01*
X26219999Y-39185000D01*
X27120001Y-39185000D01*
X27144505Y-39186204D01*
X27144505Y-39186204D01*
G37*
D18*
G04 #@! TD*
G04 #@! TO.P,R1,2*
G04 #@! TO.N,/DHT*
X26670000Y-39760000D03*
D17*
G04 #@! TO.N,Net-(R2-Pad2)*
G04 #@! TO.C,R2*
G36*
X48219505Y-33591204D02*
X48243773Y-33594804D01*
X48267572Y-33600765D01*
X48290671Y-33609030D01*
X48312850Y-33619520D01*
X48333893Y-33632132D01*
X48353599Y-33646747D01*
X48371777Y-33663223D01*
X48388253Y-33681401D01*
X48402868Y-33701107D01*
X48415480Y-33722150D01*
X48425970Y-33744329D01*
X48434235Y-33767428D01*
X48440196Y-33791227D01*
X48443796Y-33815495D01*
X48445000Y-33839999D01*
X48445000Y-34740001D01*
X48443796Y-34764505D01*
X48440196Y-34788773D01*
X48434235Y-34812572D01*
X48425970Y-34835671D01*
X48415480Y-34857850D01*
X48402868Y-34878893D01*
X48388253Y-34898599D01*
X48371777Y-34916777D01*
X48353599Y-34933253D01*
X48333893Y-34947868D01*
X48312850Y-34960480D01*
X48290671Y-34970970D01*
X48267572Y-34979235D01*
X48243773Y-34985196D01*
X48219505Y-34988796D01*
X48195001Y-34990000D01*
X47544999Y-34990000D01*
X47520495Y-34988796D01*
X47496227Y-34985196D01*
X47472428Y-34979235D01*
X47449329Y-34970970D01*
X47427150Y-34960480D01*
X47406107Y-34947868D01*
X47386401Y-34933253D01*
X47368223Y-34916777D01*
X47351747Y-34898599D01*
X47337132Y-34878893D01*
X47324520Y-34857850D01*
X47314030Y-34835671D01*
X47305765Y-34812572D01*
X47299804Y-34788773D01*
X47296204Y-34764505D01*
X47295000Y-34740001D01*
X47295000Y-33839999D01*
X47296204Y-33815495D01*
X47299804Y-33791227D01*
X47305765Y-33767428D01*
X47314030Y-33744329D01*
X47324520Y-33722150D01*
X47337132Y-33701107D01*
X47351747Y-33681401D01*
X47368223Y-33663223D01*
X47386401Y-33646747D01*
X47406107Y-33632132D01*
X47427150Y-33619520D01*
X47449329Y-33609030D01*
X47472428Y-33600765D01*
X47496227Y-33594804D01*
X47520495Y-33591204D01*
X47544999Y-33590000D01*
X48195001Y-33590000D01*
X48219505Y-33591204D01*
X48219505Y-33591204D01*
G37*
D18*
G04 #@! TD*
G04 #@! TO.P,R2,2*
G04 #@! TO.N,Net-(R2-Pad2)*
X47870000Y-34290000D03*
D17*
G04 #@! TO.N,Net-(J5-Pad2)*
G04 #@! TO.C,R2*
G36*
X50269505Y-33591204D02*
X50293773Y-33594804D01*
X50317572Y-33600765D01*
X50340671Y-33609030D01*
X50362850Y-33619520D01*
X50383893Y-33632132D01*
X50403599Y-33646747D01*
X50421777Y-33663223D01*
X50438253Y-33681401D01*
X50452868Y-33701107D01*
X50465480Y-33722150D01*
X50475970Y-33744329D01*
X50484235Y-33767428D01*
X50490196Y-33791227D01*
X50493796Y-33815495D01*
X50495000Y-33839999D01*
X50495000Y-34740001D01*
X50493796Y-34764505D01*
X50490196Y-34788773D01*
X50484235Y-34812572D01*
X50475970Y-34835671D01*
X50465480Y-34857850D01*
X50452868Y-34878893D01*
X50438253Y-34898599D01*
X50421777Y-34916777D01*
X50403599Y-34933253D01*
X50383893Y-34947868D01*
X50362850Y-34960480D01*
X50340671Y-34970970D01*
X50317572Y-34979235D01*
X50293773Y-34985196D01*
X50269505Y-34988796D01*
X50245001Y-34990000D01*
X49594999Y-34990000D01*
X49570495Y-34988796D01*
X49546227Y-34985196D01*
X49522428Y-34979235D01*
X49499329Y-34970970D01*
X49477150Y-34960480D01*
X49456107Y-34947868D01*
X49436401Y-34933253D01*
X49418223Y-34916777D01*
X49401747Y-34898599D01*
X49387132Y-34878893D01*
X49374520Y-34857850D01*
X49364030Y-34835671D01*
X49355765Y-34812572D01*
X49349804Y-34788773D01*
X49346204Y-34764505D01*
X49345000Y-34740001D01*
X49345000Y-33839999D01*
X49346204Y-33815495D01*
X49349804Y-33791227D01*
X49355765Y-33767428D01*
X49364030Y-33744329D01*
X49374520Y-33722150D01*
X49387132Y-33701107D01*
X49401747Y-33681401D01*
X49418223Y-33663223D01*
X49436401Y-33646747D01*
X49456107Y-33632132D01*
X49477150Y-33619520D01*
X49499329Y-33609030D01*
X49522428Y-33600765D01*
X49546227Y-33594804D01*
X49570495Y-33591204D01*
X49594999Y-33590000D01*
X50245001Y-33590000D01*
X50269505Y-33591204D01*
X50269505Y-33591204D01*
G37*
D18*
G04 #@! TD*
G04 #@! TO.P,R2,1*
G04 #@! TO.N,Net-(J5-Pad2)*
X49920000Y-34290000D03*
D17*
G04 #@! TO.N,Net-(J5-Pad2)*
G04 #@! TO.C,R3*
G36*
X50269505Y-30416204D02*
X50293773Y-30419804D01*
X50317572Y-30425765D01*
X50340671Y-30434030D01*
X50362850Y-30444520D01*
X50383893Y-30457132D01*
X50403599Y-30471747D01*
X50421777Y-30488223D01*
X50438253Y-30506401D01*
X50452868Y-30526107D01*
X50465480Y-30547150D01*
X50475970Y-30569329D01*
X50484235Y-30592428D01*
X50490196Y-30616227D01*
X50493796Y-30640495D01*
X50495000Y-30664999D01*
X50495000Y-31565001D01*
X50493796Y-31589505D01*
X50490196Y-31613773D01*
X50484235Y-31637572D01*
X50475970Y-31660671D01*
X50465480Y-31682850D01*
X50452868Y-31703893D01*
X50438253Y-31723599D01*
X50421777Y-31741777D01*
X50403599Y-31758253D01*
X50383893Y-31772868D01*
X50362850Y-31785480D01*
X50340671Y-31795970D01*
X50317572Y-31804235D01*
X50293773Y-31810196D01*
X50269505Y-31813796D01*
X50245001Y-31815000D01*
X49594999Y-31815000D01*
X49570495Y-31813796D01*
X49546227Y-31810196D01*
X49522428Y-31804235D01*
X49499329Y-31795970D01*
X49477150Y-31785480D01*
X49456107Y-31772868D01*
X49436401Y-31758253D01*
X49418223Y-31741777D01*
X49401747Y-31723599D01*
X49387132Y-31703893D01*
X49374520Y-31682850D01*
X49364030Y-31660671D01*
X49355765Y-31637572D01*
X49349804Y-31613773D01*
X49346204Y-31589505D01*
X49345000Y-31565001D01*
X49345000Y-30664999D01*
X49346204Y-30640495D01*
X49349804Y-30616227D01*
X49355765Y-30592428D01*
X49364030Y-30569329D01*
X49374520Y-30547150D01*
X49387132Y-30526107D01*
X49401747Y-30506401D01*
X49418223Y-30488223D01*
X49436401Y-30471747D01*
X49456107Y-30457132D01*
X49477150Y-30444520D01*
X49499329Y-30434030D01*
X49522428Y-30425765D01*
X49546227Y-30419804D01*
X49570495Y-30416204D01*
X49594999Y-30415000D01*
X50245001Y-30415000D01*
X50269505Y-30416204D01*
X50269505Y-30416204D01*
G37*
D18*
G04 #@! TD*
G04 #@! TO.P,R3,1*
G04 #@! TO.N,Net-(J5-Pad2)*
X49920000Y-31115000D03*
D17*
G04 #@! TO.N,Net-(R3-Pad2)*
G04 #@! TO.C,R3*
G36*
X48219505Y-30416204D02*
X48243773Y-30419804D01*
X48267572Y-30425765D01*
X48290671Y-30434030D01*
X48312850Y-30444520D01*
X48333893Y-30457132D01*
X48353599Y-30471747D01*
X48371777Y-30488223D01*
X48388253Y-30506401D01*
X48402868Y-30526107D01*
X48415480Y-30547150D01*
X48425970Y-30569329D01*
X48434235Y-30592428D01*
X48440196Y-30616227D01*
X48443796Y-30640495D01*
X48445000Y-30664999D01*
X48445000Y-31565001D01*
X48443796Y-31589505D01*
X48440196Y-31613773D01*
X48434235Y-31637572D01*
X48425970Y-31660671D01*
X48415480Y-31682850D01*
X48402868Y-31703893D01*
X48388253Y-31723599D01*
X48371777Y-31741777D01*
X48353599Y-31758253D01*
X48333893Y-31772868D01*
X48312850Y-31785480D01*
X48290671Y-31795970D01*
X48267572Y-31804235D01*
X48243773Y-31810196D01*
X48219505Y-31813796D01*
X48195001Y-31815000D01*
X47544999Y-31815000D01*
X47520495Y-31813796D01*
X47496227Y-31810196D01*
X47472428Y-31804235D01*
X47449329Y-31795970D01*
X47427150Y-31785480D01*
X47406107Y-31772868D01*
X47386401Y-31758253D01*
X47368223Y-31741777D01*
X47351747Y-31723599D01*
X47337132Y-31703893D01*
X47324520Y-31682850D01*
X47314030Y-31660671D01*
X47305765Y-31637572D01*
X47299804Y-31613773D01*
X47296204Y-31589505D01*
X47295000Y-31565001D01*
X47295000Y-30664999D01*
X47296204Y-30640495D01*
X47299804Y-30616227D01*
X47305765Y-30592428D01*
X47314030Y-30569329D01*
X47324520Y-30547150D01*
X47337132Y-30526107D01*
X47351747Y-30506401D01*
X47368223Y-30488223D01*
X47386401Y-30471747D01*
X47406107Y-30457132D01*
X47427150Y-30444520D01*
X47449329Y-30434030D01*
X47472428Y-30425765D01*
X47496227Y-30419804D01*
X47520495Y-30416204D01*
X47544999Y-30415000D01*
X48195001Y-30415000D01*
X48219505Y-30416204D01*
X48219505Y-30416204D01*
G37*
D18*
G04 #@! TD*
G04 #@! TO.P,R3,2*
G04 #@! TO.N,Net-(R3-Pad2)*
X47870000Y-31115000D03*
D17*
G04 #@! TO.N,Net-(J1-Pad1)*
G04 #@! TO.C,R4*
G36*
X44924505Y-46171204D02*
X44948773Y-46174804D01*
X44972572Y-46180765D01*
X44995671Y-46189030D01*
X45017850Y-46199520D01*
X45038893Y-46212132D01*
X45058599Y-46226747D01*
X45076777Y-46243223D01*
X45093253Y-46261401D01*
X45107868Y-46281107D01*
X45120480Y-46302150D01*
X45130970Y-46324329D01*
X45139235Y-46347428D01*
X45145196Y-46371227D01*
X45148796Y-46395495D01*
X45150000Y-46419999D01*
X45150000Y-47070001D01*
X45148796Y-47094505D01*
X45145196Y-47118773D01*
X45139235Y-47142572D01*
X45130970Y-47165671D01*
X45120480Y-47187850D01*
X45107868Y-47208893D01*
X45093253Y-47228599D01*
X45076777Y-47246777D01*
X45058599Y-47263253D01*
X45038893Y-47277868D01*
X45017850Y-47290480D01*
X44995671Y-47300970D01*
X44972572Y-47309235D01*
X44948773Y-47315196D01*
X44924505Y-47318796D01*
X44900001Y-47320000D01*
X43999999Y-47320000D01*
X43975495Y-47318796D01*
X43951227Y-47315196D01*
X43927428Y-47309235D01*
X43904329Y-47300970D01*
X43882150Y-47290480D01*
X43861107Y-47277868D01*
X43841401Y-47263253D01*
X43823223Y-47246777D01*
X43806747Y-47228599D01*
X43792132Y-47208893D01*
X43779520Y-47187850D01*
X43769030Y-47165671D01*
X43760765Y-47142572D01*
X43754804Y-47118773D01*
X43751204Y-47094505D01*
X43750000Y-47070001D01*
X43750000Y-46419999D01*
X43751204Y-46395495D01*
X43754804Y-46371227D01*
X43760765Y-46347428D01*
X43769030Y-46324329D01*
X43779520Y-46302150D01*
X43792132Y-46281107D01*
X43806747Y-46261401D01*
X43823223Y-46243223D01*
X43841401Y-46226747D01*
X43861107Y-46212132D01*
X43882150Y-46199520D01*
X43904329Y-46189030D01*
X43927428Y-46180765D01*
X43951227Y-46174804D01*
X43975495Y-46171204D01*
X43999999Y-46170000D01*
X44900001Y-46170000D01*
X44924505Y-46171204D01*
X44924505Y-46171204D01*
G37*
D18*
G04 #@! TD*
G04 #@! TO.P,R4,2*
G04 #@! TO.N,Net-(J1-Pad1)*
X44450000Y-46745000D03*
D17*
G04 #@! TO.N,Net-(J6-Pad2)*
G04 #@! TO.C,R4*
G36*
X44924505Y-44121204D02*
X44948773Y-44124804D01*
X44972572Y-44130765D01*
X44995671Y-44139030D01*
X45017850Y-44149520D01*
X45038893Y-44162132D01*
X45058599Y-44176747D01*
X45076777Y-44193223D01*
X45093253Y-44211401D01*
X45107868Y-44231107D01*
X45120480Y-44252150D01*
X45130970Y-44274329D01*
X45139235Y-44297428D01*
X45145196Y-44321227D01*
X45148796Y-44345495D01*
X45150000Y-44369999D01*
X45150000Y-45020001D01*
X45148796Y-45044505D01*
X45145196Y-45068773D01*
X45139235Y-45092572D01*
X45130970Y-45115671D01*
X45120480Y-45137850D01*
X45107868Y-45158893D01*
X45093253Y-45178599D01*
X45076777Y-45196777D01*
X45058599Y-45213253D01*
X45038893Y-45227868D01*
X45017850Y-45240480D01*
X44995671Y-45250970D01*
X44972572Y-45259235D01*
X44948773Y-45265196D01*
X44924505Y-45268796D01*
X44900001Y-45270000D01*
X43999999Y-45270000D01*
X43975495Y-45268796D01*
X43951227Y-45265196D01*
X43927428Y-45259235D01*
X43904329Y-45250970D01*
X43882150Y-45240480D01*
X43861107Y-45227868D01*
X43841401Y-45213253D01*
X43823223Y-45196777D01*
X43806747Y-45178599D01*
X43792132Y-45158893D01*
X43779520Y-45137850D01*
X43769030Y-45115671D01*
X43760765Y-45092572D01*
X43754804Y-45068773D01*
X43751204Y-45044505D01*
X43750000Y-45020001D01*
X43750000Y-44369999D01*
X43751204Y-44345495D01*
X43754804Y-44321227D01*
X43760765Y-44297428D01*
X43769030Y-44274329D01*
X43779520Y-44252150D01*
X43792132Y-44231107D01*
X43806747Y-44211401D01*
X43823223Y-44193223D01*
X43841401Y-44176747D01*
X43861107Y-44162132D01*
X43882150Y-44149520D01*
X43904329Y-44139030D01*
X43927428Y-44130765D01*
X43951227Y-44124804D01*
X43975495Y-44121204D01*
X43999999Y-44120000D01*
X44900001Y-44120000D01*
X44924505Y-44121204D01*
X44924505Y-44121204D01*
G37*
D18*
G04 #@! TD*
G04 #@! TO.P,R4,1*
G04 #@! TO.N,Net-(J6-Pad2)*
X44450000Y-44695000D03*
D17*
G04 #@! TO.N,Net-(J6-Pad2)*
G04 #@! TO.C,R5*
G36*
X48099505Y-44121204D02*
X48123773Y-44124804D01*
X48147572Y-44130765D01*
X48170671Y-44139030D01*
X48192850Y-44149520D01*
X48213893Y-44162132D01*
X48233599Y-44176747D01*
X48251777Y-44193223D01*
X48268253Y-44211401D01*
X48282868Y-44231107D01*
X48295480Y-44252150D01*
X48305970Y-44274329D01*
X48314235Y-44297428D01*
X48320196Y-44321227D01*
X48323796Y-44345495D01*
X48325000Y-44369999D01*
X48325000Y-45020001D01*
X48323796Y-45044505D01*
X48320196Y-45068773D01*
X48314235Y-45092572D01*
X48305970Y-45115671D01*
X48295480Y-45137850D01*
X48282868Y-45158893D01*
X48268253Y-45178599D01*
X48251777Y-45196777D01*
X48233599Y-45213253D01*
X48213893Y-45227868D01*
X48192850Y-45240480D01*
X48170671Y-45250970D01*
X48147572Y-45259235D01*
X48123773Y-45265196D01*
X48099505Y-45268796D01*
X48075001Y-45270000D01*
X47174999Y-45270000D01*
X47150495Y-45268796D01*
X47126227Y-45265196D01*
X47102428Y-45259235D01*
X47079329Y-45250970D01*
X47057150Y-45240480D01*
X47036107Y-45227868D01*
X47016401Y-45213253D01*
X46998223Y-45196777D01*
X46981747Y-45178599D01*
X46967132Y-45158893D01*
X46954520Y-45137850D01*
X46944030Y-45115671D01*
X46935765Y-45092572D01*
X46929804Y-45068773D01*
X46926204Y-45044505D01*
X46925000Y-45020001D01*
X46925000Y-44369999D01*
X46926204Y-44345495D01*
X46929804Y-44321227D01*
X46935765Y-44297428D01*
X46944030Y-44274329D01*
X46954520Y-44252150D01*
X46967132Y-44231107D01*
X46981747Y-44211401D01*
X46998223Y-44193223D01*
X47016401Y-44176747D01*
X47036107Y-44162132D01*
X47057150Y-44149520D01*
X47079329Y-44139030D01*
X47102428Y-44130765D01*
X47126227Y-44124804D01*
X47150495Y-44121204D01*
X47174999Y-44120000D01*
X48075001Y-44120000D01*
X48099505Y-44121204D01*
X48099505Y-44121204D01*
G37*
D18*
G04 #@! TD*
G04 #@! TO.P,R5,1*
G04 #@! TO.N,Net-(J6-Pad2)*
X47625000Y-44695000D03*
D17*
G04 #@! TO.N,Net-(J2-Pad2)*
G04 #@! TO.C,R5*
G36*
X48099505Y-46171204D02*
X48123773Y-46174804D01*
X48147572Y-46180765D01*
X48170671Y-46189030D01*
X48192850Y-46199520D01*
X48213893Y-46212132D01*
X48233599Y-46226747D01*
X48251777Y-46243223D01*
X48268253Y-46261401D01*
X48282868Y-46281107D01*
X48295480Y-46302150D01*
X48305970Y-46324329D01*
X48314235Y-46347428D01*
X48320196Y-46371227D01*
X48323796Y-46395495D01*
X48325000Y-46419999D01*
X48325000Y-47070001D01*
X48323796Y-47094505D01*
X48320196Y-47118773D01*
X48314235Y-47142572D01*
X48305970Y-47165671D01*
X48295480Y-47187850D01*
X48282868Y-47208893D01*
X48268253Y-47228599D01*
X48251777Y-47246777D01*
X48233599Y-47263253D01*
X48213893Y-47277868D01*
X48192850Y-47290480D01*
X48170671Y-47300970D01*
X48147572Y-47309235D01*
X48123773Y-47315196D01*
X48099505Y-47318796D01*
X48075001Y-47320000D01*
X47174999Y-47320000D01*
X47150495Y-47318796D01*
X47126227Y-47315196D01*
X47102428Y-47309235D01*
X47079329Y-47300970D01*
X47057150Y-47290480D01*
X47036107Y-47277868D01*
X47016401Y-47263253D01*
X46998223Y-47246777D01*
X46981747Y-47228599D01*
X46967132Y-47208893D01*
X46954520Y-47187850D01*
X46944030Y-47165671D01*
X46935765Y-47142572D01*
X46929804Y-47118773D01*
X46926204Y-47094505D01*
X46925000Y-47070001D01*
X46925000Y-46419999D01*
X46926204Y-46395495D01*
X46929804Y-46371227D01*
X46935765Y-46347428D01*
X46944030Y-46324329D01*
X46954520Y-46302150D01*
X46967132Y-46281107D01*
X46981747Y-46261401D01*
X46998223Y-46243223D01*
X47016401Y-46226747D01*
X47036107Y-46212132D01*
X47057150Y-46199520D01*
X47079329Y-46189030D01*
X47102428Y-46180765D01*
X47126227Y-46174804D01*
X47150495Y-46171204D01*
X47174999Y-46170000D01*
X48075001Y-46170000D01*
X48099505Y-46171204D01*
X48099505Y-46171204D01*
G37*
D18*
G04 #@! TD*
G04 #@! TO.P,R5,2*
G04 #@! TO.N,Net-(J2-Pad2)*
X47625000Y-46745000D03*
D15*
G04 #@! TO.P,J3,1*
G04 #@! TO.N,Net-(C1-Pad1)*
X53340000Y-26670000D03*
D16*
G04 #@! TO.P,J3,2*
G04 #@! TO.N,Net-(J3-Pad2)*
X55880000Y-26670000D03*
G04 #@! TO.P,J3,3*
G04 #@! TO.N,VCC*
X58420000Y-26670000D03*
G04 #@! TD*
D24*
G04 #@! TO.N,Net-(C1-Pad1)*
X28575000Y-27305000D03*
X49530000Y-26670000D03*
X14605000Y-49530000D03*
G04 #@! TO.N,Net-(R2-Pad2)*
X49530000Y-38100000D03*
X46990000Y-38100000D03*
G04 #@! TO.N,Net-(J6-Pad2)*
X47625000Y-39370000D03*
G04 #@! TD*
D25*
G04 #@! TO.N,Net-(C1-Pad1)*
X16510000Y-49530000D02*
X16510000Y-48680000D01*
X49530000Y-26670000D02*
X53340000Y-26670000D01*
X17150000Y-36830000D02*
X15900000Y-36830000D01*
X20525001Y-33454999D02*
X17150000Y-36830000D01*
X28575000Y-27305000D02*
X22425001Y-33454999D01*
X22425001Y-33454999D02*
X20525001Y-33454999D01*
X21950000Y-36830000D02*
X22200000Y-36830000D01*
X17100001Y-41679999D02*
X21950000Y-36830000D01*
X16510000Y-48680000D02*
X17100001Y-48089999D01*
X17100001Y-48089999D02*
X17100001Y-41679999D01*
X14605000Y-40275000D02*
X14605000Y-49530000D01*
X15900000Y-36830000D02*
X15900000Y-38980000D01*
X15900000Y-38980000D02*
X14605000Y-40275000D01*
G04 #@! TO.N,VCC*
X26670000Y-31895000D02*
X26670000Y-31770000D01*
X22200000Y-34530000D02*
X24035000Y-34530000D01*
X24035000Y-34530000D02*
X26670000Y-31895000D01*
X58250000Y-39370000D02*
X57150000Y-39370000D01*
X52780000Y-48260000D02*
X53449999Y-47590001D01*
X52180000Y-48260000D02*
X52780000Y-48260000D01*
X53449999Y-47590001D02*
X60715001Y-47590001D01*
X60715001Y-47590001D02*
X60780001Y-47525001D01*
X60780001Y-47525001D02*
X60780001Y-41900001D01*
X60780001Y-41900001D02*
X58250000Y-39370000D01*
X21950000Y-34530000D02*
X22200000Y-34530000D01*
X15875000Y-43180000D02*
X15875000Y-40605000D01*
X15875000Y-40605000D02*
X21950000Y-34530000D01*
X58420000Y-39200000D02*
X58250000Y-39370000D01*
X58420000Y-26670000D02*
X58420000Y-39200000D01*
X50800000Y-48260000D02*
X40640000Y-58420000D01*
X52180000Y-48260000D02*
X50800000Y-48260000D01*
X39140001Y-59919999D02*
X40640000Y-58420000D01*
X38814999Y-60245001D02*
X39140001Y-59919999D01*
X28719999Y-60245001D02*
X38814999Y-60245001D01*
X21590000Y-49530000D02*
X21590000Y-53115002D01*
X19169998Y-53975000D02*
X22449998Y-53975000D01*
X22449998Y-53975000D02*
X28719999Y-60245001D01*
X21590000Y-53115002D02*
X22449998Y-53975000D01*
X15875000Y-43180000D02*
X15875000Y-44330000D01*
X15875000Y-44330000D02*
X15584999Y-44620001D01*
X15584999Y-44620001D02*
X15584999Y-50390001D01*
X15584999Y-50390001D02*
X19169998Y-53975000D01*
G04 #@! TO.N,GND*
X22200000Y-41885000D02*
X23495000Y-43180000D01*
X22200000Y-39130000D02*
X22200000Y-41885000D01*
X40219999Y-20153999D02*
X39370000Y-19304000D01*
X58980000Y-44450000D02*
X55974999Y-41444999D01*
X59580000Y-44450000D02*
X58980000Y-44450000D01*
X55974999Y-41444999D02*
X55974999Y-33751409D01*
X55974999Y-33751409D02*
X49618591Y-27395001D01*
X49618591Y-27395001D02*
X47461001Y-27395001D01*
X47461001Y-27395001D02*
X40219999Y-20153999D01*
X18510000Y-48165000D02*
X23495000Y-43180000D01*
X18510000Y-49530000D02*
X18510000Y-48165000D01*
G04 #@! TO.N,Net-(R2-Pad2)*
X59580000Y-45720000D02*
X57150000Y-45720000D01*
X57150000Y-45720000D02*
X49530000Y-38100000D01*
X46990000Y-34845000D02*
X47545000Y-34290000D01*
X46990000Y-38100000D02*
X46990000Y-34845000D01*
X34290000Y-20506081D02*
X34290000Y-19304000D01*
X34290000Y-22035000D02*
X34290000Y-20506081D01*
X47545000Y-34290000D02*
X46545000Y-34290000D01*
X46545000Y-34290000D02*
X34290000Y-22035000D01*
G04 #@! TO.N,Net-(R3-Pad2)*
X47545000Y-30019000D02*
X36830000Y-19304000D01*
X47545000Y-31115000D02*
X47545000Y-30019000D01*
X48493372Y-31738372D02*
X47870000Y-31115000D01*
X48804999Y-32049999D02*
X48493372Y-31738372D01*
X48804999Y-42944999D02*
X48804999Y-32049999D01*
X51580000Y-45720000D02*
X48804999Y-42944999D01*
X52180000Y-45720000D02*
X51580000Y-45720000D01*
G04 #@! TO.N,Net-(J6-Pad2)*
X44450000Y-44370000D02*
X47625000Y-44370000D01*
X47625000Y-44370000D02*
X47625000Y-39370000D01*
G04 #@! TO.N,Net-(J5-Pad2)*
X50245000Y-34290000D02*
X50245000Y-31115000D01*
X54610000Y-34290000D02*
X54864000Y-34036000D01*
X50245000Y-34290000D02*
X54610000Y-34290000D01*
G04 #@! TO.N,Net-(J3-Pad2)*
X41990000Y-19384000D02*
X41910000Y-19304000D01*
X41910000Y-15748000D02*
X41910000Y-19304000D01*
X48514000Y-19304000D02*
X55880000Y-26670000D01*
X41910000Y-19304000D02*
X48514000Y-19304000D01*
X55880000Y-33020000D02*
X57150000Y-34290000D01*
X55880000Y-26670000D02*
X55880000Y-33020000D01*
X41910000Y-14648000D02*
X41910000Y-15748000D01*
X26670000Y-37285000D02*
X32664989Y-31290011D01*
X26670000Y-37385000D02*
X26670000Y-37285000D01*
X32664989Y-31290011D02*
X32664989Y-15634009D01*
X32664989Y-15634009D02*
X33725999Y-14572999D01*
X33725999Y-14572999D02*
X41834999Y-14572999D01*
X41834999Y-14572999D02*
X41910000Y-14648000D01*
G04 #@! TO.N,Net-(J2-Pad2)*
X47705000Y-46990000D02*
X47625000Y-47070000D01*
X52180000Y-46990000D02*
X47705000Y-46990000D01*
X35375000Y-58420000D02*
X35141320Y-58420000D01*
X47625000Y-47070000D02*
X46725000Y-47070000D01*
X35950000Y-58420000D02*
X35560000Y-58420000D01*
X47625000Y-46745000D02*
X35950000Y-58420000D01*
G04 #@! TO.N,Net-(J1-Pad2)*
X30480000Y-49530000D02*
X30480000Y-58420000D01*
G04 #@! TO.N,Net-(J1-Pad1)*
X45350000Y-47070000D02*
X44450000Y-47070000D01*
X45073372Y-46121628D02*
X44450000Y-46745000D01*
X45350010Y-45844990D02*
X45073372Y-46121628D01*
X48313180Y-45844990D02*
X45350010Y-45844990D01*
X48858189Y-46389999D02*
X48313180Y-45844990D01*
X57854999Y-46389999D02*
X48858189Y-46389999D01*
X58455000Y-46990000D02*
X57854999Y-46389999D01*
X59580000Y-46990000D02*
X58455000Y-46990000D01*
X33020000Y-48430000D02*
X33020000Y-49530000D01*
X44450000Y-46745000D02*
X34705000Y-46745000D01*
X34705000Y-46745000D02*
X33020000Y-48430000D01*
G04 #@! TO.N,/DHT*
X26670000Y-39985000D02*
X33114999Y-33540001D01*
X33114999Y-33540001D02*
X33114999Y-18739999D01*
X26670000Y-40085000D02*
X26670000Y-39985000D01*
X33114999Y-18739999D02*
X34931997Y-16923001D01*
X34931997Y-16923001D02*
X38194999Y-16923001D01*
X38520001Y-16597999D02*
X39370000Y-15748000D01*
X38194999Y-16923001D02*
X38520001Y-16597999D01*
X26670000Y-48260000D02*
X27940000Y-49530000D01*
X26670000Y-39760000D02*
X26670000Y-48260000D01*
G04 #@! TD*
D26*
G04 #@! TO.N,GND*
G36*
X62790001Y-50090000D02*
X53409925Y-50090000D01*
X53340000Y-50076091D01*
X53270074Y-50090000D01*
X53062972Y-50131195D01*
X52828119Y-50288119D01*
X52671195Y-50522972D01*
X52616091Y-50800000D01*
X52630000Y-50869926D01*
X52630001Y-62790000D01*
X23570000Y-62790000D01*
X23570000Y-59759925D01*
X23583909Y-59690000D01*
X23528805Y-59412972D01*
X23371881Y-59178119D01*
X23137028Y-59021195D01*
X22929926Y-58980000D01*
X22860000Y-58966091D01*
X22790075Y-58980000D01*
X13410000Y-58980000D01*
X13410000Y-31877000D01*
X22860000Y-31877000D01*
X22908601Y-31867333D01*
X22949803Y-31839803D01*
X22977333Y-31798601D01*
X22987000Y-31750000D01*
X22987000Y-31686647D01*
X23137028Y-31656805D01*
X23171281Y-31633918D01*
X22110200Y-32694999D01*
X20599847Y-32694999D01*
X20525000Y-32680111D01*
X20450153Y-32694999D01*
X20450149Y-32694999D01*
X20228464Y-32739095D01*
X19977072Y-32907070D01*
X19934672Y-32970526D01*
X17547440Y-35357759D01*
X17547440Y-34930000D01*
X17498157Y-34682235D01*
X17357809Y-34472191D01*
X17147765Y-34331843D01*
X16900000Y-34282560D01*
X14900000Y-34282560D01*
X14652235Y-34331843D01*
X14442191Y-34472191D01*
X14301843Y-34682235D01*
X14252560Y-34930000D01*
X14252560Y-38730000D01*
X14301843Y-38977765D01*
X14442191Y-39187809D01*
X14547215Y-39257984D01*
X14120530Y-39684669D01*
X14057071Y-39727071D01*
X13889096Y-39978464D01*
X13845000Y-40200149D01*
X13845000Y-40200153D01*
X13830112Y-40275000D01*
X13845000Y-40349847D01*
X13845001Y-48826288D01*
X13727569Y-48943720D01*
X13570000Y-49324126D01*
X13570000Y-49735874D01*
X13727569Y-50116280D01*
X14018720Y-50407431D01*
X14399126Y-50565000D01*
X14810874Y-50565000D01*
X14842329Y-50551971D01*
X14869096Y-50686538D01*
X14909818Y-50747482D01*
X15037071Y-50937930D01*
X15100527Y-50980330D01*
X18579668Y-54459472D01*
X18622069Y-54522929D01*
X18873461Y-54690904D01*
X19095146Y-54735000D01*
X19095150Y-54735000D01*
X19169997Y-54749888D01*
X19244844Y-54735000D01*
X22135197Y-54735000D01*
X28129672Y-60729477D01*
X28172070Y-60792930D01*
X28235523Y-60835328D01*
X28235525Y-60835330D01*
X28360901Y-60919103D01*
X28423462Y-60960905D01*
X28645147Y-61005001D01*
X28645151Y-61005001D01*
X28719998Y-61019889D01*
X28794845Y-61005001D01*
X38740152Y-61005001D01*
X38814999Y-61019889D01*
X38889846Y-61005001D01*
X38889851Y-61005001D01*
X39111536Y-60960905D01*
X39362928Y-60792930D01*
X39405330Y-60729471D01*
X39765941Y-60368860D01*
X40215322Y-60555000D01*
X41064678Y-60555000D01*
X41849380Y-60229966D01*
X42145376Y-59933970D01*
X44385635Y-59933970D01*
X44545418Y-60252739D01*
X45336187Y-60562723D01*
X46185387Y-60546497D01*
X46894582Y-60252739D01*
X47054365Y-59933970D01*
X45720000Y-58599605D01*
X44385635Y-59933970D01*
X42145376Y-59933970D01*
X42449966Y-59629380D01*
X42775000Y-58844678D01*
X42775000Y-58036187D01*
X43577277Y-58036187D01*
X43593503Y-58885387D01*
X43887261Y-59594582D01*
X44206030Y-59754365D01*
X45540395Y-58420000D01*
X45899605Y-58420000D01*
X47233970Y-59754365D01*
X47552739Y-59594582D01*
X47862723Y-58803813D01*
X47846497Y-57954613D01*
X47552739Y-57245418D01*
X47233970Y-57085635D01*
X45899605Y-58420000D01*
X45540395Y-58420000D01*
X44206030Y-57085635D01*
X43887261Y-57245418D01*
X43577277Y-58036187D01*
X42775000Y-58036187D01*
X42775000Y-57995322D01*
X42588860Y-57545941D01*
X43228771Y-56906030D01*
X44385635Y-56906030D01*
X45720000Y-58240395D01*
X47054365Y-56906030D01*
X46894582Y-56587261D01*
X46103813Y-56277277D01*
X45254613Y-56293503D01*
X44545418Y-56587261D01*
X44385635Y-56906030D01*
X43228771Y-56906030D01*
X51023911Y-49110891D01*
X51057235Y-49133157D01*
X51305000Y-49182440D01*
X53055000Y-49182440D01*
X53302765Y-49133157D01*
X53512809Y-48992809D01*
X53653157Y-48782765D01*
X53702440Y-48535000D01*
X53702440Y-48412362D01*
X53764801Y-48350001D01*
X58057560Y-48350001D01*
X58057560Y-48535000D01*
X58106843Y-48782765D01*
X58247191Y-48992809D01*
X58457235Y-49133157D01*
X58705000Y-49182440D01*
X60455000Y-49182440D01*
X60702765Y-49133157D01*
X60912809Y-48992809D01*
X61053157Y-48782765D01*
X61102440Y-48535000D01*
X61102440Y-48245166D01*
X61262930Y-48137930D01*
X61288965Y-48098965D01*
X61327930Y-48072930D01*
X61495905Y-47821538D01*
X61540001Y-47599853D01*
X61540001Y-47599848D01*
X61554889Y-47525001D01*
X61540001Y-47450154D01*
X61540001Y-41974849D01*
X61554889Y-41900001D01*
X61540001Y-41825153D01*
X61540001Y-41825149D01*
X61495905Y-41603464D01*
X61495905Y-41603463D01*
X61370330Y-41415528D01*
X61327930Y-41352072D01*
X61264474Y-41309672D01*
X59188237Y-39233436D01*
X59194888Y-39200001D01*
X59180000Y-39125154D01*
X59180000Y-27948178D01*
X59490625Y-27740625D01*
X59818839Y-27249418D01*
X59934092Y-26670000D01*
X59818839Y-26090582D01*
X59490625Y-25599375D01*
X58999418Y-25271161D01*
X58566256Y-25185000D01*
X58273744Y-25185000D01*
X57840582Y-25271161D01*
X57349375Y-25599375D01*
X57150000Y-25897761D01*
X56950625Y-25599375D01*
X56459418Y-25271161D01*
X56026256Y-25185000D01*
X55733744Y-25185000D01*
X55513593Y-25228791D01*
X53854802Y-23570000D01*
X62790000Y-23570000D01*
X62790001Y-50090000D01*
X62790001Y-50090000D01*
G37*
X62790001Y-50090000D02*
X53409925Y-50090000D01*
X53340000Y-50076091D01*
X53270074Y-50090000D01*
X53062972Y-50131195D01*
X52828119Y-50288119D01*
X52671195Y-50522972D01*
X52616091Y-50800000D01*
X52630000Y-50869926D01*
X52630001Y-62790000D01*
X23570000Y-62790000D01*
X23570000Y-59759925D01*
X23583909Y-59690000D01*
X23528805Y-59412972D01*
X23371881Y-59178119D01*
X23137028Y-59021195D01*
X22929926Y-58980000D01*
X22860000Y-58966091D01*
X22790075Y-58980000D01*
X13410000Y-58980000D01*
X13410000Y-31877000D01*
X22860000Y-31877000D01*
X22908601Y-31867333D01*
X22949803Y-31839803D01*
X22977333Y-31798601D01*
X22987000Y-31750000D01*
X22987000Y-31686647D01*
X23137028Y-31656805D01*
X23171281Y-31633918D01*
X22110200Y-32694999D01*
X20599847Y-32694999D01*
X20525000Y-32680111D01*
X20450153Y-32694999D01*
X20450149Y-32694999D01*
X20228464Y-32739095D01*
X19977072Y-32907070D01*
X19934672Y-32970526D01*
X17547440Y-35357759D01*
X17547440Y-34930000D01*
X17498157Y-34682235D01*
X17357809Y-34472191D01*
X17147765Y-34331843D01*
X16900000Y-34282560D01*
X14900000Y-34282560D01*
X14652235Y-34331843D01*
X14442191Y-34472191D01*
X14301843Y-34682235D01*
X14252560Y-34930000D01*
X14252560Y-38730000D01*
X14301843Y-38977765D01*
X14442191Y-39187809D01*
X14547215Y-39257984D01*
X14120530Y-39684669D01*
X14057071Y-39727071D01*
X13889096Y-39978464D01*
X13845000Y-40200149D01*
X13845000Y-40200153D01*
X13830112Y-40275000D01*
X13845000Y-40349847D01*
X13845001Y-48826288D01*
X13727569Y-48943720D01*
X13570000Y-49324126D01*
X13570000Y-49735874D01*
X13727569Y-50116280D01*
X14018720Y-50407431D01*
X14399126Y-50565000D01*
X14810874Y-50565000D01*
X14842329Y-50551971D01*
X14869096Y-50686538D01*
X14909818Y-50747482D01*
X15037071Y-50937930D01*
X15100527Y-50980330D01*
X18579668Y-54459472D01*
X18622069Y-54522929D01*
X18873461Y-54690904D01*
X19095146Y-54735000D01*
X19095150Y-54735000D01*
X19169997Y-54749888D01*
X19244844Y-54735000D01*
X22135197Y-54735000D01*
X28129672Y-60729477D01*
X28172070Y-60792930D01*
X28235523Y-60835328D01*
X28235525Y-60835330D01*
X28360901Y-60919103D01*
X28423462Y-60960905D01*
X28645147Y-61005001D01*
X28645151Y-61005001D01*
X28719998Y-61019889D01*
X28794845Y-61005001D01*
X38740152Y-61005001D01*
X38814999Y-61019889D01*
X38889846Y-61005001D01*
X38889851Y-61005001D01*
X39111536Y-60960905D01*
X39362928Y-60792930D01*
X39405330Y-60729471D01*
X39765941Y-60368860D01*
X40215322Y-60555000D01*
X41064678Y-60555000D01*
X41849380Y-60229966D01*
X42145376Y-59933970D01*
X44385635Y-59933970D01*
X44545418Y-60252739D01*
X45336187Y-60562723D01*
X46185387Y-60546497D01*
X46894582Y-60252739D01*
X47054365Y-59933970D01*
X45720000Y-58599605D01*
X44385635Y-59933970D01*
X42145376Y-59933970D01*
X42449966Y-59629380D01*
X42775000Y-58844678D01*
X42775000Y-58036187D01*
X43577277Y-58036187D01*
X43593503Y-58885387D01*
X43887261Y-59594582D01*
X44206030Y-59754365D01*
X45540395Y-58420000D01*
X45899605Y-58420000D01*
X47233970Y-59754365D01*
X47552739Y-59594582D01*
X47862723Y-58803813D01*
X47846497Y-57954613D01*
X47552739Y-57245418D01*
X47233970Y-57085635D01*
X45899605Y-58420000D01*
X45540395Y-58420000D01*
X44206030Y-57085635D01*
X43887261Y-57245418D01*
X43577277Y-58036187D01*
X42775000Y-58036187D01*
X42775000Y-57995322D01*
X42588860Y-57545941D01*
X43228771Y-56906030D01*
X44385635Y-56906030D01*
X45720000Y-58240395D01*
X47054365Y-56906030D01*
X46894582Y-56587261D01*
X46103813Y-56277277D01*
X45254613Y-56293503D01*
X44545418Y-56587261D01*
X44385635Y-56906030D01*
X43228771Y-56906030D01*
X51023911Y-49110891D01*
X51057235Y-49133157D01*
X51305000Y-49182440D01*
X53055000Y-49182440D01*
X53302765Y-49133157D01*
X53512809Y-48992809D01*
X53653157Y-48782765D01*
X53702440Y-48535000D01*
X53702440Y-48412362D01*
X53764801Y-48350001D01*
X58057560Y-48350001D01*
X58057560Y-48535000D01*
X58106843Y-48782765D01*
X58247191Y-48992809D01*
X58457235Y-49133157D01*
X58705000Y-49182440D01*
X60455000Y-49182440D01*
X60702765Y-49133157D01*
X60912809Y-48992809D01*
X61053157Y-48782765D01*
X61102440Y-48535000D01*
X61102440Y-48245166D01*
X61262930Y-48137930D01*
X61288965Y-48098965D01*
X61327930Y-48072930D01*
X61495905Y-47821538D01*
X61540001Y-47599853D01*
X61540001Y-47599848D01*
X61554889Y-47525001D01*
X61540001Y-47450154D01*
X61540001Y-41974849D01*
X61554889Y-41900001D01*
X61540001Y-41825153D01*
X61540001Y-41825149D01*
X61495905Y-41603464D01*
X61495905Y-41603463D01*
X61370330Y-41415528D01*
X61327930Y-41352072D01*
X61264474Y-41309672D01*
X59188237Y-39233436D01*
X59194888Y-39200001D01*
X59180000Y-39125154D01*
X59180000Y-27948178D01*
X59490625Y-27740625D01*
X59818839Y-27249418D01*
X59934092Y-26670000D01*
X59818839Y-26090582D01*
X59490625Y-25599375D01*
X58999418Y-25271161D01*
X58566256Y-25185000D01*
X58273744Y-25185000D01*
X57840582Y-25271161D01*
X57349375Y-25599375D01*
X57150000Y-25897761D01*
X56950625Y-25599375D01*
X56459418Y-25271161D01*
X56026256Y-25185000D01*
X55733744Y-25185000D01*
X55513593Y-25228791D01*
X53854802Y-23570000D01*
X62790000Y-23570000D01*
X62790001Y-50090000D01*
G36*
X52630000Y-22345199D02*
X49104331Y-18819530D01*
X49061929Y-18756071D01*
X48810537Y-18588096D01*
X48588852Y-18544000D01*
X48588847Y-18544000D01*
X48514000Y-18529112D01*
X48439153Y-18544000D01*
X43407440Y-18544000D01*
X43407440Y-18454000D01*
X43358157Y-18206235D01*
X43217809Y-17996191D01*
X43007765Y-17855843D01*
X42760000Y-17806560D01*
X42670000Y-17806560D01*
X42670000Y-17245440D01*
X42760000Y-17245440D01*
X43007765Y-17196157D01*
X43217809Y-17055809D01*
X43358157Y-16845765D01*
X43407440Y-16598000D01*
X43407440Y-14898000D01*
X43358157Y-14650235D01*
X43217809Y-14440191D01*
X43007765Y-14299843D01*
X42760000Y-14250560D01*
X42558483Y-14250560D01*
X42457929Y-14100071D01*
X42412969Y-14070030D01*
X42382928Y-14025070D01*
X42131536Y-13857095D01*
X41909851Y-13812999D01*
X41909846Y-13812999D01*
X41834999Y-13798111D01*
X41760152Y-13812999D01*
X33800847Y-13812999D01*
X33725999Y-13798111D01*
X33651151Y-13812999D01*
X33651147Y-13812999D01*
X33477604Y-13847519D01*
X33429461Y-13857095D01*
X33405492Y-13873111D01*
X33178070Y-14025070D01*
X33135670Y-14088526D01*
X32180517Y-15043680D01*
X32117061Y-15086080D01*
X32074661Y-15149536D01*
X32074660Y-15149537D01*
X31949086Y-15337472D01*
X31890101Y-15634009D01*
X31904990Y-15708861D01*
X31904989Y-30975209D01*
X27913861Y-34966338D01*
X28005000Y-34746309D01*
X28005000Y-34330750D01*
X27846250Y-34172000D01*
X26797000Y-34172000D01*
X26797000Y-35096250D01*
X26955750Y-35255000D01*
X27496310Y-35255000D01*
X27716337Y-35163862D01*
X26392639Y-36487560D01*
X26219999Y-36487560D01*
X25876564Y-36555873D01*
X25585414Y-36750414D01*
X25390873Y-37041564D01*
X25322560Y-37384999D01*
X25322560Y-38035001D01*
X25390873Y-38378436D01*
X25585414Y-38669586D01*
X25683313Y-38735000D01*
X25585414Y-38800414D01*
X25390873Y-39091564D01*
X25322560Y-39434999D01*
X25322560Y-40085001D01*
X25390873Y-40428436D01*
X25585414Y-40719586D01*
X25876564Y-40914127D01*
X25910000Y-40920778D01*
X25910001Y-48185148D01*
X25895112Y-48260000D01*
X25910001Y-48334852D01*
X25949813Y-48535000D01*
X25954097Y-48556537D01*
X26067688Y-48726537D01*
X26122072Y-48807929D01*
X26185528Y-48850329D01*
X26498791Y-49163592D01*
X26425908Y-49530000D01*
X26541161Y-50109418D01*
X26869375Y-50600625D01*
X27360582Y-50928839D01*
X27793744Y-51015000D01*
X28086256Y-51015000D01*
X28519418Y-50928839D01*
X29010625Y-50600625D01*
X29210000Y-50302239D01*
X29409375Y-50600625D01*
X29720000Y-50808178D01*
X29720001Y-56272560D01*
X28980000Y-56272560D01*
X28732235Y-56321843D01*
X28522191Y-56462191D01*
X28381843Y-56672235D01*
X28332560Y-56920000D01*
X28332560Y-58782759D01*
X23040329Y-53490530D01*
X23040327Y-53490527D01*
X22997927Y-53427071D01*
X22934471Y-53384671D01*
X22350000Y-52800201D01*
X22350000Y-50745614D01*
X22437765Y-50728157D01*
X22647809Y-50587809D01*
X22737030Y-50454282D01*
X22791178Y-50508430D01*
X22906871Y-50392737D01*
X22956383Y-50618164D01*
X23421036Y-50777807D01*
X23911413Y-50747482D01*
X24223617Y-50618164D01*
X24273130Y-50392735D01*
X23590000Y-49709605D01*
X23575858Y-49723748D01*
X23396253Y-49544143D01*
X23410395Y-49530000D01*
X23769605Y-49530000D01*
X24452735Y-50213130D01*
X24678164Y-50163617D01*
X24837807Y-49698964D01*
X24807482Y-49208587D01*
X24678164Y-48896383D01*
X24452735Y-48846870D01*
X23769605Y-49530000D01*
X23410395Y-49530000D01*
X23396253Y-49515858D01*
X23575858Y-49336253D01*
X23590000Y-49350395D01*
X24273130Y-48667265D01*
X24223617Y-48441836D01*
X23758964Y-48282193D01*
X23268587Y-48312518D01*
X22956383Y-48441836D01*
X22906871Y-48667263D01*
X22791178Y-48551570D01*
X22737030Y-48605718D01*
X22647809Y-48472191D01*
X22437765Y-48331843D01*
X22190000Y-48282560D01*
X20990000Y-48282560D01*
X20742235Y-48331843D01*
X20532191Y-48472191D01*
X20391843Y-48682235D01*
X20342560Y-48930000D01*
X20342560Y-50130000D01*
X20391843Y-50377765D01*
X20532191Y-50587809D01*
X20742235Y-50728157D01*
X20830000Y-50745614D01*
X20830001Y-53040150D01*
X20815112Y-53115002D01*
X20830001Y-53189854D01*
X20835003Y-53215000D01*
X19484800Y-53215000D01*
X17047239Y-50777440D01*
X17110000Y-50777440D01*
X17357765Y-50728157D01*
X17567809Y-50587809D01*
X17657030Y-50454282D01*
X17711178Y-50508430D01*
X17826871Y-50392737D01*
X17876383Y-50618164D01*
X18341036Y-50777807D01*
X18831413Y-50747482D01*
X19143617Y-50618164D01*
X19193130Y-50392735D01*
X18510000Y-49709605D01*
X18495858Y-49723748D01*
X18316253Y-49544143D01*
X18330395Y-49530000D01*
X18689605Y-49530000D01*
X19372735Y-50213130D01*
X19598164Y-50163617D01*
X19757807Y-49698964D01*
X19727482Y-49208587D01*
X19598164Y-48896383D01*
X19372735Y-48846870D01*
X18689605Y-49530000D01*
X18330395Y-49530000D01*
X18316253Y-49515858D01*
X18495858Y-49336253D01*
X18510000Y-49350395D01*
X19193130Y-48667265D01*
X19143617Y-48441836D01*
X18678964Y-48282193D01*
X18188587Y-48312518D01*
X17876383Y-48441836D01*
X17826871Y-48667263D01*
X17711178Y-48551570D01*
X17694468Y-48568280D01*
X17815904Y-48386537D01*
X17815905Y-48386536D01*
X17860001Y-48164851D01*
X17860001Y-48164847D01*
X17874889Y-48090000D01*
X17860001Y-48015153D01*
X17860001Y-43544740D01*
X22003964Y-43544740D01*
X22182760Y-43976417D01*
X22587424Y-44417966D01*
X23130258Y-44671046D01*
X23368000Y-44550997D01*
X23368000Y-43307000D01*
X23622000Y-43307000D01*
X23622000Y-44550997D01*
X23859742Y-44671046D01*
X24402576Y-44417966D01*
X24807240Y-43976417D01*
X24986036Y-43544740D01*
X24865378Y-43307000D01*
X23622000Y-43307000D01*
X23368000Y-43307000D01*
X22124622Y-43307000D01*
X22003964Y-43544740D01*
X17860001Y-43544740D01*
X17860001Y-42815260D01*
X22003964Y-42815260D01*
X22124622Y-43053000D01*
X23368000Y-43053000D01*
X23368000Y-41809003D01*
X23622000Y-41809003D01*
X23622000Y-43053000D01*
X24865378Y-43053000D01*
X24986036Y-42815260D01*
X24807240Y-42383583D01*
X24402576Y-41942034D01*
X23859742Y-41688954D01*
X23622000Y-41809003D01*
X23368000Y-41809003D01*
X23130258Y-41688954D01*
X22587424Y-41942034D01*
X22182760Y-42383583D01*
X22003964Y-42815260D01*
X17860001Y-42815260D01*
X17860001Y-41994800D01*
X20597800Y-39257002D01*
X20723748Y-39257002D01*
X20565000Y-39415750D01*
X20565000Y-40006310D01*
X20661673Y-40239699D01*
X20840302Y-40418327D01*
X21073691Y-40515000D01*
X21914250Y-40515000D01*
X22073000Y-40356250D01*
X22073000Y-39257000D01*
X22327000Y-39257000D01*
X22327000Y-40356250D01*
X22485750Y-40515000D01*
X23326309Y-40515000D01*
X23559698Y-40418327D01*
X23738327Y-40239699D01*
X23835000Y-40006310D01*
X23835000Y-39415750D01*
X23676250Y-39257000D01*
X22327000Y-39257000D01*
X22073000Y-39257000D01*
X22053000Y-39257000D01*
X22053000Y-39003000D01*
X22073000Y-39003000D01*
X22073000Y-38983000D01*
X22327000Y-38983000D01*
X22327000Y-39003000D01*
X23676250Y-39003000D01*
X23835000Y-38844250D01*
X23835000Y-38253690D01*
X23738327Y-38020301D01*
X23697073Y-37979047D01*
X23798157Y-37827765D01*
X23847440Y-37580000D01*
X23847440Y-36080000D01*
X23798157Y-35832235D01*
X23696436Y-35680000D01*
X23798157Y-35527765D01*
X23845451Y-35290000D01*
X23960153Y-35290000D01*
X24035000Y-35304888D01*
X24109847Y-35290000D01*
X24109852Y-35290000D01*
X24331537Y-35245904D01*
X24582929Y-35077929D01*
X24625331Y-35014470D01*
X25467799Y-34172002D01*
X25493748Y-34172002D01*
X25335000Y-34330750D01*
X25335000Y-34746309D01*
X25431673Y-34979698D01*
X25610301Y-35158327D01*
X25843690Y-35255000D01*
X26384250Y-35255000D01*
X26543000Y-35096250D01*
X26543000Y-34172000D01*
X26523000Y-34172000D01*
X26523000Y-33918000D01*
X26543000Y-33918000D01*
X26543000Y-33898000D01*
X26797000Y-33898000D01*
X26797000Y-33918000D01*
X27846250Y-33918000D01*
X28005000Y-33759250D01*
X28005000Y-33343691D01*
X27908327Y-33110302D01*
X27753403Y-32955377D01*
X27754586Y-32954586D01*
X27949127Y-32663436D01*
X28017440Y-32320001D01*
X28017440Y-31669999D01*
X27949127Y-31326564D01*
X27754586Y-31035414D01*
X27463436Y-30840873D01*
X27120001Y-30772560D01*
X26219999Y-30772560D01*
X26172866Y-30781935D01*
X28614802Y-28340000D01*
X28780874Y-28340000D01*
X29161280Y-28182431D01*
X29452431Y-27891280D01*
X29610000Y-27510874D01*
X29610000Y-27099126D01*
X29452431Y-26718720D01*
X29161280Y-26427569D01*
X28780874Y-26270000D01*
X28369126Y-26270000D01*
X27988720Y-26427569D01*
X27697569Y-26718720D01*
X27540000Y-27099126D01*
X27540000Y-27265198D01*
X23505918Y-31299281D01*
X23528805Y-31265028D01*
X23583909Y-30988000D01*
X23570000Y-30918074D01*
X23570000Y-13410000D01*
X52630001Y-13410000D01*
X52630000Y-22345199D01*
X52630000Y-22345199D01*
G37*
X52630000Y-22345199D02*
X49104331Y-18819530D01*
X49061929Y-18756071D01*
X48810537Y-18588096D01*
X48588852Y-18544000D01*
X48588847Y-18544000D01*
X48514000Y-18529112D01*
X48439153Y-18544000D01*
X43407440Y-18544000D01*
X43407440Y-18454000D01*
X43358157Y-18206235D01*
X43217809Y-17996191D01*
X43007765Y-17855843D01*
X42760000Y-17806560D01*
X42670000Y-17806560D01*
X42670000Y-17245440D01*
X42760000Y-17245440D01*
X43007765Y-17196157D01*
X43217809Y-17055809D01*
X43358157Y-16845765D01*
X43407440Y-16598000D01*
X43407440Y-14898000D01*
X43358157Y-14650235D01*
X43217809Y-14440191D01*
X43007765Y-14299843D01*
X42760000Y-14250560D01*
X42558483Y-14250560D01*
X42457929Y-14100071D01*
X42412969Y-14070030D01*
X42382928Y-14025070D01*
X42131536Y-13857095D01*
X41909851Y-13812999D01*
X41909846Y-13812999D01*
X41834999Y-13798111D01*
X41760152Y-13812999D01*
X33800847Y-13812999D01*
X33725999Y-13798111D01*
X33651151Y-13812999D01*
X33651147Y-13812999D01*
X33477604Y-13847519D01*
X33429461Y-13857095D01*
X33405492Y-13873111D01*
X33178070Y-14025070D01*
X33135670Y-14088526D01*
X32180517Y-15043680D01*
X32117061Y-15086080D01*
X32074661Y-15149536D01*
X32074660Y-15149537D01*
X31949086Y-15337472D01*
X31890101Y-15634009D01*
X31904990Y-15708861D01*
X31904989Y-30975209D01*
X27913861Y-34966338D01*
X28005000Y-34746309D01*
X28005000Y-34330750D01*
X27846250Y-34172000D01*
X26797000Y-34172000D01*
X26797000Y-35096250D01*
X26955750Y-35255000D01*
X27496310Y-35255000D01*
X27716337Y-35163862D01*
X26392639Y-36487560D01*
X26219999Y-36487560D01*
X25876564Y-36555873D01*
X25585414Y-36750414D01*
X25390873Y-37041564D01*
X25322560Y-37384999D01*
X25322560Y-38035001D01*
X25390873Y-38378436D01*
X25585414Y-38669586D01*
X25683313Y-38735000D01*
X25585414Y-38800414D01*
X25390873Y-39091564D01*
X25322560Y-39434999D01*
X25322560Y-40085001D01*
X25390873Y-40428436D01*
X25585414Y-40719586D01*
X25876564Y-40914127D01*
X25910000Y-40920778D01*
X25910001Y-48185148D01*
X25895112Y-48260000D01*
X25910001Y-48334852D01*
X25949813Y-48535000D01*
X25954097Y-48556537D01*
X26067688Y-48726537D01*
X26122072Y-48807929D01*
X26185528Y-48850329D01*
X26498791Y-49163592D01*
X26425908Y-49530000D01*
X26541161Y-50109418D01*
X26869375Y-50600625D01*
X27360582Y-50928839D01*
X27793744Y-51015000D01*
X28086256Y-51015000D01*
X28519418Y-50928839D01*
X29010625Y-50600625D01*
X29210000Y-50302239D01*
X29409375Y-50600625D01*
X29720000Y-50808178D01*
X29720001Y-56272560D01*
X28980000Y-56272560D01*
X28732235Y-56321843D01*
X28522191Y-56462191D01*
X28381843Y-56672235D01*
X28332560Y-56920000D01*
X28332560Y-58782759D01*
X23040329Y-53490530D01*
X23040327Y-53490527D01*
X22997927Y-53427071D01*
X22934471Y-53384671D01*
X22350000Y-52800201D01*
X22350000Y-50745614D01*
X22437765Y-50728157D01*
X22647809Y-50587809D01*
X22737030Y-50454282D01*
X22791178Y-50508430D01*
X22906871Y-50392737D01*
X22956383Y-50618164D01*
X23421036Y-50777807D01*
X23911413Y-50747482D01*
X24223617Y-50618164D01*
X24273130Y-50392735D01*
X23590000Y-49709605D01*
X23575858Y-49723748D01*
X23396253Y-49544143D01*
X23410395Y-49530000D01*
X23769605Y-49530000D01*
X24452735Y-50213130D01*
X24678164Y-50163617D01*
X24837807Y-49698964D01*
X24807482Y-49208587D01*
X24678164Y-48896383D01*
X24452735Y-48846870D01*
X23769605Y-49530000D01*
X23410395Y-49530000D01*
X23396253Y-49515858D01*
X23575858Y-49336253D01*
X23590000Y-49350395D01*
X24273130Y-48667265D01*
X24223617Y-48441836D01*
X23758964Y-48282193D01*
X23268587Y-48312518D01*
X22956383Y-48441836D01*
X22906871Y-48667263D01*
X22791178Y-48551570D01*
X22737030Y-48605718D01*
X22647809Y-48472191D01*
X22437765Y-48331843D01*
X22190000Y-48282560D01*
X20990000Y-48282560D01*
X20742235Y-48331843D01*
X20532191Y-48472191D01*
X20391843Y-48682235D01*
X20342560Y-48930000D01*
X20342560Y-50130000D01*
X20391843Y-50377765D01*
X20532191Y-50587809D01*
X20742235Y-50728157D01*
X20830000Y-50745614D01*
X20830001Y-53040150D01*
X20815112Y-53115002D01*
X20830001Y-53189854D01*
X20835003Y-53215000D01*
X19484800Y-53215000D01*
X17047239Y-50777440D01*
X17110000Y-50777440D01*
X17357765Y-50728157D01*
X17567809Y-50587809D01*
X17657030Y-50454282D01*
X17711178Y-50508430D01*
X17826871Y-50392737D01*
X17876383Y-50618164D01*
X18341036Y-50777807D01*
X18831413Y-50747482D01*
X19143617Y-50618164D01*
X19193130Y-50392735D01*
X18510000Y-49709605D01*
X18495858Y-49723748D01*
X18316253Y-49544143D01*
X18330395Y-49530000D01*
X18689605Y-49530000D01*
X19372735Y-50213130D01*
X19598164Y-50163617D01*
X19757807Y-49698964D01*
X19727482Y-49208587D01*
X19598164Y-48896383D01*
X19372735Y-48846870D01*
X18689605Y-49530000D01*
X18330395Y-49530000D01*
X18316253Y-49515858D01*
X18495858Y-49336253D01*
X18510000Y-49350395D01*
X19193130Y-48667265D01*
X19143617Y-48441836D01*
X18678964Y-48282193D01*
X18188587Y-48312518D01*
X17876383Y-48441836D01*
X17826871Y-48667263D01*
X17711178Y-48551570D01*
X17694468Y-48568280D01*
X17815904Y-48386537D01*
X17815905Y-48386536D01*
X17860001Y-48164851D01*
X17860001Y-48164847D01*
X17874889Y-48090000D01*
X17860001Y-48015153D01*
X17860001Y-43544740D01*
X22003964Y-43544740D01*
X22182760Y-43976417D01*
X22587424Y-44417966D01*
X23130258Y-44671046D01*
X23368000Y-44550997D01*
X23368000Y-43307000D01*
X23622000Y-43307000D01*
X23622000Y-44550997D01*
X23859742Y-44671046D01*
X24402576Y-44417966D01*
X24807240Y-43976417D01*
X24986036Y-43544740D01*
X24865378Y-43307000D01*
X23622000Y-43307000D01*
X23368000Y-43307000D01*
X22124622Y-43307000D01*
X22003964Y-43544740D01*
X17860001Y-43544740D01*
X17860001Y-42815260D01*
X22003964Y-42815260D01*
X22124622Y-43053000D01*
X23368000Y-43053000D01*
X23368000Y-41809003D01*
X23622000Y-41809003D01*
X23622000Y-43053000D01*
X24865378Y-43053000D01*
X24986036Y-42815260D01*
X24807240Y-42383583D01*
X24402576Y-41942034D01*
X23859742Y-41688954D01*
X23622000Y-41809003D01*
X23368000Y-41809003D01*
X23130258Y-41688954D01*
X22587424Y-41942034D01*
X22182760Y-42383583D01*
X22003964Y-42815260D01*
X17860001Y-42815260D01*
X17860001Y-41994800D01*
X20597800Y-39257002D01*
X20723748Y-39257002D01*
X20565000Y-39415750D01*
X20565000Y-40006310D01*
X20661673Y-40239699D01*
X20840302Y-40418327D01*
X21073691Y-40515000D01*
X21914250Y-40515000D01*
X22073000Y-40356250D01*
X22073000Y-39257000D01*
X22327000Y-39257000D01*
X22327000Y-40356250D01*
X22485750Y-40515000D01*
X23326309Y-40515000D01*
X23559698Y-40418327D01*
X23738327Y-40239699D01*
X23835000Y-40006310D01*
X23835000Y-39415750D01*
X23676250Y-39257000D01*
X22327000Y-39257000D01*
X22073000Y-39257000D01*
X22053000Y-39257000D01*
X22053000Y-39003000D01*
X22073000Y-39003000D01*
X22073000Y-38983000D01*
X22327000Y-38983000D01*
X22327000Y-39003000D01*
X23676250Y-39003000D01*
X23835000Y-38844250D01*
X23835000Y-38253690D01*
X23738327Y-38020301D01*
X23697073Y-37979047D01*
X23798157Y-37827765D01*
X23847440Y-37580000D01*
X23847440Y-36080000D01*
X23798157Y-35832235D01*
X23696436Y-35680000D01*
X23798157Y-35527765D01*
X23845451Y-35290000D01*
X23960153Y-35290000D01*
X24035000Y-35304888D01*
X24109847Y-35290000D01*
X24109852Y-35290000D01*
X24331537Y-35245904D01*
X24582929Y-35077929D01*
X24625331Y-35014470D01*
X25467799Y-34172002D01*
X25493748Y-34172002D01*
X25335000Y-34330750D01*
X25335000Y-34746309D01*
X25431673Y-34979698D01*
X25610301Y-35158327D01*
X25843690Y-35255000D01*
X26384250Y-35255000D01*
X26543000Y-35096250D01*
X26543000Y-34172000D01*
X26523000Y-34172000D01*
X26523000Y-33918000D01*
X26543000Y-33918000D01*
X26543000Y-33898000D01*
X26797000Y-33898000D01*
X26797000Y-33918000D01*
X27846250Y-33918000D01*
X28005000Y-33759250D01*
X28005000Y-33343691D01*
X27908327Y-33110302D01*
X27753403Y-32955377D01*
X27754586Y-32954586D01*
X27949127Y-32663436D01*
X28017440Y-32320001D01*
X28017440Y-31669999D01*
X27949127Y-31326564D01*
X27754586Y-31035414D01*
X27463436Y-30840873D01*
X27120001Y-30772560D01*
X26219999Y-30772560D01*
X26172866Y-30781935D01*
X28614802Y-28340000D01*
X28780874Y-28340000D01*
X29161280Y-28182431D01*
X29452431Y-27891280D01*
X29610000Y-27510874D01*
X29610000Y-27099126D01*
X29452431Y-26718720D01*
X29161280Y-26427569D01*
X28780874Y-26270000D01*
X28369126Y-26270000D01*
X27988720Y-26427569D01*
X27697569Y-26718720D01*
X27540000Y-27099126D01*
X27540000Y-27265198D01*
X23505918Y-31299281D01*
X23528805Y-31265028D01*
X23583909Y-30988000D01*
X23570000Y-30918074D01*
X23570000Y-13410000D01*
X52630001Y-13410000D01*
X52630000Y-22345199D01*
G36*
X53539375Y-35360625D02*
X54030582Y-35688839D01*
X54463744Y-35775000D01*
X54756256Y-35775000D01*
X55189418Y-35688839D01*
X55680625Y-35360625D01*
X55692816Y-35342381D01*
X55701843Y-35387765D01*
X55842191Y-35597809D01*
X56052235Y-35738157D01*
X56300000Y-35787440D01*
X57660001Y-35787440D01*
X57660001Y-37872560D01*
X56300000Y-37872560D01*
X56052235Y-37921843D01*
X55842191Y-38062191D01*
X55701843Y-38272235D01*
X55692816Y-38317619D01*
X55680625Y-38299375D01*
X55189418Y-37971161D01*
X54756256Y-37885000D01*
X54463744Y-37885000D01*
X54030582Y-37971161D01*
X53539375Y-38299375D01*
X53211161Y-38790582D01*
X53095908Y-39370000D01*
X53211161Y-39949418D01*
X53539375Y-40440625D01*
X54030582Y-40768839D01*
X54463744Y-40855000D01*
X54756256Y-40855000D01*
X55189418Y-40768839D01*
X55680625Y-40440625D01*
X55692816Y-40422381D01*
X55701843Y-40467765D01*
X55842191Y-40677809D01*
X56052235Y-40818157D01*
X56300000Y-40867440D01*
X58000000Y-40867440D01*
X58247765Y-40818157D01*
X58457809Y-40677809D01*
X58467902Y-40662704D01*
X60020002Y-42214804D01*
X60020002Y-43540000D01*
X59865750Y-43540000D01*
X59707000Y-43698750D01*
X59707000Y-44323000D01*
X59727000Y-44323000D01*
X59727000Y-44577000D01*
X59707000Y-44577000D01*
X59707000Y-44597000D01*
X59453000Y-44597000D01*
X59453000Y-44577000D01*
X58228750Y-44577000D01*
X58070000Y-44735750D01*
X58070000Y-44851310D01*
X58115021Y-44960000D01*
X57464803Y-44960000D01*
X56553493Y-44048690D01*
X58070000Y-44048690D01*
X58070000Y-44164250D01*
X58228750Y-44323000D01*
X59453000Y-44323000D01*
X59453000Y-43698750D01*
X59294250Y-43540000D01*
X58578691Y-43540000D01*
X58345302Y-43636673D01*
X58166673Y-43815301D01*
X58070000Y-44048690D01*
X56553493Y-44048690D01*
X50565000Y-38060199D01*
X50565000Y-37894126D01*
X50407431Y-37513720D01*
X50116280Y-37222569D01*
X49735874Y-37065000D01*
X49564999Y-37065000D01*
X49564999Y-35631473D01*
X49594999Y-35637440D01*
X50245001Y-35637440D01*
X50588436Y-35569127D01*
X50879586Y-35374586D01*
X51074127Y-35083436D01*
X51080778Y-35050000D01*
X53331822Y-35050000D01*
X53539375Y-35360625D01*
X53539375Y-35360625D01*
G37*
X53539375Y-35360625D02*
X54030582Y-35688839D01*
X54463744Y-35775000D01*
X54756256Y-35775000D01*
X55189418Y-35688839D01*
X55680625Y-35360625D01*
X55692816Y-35342381D01*
X55701843Y-35387765D01*
X55842191Y-35597809D01*
X56052235Y-35738157D01*
X56300000Y-35787440D01*
X57660001Y-35787440D01*
X57660001Y-37872560D01*
X56300000Y-37872560D01*
X56052235Y-37921843D01*
X55842191Y-38062191D01*
X55701843Y-38272235D01*
X55692816Y-38317619D01*
X55680625Y-38299375D01*
X55189418Y-37971161D01*
X54756256Y-37885000D01*
X54463744Y-37885000D01*
X54030582Y-37971161D01*
X53539375Y-38299375D01*
X53211161Y-38790582D01*
X53095908Y-39370000D01*
X53211161Y-39949418D01*
X53539375Y-40440625D01*
X54030582Y-40768839D01*
X54463744Y-40855000D01*
X54756256Y-40855000D01*
X55189418Y-40768839D01*
X55680625Y-40440625D01*
X55692816Y-40422381D01*
X55701843Y-40467765D01*
X55842191Y-40677809D01*
X56052235Y-40818157D01*
X56300000Y-40867440D01*
X58000000Y-40867440D01*
X58247765Y-40818157D01*
X58457809Y-40677809D01*
X58467902Y-40662704D01*
X60020002Y-42214804D01*
X60020002Y-43540000D01*
X59865750Y-43540000D01*
X59707000Y-43698750D01*
X59707000Y-44323000D01*
X59727000Y-44323000D01*
X59727000Y-44577000D01*
X59707000Y-44577000D01*
X59707000Y-44597000D01*
X59453000Y-44597000D01*
X59453000Y-44577000D01*
X58228750Y-44577000D01*
X58070000Y-44735750D01*
X58070000Y-44851310D01*
X58115021Y-44960000D01*
X57464803Y-44960000D01*
X56553493Y-44048690D01*
X58070000Y-44048690D01*
X58070000Y-44164250D01*
X58228750Y-44323000D01*
X59453000Y-44323000D01*
X59453000Y-43698750D01*
X59294250Y-43540000D01*
X58578691Y-43540000D01*
X58345302Y-43636673D01*
X58166673Y-43815301D01*
X58070000Y-44048690D01*
X56553493Y-44048690D01*
X50565000Y-38060199D01*
X50565000Y-37894126D01*
X50407431Y-37513720D01*
X50116280Y-37222569D01*
X49735874Y-37065000D01*
X49564999Y-37065000D01*
X49564999Y-35631473D01*
X49594999Y-35637440D01*
X50245001Y-35637440D01*
X50588436Y-35569127D01*
X50879586Y-35374586D01*
X51074127Y-35083436D01*
X51080778Y-35050000D01*
X53331822Y-35050000D01*
X53539375Y-35360625D01*
G36*
X53307758Y-25172560D02*
X52490000Y-25172560D01*
X52242235Y-25221843D01*
X52032191Y-25362191D01*
X51891843Y-25572235D01*
X51842560Y-25820000D01*
X51842560Y-25910000D01*
X50233711Y-25910000D01*
X50116280Y-25792569D01*
X49735874Y-25635000D01*
X49324126Y-25635000D01*
X48943720Y-25792569D01*
X48652569Y-26083720D01*
X48495000Y-26464126D01*
X48495000Y-26875874D01*
X48652569Y-27256280D01*
X48943720Y-27547431D01*
X49324126Y-27705000D01*
X49735874Y-27705000D01*
X50116280Y-27547431D01*
X50233711Y-27430000D01*
X51842560Y-27430000D01*
X51842560Y-27520000D01*
X51891843Y-27767765D01*
X52032191Y-27977809D01*
X52242235Y-28118157D01*
X52490000Y-28167440D01*
X52660701Y-28167440D01*
X52660701Y-30629762D01*
X54019299Y-30629762D01*
X54019299Y-28167440D01*
X54190000Y-28167440D01*
X54437765Y-28118157D01*
X54647809Y-27977809D01*
X54788157Y-27767765D01*
X54797184Y-27722381D01*
X54809375Y-27740625D01*
X55120000Y-27948178D01*
X55120001Y-32877353D01*
X54756256Y-32805000D01*
X54463744Y-32805000D01*
X54030582Y-32891161D01*
X53539375Y-33219375D01*
X53331822Y-33530000D01*
X51080778Y-33530000D01*
X51074127Y-33496564D01*
X51005000Y-33393109D01*
X51005000Y-32011891D01*
X51074127Y-31908436D01*
X51142440Y-31565001D01*
X51142440Y-30664999D01*
X51074127Y-30321564D01*
X50879586Y-30030414D01*
X50588436Y-29835873D01*
X50245001Y-29767560D01*
X49594999Y-29767560D01*
X49251564Y-29835873D01*
X48960414Y-30030414D01*
X48895000Y-30128313D01*
X48829586Y-30030414D01*
X48538436Y-29835873D01*
X48272959Y-29783067D01*
X48260904Y-29722463D01*
X48182552Y-29605201D01*
X48135329Y-29534526D01*
X48135327Y-29534524D01*
X48092929Y-29471071D01*
X48029476Y-29428673D01*
X39389801Y-20789000D01*
X39497002Y-20789000D01*
X39497002Y-20624156D01*
X39726890Y-20745476D01*
X40136924Y-20575645D01*
X40441261Y-20298292D01*
X40461843Y-20401765D01*
X40602191Y-20611809D01*
X40812235Y-20752157D01*
X41060000Y-20801440D01*
X42760000Y-20801440D01*
X43007765Y-20752157D01*
X43217809Y-20611809D01*
X43358157Y-20401765D01*
X43407440Y-20154000D01*
X43407440Y-20064000D01*
X48199199Y-20064000D01*
X53307758Y-25172560D01*
X53307758Y-25172560D01*
G37*
X53307758Y-25172560D02*
X52490000Y-25172560D01*
X52242235Y-25221843D01*
X52032191Y-25362191D01*
X51891843Y-25572235D01*
X51842560Y-25820000D01*
X51842560Y-25910000D01*
X50233711Y-25910000D01*
X50116280Y-25792569D01*
X49735874Y-25635000D01*
X49324126Y-25635000D01*
X48943720Y-25792569D01*
X48652569Y-26083720D01*
X48495000Y-26464126D01*
X48495000Y-26875874D01*
X48652569Y-27256280D01*
X48943720Y-27547431D01*
X49324126Y-27705000D01*
X49735874Y-27705000D01*
X50116280Y-27547431D01*
X50233711Y-27430000D01*
X51842560Y-27430000D01*
X51842560Y-27520000D01*
X51891843Y-27767765D01*
X52032191Y-27977809D01*
X52242235Y-28118157D01*
X52490000Y-28167440D01*
X52660701Y-28167440D01*
X52660701Y-30629762D01*
X54019299Y-30629762D01*
X54019299Y-28167440D01*
X54190000Y-28167440D01*
X54437765Y-28118157D01*
X54647809Y-27977809D01*
X54788157Y-27767765D01*
X54797184Y-27722381D01*
X54809375Y-27740625D01*
X55120000Y-27948178D01*
X55120001Y-32877353D01*
X54756256Y-32805000D01*
X54463744Y-32805000D01*
X54030582Y-32891161D01*
X53539375Y-33219375D01*
X53331822Y-33530000D01*
X51080778Y-33530000D01*
X51074127Y-33496564D01*
X51005000Y-33393109D01*
X51005000Y-32011891D01*
X51074127Y-31908436D01*
X51142440Y-31565001D01*
X51142440Y-30664999D01*
X51074127Y-30321564D01*
X50879586Y-30030414D01*
X50588436Y-29835873D01*
X50245001Y-29767560D01*
X49594999Y-29767560D01*
X49251564Y-29835873D01*
X48960414Y-30030414D01*
X48895000Y-30128313D01*
X48829586Y-30030414D01*
X48538436Y-29835873D01*
X48272959Y-29783067D01*
X48260904Y-29722463D01*
X48182552Y-29605201D01*
X48135329Y-29534526D01*
X48135327Y-29534524D01*
X48092929Y-29471071D01*
X48029476Y-29428673D01*
X39389801Y-20789000D01*
X39497002Y-20789000D01*
X39497002Y-20624156D01*
X39726890Y-20745476D01*
X40136924Y-20575645D01*
X40441261Y-20298292D01*
X40461843Y-20401765D01*
X40602191Y-20611809D01*
X40812235Y-20752157D01*
X41060000Y-20801440D01*
X42760000Y-20801440D01*
X43007765Y-20752157D01*
X43217809Y-20611809D01*
X43358157Y-20401765D01*
X43407440Y-20154000D01*
X43407440Y-20064000D01*
X48199199Y-20064000D01*
X53307758Y-25172560D01*
G36*
X40461843Y-16845765D02*
X40602191Y-17055809D01*
X40812235Y-17196157D01*
X41060000Y-17245440D01*
X41150000Y-17245440D01*
X41150001Y-17806560D01*
X41060000Y-17806560D01*
X40812235Y-17855843D01*
X40602191Y-17996191D01*
X40461843Y-18206235D01*
X40441261Y-18309708D01*
X40136924Y-18032355D01*
X39726890Y-17862524D01*
X39497000Y-17983845D01*
X39497000Y-19177000D01*
X39517000Y-19177000D01*
X39517000Y-19431000D01*
X39497000Y-19431000D01*
X39497000Y-19451000D01*
X39243000Y-19451000D01*
X39243000Y-19431000D01*
X39223000Y-19431000D01*
X39223000Y-19177000D01*
X39243000Y-19177000D01*
X39243000Y-17983845D01*
X39013110Y-17862524D01*
X38603076Y-18032355D01*
X38174817Y-18422642D01*
X38113843Y-18552478D01*
X37900625Y-18233375D01*
X37409418Y-17905161D01*
X36976256Y-17819000D01*
X36683744Y-17819000D01*
X36250582Y-17905161D01*
X35759375Y-18233375D01*
X35560000Y-18531761D01*
X35360625Y-18233375D01*
X34962466Y-17967334D01*
X35246799Y-17683001D01*
X38120152Y-17683001D01*
X38194999Y-17697889D01*
X38269846Y-17683001D01*
X38269851Y-17683001D01*
X38491536Y-17638905D01*
X38742928Y-17470930D01*
X38785330Y-17407471D01*
X39003592Y-17189209D01*
X39223744Y-17233000D01*
X39516256Y-17233000D01*
X39949418Y-17146839D01*
X40440625Y-16818625D01*
X40452816Y-16800381D01*
X40461843Y-16845765D01*
X40461843Y-16845765D01*
G37*
X40461843Y-16845765D02*
X40602191Y-17055809D01*
X40812235Y-17196157D01*
X41060000Y-17245440D01*
X41150000Y-17245440D01*
X41150001Y-17806560D01*
X41060000Y-17806560D01*
X40812235Y-17855843D01*
X40602191Y-17996191D01*
X40461843Y-18206235D01*
X40441261Y-18309708D01*
X40136924Y-18032355D01*
X39726890Y-17862524D01*
X39497000Y-17983845D01*
X39497000Y-19177000D01*
X39517000Y-19177000D01*
X39517000Y-19431000D01*
X39497000Y-19431000D01*
X39497000Y-19451000D01*
X39243000Y-19451000D01*
X39243000Y-19431000D01*
X39223000Y-19431000D01*
X39223000Y-19177000D01*
X39243000Y-19177000D01*
X39243000Y-17983845D01*
X39013110Y-17862524D01*
X38603076Y-18032355D01*
X38174817Y-18422642D01*
X38113843Y-18552478D01*
X37900625Y-18233375D01*
X37409418Y-17905161D01*
X36976256Y-17819000D01*
X36683744Y-17819000D01*
X36250582Y-17905161D01*
X35759375Y-18233375D01*
X35560000Y-18531761D01*
X35360625Y-18233375D01*
X34962466Y-17967334D01*
X35246799Y-17683001D01*
X38120152Y-17683001D01*
X38194999Y-17697889D01*
X38269846Y-17683001D01*
X38269851Y-17683001D01*
X38491536Y-17638905D01*
X38742928Y-17470930D01*
X38785330Y-17407471D01*
X39003592Y-17189209D01*
X39223744Y-17233000D01*
X39516256Y-17233000D01*
X39949418Y-17146839D01*
X40440625Y-16818625D01*
X40452816Y-16800381D01*
X40461843Y-16845765D01*
G36*
X34417000Y-15621000D02*
X34437000Y-15621000D01*
X34437000Y-15875000D01*
X34417000Y-15875000D01*
X34417000Y-15895000D01*
X34163000Y-15895000D01*
X34163000Y-15875000D01*
X34143000Y-15875000D01*
X34143000Y-15621000D01*
X34163000Y-15621000D01*
X34163000Y-15601000D01*
X34417000Y-15601000D01*
X34417000Y-15621000D01*
X34417000Y-15621000D01*
G37*
X34417000Y-15621000D02*
X34437000Y-15621000D01*
X34437000Y-15875000D01*
X34417000Y-15875000D01*
X34417000Y-15895000D01*
X34163000Y-15895000D01*
X34163000Y-15875000D01*
X34143000Y-15875000D01*
X34143000Y-15621000D01*
X34163000Y-15621000D01*
X34163000Y-15601000D01*
X34417000Y-15601000D01*
X34417000Y-15621000D01*
G04 #@! TD*
M02*
