M48
;DRILL file {KiCad (2018-01-18 revision 959767c09)-makepkg} date 01/30/18 22:09:37
;FORMAT={-:-/ absolute / inch / decimal}
FMAT,2
INCH,TZ
T1C0.0157
T2C0.0236
T3C0.0315
T4C0.0354
T5C0.0394
%
G90
G05
M72
T1
X1.1Y-1.85
X1.6Y-1.1
X1.6Y-2.55
X1.7Y-2.1
T2
X0.6713Y-1.34
X0.75Y-1.34
T3
X2.26Y-1.04
X2.36Y-1.04
X2.16Y-1.04
T4
X0.65Y-1.95
X0.65Y-2.25
T5
X1.35Y-0.62
X1.45Y-0.62
X1.55Y-0.62
X1.65Y-0.62
X1.35Y-0.76
X1.45Y-0.76
X1.55Y-0.76
X1.65Y-0.76
X1.05Y-2.2
X1.05Y-2.3
X1.05Y-2.4
X1.05Y-2.5
X1.05Y-2.6
T0
M30
