G04 #@! TF.GenerationSoftware,KiCad,Pcbnew,(5.0.2)-1*
G04 #@! TF.CreationDate,2019-02-05T11:41:40+01:00*
G04 #@! TF.ProjectId,SensorPCB_V1.2,53656e73-6f72-4504-9342-5f56312e322e,rev?*
G04 #@! TF.SameCoordinates,Original*
G04 #@! TF.FileFunction,Copper,L2,Bot*
G04 #@! TF.FilePolarity,Positive*
%FSLAX46Y46*%
G04 Gerber Fmt 4.6, Leading zero omitted, Abs format (unit mm)*
G04 Created by KiCad (PCBNEW (5.0.2)-1) date 05/02/2019 11:41:40*
%MOMM*%
%LPD*%
G01*
G04 APERTURE LIST*
G04 #@! TA.AperFunction,ComponentPad*
%ADD10C,3.000000*%
G04 #@! TD*
G04 #@! TA.AperFunction,ComponentPad*
%ADD11R,3.000000X3.000000*%
G04 #@! TD*
G04 #@! TA.AperFunction,ComponentPad*
%ADD12R,1.200000X1.200000*%
G04 #@! TD*
G04 #@! TA.AperFunction,ComponentPad*
%ADD13C,1.200000*%
G04 #@! TD*
G04 #@! TA.AperFunction,ComponentPad*
%ADD14R,1.700000X1.700000*%
G04 #@! TD*
G04 #@! TA.AperFunction,ComponentPad*
%ADD15O,1.700000X1.700000*%
G04 #@! TD*
G04 #@! TA.AperFunction,ComponentPad*
%ADD16R,1.800000X1.800000*%
G04 #@! TD*
G04 #@! TA.AperFunction,ComponentPad*
%ADD17O,1.800000X1.800000*%
G04 #@! TD*
G04 #@! TA.AperFunction,ViaPad*
%ADD18C,0.800000*%
G04 #@! TD*
G04 #@! TA.AperFunction,Conductor*
%ADD19C,0.250000*%
G04 #@! TD*
G04 #@! TA.AperFunction,Conductor*
%ADD20C,0.254000*%
G04 #@! TD*
G04 APERTURE END LIST*
D10*
G04 #@! TO.P,J2,2*
G04 #@! TO.N,Net-(J2-Pad2)*
X35560000Y-58420000D03*
G04 #@! TO.P,J2,3*
G04 #@! TO.N,VCC*
X40640000Y-58420000D03*
D11*
G04 #@! TO.P,J2,1*
G04 #@! TO.N,Net-(J1-Pad2)*
X30480000Y-58420000D03*
D10*
G04 #@! TO.P,J2,4*
G04 #@! TO.N,GND*
X45720000Y-58420000D03*
G04 #@! TD*
D12*
G04 #@! TO.P,C3,1*
G04 #@! TO.N,VCC*
X21590000Y-49530000D03*
D13*
G04 #@! TO.P,C3,2*
G04 #@! TO.N,GND*
X23590000Y-49530000D03*
G04 #@! TD*
D14*
G04 #@! TO.P,J1,1*
G04 #@! TO.N,Net-(J1-Pad1)*
X33020000Y-49530000D03*
D15*
G04 #@! TO.P,J1,2*
G04 #@! TO.N,Net-(J1-Pad2)*
X30480000Y-49530000D03*
G04 #@! TO.P,J1,3*
G04 #@! TO.N,/DHT*
X27940000Y-49530000D03*
G04 #@! TD*
D14*
G04 #@! TO.P,U2,1*
G04 #@! TO.N,Net-(J3-Pad2)*
X41910000Y-15748000D03*
D15*
G04 #@! TO.P,U2,2*
G04 #@! TO.N,/DHT*
X39370000Y-15748000D03*
G04 #@! TO.P,U2,3*
G04 #@! TO.N,N/C*
X36830000Y-15748000D03*
G04 #@! TO.P,U2,4*
G04 #@! TO.N,GND*
X34290000Y-15748000D03*
G04 #@! TD*
D14*
G04 #@! TO.P,J6,1*
G04 #@! TO.N,VCC*
X57150000Y-39370000D03*
D15*
G04 #@! TO.P,J6,2*
G04 #@! TO.N,Net-(J6-Pad2)*
X54610000Y-39370000D03*
G04 #@! TD*
D14*
G04 #@! TO.P,U1,1*
G04 #@! TO.N,Net-(J3-Pad2)*
X41910000Y-19304000D03*
D15*
G04 #@! TO.P,U1,2*
G04 #@! TO.N,GND*
X39370000Y-19304000D03*
G04 #@! TO.P,U1,3*
G04 #@! TO.N,Net-(R3-Pad2)*
X36830000Y-19304000D03*
G04 #@! TO.P,U1,4*
G04 #@! TO.N,Net-(R2-Pad2)*
X34290000Y-19304000D03*
G04 #@! TD*
D12*
G04 #@! TO.P,C1,1*
G04 #@! TO.N,Net-(C1-Pad1)*
X16510000Y-49530000D03*
D13*
G04 #@! TO.P,C1,2*
G04 #@! TO.N,GND*
X18510000Y-49530000D03*
G04 #@! TD*
D14*
G04 #@! TO.P,J5,1*
G04 #@! TO.N,Net-(J3-Pad2)*
X57150000Y-34290000D03*
D15*
G04 #@! TO.P,J5,2*
G04 #@! TO.N,Net-(J5-Pad2)*
X54610000Y-34290000D03*
G04 #@! TD*
D16*
G04 #@! TO.P,D1,1*
G04 #@! TO.N,VCC*
X15875000Y-43180000D03*
D17*
G04 #@! TO.P,D1,2*
G04 #@! TO.N,GND*
X23495000Y-43180000D03*
G04 #@! TD*
D14*
G04 #@! TO.P,J3,1*
G04 #@! TO.N,Net-(C1-Pad1)*
X53340000Y-26670000D03*
D15*
G04 #@! TO.P,J3,2*
G04 #@! TO.N,Net-(J3-Pad2)*
X55880000Y-26670000D03*
G04 #@! TO.P,J3,3*
G04 #@! TO.N,VCC*
X58420000Y-26670000D03*
G04 #@! TD*
D18*
G04 #@! TO.N,Net-(C1-Pad1)*
X28575000Y-27305000D03*
X49530000Y-26670000D03*
X14605000Y-49530000D03*
G04 #@! TO.N,Net-(R2-Pad2)*
X49530000Y-38100000D03*
X46990000Y-38100000D03*
G04 #@! TO.N,Net-(J6-Pad2)*
X47625000Y-39370000D03*
G04 #@! TD*
D19*
G04 #@! TO.N,Net-(C1-Pad1)*
X28575000Y-27305000D02*
X29210000Y-26670000D01*
X29210000Y-26670000D02*
X49530000Y-26670000D01*
X14605000Y-49530000D02*
X16510000Y-49530000D01*
G04 #@! TO.N,Net-(R2-Pad2)*
X49530000Y-38100000D02*
X46990000Y-38100000D01*
G04 #@! TO.N,Net-(J6-Pad2)*
X47625000Y-39370000D02*
X54610000Y-39370000D01*
G04 #@! TD*
D20*
G04 #@! TO.N,GND*
G36*
X52630000Y-22790074D02*
X52616091Y-22860000D01*
X52671195Y-23137028D01*
X52828119Y-23371881D01*
X53062972Y-23528805D01*
X53340000Y-23583909D01*
X53409925Y-23570000D01*
X62790000Y-23570000D01*
X62790001Y-50090000D01*
X53409925Y-50090000D01*
X53340000Y-50076091D01*
X53270074Y-50090000D01*
X53062972Y-50131195D01*
X52828119Y-50288119D01*
X52671195Y-50522972D01*
X52616091Y-50800000D01*
X52630000Y-50869926D01*
X52630001Y-62790000D01*
X23570000Y-62790000D01*
X23570000Y-59759925D01*
X23583909Y-59690000D01*
X23528805Y-59412972D01*
X23371881Y-59178119D01*
X23137028Y-59021195D01*
X22929926Y-58980000D01*
X22860000Y-58966091D01*
X22790075Y-58980000D01*
X13410000Y-58980000D01*
X13410000Y-56920000D01*
X28332560Y-56920000D01*
X28332560Y-59920000D01*
X28381843Y-60167765D01*
X28522191Y-60377809D01*
X28732235Y-60518157D01*
X28980000Y-60567440D01*
X31980000Y-60567440D01*
X32227765Y-60518157D01*
X32437809Y-60377809D01*
X32578157Y-60167765D01*
X32627440Y-59920000D01*
X32627440Y-57995322D01*
X33425000Y-57995322D01*
X33425000Y-58844678D01*
X33750034Y-59629380D01*
X34350620Y-60229966D01*
X35135322Y-60555000D01*
X35984678Y-60555000D01*
X36769380Y-60229966D01*
X37369966Y-59629380D01*
X37695000Y-58844678D01*
X37695000Y-57995322D01*
X38505000Y-57995322D01*
X38505000Y-58844678D01*
X38830034Y-59629380D01*
X39430620Y-60229966D01*
X40215322Y-60555000D01*
X41064678Y-60555000D01*
X41849380Y-60229966D01*
X42145376Y-59933970D01*
X44385635Y-59933970D01*
X44545418Y-60252739D01*
X45336187Y-60562723D01*
X46185387Y-60546497D01*
X46894582Y-60252739D01*
X47054365Y-59933970D01*
X45720000Y-58599605D01*
X44385635Y-59933970D01*
X42145376Y-59933970D01*
X42449966Y-59629380D01*
X42775000Y-58844678D01*
X42775000Y-58036187D01*
X43577277Y-58036187D01*
X43593503Y-58885387D01*
X43887261Y-59594582D01*
X44206030Y-59754365D01*
X45540395Y-58420000D01*
X45899605Y-58420000D01*
X47233970Y-59754365D01*
X47552739Y-59594582D01*
X47862723Y-58803813D01*
X47846497Y-57954613D01*
X47552739Y-57245418D01*
X47233970Y-57085635D01*
X45899605Y-58420000D01*
X45540395Y-58420000D01*
X44206030Y-57085635D01*
X43887261Y-57245418D01*
X43577277Y-58036187D01*
X42775000Y-58036187D01*
X42775000Y-57995322D01*
X42449966Y-57210620D01*
X42145376Y-56906030D01*
X44385635Y-56906030D01*
X45720000Y-58240395D01*
X47054365Y-56906030D01*
X46894582Y-56587261D01*
X46103813Y-56277277D01*
X45254613Y-56293503D01*
X44545418Y-56587261D01*
X44385635Y-56906030D01*
X42145376Y-56906030D01*
X41849380Y-56610034D01*
X41064678Y-56285000D01*
X40215322Y-56285000D01*
X39430620Y-56610034D01*
X38830034Y-57210620D01*
X38505000Y-57995322D01*
X37695000Y-57995322D01*
X37369966Y-57210620D01*
X36769380Y-56610034D01*
X35984678Y-56285000D01*
X35135322Y-56285000D01*
X34350620Y-56610034D01*
X33750034Y-57210620D01*
X33425000Y-57995322D01*
X32627440Y-57995322D01*
X32627440Y-56920000D01*
X32578157Y-56672235D01*
X32437809Y-56462191D01*
X32227765Y-56321843D01*
X31980000Y-56272560D01*
X28980000Y-56272560D01*
X28732235Y-56321843D01*
X28522191Y-56462191D01*
X28381843Y-56672235D01*
X28332560Y-56920000D01*
X13410000Y-56920000D01*
X13410000Y-49324126D01*
X13570000Y-49324126D01*
X13570000Y-49735874D01*
X13727569Y-50116280D01*
X14018720Y-50407431D01*
X14399126Y-50565000D01*
X14810874Y-50565000D01*
X15191280Y-50407431D01*
X15296762Y-50301949D01*
X15311843Y-50377765D01*
X15452191Y-50587809D01*
X15662235Y-50728157D01*
X15910000Y-50777440D01*
X17110000Y-50777440D01*
X17357765Y-50728157D01*
X17567809Y-50587809D01*
X17657030Y-50454282D01*
X17711178Y-50508430D01*
X17826871Y-50392737D01*
X17876383Y-50618164D01*
X18341036Y-50777807D01*
X18831413Y-50747482D01*
X19143617Y-50618164D01*
X19193130Y-50392735D01*
X18510000Y-49709605D01*
X18495858Y-49723748D01*
X18316253Y-49544143D01*
X18330395Y-49530000D01*
X18689605Y-49530000D01*
X19372735Y-50213130D01*
X19598164Y-50163617D01*
X19757807Y-49698964D01*
X19727482Y-49208587D01*
X19612089Y-48930000D01*
X20342560Y-48930000D01*
X20342560Y-50130000D01*
X20391843Y-50377765D01*
X20532191Y-50587809D01*
X20742235Y-50728157D01*
X20990000Y-50777440D01*
X22190000Y-50777440D01*
X22437765Y-50728157D01*
X22647809Y-50587809D01*
X22737030Y-50454282D01*
X22791178Y-50508430D01*
X22906871Y-50392737D01*
X22956383Y-50618164D01*
X23421036Y-50777807D01*
X23911413Y-50747482D01*
X24223617Y-50618164D01*
X24273130Y-50392735D01*
X23590000Y-49709605D01*
X23575858Y-49723748D01*
X23396253Y-49544143D01*
X23410395Y-49530000D01*
X23769605Y-49530000D01*
X24452735Y-50213130D01*
X24678164Y-50163617D01*
X24837807Y-49698964D01*
X24827359Y-49530000D01*
X26425908Y-49530000D01*
X26541161Y-50109418D01*
X26869375Y-50600625D01*
X27360582Y-50928839D01*
X27793744Y-51015000D01*
X28086256Y-51015000D01*
X28519418Y-50928839D01*
X29010625Y-50600625D01*
X29210000Y-50302239D01*
X29409375Y-50600625D01*
X29900582Y-50928839D01*
X30333744Y-51015000D01*
X30626256Y-51015000D01*
X31059418Y-50928839D01*
X31550625Y-50600625D01*
X31562816Y-50582381D01*
X31571843Y-50627765D01*
X31712191Y-50837809D01*
X31922235Y-50978157D01*
X32170000Y-51027440D01*
X33870000Y-51027440D01*
X34117765Y-50978157D01*
X34327809Y-50837809D01*
X34468157Y-50627765D01*
X34502544Y-50454887D01*
X36365000Y-50454887D01*
X36365000Y-51145113D01*
X36629138Y-51782799D01*
X37117201Y-52270862D01*
X37754887Y-52535000D01*
X38445113Y-52535000D01*
X39082799Y-52270862D01*
X39570862Y-51782799D01*
X39835000Y-51145113D01*
X39835000Y-50454887D01*
X39570862Y-49817201D01*
X39082799Y-49329138D01*
X38445113Y-49065000D01*
X37754887Y-49065000D01*
X37117201Y-49329138D01*
X36629138Y-49817201D01*
X36365000Y-50454887D01*
X34502544Y-50454887D01*
X34517440Y-50380000D01*
X34517440Y-48680000D01*
X34468157Y-48432235D01*
X34327809Y-48222191D01*
X34117765Y-48081843D01*
X33870000Y-48032560D01*
X32170000Y-48032560D01*
X31922235Y-48081843D01*
X31712191Y-48222191D01*
X31571843Y-48432235D01*
X31562816Y-48477619D01*
X31550625Y-48459375D01*
X31059418Y-48131161D01*
X30626256Y-48045000D01*
X30333744Y-48045000D01*
X29900582Y-48131161D01*
X29409375Y-48459375D01*
X29210000Y-48757761D01*
X29010625Y-48459375D01*
X28519418Y-48131161D01*
X28086256Y-48045000D01*
X27793744Y-48045000D01*
X27360582Y-48131161D01*
X26869375Y-48459375D01*
X26541161Y-48950582D01*
X26425908Y-49530000D01*
X24827359Y-49530000D01*
X24807482Y-49208587D01*
X24678164Y-48896383D01*
X24452735Y-48846870D01*
X23769605Y-49530000D01*
X23410395Y-49530000D01*
X23396253Y-49515858D01*
X23575858Y-49336253D01*
X23590000Y-49350395D01*
X24273130Y-48667265D01*
X24223617Y-48441836D01*
X23758964Y-48282193D01*
X23268587Y-48312518D01*
X22956383Y-48441836D01*
X22906871Y-48667263D01*
X22791178Y-48551570D01*
X22737030Y-48605718D01*
X22647809Y-48472191D01*
X22437765Y-48331843D01*
X22190000Y-48282560D01*
X20990000Y-48282560D01*
X20742235Y-48331843D01*
X20532191Y-48472191D01*
X20391843Y-48682235D01*
X20342560Y-48930000D01*
X19612089Y-48930000D01*
X19598164Y-48896383D01*
X19372735Y-48846870D01*
X18689605Y-49530000D01*
X18330395Y-49530000D01*
X18316253Y-49515858D01*
X18495858Y-49336253D01*
X18510000Y-49350395D01*
X19193130Y-48667265D01*
X19143617Y-48441836D01*
X18678964Y-48282193D01*
X18188587Y-48312518D01*
X17876383Y-48441836D01*
X17826871Y-48667263D01*
X17711178Y-48551570D01*
X17657030Y-48605718D01*
X17567809Y-48472191D01*
X17357765Y-48331843D01*
X17110000Y-48282560D01*
X15910000Y-48282560D01*
X15662235Y-48331843D01*
X15452191Y-48472191D01*
X15311843Y-48682235D01*
X15296762Y-48758051D01*
X15191280Y-48652569D01*
X14810874Y-48495000D01*
X14399126Y-48495000D01*
X14018720Y-48652569D01*
X13727569Y-48943720D01*
X13570000Y-49324126D01*
X13410000Y-49324126D01*
X13410000Y-42280000D01*
X14327560Y-42280000D01*
X14327560Y-44080000D01*
X14376843Y-44327765D01*
X14517191Y-44537809D01*
X14727235Y-44678157D01*
X14975000Y-44727440D01*
X16775000Y-44727440D01*
X17022765Y-44678157D01*
X17232809Y-44537809D01*
X17373157Y-44327765D01*
X17422440Y-44080000D01*
X17422440Y-43544740D01*
X22003964Y-43544740D01*
X22182760Y-43976417D01*
X22587424Y-44417966D01*
X23130258Y-44671046D01*
X23368000Y-44550997D01*
X23368000Y-43307000D01*
X23622000Y-43307000D01*
X23622000Y-44550997D01*
X23859742Y-44671046D01*
X24402576Y-44417966D01*
X24807240Y-43976417D01*
X24986036Y-43544740D01*
X24865378Y-43307000D01*
X23622000Y-43307000D01*
X23368000Y-43307000D01*
X22124622Y-43307000D01*
X22003964Y-43544740D01*
X17422440Y-43544740D01*
X17422440Y-42815260D01*
X22003964Y-42815260D01*
X22124622Y-43053000D01*
X23368000Y-43053000D01*
X23368000Y-41809003D01*
X23622000Y-41809003D01*
X23622000Y-43053000D01*
X24865378Y-43053000D01*
X24986036Y-42815260D01*
X24807240Y-42383583D01*
X24402576Y-41942034D01*
X23859742Y-41688954D01*
X23622000Y-41809003D01*
X23368000Y-41809003D01*
X23130258Y-41688954D01*
X22587424Y-41942034D01*
X22182760Y-42383583D01*
X22003964Y-42815260D01*
X17422440Y-42815260D01*
X17422440Y-42280000D01*
X17373157Y-42032235D01*
X17232809Y-41822191D01*
X17022765Y-41681843D01*
X16775000Y-41632560D01*
X14975000Y-41632560D01*
X14727235Y-41681843D01*
X14517191Y-41822191D01*
X14376843Y-42032235D01*
X14327560Y-42280000D01*
X13410000Y-42280000D01*
X13410000Y-37894126D01*
X45955000Y-37894126D01*
X45955000Y-38305874D01*
X46112569Y-38686280D01*
X46403720Y-38977431D01*
X46628727Y-39070632D01*
X46590000Y-39164126D01*
X46590000Y-39575874D01*
X46747569Y-39956280D01*
X47038720Y-40247431D01*
X47419126Y-40405000D01*
X47830874Y-40405000D01*
X48211280Y-40247431D01*
X48328711Y-40130000D01*
X53331822Y-40130000D01*
X53539375Y-40440625D01*
X54030582Y-40768839D01*
X54463744Y-40855000D01*
X54756256Y-40855000D01*
X55189418Y-40768839D01*
X55680625Y-40440625D01*
X55692816Y-40422381D01*
X55701843Y-40467765D01*
X55842191Y-40677809D01*
X56052235Y-40818157D01*
X56300000Y-40867440D01*
X58000000Y-40867440D01*
X58247765Y-40818157D01*
X58457809Y-40677809D01*
X58598157Y-40467765D01*
X58647440Y-40220000D01*
X58647440Y-38520000D01*
X58598157Y-38272235D01*
X58457809Y-38062191D01*
X58247765Y-37921843D01*
X58000000Y-37872560D01*
X56300000Y-37872560D01*
X56052235Y-37921843D01*
X55842191Y-38062191D01*
X55701843Y-38272235D01*
X55692816Y-38317619D01*
X55680625Y-38299375D01*
X55189418Y-37971161D01*
X54756256Y-37885000D01*
X54463744Y-37885000D01*
X54030582Y-37971161D01*
X53539375Y-38299375D01*
X53331822Y-38610000D01*
X50439027Y-38610000D01*
X50565000Y-38305874D01*
X50565000Y-37894126D01*
X50407431Y-37513720D01*
X50116280Y-37222569D01*
X49735874Y-37065000D01*
X49324126Y-37065000D01*
X48943720Y-37222569D01*
X48826289Y-37340000D01*
X47693711Y-37340000D01*
X47576280Y-37222569D01*
X47195874Y-37065000D01*
X46784126Y-37065000D01*
X46403720Y-37222569D01*
X46112569Y-37513720D01*
X45955000Y-37894126D01*
X13410000Y-37894126D01*
X13410000Y-34290000D01*
X53095908Y-34290000D01*
X53211161Y-34869418D01*
X53539375Y-35360625D01*
X54030582Y-35688839D01*
X54463744Y-35775000D01*
X54756256Y-35775000D01*
X55189418Y-35688839D01*
X55680625Y-35360625D01*
X55692816Y-35342381D01*
X55701843Y-35387765D01*
X55842191Y-35597809D01*
X56052235Y-35738157D01*
X56300000Y-35787440D01*
X58000000Y-35787440D01*
X58247765Y-35738157D01*
X58457809Y-35597809D01*
X58598157Y-35387765D01*
X58647440Y-35140000D01*
X58647440Y-33440000D01*
X58598157Y-33192235D01*
X58457809Y-32982191D01*
X58247765Y-32841843D01*
X58000000Y-32792560D01*
X56300000Y-32792560D01*
X56052235Y-32841843D01*
X55842191Y-32982191D01*
X55701843Y-33192235D01*
X55692816Y-33237619D01*
X55680625Y-33219375D01*
X55189418Y-32891161D01*
X54756256Y-32805000D01*
X54463744Y-32805000D01*
X54030582Y-32891161D01*
X53539375Y-33219375D01*
X53211161Y-33710582D01*
X53095908Y-34290000D01*
X13410000Y-34290000D01*
X13410000Y-31877000D01*
X22860000Y-31877000D01*
X22908601Y-31867333D01*
X22949803Y-31839803D01*
X22977333Y-31798601D01*
X22987000Y-31750000D01*
X22987000Y-31686647D01*
X23137028Y-31656805D01*
X23371881Y-31499881D01*
X23528805Y-31265028D01*
X23583909Y-30988000D01*
X23570000Y-30918074D01*
X23570000Y-30242887D01*
X36365000Y-30242887D01*
X36365000Y-30933113D01*
X36629138Y-31570799D01*
X37117201Y-32058862D01*
X37754887Y-32323000D01*
X38445113Y-32323000D01*
X39082799Y-32058862D01*
X39570862Y-31570799D01*
X39835000Y-30933113D01*
X39835000Y-30242887D01*
X39570862Y-29605201D01*
X39082799Y-29117138D01*
X38445113Y-28853000D01*
X37754887Y-28853000D01*
X37117201Y-29117138D01*
X36629138Y-29605201D01*
X36365000Y-30242887D01*
X23570000Y-30242887D01*
X23570000Y-27099126D01*
X27540000Y-27099126D01*
X27540000Y-27510874D01*
X27697569Y-27891280D01*
X27988720Y-28182431D01*
X28369126Y-28340000D01*
X28780874Y-28340000D01*
X29161280Y-28182431D01*
X29452431Y-27891280D01*
X29610000Y-27510874D01*
X29610000Y-27430000D01*
X48826289Y-27430000D01*
X48943720Y-27547431D01*
X49324126Y-27705000D01*
X49735874Y-27705000D01*
X50116280Y-27547431D01*
X50407431Y-27256280D01*
X50565000Y-26875874D01*
X50565000Y-26464126D01*
X50407431Y-26083720D01*
X50143711Y-25820000D01*
X51842560Y-25820000D01*
X51842560Y-27520000D01*
X51891843Y-27767765D01*
X52032191Y-27977809D01*
X52242235Y-28118157D01*
X52490000Y-28167440D01*
X54190000Y-28167440D01*
X54437765Y-28118157D01*
X54647809Y-27977809D01*
X54788157Y-27767765D01*
X54797184Y-27722381D01*
X54809375Y-27740625D01*
X55300582Y-28068839D01*
X55733744Y-28155000D01*
X56026256Y-28155000D01*
X56459418Y-28068839D01*
X56950625Y-27740625D01*
X57150000Y-27442239D01*
X57349375Y-27740625D01*
X57840582Y-28068839D01*
X58273744Y-28155000D01*
X58566256Y-28155000D01*
X58999418Y-28068839D01*
X59490625Y-27740625D01*
X59818839Y-27249418D01*
X59934092Y-26670000D01*
X59818839Y-26090582D01*
X59490625Y-25599375D01*
X58999418Y-25271161D01*
X58566256Y-25185000D01*
X58273744Y-25185000D01*
X57840582Y-25271161D01*
X57349375Y-25599375D01*
X57150000Y-25897761D01*
X56950625Y-25599375D01*
X56459418Y-25271161D01*
X56026256Y-25185000D01*
X55733744Y-25185000D01*
X55300582Y-25271161D01*
X54809375Y-25599375D01*
X54797184Y-25617619D01*
X54788157Y-25572235D01*
X54647809Y-25362191D01*
X54437765Y-25221843D01*
X54190000Y-25172560D01*
X52490000Y-25172560D01*
X52242235Y-25221843D01*
X52032191Y-25362191D01*
X51891843Y-25572235D01*
X51842560Y-25820000D01*
X50143711Y-25820000D01*
X50116280Y-25792569D01*
X49735874Y-25635000D01*
X49324126Y-25635000D01*
X48943720Y-25792569D01*
X48826289Y-25910000D01*
X29284848Y-25910000D01*
X29210000Y-25895112D01*
X29135152Y-25910000D01*
X29135148Y-25910000D01*
X28913463Y-25954096D01*
X28662071Y-26122071D01*
X28619671Y-26185527D01*
X28535198Y-26270000D01*
X28369126Y-26270000D01*
X27988720Y-26427569D01*
X27697569Y-26718720D01*
X27540000Y-27099126D01*
X23570000Y-27099126D01*
X23570000Y-19304000D01*
X32775908Y-19304000D01*
X32891161Y-19883418D01*
X33219375Y-20374625D01*
X33710582Y-20702839D01*
X34143744Y-20789000D01*
X34436256Y-20789000D01*
X34869418Y-20702839D01*
X35360625Y-20374625D01*
X35560000Y-20076239D01*
X35759375Y-20374625D01*
X36250582Y-20702839D01*
X36683744Y-20789000D01*
X36976256Y-20789000D01*
X37409418Y-20702839D01*
X37900625Y-20374625D01*
X38113843Y-20055522D01*
X38174817Y-20185358D01*
X38603076Y-20575645D01*
X39013110Y-20745476D01*
X39243000Y-20624155D01*
X39243000Y-19431000D01*
X39223000Y-19431000D01*
X39223000Y-19177000D01*
X39243000Y-19177000D01*
X39243000Y-17983845D01*
X39497000Y-17983845D01*
X39497000Y-19177000D01*
X39517000Y-19177000D01*
X39517000Y-19431000D01*
X39497000Y-19431000D01*
X39497000Y-20624155D01*
X39726890Y-20745476D01*
X40136924Y-20575645D01*
X40441261Y-20298292D01*
X40461843Y-20401765D01*
X40602191Y-20611809D01*
X40812235Y-20752157D01*
X41060000Y-20801440D01*
X42760000Y-20801440D01*
X43007765Y-20752157D01*
X43217809Y-20611809D01*
X43358157Y-20401765D01*
X43407440Y-20154000D01*
X43407440Y-18454000D01*
X43358157Y-18206235D01*
X43217809Y-17996191D01*
X43007765Y-17855843D01*
X42760000Y-17806560D01*
X41060000Y-17806560D01*
X40812235Y-17855843D01*
X40602191Y-17996191D01*
X40461843Y-18206235D01*
X40441261Y-18309708D01*
X40136924Y-18032355D01*
X39726890Y-17862524D01*
X39497000Y-17983845D01*
X39243000Y-17983845D01*
X39013110Y-17862524D01*
X38603076Y-18032355D01*
X38174817Y-18422642D01*
X38113843Y-18552478D01*
X37900625Y-18233375D01*
X37409418Y-17905161D01*
X36976256Y-17819000D01*
X36683744Y-17819000D01*
X36250582Y-17905161D01*
X35759375Y-18233375D01*
X35560000Y-18531761D01*
X35360625Y-18233375D01*
X34869418Y-17905161D01*
X34436256Y-17819000D01*
X34143744Y-17819000D01*
X33710582Y-17905161D01*
X33219375Y-18233375D01*
X32891161Y-18724582D01*
X32775908Y-19304000D01*
X23570000Y-19304000D01*
X23570000Y-16104892D01*
X32848514Y-16104892D01*
X33094817Y-16629358D01*
X33523076Y-17019645D01*
X33933110Y-17189476D01*
X34163000Y-17068155D01*
X34163000Y-15875000D01*
X32969181Y-15875000D01*
X32848514Y-16104892D01*
X23570000Y-16104892D01*
X23570000Y-15391108D01*
X32848514Y-15391108D01*
X32969181Y-15621000D01*
X34163000Y-15621000D01*
X34163000Y-14427845D01*
X34417000Y-14427845D01*
X34417000Y-15621000D01*
X34437000Y-15621000D01*
X34437000Y-15875000D01*
X34417000Y-15875000D01*
X34417000Y-17068155D01*
X34646890Y-17189476D01*
X35056924Y-17019645D01*
X35485183Y-16629358D01*
X35546157Y-16499522D01*
X35759375Y-16818625D01*
X36250582Y-17146839D01*
X36683744Y-17233000D01*
X36976256Y-17233000D01*
X37409418Y-17146839D01*
X37900625Y-16818625D01*
X38100000Y-16520239D01*
X38299375Y-16818625D01*
X38790582Y-17146839D01*
X39223744Y-17233000D01*
X39516256Y-17233000D01*
X39949418Y-17146839D01*
X40440625Y-16818625D01*
X40452816Y-16800381D01*
X40461843Y-16845765D01*
X40602191Y-17055809D01*
X40812235Y-17196157D01*
X41060000Y-17245440D01*
X42760000Y-17245440D01*
X43007765Y-17196157D01*
X43217809Y-17055809D01*
X43358157Y-16845765D01*
X43407440Y-16598000D01*
X43407440Y-14898000D01*
X43358157Y-14650235D01*
X43217809Y-14440191D01*
X43007765Y-14299843D01*
X42760000Y-14250560D01*
X41060000Y-14250560D01*
X40812235Y-14299843D01*
X40602191Y-14440191D01*
X40461843Y-14650235D01*
X40452816Y-14695619D01*
X40440625Y-14677375D01*
X39949418Y-14349161D01*
X39516256Y-14263000D01*
X39223744Y-14263000D01*
X38790582Y-14349161D01*
X38299375Y-14677375D01*
X38100000Y-14975761D01*
X37900625Y-14677375D01*
X37409418Y-14349161D01*
X36976256Y-14263000D01*
X36683744Y-14263000D01*
X36250582Y-14349161D01*
X35759375Y-14677375D01*
X35546157Y-14996478D01*
X35485183Y-14866642D01*
X35056924Y-14476355D01*
X34646890Y-14306524D01*
X34417000Y-14427845D01*
X34163000Y-14427845D01*
X33933110Y-14306524D01*
X33523076Y-14476355D01*
X33094817Y-14866642D01*
X32848514Y-15391108D01*
X23570000Y-15391108D01*
X23570000Y-13410000D01*
X52630001Y-13410000D01*
X52630000Y-22790074D01*
X52630000Y-22790074D01*
G37*
X52630000Y-22790074D02*
X52616091Y-22860000D01*
X52671195Y-23137028D01*
X52828119Y-23371881D01*
X53062972Y-23528805D01*
X53340000Y-23583909D01*
X53409925Y-23570000D01*
X62790000Y-23570000D01*
X62790001Y-50090000D01*
X53409925Y-50090000D01*
X53340000Y-50076091D01*
X53270074Y-50090000D01*
X53062972Y-50131195D01*
X52828119Y-50288119D01*
X52671195Y-50522972D01*
X52616091Y-50800000D01*
X52630000Y-50869926D01*
X52630001Y-62790000D01*
X23570000Y-62790000D01*
X23570000Y-59759925D01*
X23583909Y-59690000D01*
X23528805Y-59412972D01*
X23371881Y-59178119D01*
X23137028Y-59021195D01*
X22929926Y-58980000D01*
X22860000Y-58966091D01*
X22790075Y-58980000D01*
X13410000Y-58980000D01*
X13410000Y-56920000D01*
X28332560Y-56920000D01*
X28332560Y-59920000D01*
X28381843Y-60167765D01*
X28522191Y-60377809D01*
X28732235Y-60518157D01*
X28980000Y-60567440D01*
X31980000Y-60567440D01*
X32227765Y-60518157D01*
X32437809Y-60377809D01*
X32578157Y-60167765D01*
X32627440Y-59920000D01*
X32627440Y-57995322D01*
X33425000Y-57995322D01*
X33425000Y-58844678D01*
X33750034Y-59629380D01*
X34350620Y-60229966D01*
X35135322Y-60555000D01*
X35984678Y-60555000D01*
X36769380Y-60229966D01*
X37369966Y-59629380D01*
X37695000Y-58844678D01*
X37695000Y-57995322D01*
X38505000Y-57995322D01*
X38505000Y-58844678D01*
X38830034Y-59629380D01*
X39430620Y-60229966D01*
X40215322Y-60555000D01*
X41064678Y-60555000D01*
X41849380Y-60229966D01*
X42145376Y-59933970D01*
X44385635Y-59933970D01*
X44545418Y-60252739D01*
X45336187Y-60562723D01*
X46185387Y-60546497D01*
X46894582Y-60252739D01*
X47054365Y-59933970D01*
X45720000Y-58599605D01*
X44385635Y-59933970D01*
X42145376Y-59933970D01*
X42449966Y-59629380D01*
X42775000Y-58844678D01*
X42775000Y-58036187D01*
X43577277Y-58036187D01*
X43593503Y-58885387D01*
X43887261Y-59594582D01*
X44206030Y-59754365D01*
X45540395Y-58420000D01*
X45899605Y-58420000D01*
X47233970Y-59754365D01*
X47552739Y-59594582D01*
X47862723Y-58803813D01*
X47846497Y-57954613D01*
X47552739Y-57245418D01*
X47233970Y-57085635D01*
X45899605Y-58420000D01*
X45540395Y-58420000D01*
X44206030Y-57085635D01*
X43887261Y-57245418D01*
X43577277Y-58036187D01*
X42775000Y-58036187D01*
X42775000Y-57995322D01*
X42449966Y-57210620D01*
X42145376Y-56906030D01*
X44385635Y-56906030D01*
X45720000Y-58240395D01*
X47054365Y-56906030D01*
X46894582Y-56587261D01*
X46103813Y-56277277D01*
X45254613Y-56293503D01*
X44545418Y-56587261D01*
X44385635Y-56906030D01*
X42145376Y-56906030D01*
X41849380Y-56610034D01*
X41064678Y-56285000D01*
X40215322Y-56285000D01*
X39430620Y-56610034D01*
X38830034Y-57210620D01*
X38505000Y-57995322D01*
X37695000Y-57995322D01*
X37369966Y-57210620D01*
X36769380Y-56610034D01*
X35984678Y-56285000D01*
X35135322Y-56285000D01*
X34350620Y-56610034D01*
X33750034Y-57210620D01*
X33425000Y-57995322D01*
X32627440Y-57995322D01*
X32627440Y-56920000D01*
X32578157Y-56672235D01*
X32437809Y-56462191D01*
X32227765Y-56321843D01*
X31980000Y-56272560D01*
X28980000Y-56272560D01*
X28732235Y-56321843D01*
X28522191Y-56462191D01*
X28381843Y-56672235D01*
X28332560Y-56920000D01*
X13410000Y-56920000D01*
X13410000Y-49324126D01*
X13570000Y-49324126D01*
X13570000Y-49735874D01*
X13727569Y-50116280D01*
X14018720Y-50407431D01*
X14399126Y-50565000D01*
X14810874Y-50565000D01*
X15191280Y-50407431D01*
X15296762Y-50301949D01*
X15311843Y-50377765D01*
X15452191Y-50587809D01*
X15662235Y-50728157D01*
X15910000Y-50777440D01*
X17110000Y-50777440D01*
X17357765Y-50728157D01*
X17567809Y-50587809D01*
X17657030Y-50454282D01*
X17711178Y-50508430D01*
X17826871Y-50392737D01*
X17876383Y-50618164D01*
X18341036Y-50777807D01*
X18831413Y-50747482D01*
X19143617Y-50618164D01*
X19193130Y-50392735D01*
X18510000Y-49709605D01*
X18495858Y-49723748D01*
X18316253Y-49544143D01*
X18330395Y-49530000D01*
X18689605Y-49530000D01*
X19372735Y-50213130D01*
X19598164Y-50163617D01*
X19757807Y-49698964D01*
X19727482Y-49208587D01*
X19612089Y-48930000D01*
X20342560Y-48930000D01*
X20342560Y-50130000D01*
X20391843Y-50377765D01*
X20532191Y-50587809D01*
X20742235Y-50728157D01*
X20990000Y-50777440D01*
X22190000Y-50777440D01*
X22437765Y-50728157D01*
X22647809Y-50587809D01*
X22737030Y-50454282D01*
X22791178Y-50508430D01*
X22906871Y-50392737D01*
X22956383Y-50618164D01*
X23421036Y-50777807D01*
X23911413Y-50747482D01*
X24223617Y-50618164D01*
X24273130Y-50392735D01*
X23590000Y-49709605D01*
X23575858Y-49723748D01*
X23396253Y-49544143D01*
X23410395Y-49530000D01*
X23769605Y-49530000D01*
X24452735Y-50213130D01*
X24678164Y-50163617D01*
X24837807Y-49698964D01*
X24827359Y-49530000D01*
X26425908Y-49530000D01*
X26541161Y-50109418D01*
X26869375Y-50600625D01*
X27360582Y-50928839D01*
X27793744Y-51015000D01*
X28086256Y-51015000D01*
X28519418Y-50928839D01*
X29010625Y-50600625D01*
X29210000Y-50302239D01*
X29409375Y-50600625D01*
X29900582Y-50928839D01*
X30333744Y-51015000D01*
X30626256Y-51015000D01*
X31059418Y-50928839D01*
X31550625Y-50600625D01*
X31562816Y-50582381D01*
X31571843Y-50627765D01*
X31712191Y-50837809D01*
X31922235Y-50978157D01*
X32170000Y-51027440D01*
X33870000Y-51027440D01*
X34117765Y-50978157D01*
X34327809Y-50837809D01*
X34468157Y-50627765D01*
X34502544Y-50454887D01*
X36365000Y-50454887D01*
X36365000Y-51145113D01*
X36629138Y-51782799D01*
X37117201Y-52270862D01*
X37754887Y-52535000D01*
X38445113Y-52535000D01*
X39082799Y-52270862D01*
X39570862Y-51782799D01*
X39835000Y-51145113D01*
X39835000Y-50454887D01*
X39570862Y-49817201D01*
X39082799Y-49329138D01*
X38445113Y-49065000D01*
X37754887Y-49065000D01*
X37117201Y-49329138D01*
X36629138Y-49817201D01*
X36365000Y-50454887D01*
X34502544Y-50454887D01*
X34517440Y-50380000D01*
X34517440Y-48680000D01*
X34468157Y-48432235D01*
X34327809Y-48222191D01*
X34117765Y-48081843D01*
X33870000Y-48032560D01*
X32170000Y-48032560D01*
X31922235Y-48081843D01*
X31712191Y-48222191D01*
X31571843Y-48432235D01*
X31562816Y-48477619D01*
X31550625Y-48459375D01*
X31059418Y-48131161D01*
X30626256Y-48045000D01*
X30333744Y-48045000D01*
X29900582Y-48131161D01*
X29409375Y-48459375D01*
X29210000Y-48757761D01*
X29010625Y-48459375D01*
X28519418Y-48131161D01*
X28086256Y-48045000D01*
X27793744Y-48045000D01*
X27360582Y-48131161D01*
X26869375Y-48459375D01*
X26541161Y-48950582D01*
X26425908Y-49530000D01*
X24827359Y-49530000D01*
X24807482Y-49208587D01*
X24678164Y-48896383D01*
X24452735Y-48846870D01*
X23769605Y-49530000D01*
X23410395Y-49530000D01*
X23396253Y-49515858D01*
X23575858Y-49336253D01*
X23590000Y-49350395D01*
X24273130Y-48667265D01*
X24223617Y-48441836D01*
X23758964Y-48282193D01*
X23268587Y-48312518D01*
X22956383Y-48441836D01*
X22906871Y-48667263D01*
X22791178Y-48551570D01*
X22737030Y-48605718D01*
X22647809Y-48472191D01*
X22437765Y-48331843D01*
X22190000Y-48282560D01*
X20990000Y-48282560D01*
X20742235Y-48331843D01*
X20532191Y-48472191D01*
X20391843Y-48682235D01*
X20342560Y-48930000D01*
X19612089Y-48930000D01*
X19598164Y-48896383D01*
X19372735Y-48846870D01*
X18689605Y-49530000D01*
X18330395Y-49530000D01*
X18316253Y-49515858D01*
X18495858Y-49336253D01*
X18510000Y-49350395D01*
X19193130Y-48667265D01*
X19143617Y-48441836D01*
X18678964Y-48282193D01*
X18188587Y-48312518D01*
X17876383Y-48441836D01*
X17826871Y-48667263D01*
X17711178Y-48551570D01*
X17657030Y-48605718D01*
X17567809Y-48472191D01*
X17357765Y-48331843D01*
X17110000Y-48282560D01*
X15910000Y-48282560D01*
X15662235Y-48331843D01*
X15452191Y-48472191D01*
X15311843Y-48682235D01*
X15296762Y-48758051D01*
X15191280Y-48652569D01*
X14810874Y-48495000D01*
X14399126Y-48495000D01*
X14018720Y-48652569D01*
X13727569Y-48943720D01*
X13570000Y-49324126D01*
X13410000Y-49324126D01*
X13410000Y-42280000D01*
X14327560Y-42280000D01*
X14327560Y-44080000D01*
X14376843Y-44327765D01*
X14517191Y-44537809D01*
X14727235Y-44678157D01*
X14975000Y-44727440D01*
X16775000Y-44727440D01*
X17022765Y-44678157D01*
X17232809Y-44537809D01*
X17373157Y-44327765D01*
X17422440Y-44080000D01*
X17422440Y-43544740D01*
X22003964Y-43544740D01*
X22182760Y-43976417D01*
X22587424Y-44417966D01*
X23130258Y-44671046D01*
X23368000Y-44550997D01*
X23368000Y-43307000D01*
X23622000Y-43307000D01*
X23622000Y-44550997D01*
X23859742Y-44671046D01*
X24402576Y-44417966D01*
X24807240Y-43976417D01*
X24986036Y-43544740D01*
X24865378Y-43307000D01*
X23622000Y-43307000D01*
X23368000Y-43307000D01*
X22124622Y-43307000D01*
X22003964Y-43544740D01*
X17422440Y-43544740D01*
X17422440Y-42815260D01*
X22003964Y-42815260D01*
X22124622Y-43053000D01*
X23368000Y-43053000D01*
X23368000Y-41809003D01*
X23622000Y-41809003D01*
X23622000Y-43053000D01*
X24865378Y-43053000D01*
X24986036Y-42815260D01*
X24807240Y-42383583D01*
X24402576Y-41942034D01*
X23859742Y-41688954D01*
X23622000Y-41809003D01*
X23368000Y-41809003D01*
X23130258Y-41688954D01*
X22587424Y-41942034D01*
X22182760Y-42383583D01*
X22003964Y-42815260D01*
X17422440Y-42815260D01*
X17422440Y-42280000D01*
X17373157Y-42032235D01*
X17232809Y-41822191D01*
X17022765Y-41681843D01*
X16775000Y-41632560D01*
X14975000Y-41632560D01*
X14727235Y-41681843D01*
X14517191Y-41822191D01*
X14376843Y-42032235D01*
X14327560Y-42280000D01*
X13410000Y-42280000D01*
X13410000Y-37894126D01*
X45955000Y-37894126D01*
X45955000Y-38305874D01*
X46112569Y-38686280D01*
X46403720Y-38977431D01*
X46628727Y-39070632D01*
X46590000Y-39164126D01*
X46590000Y-39575874D01*
X46747569Y-39956280D01*
X47038720Y-40247431D01*
X47419126Y-40405000D01*
X47830874Y-40405000D01*
X48211280Y-40247431D01*
X48328711Y-40130000D01*
X53331822Y-40130000D01*
X53539375Y-40440625D01*
X54030582Y-40768839D01*
X54463744Y-40855000D01*
X54756256Y-40855000D01*
X55189418Y-40768839D01*
X55680625Y-40440625D01*
X55692816Y-40422381D01*
X55701843Y-40467765D01*
X55842191Y-40677809D01*
X56052235Y-40818157D01*
X56300000Y-40867440D01*
X58000000Y-40867440D01*
X58247765Y-40818157D01*
X58457809Y-40677809D01*
X58598157Y-40467765D01*
X58647440Y-40220000D01*
X58647440Y-38520000D01*
X58598157Y-38272235D01*
X58457809Y-38062191D01*
X58247765Y-37921843D01*
X58000000Y-37872560D01*
X56300000Y-37872560D01*
X56052235Y-37921843D01*
X55842191Y-38062191D01*
X55701843Y-38272235D01*
X55692816Y-38317619D01*
X55680625Y-38299375D01*
X55189418Y-37971161D01*
X54756256Y-37885000D01*
X54463744Y-37885000D01*
X54030582Y-37971161D01*
X53539375Y-38299375D01*
X53331822Y-38610000D01*
X50439027Y-38610000D01*
X50565000Y-38305874D01*
X50565000Y-37894126D01*
X50407431Y-37513720D01*
X50116280Y-37222569D01*
X49735874Y-37065000D01*
X49324126Y-37065000D01*
X48943720Y-37222569D01*
X48826289Y-37340000D01*
X47693711Y-37340000D01*
X47576280Y-37222569D01*
X47195874Y-37065000D01*
X46784126Y-37065000D01*
X46403720Y-37222569D01*
X46112569Y-37513720D01*
X45955000Y-37894126D01*
X13410000Y-37894126D01*
X13410000Y-34290000D01*
X53095908Y-34290000D01*
X53211161Y-34869418D01*
X53539375Y-35360625D01*
X54030582Y-35688839D01*
X54463744Y-35775000D01*
X54756256Y-35775000D01*
X55189418Y-35688839D01*
X55680625Y-35360625D01*
X55692816Y-35342381D01*
X55701843Y-35387765D01*
X55842191Y-35597809D01*
X56052235Y-35738157D01*
X56300000Y-35787440D01*
X58000000Y-35787440D01*
X58247765Y-35738157D01*
X58457809Y-35597809D01*
X58598157Y-35387765D01*
X58647440Y-35140000D01*
X58647440Y-33440000D01*
X58598157Y-33192235D01*
X58457809Y-32982191D01*
X58247765Y-32841843D01*
X58000000Y-32792560D01*
X56300000Y-32792560D01*
X56052235Y-32841843D01*
X55842191Y-32982191D01*
X55701843Y-33192235D01*
X55692816Y-33237619D01*
X55680625Y-33219375D01*
X55189418Y-32891161D01*
X54756256Y-32805000D01*
X54463744Y-32805000D01*
X54030582Y-32891161D01*
X53539375Y-33219375D01*
X53211161Y-33710582D01*
X53095908Y-34290000D01*
X13410000Y-34290000D01*
X13410000Y-31877000D01*
X22860000Y-31877000D01*
X22908601Y-31867333D01*
X22949803Y-31839803D01*
X22977333Y-31798601D01*
X22987000Y-31750000D01*
X22987000Y-31686647D01*
X23137028Y-31656805D01*
X23371881Y-31499881D01*
X23528805Y-31265028D01*
X23583909Y-30988000D01*
X23570000Y-30918074D01*
X23570000Y-30242887D01*
X36365000Y-30242887D01*
X36365000Y-30933113D01*
X36629138Y-31570799D01*
X37117201Y-32058862D01*
X37754887Y-32323000D01*
X38445113Y-32323000D01*
X39082799Y-32058862D01*
X39570862Y-31570799D01*
X39835000Y-30933113D01*
X39835000Y-30242887D01*
X39570862Y-29605201D01*
X39082799Y-29117138D01*
X38445113Y-28853000D01*
X37754887Y-28853000D01*
X37117201Y-29117138D01*
X36629138Y-29605201D01*
X36365000Y-30242887D01*
X23570000Y-30242887D01*
X23570000Y-27099126D01*
X27540000Y-27099126D01*
X27540000Y-27510874D01*
X27697569Y-27891280D01*
X27988720Y-28182431D01*
X28369126Y-28340000D01*
X28780874Y-28340000D01*
X29161280Y-28182431D01*
X29452431Y-27891280D01*
X29610000Y-27510874D01*
X29610000Y-27430000D01*
X48826289Y-27430000D01*
X48943720Y-27547431D01*
X49324126Y-27705000D01*
X49735874Y-27705000D01*
X50116280Y-27547431D01*
X50407431Y-27256280D01*
X50565000Y-26875874D01*
X50565000Y-26464126D01*
X50407431Y-26083720D01*
X50143711Y-25820000D01*
X51842560Y-25820000D01*
X51842560Y-27520000D01*
X51891843Y-27767765D01*
X52032191Y-27977809D01*
X52242235Y-28118157D01*
X52490000Y-28167440D01*
X54190000Y-28167440D01*
X54437765Y-28118157D01*
X54647809Y-27977809D01*
X54788157Y-27767765D01*
X54797184Y-27722381D01*
X54809375Y-27740625D01*
X55300582Y-28068839D01*
X55733744Y-28155000D01*
X56026256Y-28155000D01*
X56459418Y-28068839D01*
X56950625Y-27740625D01*
X57150000Y-27442239D01*
X57349375Y-27740625D01*
X57840582Y-28068839D01*
X58273744Y-28155000D01*
X58566256Y-28155000D01*
X58999418Y-28068839D01*
X59490625Y-27740625D01*
X59818839Y-27249418D01*
X59934092Y-26670000D01*
X59818839Y-26090582D01*
X59490625Y-25599375D01*
X58999418Y-25271161D01*
X58566256Y-25185000D01*
X58273744Y-25185000D01*
X57840582Y-25271161D01*
X57349375Y-25599375D01*
X57150000Y-25897761D01*
X56950625Y-25599375D01*
X56459418Y-25271161D01*
X56026256Y-25185000D01*
X55733744Y-25185000D01*
X55300582Y-25271161D01*
X54809375Y-25599375D01*
X54797184Y-25617619D01*
X54788157Y-25572235D01*
X54647809Y-25362191D01*
X54437765Y-25221843D01*
X54190000Y-25172560D01*
X52490000Y-25172560D01*
X52242235Y-25221843D01*
X52032191Y-25362191D01*
X51891843Y-25572235D01*
X51842560Y-25820000D01*
X50143711Y-25820000D01*
X50116280Y-25792569D01*
X49735874Y-25635000D01*
X49324126Y-25635000D01*
X48943720Y-25792569D01*
X48826289Y-25910000D01*
X29284848Y-25910000D01*
X29210000Y-25895112D01*
X29135152Y-25910000D01*
X29135148Y-25910000D01*
X28913463Y-25954096D01*
X28662071Y-26122071D01*
X28619671Y-26185527D01*
X28535198Y-26270000D01*
X28369126Y-26270000D01*
X27988720Y-26427569D01*
X27697569Y-26718720D01*
X27540000Y-27099126D01*
X23570000Y-27099126D01*
X23570000Y-19304000D01*
X32775908Y-19304000D01*
X32891161Y-19883418D01*
X33219375Y-20374625D01*
X33710582Y-20702839D01*
X34143744Y-20789000D01*
X34436256Y-20789000D01*
X34869418Y-20702839D01*
X35360625Y-20374625D01*
X35560000Y-20076239D01*
X35759375Y-20374625D01*
X36250582Y-20702839D01*
X36683744Y-20789000D01*
X36976256Y-20789000D01*
X37409418Y-20702839D01*
X37900625Y-20374625D01*
X38113843Y-20055522D01*
X38174817Y-20185358D01*
X38603076Y-20575645D01*
X39013110Y-20745476D01*
X39243000Y-20624155D01*
X39243000Y-19431000D01*
X39223000Y-19431000D01*
X39223000Y-19177000D01*
X39243000Y-19177000D01*
X39243000Y-17983845D01*
X39497000Y-17983845D01*
X39497000Y-19177000D01*
X39517000Y-19177000D01*
X39517000Y-19431000D01*
X39497000Y-19431000D01*
X39497000Y-20624155D01*
X39726890Y-20745476D01*
X40136924Y-20575645D01*
X40441261Y-20298292D01*
X40461843Y-20401765D01*
X40602191Y-20611809D01*
X40812235Y-20752157D01*
X41060000Y-20801440D01*
X42760000Y-20801440D01*
X43007765Y-20752157D01*
X43217809Y-20611809D01*
X43358157Y-20401765D01*
X43407440Y-20154000D01*
X43407440Y-18454000D01*
X43358157Y-18206235D01*
X43217809Y-17996191D01*
X43007765Y-17855843D01*
X42760000Y-17806560D01*
X41060000Y-17806560D01*
X40812235Y-17855843D01*
X40602191Y-17996191D01*
X40461843Y-18206235D01*
X40441261Y-18309708D01*
X40136924Y-18032355D01*
X39726890Y-17862524D01*
X39497000Y-17983845D01*
X39243000Y-17983845D01*
X39013110Y-17862524D01*
X38603076Y-18032355D01*
X38174817Y-18422642D01*
X38113843Y-18552478D01*
X37900625Y-18233375D01*
X37409418Y-17905161D01*
X36976256Y-17819000D01*
X36683744Y-17819000D01*
X36250582Y-17905161D01*
X35759375Y-18233375D01*
X35560000Y-18531761D01*
X35360625Y-18233375D01*
X34869418Y-17905161D01*
X34436256Y-17819000D01*
X34143744Y-17819000D01*
X33710582Y-17905161D01*
X33219375Y-18233375D01*
X32891161Y-18724582D01*
X32775908Y-19304000D01*
X23570000Y-19304000D01*
X23570000Y-16104892D01*
X32848514Y-16104892D01*
X33094817Y-16629358D01*
X33523076Y-17019645D01*
X33933110Y-17189476D01*
X34163000Y-17068155D01*
X34163000Y-15875000D01*
X32969181Y-15875000D01*
X32848514Y-16104892D01*
X23570000Y-16104892D01*
X23570000Y-15391108D01*
X32848514Y-15391108D01*
X32969181Y-15621000D01*
X34163000Y-15621000D01*
X34163000Y-14427845D01*
X34417000Y-14427845D01*
X34417000Y-15621000D01*
X34437000Y-15621000D01*
X34437000Y-15875000D01*
X34417000Y-15875000D01*
X34417000Y-17068155D01*
X34646890Y-17189476D01*
X35056924Y-17019645D01*
X35485183Y-16629358D01*
X35546157Y-16499522D01*
X35759375Y-16818625D01*
X36250582Y-17146839D01*
X36683744Y-17233000D01*
X36976256Y-17233000D01*
X37409418Y-17146839D01*
X37900625Y-16818625D01*
X38100000Y-16520239D01*
X38299375Y-16818625D01*
X38790582Y-17146839D01*
X39223744Y-17233000D01*
X39516256Y-17233000D01*
X39949418Y-17146839D01*
X40440625Y-16818625D01*
X40452816Y-16800381D01*
X40461843Y-16845765D01*
X40602191Y-17055809D01*
X40812235Y-17196157D01*
X41060000Y-17245440D01*
X42760000Y-17245440D01*
X43007765Y-17196157D01*
X43217809Y-17055809D01*
X43358157Y-16845765D01*
X43407440Y-16598000D01*
X43407440Y-14898000D01*
X43358157Y-14650235D01*
X43217809Y-14440191D01*
X43007765Y-14299843D01*
X42760000Y-14250560D01*
X41060000Y-14250560D01*
X40812235Y-14299843D01*
X40602191Y-14440191D01*
X40461843Y-14650235D01*
X40452816Y-14695619D01*
X40440625Y-14677375D01*
X39949418Y-14349161D01*
X39516256Y-14263000D01*
X39223744Y-14263000D01*
X38790582Y-14349161D01*
X38299375Y-14677375D01*
X38100000Y-14975761D01*
X37900625Y-14677375D01*
X37409418Y-14349161D01*
X36976256Y-14263000D01*
X36683744Y-14263000D01*
X36250582Y-14349161D01*
X35759375Y-14677375D01*
X35546157Y-14996478D01*
X35485183Y-14866642D01*
X35056924Y-14476355D01*
X34646890Y-14306524D01*
X34417000Y-14427845D01*
X34163000Y-14427845D01*
X33933110Y-14306524D01*
X33523076Y-14476355D01*
X33094817Y-14866642D01*
X32848514Y-15391108D01*
X23570000Y-15391108D01*
X23570000Y-13410000D01*
X52630001Y-13410000D01*
X52630000Y-22790074D01*
G04 #@! TD*
M02*
