G04 #@! TF.GenerationSoftware,KiCad,Pcbnew,(2018-02-09 revision dba198e57)-makepkg*
G04 #@! TF.CreationDate,2018-02-17T15:50:05+01:00*
G04 #@! TF.ProjectId,Kellerklima,4B656C6C65726B6C696D612E6B696361,rev?*
G04 #@! TF.SameCoordinates,Original*
G04 #@! TF.FileFunction,Legend,Top*
G04 #@! TF.FilePolarity,Positive*
%FSLAX46Y46*%
G04 Gerber Fmt 4.6, Leading zero omitted, Abs format (unit mm)*
G04 Created by KiCad (PCBNEW (2018-02-09 revision dba198e57)-makepkg) date 02/17/18 15:50:05*
%MOMM*%
%LPD*%
G01*
G04 APERTURE LIST*
%ADD10C,0.300000*%
%ADD11C,0.100000*%
%ADD12C,0.200000*%
%ADD13C,0.120000*%
%ADD14C,0.180000*%
%ADD15C,0.150000*%
%ADD16C,0.254000*%
%ADD17C,0.152400*%
G04 APERTURE END LIST*
D10*
X108519285Y-35471571D02*
X108519285Y-33971571D01*
X109376428Y-35471571D02*
X108733571Y-34614428D01*
X109376428Y-33971571D02*
X108519285Y-34828714D01*
X110590714Y-35400142D02*
X110447857Y-35471571D01*
X110162142Y-35471571D01*
X110019285Y-35400142D01*
X109947857Y-35257285D01*
X109947857Y-34685857D01*
X110019285Y-34543000D01*
X110162142Y-34471571D01*
X110447857Y-34471571D01*
X110590714Y-34543000D01*
X110662142Y-34685857D01*
X110662142Y-34828714D01*
X109947857Y-34971571D01*
X111519285Y-35471571D02*
X111376428Y-35400142D01*
X111305000Y-35257285D01*
X111305000Y-33971571D01*
X112305000Y-35471571D02*
X112162142Y-35400142D01*
X112090714Y-35257285D01*
X112090714Y-33971571D01*
X113447857Y-35400142D02*
X113305000Y-35471571D01*
X113019285Y-35471571D01*
X112876428Y-35400142D01*
X112805000Y-35257285D01*
X112805000Y-34685857D01*
X112876428Y-34543000D01*
X113019285Y-34471571D01*
X113305000Y-34471571D01*
X113447857Y-34543000D01*
X113519285Y-34685857D01*
X113519285Y-34828714D01*
X112805000Y-34971571D01*
X114162142Y-35471571D02*
X114162142Y-34471571D01*
X114162142Y-34757285D02*
X114233571Y-34614428D01*
X114305000Y-34543000D01*
X114447857Y-34471571D01*
X114590714Y-34471571D01*
X115090714Y-35471571D02*
X115090714Y-33971571D01*
X115233571Y-34900142D02*
X115662142Y-35471571D01*
X115662142Y-34471571D02*
X115090714Y-35043000D01*
X116519285Y-35471571D02*
X116376428Y-35400142D01*
X116305000Y-35257285D01*
X116305000Y-33971571D01*
X117090714Y-35471571D02*
X117090714Y-34471571D01*
X117090714Y-33971571D02*
X117019285Y-34043000D01*
X117090714Y-34114428D01*
X117162142Y-34043000D01*
X117090714Y-33971571D01*
X117090714Y-34114428D01*
X117805000Y-35471571D02*
X117805000Y-34471571D01*
X117805000Y-34614428D02*
X117876428Y-34543000D01*
X118019285Y-34471571D01*
X118233571Y-34471571D01*
X118376428Y-34543000D01*
X118447857Y-34685857D01*
X118447857Y-35471571D01*
X118447857Y-34685857D02*
X118519285Y-34543000D01*
X118662142Y-34471571D01*
X118876428Y-34471571D01*
X119019285Y-34543000D01*
X119090714Y-34685857D01*
X119090714Y-35471571D01*
X120447857Y-35471571D02*
X120447857Y-34685857D01*
X120376428Y-34543000D01*
X120233571Y-34471571D01*
X119947857Y-34471571D01*
X119805000Y-34543000D01*
X120447857Y-35400142D02*
X120305000Y-35471571D01*
X119947857Y-35471571D01*
X119805000Y-35400142D01*
X119733571Y-35257285D01*
X119733571Y-35114428D01*
X119805000Y-34971571D01*
X119947857Y-34900142D01*
X120305000Y-34900142D01*
X120447857Y-34828714D01*
X122090714Y-33971571D02*
X122590714Y-35471571D01*
X123090714Y-33971571D01*
X124376428Y-35471571D02*
X123519285Y-35471571D01*
X123947857Y-35471571D02*
X123947857Y-33971571D01*
X123805000Y-34185857D01*
X123662142Y-34328714D01*
X123519285Y-34400142D01*
X125019285Y-35328714D02*
X125090714Y-35400142D01*
X125019285Y-35471571D01*
X124947857Y-35400142D01*
X125019285Y-35328714D01*
X125019285Y-35471571D01*
X126519285Y-35471571D02*
X125662142Y-35471571D01*
X126090714Y-35471571D02*
X126090714Y-33971571D01*
X125947857Y-34185857D01*
X125805000Y-34328714D01*
X125662142Y-34400142D01*
X115233571Y-36664428D02*
X115305000Y-36593000D01*
X115447857Y-36521571D01*
X115805000Y-36521571D01*
X115947857Y-36593000D01*
X116019285Y-36664428D01*
X116090714Y-36807285D01*
X116090714Y-36950142D01*
X116019285Y-37164428D01*
X115162142Y-38021571D01*
X116090714Y-38021571D01*
X117019285Y-36521571D02*
X117162142Y-36521571D01*
X117305000Y-36593000D01*
X117376428Y-36664428D01*
X117447857Y-36807285D01*
X117519285Y-37093000D01*
X117519285Y-37450142D01*
X117447857Y-37735857D01*
X117376428Y-37878714D01*
X117305000Y-37950142D01*
X117162142Y-38021571D01*
X117019285Y-38021571D01*
X116876428Y-37950142D01*
X116805000Y-37878714D01*
X116733571Y-37735857D01*
X116662142Y-37450142D01*
X116662142Y-37093000D01*
X116733571Y-36807285D01*
X116805000Y-36664428D01*
X116876428Y-36593000D01*
X117019285Y-36521571D01*
X118947857Y-38021571D02*
X118090714Y-38021571D01*
X118519285Y-38021571D02*
X118519285Y-36521571D01*
X118376428Y-36735857D01*
X118233571Y-36878714D01*
X118090714Y-36950142D01*
X119805000Y-37164428D02*
X119662142Y-37093000D01*
X119590714Y-37021571D01*
X119519285Y-36878714D01*
X119519285Y-36807285D01*
X119590714Y-36664428D01*
X119662142Y-36593000D01*
X119805000Y-36521571D01*
X120090714Y-36521571D01*
X120233571Y-36593000D01*
X120305000Y-36664428D01*
X120376428Y-36807285D01*
X120376428Y-36878714D01*
X120305000Y-37021571D01*
X120233571Y-37093000D01*
X120090714Y-37164428D01*
X119805000Y-37164428D01*
X119662142Y-37235857D01*
X119590714Y-37307285D01*
X119519285Y-37450142D01*
X119519285Y-37735857D01*
X119590714Y-37878714D01*
X119662142Y-37950142D01*
X119805000Y-38021571D01*
X120090714Y-38021571D01*
X120233571Y-37950142D01*
X120305000Y-37878714D01*
X120376428Y-37735857D01*
X120376428Y-37450142D01*
X120305000Y-37307285D01*
X120233571Y-37235857D01*
X120090714Y-37164428D01*
X122590714Y-36521571D02*
X122590714Y-37593000D01*
X122519285Y-37807285D01*
X122376428Y-37950142D01*
X122162142Y-38021571D01*
X122019285Y-38021571D01*
X124019285Y-38021571D02*
X123305000Y-38021571D01*
X123305000Y-36521571D01*
X125090714Y-37950142D02*
X124947857Y-38021571D01*
X124662142Y-38021571D01*
X124519285Y-37950142D01*
X124447857Y-37807285D01*
X124447857Y-37235857D01*
X124519285Y-37093000D01*
X124662142Y-37021571D01*
X124947857Y-37021571D01*
X125090714Y-37093000D01*
X125162142Y-37235857D01*
X125162142Y-37378714D01*
X124447857Y-37521571D01*
X126447857Y-37021571D02*
X126447857Y-38235857D01*
X126376428Y-38378714D01*
X126305000Y-38450142D01*
X126162142Y-38521571D01*
X125947857Y-38521571D01*
X125805000Y-38450142D01*
X126447857Y-37950142D02*
X126305000Y-38021571D01*
X126019285Y-38021571D01*
X125876428Y-37950142D01*
X125805000Y-37878714D01*
X125733571Y-37735857D01*
X125733571Y-37307285D01*
X125805000Y-37164428D01*
X125876428Y-37093000D01*
X126019285Y-37021571D01*
X126305000Y-37021571D01*
X126447857Y-37093000D01*
D11*
X129495619Y-98913904D02*
X129495619Y-98113904D01*
X129800380Y-98113904D01*
X129876571Y-98152000D01*
X129914666Y-98190095D01*
X129952761Y-98266285D01*
X129952761Y-98380571D01*
X129914666Y-98456761D01*
X129876571Y-98494857D01*
X129800380Y-98532952D01*
X129495619Y-98532952D01*
X130257523Y-98685333D02*
X130638476Y-98685333D01*
X130181333Y-98913904D02*
X130448000Y-98113904D01*
X130714666Y-98913904D01*
X131978476Y-98913904D02*
X131978476Y-98113904D01*
X132283238Y-98113904D01*
X132359428Y-98152000D01*
X132397523Y-98190095D01*
X132435619Y-98266285D01*
X132435619Y-98380571D01*
X132397523Y-98456761D01*
X132359428Y-98494857D01*
X132283238Y-98532952D01*
X131978476Y-98532952D01*
X133045142Y-98494857D02*
X133159428Y-98532952D01*
X133197523Y-98571047D01*
X133235619Y-98647238D01*
X133235619Y-98761523D01*
X133197523Y-98837714D01*
X133159428Y-98875809D01*
X133083238Y-98913904D01*
X132778476Y-98913904D01*
X132778476Y-98113904D01*
X133045142Y-98113904D01*
X133121333Y-98152000D01*
X133159428Y-98190095D01*
X133197523Y-98266285D01*
X133197523Y-98342476D01*
X133159428Y-98418666D01*
X133121333Y-98456761D01*
X133045142Y-98494857D01*
X132778476Y-98494857D01*
X134442285Y-98875809D02*
X134556571Y-98913904D01*
X134747047Y-98913904D01*
X134823238Y-98875809D01*
X134861333Y-98837714D01*
X134899428Y-98761523D01*
X134899428Y-98685333D01*
X134861333Y-98609142D01*
X134823238Y-98571047D01*
X134747047Y-98532952D01*
X134594666Y-98494857D01*
X134518476Y-98456761D01*
X134480380Y-98418666D01*
X134442285Y-98342476D01*
X134442285Y-98266285D01*
X134480380Y-98190095D01*
X134518476Y-98152000D01*
X134594666Y-98113904D01*
X134785142Y-98113904D01*
X134899428Y-98152000D01*
X135166095Y-98113904D02*
X135356571Y-98913904D01*
X135508952Y-98342476D01*
X135661333Y-98913904D01*
X135851809Y-98113904D01*
X129235238Y-93021142D02*
X129844761Y-93021142D01*
X137515619Y-98113904D02*
X137134666Y-98113904D01*
X137096571Y-98494857D01*
X137134666Y-98456761D01*
X137210857Y-98418666D01*
X137401333Y-98418666D01*
X137477523Y-98456761D01*
X137515619Y-98494857D01*
X137553714Y-98571047D01*
X137553714Y-98761523D01*
X137515619Y-98837714D01*
X137477523Y-98875809D01*
X137401333Y-98913904D01*
X137210857Y-98913904D01*
X137134666Y-98875809D01*
X137096571Y-98837714D01*
X137782285Y-98113904D02*
X138048952Y-98913904D01*
X138315619Y-98113904D01*
X139598476Y-98152000D02*
X139522285Y-98113904D01*
X139408000Y-98113904D01*
X139293714Y-98152000D01*
X139217523Y-98228190D01*
X139179428Y-98304380D01*
X139141333Y-98456761D01*
X139141333Y-98571047D01*
X139179428Y-98723428D01*
X139217523Y-98799619D01*
X139293714Y-98875809D01*
X139408000Y-98913904D01*
X139484190Y-98913904D01*
X139598476Y-98875809D01*
X139636571Y-98837714D01*
X139636571Y-98571047D01*
X139484190Y-98571047D01*
X139979428Y-98913904D02*
X139979428Y-98113904D01*
X140436571Y-98913904D01*
X140436571Y-98113904D01*
X140817523Y-98913904D02*
X140817523Y-98113904D01*
X141008000Y-98113904D01*
X141122285Y-98152000D01*
X141198476Y-98228190D01*
X141236571Y-98304380D01*
X141274666Y-98456761D01*
X141274666Y-98571047D01*
X141236571Y-98723428D01*
X141198476Y-98799619D01*
X141122285Y-98875809D01*
X141008000Y-98913904D01*
X140817523Y-98913904D01*
X112839619Y-98875809D02*
X112953904Y-98913904D01*
X113144380Y-98913904D01*
X113220571Y-98875809D01*
X113258666Y-98837714D01*
X113296761Y-98761523D01*
X113296761Y-98685333D01*
X113258666Y-98609142D01*
X113220571Y-98571047D01*
X113144380Y-98532952D01*
X112992000Y-98494857D01*
X112915809Y-98456761D01*
X112877714Y-98418666D01*
X112839619Y-98342476D01*
X112839619Y-98266285D01*
X112877714Y-98190095D01*
X112915809Y-98152000D01*
X112992000Y-98113904D01*
X113182476Y-98113904D01*
X113296761Y-98152000D01*
X114096761Y-98837714D02*
X114058666Y-98875809D01*
X113944380Y-98913904D01*
X113868190Y-98913904D01*
X113753904Y-98875809D01*
X113677714Y-98799619D01*
X113639619Y-98723428D01*
X113601523Y-98571047D01*
X113601523Y-98456761D01*
X113639619Y-98304380D01*
X113677714Y-98228190D01*
X113753904Y-98152000D01*
X113868190Y-98113904D01*
X113944380Y-98113904D01*
X114058666Y-98152000D01*
X114096761Y-98190095D01*
X114820571Y-98913904D02*
X114439619Y-98913904D01*
X114439619Y-98113904D01*
X115360571Y-98875809D02*
X115474857Y-98913904D01*
X115665333Y-98913904D01*
X115741523Y-98875809D01*
X115779619Y-98837714D01*
X115817714Y-98761523D01*
X115817714Y-98685333D01*
X115779619Y-98609142D01*
X115741523Y-98571047D01*
X115665333Y-98532952D01*
X115512952Y-98494857D01*
X115436761Y-98456761D01*
X115398666Y-98418666D01*
X115360571Y-98342476D01*
X115360571Y-98266285D01*
X115398666Y-98190095D01*
X115436761Y-98152000D01*
X115512952Y-98113904D01*
X115703428Y-98113904D01*
X115817714Y-98152000D01*
X116160571Y-98913904D02*
X116160571Y-98113904D01*
X116351047Y-98113904D01*
X116465333Y-98152000D01*
X116541523Y-98228190D01*
X116579619Y-98304380D01*
X116617714Y-98456761D01*
X116617714Y-98571047D01*
X116579619Y-98723428D01*
X116541523Y-98799619D01*
X116465333Y-98875809D01*
X116351047Y-98913904D01*
X116160571Y-98913904D01*
X116922476Y-98685333D02*
X117303428Y-98685333D01*
X116846285Y-98913904D02*
X117112952Y-98113904D01*
X117379619Y-98913904D01*
X96583619Y-98875809D02*
X96697904Y-98913904D01*
X96888380Y-98913904D01*
X96964571Y-98875809D01*
X97002666Y-98837714D01*
X97040761Y-98761523D01*
X97040761Y-98685333D01*
X97002666Y-98609142D01*
X96964571Y-98571047D01*
X96888380Y-98532952D01*
X96736000Y-98494857D01*
X96659809Y-98456761D01*
X96621714Y-98418666D01*
X96583619Y-98342476D01*
X96583619Y-98266285D01*
X96621714Y-98190095D01*
X96659809Y-98152000D01*
X96736000Y-98113904D01*
X96926476Y-98113904D01*
X97040761Y-98152000D01*
X97840761Y-98837714D02*
X97802666Y-98875809D01*
X97688380Y-98913904D01*
X97612190Y-98913904D01*
X97497904Y-98875809D01*
X97421714Y-98799619D01*
X97383619Y-98723428D01*
X97345523Y-98571047D01*
X97345523Y-98456761D01*
X97383619Y-98304380D01*
X97421714Y-98228190D01*
X97497904Y-98152000D01*
X97612190Y-98113904D01*
X97688380Y-98113904D01*
X97802666Y-98152000D01*
X97840761Y-98190095D01*
X98564571Y-98913904D02*
X98183619Y-98913904D01*
X98183619Y-98113904D01*
X99104571Y-98875809D02*
X99218857Y-98913904D01*
X99409333Y-98913904D01*
X99485523Y-98875809D01*
X99523619Y-98837714D01*
X99561714Y-98761523D01*
X99561714Y-98685333D01*
X99523619Y-98609142D01*
X99485523Y-98571047D01*
X99409333Y-98532952D01*
X99256952Y-98494857D01*
X99180761Y-98456761D01*
X99142666Y-98418666D01*
X99104571Y-98342476D01*
X99104571Y-98266285D01*
X99142666Y-98190095D01*
X99180761Y-98152000D01*
X99256952Y-98113904D01*
X99447428Y-98113904D01*
X99561714Y-98152000D01*
X99904571Y-98913904D02*
X99904571Y-98113904D01*
X100095047Y-98113904D01*
X100209333Y-98152000D01*
X100285523Y-98228190D01*
X100323619Y-98304380D01*
X100361714Y-98456761D01*
X100361714Y-98571047D01*
X100323619Y-98723428D01*
X100285523Y-98799619D01*
X100209333Y-98875809D01*
X100095047Y-98913904D01*
X99904571Y-98913904D01*
X100666476Y-98685333D02*
X101047428Y-98685333D01*
X100590285Y-98913904D02*
X100856952Y-98113904D01*
X101123619Y-98913904D01*
X104546476Y-98152000D02*
X104470285Y-98113904D01*
X104356000Y-98113904D01*
X104241714Y-98152000D01*
X104165523Y-98228190D01*
X104127428Y-98304380D01*
X104089333Y-98456761D01*
X104089333Y-98571047D01*
X104127428Y-98723428D01*
X104165523Y-98799619D01*
X104241714Y-98875809D01*
X104356000Y-98913904D01*
X104432190Y-98913904D01*
X104546476Y-98875809D01*
X104584571Y-98837714D01*
X104584571Y-98571047D01*
X104432190Y-98571047D01*
X104927428Y-98913904D02*
X104927428Y-98113904D01*
X105384571Y-98913904D01*
X105384571Y-98113904D01*
X105765523Y-98913904D02*
X105765523Y-98113904D01*
X105956000Y-98113904D01*
X106070285Y-98152000D01*
X106146476Y-98228190D01*
X106184571Y-98304380D01*
X106222666Y-98456761D01*
X106222666Y-98571047D01*
X106184571Y-98723428D01*
X106146476Y-98799619D01*
X106070285Y-98875809D01*
X105956000Y-98913904D01*
X105765523Y-98913904D01*
X102463619Y-98113904D02*
X102082666Y-98113904D01*
X102044571Y-98494857D01*
X102082666Y-98456761D01*
X102158857Y-98418666D01*
X102349333Y-98418666D01*
X102425523Y-98456761D01*
X102463619Y-98494857D01*
X102501714Y-98571047D01*
X102501714Y-98761523D01*
X102463619Y-98837714D01*
X102425523Y-98875809D01*
X102349333Y-98913904D01*
X102158857Y-98913904D01*
X102082666Y-98875809D01*
X102044571Y-98837714D01*
X102730285Y-98113904D02*
X102996952Y-98913904D01*
X103263619Y-98113904D01*
X118719619Y-98113904D02*
X118338666Y-98113904D01*
X118300571Y-98494857D01*
X118338666Y-98456761D01*
X118414857Y-98418666D01*
X118605333Y-98418666D01*
X118681523Y-98456761D01*
X118719619Y-98494857D01*
X118757714Y-98571047D01*
X118757714Y-98761523D01*
X118719619Y-98837714D01*
X118681523Y-98875809D01*
X118605333Y-98913904D01*
X118414857Y-98913904D01*
X118338666Y-98875809D01*
X118300571Y-98837714D01*
X118986285Y-98113904D02*
X119252952Y-98913904D01*
X119519619Y-98113904D01*
X120802476Y-98152000D02*
X120726285Y-98113904D01*
X120612000Y-98113904D01*
X120497714Y-98152000D01*
X120421523Y-98228190D01*
X120383428Y-98304380D01*
X120345333Y-98456761D01*
X120345333Y-98571047D01*
X120383428Y-98723428D01*
X120421523Y-98799619D01*
X120497714Y-98875809D01*
X120612000Y-98913904D01*
X120688190Y-98913904D01*
X120802476Y-98875809D01*
X120840571Y-98837714D01*
X120840571Y-98571047D01*
X120688190Y-98571047D01*
X121183428Y-98913904D02*
X121183428Y-98113904D01*
X121640571Y-98913904D01*
X121640571Y-98113904D01*
X122021523Y-98913904D02*
X122021523Y-98113904D01*
X122212000Y-98113904D01*
X122326285Y-98152000D01*
X122402476Y-98228190D01*
X122440571Y-98304380D01*
X122478666Y-98456761D01*
X122478666Y-98571047D01*
X122440571Y-98723428D01*
X122402476Y-98799619D01*
X122326285Y-98875809D01*
X122212000Y-98913904D01*
X122021523Y-98913904D01*
X106743619Y-98875809D02*
X106857904Y-98913904D01*
X107048380Y-98913904D01*
X107124571Y-98875809D01*
X107162666Y-98837714D01*
X107200761Y-98761523D01*
X107200761Y-98685333D01*
X107162666Y-98609142D01*
X107124571Y-98571047D01*
X107048380Y-98532952D01*
X106896000Y-98494857D01*
X106819809Y-98456761D01*
X106781714Y-98418666D01*
X106743619Y-98342476D01*
X106743619Y-98266285D01*
X106781714Y-98190095D01*
X106819809Y-98152000D01*
X106896000Y-98113904D01*
X107086476Y-98113904D01*
X107200761Y-98152000D01*
X107543619Y-98913904D02*
X107543619Y-98113904D01*
X107543619Y-98494857D02*
X108000761Y-98494857D01*
X108000761Y-98913904D02*
X108000761Y-98113904D01*
X108267428Y-98113904D02*
X108724571Y-98113904D01*
X108496000Y-98913904D02*
X108496000Y-98113904D01*
X122999619Y-98875809D02*
X123113904Y-98913904D01*
X123304380Y-98913904D01*
X123380571Y-98875809D01*
X123418666Y-98837714D01*
X123456761Y-98761523D01*
X123456761Y-98685333D01*
X123418666Y-98609142D01*
X123380571Y-98571047D01*
X123304380Y-98532952D01*
X123152000Y-98494857D01*
X123075809Y-98456761D01*
X123037714Y-98418666D01*
X122999619Y-98342476D01*
X122999619Y-98266285D01*
X123037714Y-98190095D01*
X123075809Y-98152000D01*
X123152000Y-98113904D01*
X123342476Y-98113904D01*
X123456761Y-98152000D01*
X123799619Y-98913904D02*
X123799619Y-98113904D01*
X123799619Y-98494857D02*
X124256761Y-98494857D01*
X124256761Y-98913904D02*
X124256761Y-98113904D01*
X124523428Y-98113904D02*
X124980571Y-98113904D01*
X124752000Y-98913904D02*
X124752000Y-98113904D01*
D10*
X107124571Y-86975142D02*
X108267428Y-86975142D01*
X107124571Y-71735142D02*
X108267428Y-71735142D01*
D12*
X71929714Y-98496380D02*
X71929714Y-97496380D01*
X72310666Y-97496380D01*
X72405904Y-97544000D01*
X72453523Y-97591619D01*
X72501142Y-97686857D01*
X72501142Y-97829714D01*
X72453523Y-97924952D01*
X72405904Y-97972571D01*
X72310666Y-98020190D01*
X71929714Y-98020190D01*
X72929714Y-97972571D02*
X73263047Y-97972571D01*
X73405904Y-98496380D02*
X72929714Y-98496380D01*
X72929714Y-97496380D01*
X73405904Y-97496380D01*
X66770285Y-98496380D02*
X66770285Y-97496380D01*
X67341714Y-98496380D01*
X67341714Y-97496380D01*
X62285523Y-98496380D02*
X61809333Y-98496380D01*
X61809333Y-97496380D01*
D13*
X106912000Y-60768000D02*
X106912000Y-62168000D01*
X106912000Y-62168000D02*
X109712000Y-62168000D01*
X106912000Y-60768000D02*
X109712000Y-60768000D01*
X106912000Y-76008000D02*
X109712000Y-76008000D01*
X106912000Y-77408000D02*
X109712000Y-77408000D01*
X106912000Y-76008000D02*
X106912000Y-77408000D01*
X111388000Y-77816000D02*
X111388000Y-76616000D01*
X113148000Y-76616000D02*
X113148000Y-77816000D01*
X113148000Y-61376000D02*
X113148000Y-62576000D01*
X111388000Y-62576000D02*
X111388000Y-61376000D01*
X140710000Y-38100000D02*
G75*
G03X140710000Y-38100000I-6100000J0D01*
G01*
X132734000Y-86396000D02*
X132734000Y-80386000D01*
X139554000Y-84146000D02*
X139554000Y-80386000D01*
X132734000Y-80386000D02*
X133994000Y-80386000D01*
X139554000Y-80386000D02*
X138294000Y-80386000D01*
X72216000Y-51368000D02*
X72216000Y-26368000D01*
X145216000Y-51368000D02*
X72216000Y-51368000D01*
X145216000Y-26368000D02*
X145216000Y-51368000D01*
X72216000Y-26368000D02*
X145216000Y-26368000D01*
X77416660Y-31366460D02*
G75*
G03X76916280Y-31866840I0J-500380D01*
G01*
X76916280Y-45867320D02*
G75*
G03X77416660Y-46367700I500380J0D01*
G01*
X140916660Y-46367700D02*
G75*
G03X141417040Y-45867320I0J500380D01*
G01*
X141416000Y-31868000D02*
G75*
G03X140916000Y-31368000I-500000J0D01*
G01*
X141416000Y-31868000D02*
X141416000Y-45868000D01*
X140916660Y-46368000D02*
X77416000Y-46368000D01*
X76916280Y-45867320D02*
X76916280Y-31868000D01*
X77416000Y-31368000D02*
X140916000Y-31368000D01*
X75716000Y-20368000D02*
X78716000Y-20368000D01*
X69086000Y-20728000D02*
X69876000Y-20728000D01*
X69076000Y-20728000D02*
X69076000Y-57008000D01*
X149356000Y-20728000D02*
X69876000Y-20728000D01*
X149356000Y-57008000D02*
X149356000Y-20728000D01*
X69076000Y-57008000D02*
X149356000Y-57008000D01*
X86404000Y-93342000D02*
X84284000Y-93342000D01*
X85344000Y-97572000D02*
X85344000Y-96802000D01*
X85344000Y-91912000D02*
X85344000Y-92682000D01*
X86404000Y-96802000D02*
X86404000Y-92682000D01*
X84284000Y-96802000D02*
X86404000Y-96802000D01*
X84284000Y-92682000D02*
X84284000Y-96802000D01*
X86404000Y-92682000D02*
X84284000Y-92682000D01*
X64749000Y-37759000D02*
X63139000Y-36147000D01*
X64608000Y-37899000D02*
X62998000Y-36288000D01*
X67494000Y-38353000D02*
X62543000Y-38353000D01*
X67494000Y-28703000D02*
X62543000Y-28703000D01*
X62543000Y-28703000D02*
X62543000Y-38353000D01*
X67494000Y-28703000D02*
X67494000Y-38353000D01*
X62719948Y-37043121D02*
G75*
G02X64114000Y-35894000I1154052J20121D01*
G01*
X65028296Y-36982691D02*
G75*
G02X62719000Y-37023000I-1154296J-40309D01*
G01*
X82668000Y-92364000D02*
X82668000Y-93564000D01*
X80908000Y-93564000D02*
X80908000Y-92364000D01*
X80908000Y-97628000D02*
X80908000Y-96428000D01*
X82668000Y-96428000D02*
X82668000Y-97628000D01*
D14*
X92924000Y-92677432D02*
X92924000Y-96577432D01*
X87924000Y-96577432D02*
X87924000Y-95262432D01*
X87924000Y-93992432D02*
X87924000Y-92677432D01*
X92924000Y-95827432D02*
X87924000Y-95827432D01*
X89027000Y-92677432D02*
X89281000Y-92677432D01*
X90297000Y-92677432D02*
X90551000Y-92677432D01*
X91567000Y-92677432D02*
X91821000Y-92677432D01*
X89027000Y-96577432D02*
X89281000Y-96577432D01*
X90297000Y-96577432D02*
X90551000Y-96577432D01*
X91567000Y-96577432D02*
X91821000Y-96577432D01*
X87924000Y-95262432D02*
G75*
G03X87924000Y-93992432I0J635000D01*
G01*
D13*
X100330000Y-83820000D02*
X97790000Y-82550000D01*
X99060000Y-80010000D02*
X99060000Y-78740000D01*
X99060000Y-78740000D02*
X100330000Y-78740000D01*
X100330000Y-86360000D02*
X99060000Y-86360000D01*
X99060000Y-86360000D02*
X99060000Y-85090000D01*
X99060000Y-85090000D02*
X97790000Y-85090000D01*
X97790000Y-85090000D02*
X97790000Y-80010000D01*
X97790000Y-80010000D02*
X100330000Y-80010000D01*
X100330000Y-80010000D02*
X100330000Y-85090000D01*
X100330000Y-85090000D02*
X99060000Y-85090000D01*
X105410000Y-88900000D02*
X74930000Y-88900000D01*
X74930000Y-88900000D02*
X74930000Y-76200000D01*
X74930000Y-76200000D02*
X105410000Y-76200000D01*
X105410000Y-76200000D02*
X105410000Y-88900000D01*
X105410000Y-60960000D02*
X105410000Y-73660000D01*
X74930000Y-60960000D02*
X105410000Y-60960000D01*
X74930000Y-73660000D02*
X74930000Y-60960000D01*
X105410000Y-73660000D02*
X74930000Y-73660000D01*
X100330000Y-69850000D02*
X99060000Y-69850000D01*
X100330000Y-64770000D02*
X100330000Y-69850000D01*
X97790000Y-64770000D02*
X100330000Y-64770000D01*
X97790000Y-69850000D02*
X97790000Y-64770000D01*
X99060000Y-69850000D02*
X97790000Y-69850000D01*
X99060000Y-71120000D02*
X99060000Y-69850000D01*
X100330000Y-71120000D02*
X99060000Y-71120000D01*
X99060000Y-63500000D02*
X100330000Y-63500000D01*
X99060000Y-64770000D02*
X99060000Y-63500000D01*
X100330000Y-68580000D02*
X97790000Y-67310000D01*
D15*
X73170000Y-29270000D02*
X73170000Y-49470000D01*
X107170000Y-29270000D02*
X73170000Y-29270000D01*
X107170000Y-29470000D02*
X107170000Y-29270000D01*
X107170000Y-49470000D02*
X107170000Y-29470000D01*
X73170000Y-49470000D02*
X107170000Y-49470000D01*
D13*
X59690000Y-90932000D02*
X59690000Y-80772000D01*
X52070000Y-90932000D02*
X59690000Y-90932000D01*
X52070000Y-80772000D02*
X52070000Y-90932000D01*
X59690000Y-80772000D02*
X52070000Y-80772000D01*
X58420000Y-80772000D02*
X58420000Y-90932000D01*
X128718000Y-96834000D02*
X128718000Y-95504000D01*
X130048000Y-96834000D02*
X128718000Y-96834000D01*
X131318000Y-96834000D02*
X131318000Y-94174000D01*
X131318000Y-94174000D02*
X141538000Y-94174000D01*
X131318000Y-96834000D02*
X141538000Y-96834000D01*
X141538000Y-96834000D02*
X141538000Y-94174000D01*
X115263564Y-89371170D02*
G75*
G03X118955996Y-89372000I1846436J979170D01*
G01*
X115263564Y-87412830D02*
G75*
G02X118955996Y-87412000I1846436J-979170D01*
G01*
X115263564Y-87412830D02*
G75*
G03X115264004Y-89372000I1846436J-979170D01*
G01*
X117110000Y-90442000D02*
X117110000Y-86342000D01*
X117070000Y-90442000D02*
X117070000Y-86342000D01*
X117030000Y-90441000D02*
X117030000Y-86343000D01*
X116990000Y-90439000D02*
X116990000Y-86345000D01*
X116950000Y-90436000D02*
X116950000Y-86348000D01*
X116910000Y-90433000D02*
X116910000Y-86351000D01*
X116870000Y-90429000D02*
X116870000Y-89172000D01*
X116870000Y-87612000D02*
X116870000Y-86355000D01*
X116830000Y-90424000D02*
X116830000Y-89172000D01*
X116830000Y-87612000D02*
X116830000Y-86360000D01*
X116790000Y-90418000D02*
X116790000Y-89172000D01*
X116790000Y-87612000D02*
X116790000Y-86366000D01*
X116750000Y-90411000D02*
X116750000Y-89172000D01*
X116750000Y-87612000D02*
X116750000Y-86373000D01*
X116710000Y-90404000D02*
X116710000Y-89172000D01*
X116710000Y-87612000D02*
X116710000Y-86380000D01*
X116670000Y-90396000D02*
X116670000Y-89172000D01*
X116670000Y-87612000D02*
X116670000Y-86388000D01*
X116630000Y-90387000D02*
X116630000Y-89172000D01*
X116630000Y-87612000D02*
X116630000Y-86397000D01*
X116590000Y-90377000D02*
X116590000Y-89172000D01*
X116590000Y-87612000D02*
X116590000Y-86407000D01*
X116550000Y-90366000D02*
X116550000Y-89172000D01*
X116550000Y-87612000D02*
X116550000Y-86418000D01*
X116510000Y-90355000D02*
X116510000Y-89172000D01*
X116510000Y-87612000D02*
X116510000Y-86429000D01*
X116470000Y-90342000D02*
X116470000Y-89172000D01*
X116470000Y-87612000D02*
X116470000Y-86442000D01*
X116430000Y-90329000D02*
X116430000Y-89172000D01*
X116430000Y-87612000D02*
X116430000Y-86455000D01*
X116389000Y-90315000D02*
X116389000Y-89172000D01*
X116389000Y-87612000D02*
X116389000Y-86469000D01*
X116349000Y-90299000D02*
X116349000Y-89172000D01*
X116349000Y-87612000D02*
X116349000Y-86485000D01*
X116309000Y-90283000D02*
X116309000Y-89172000D01*
X116309000Y-87612000D02*
X116309000Y-86501000D01*
X116269000Y-90266000D02*
X116269000Y-89172000D01*
X116269000Y-87612000D02*
X116269000Y-86518000D01*
X116229000Y-90248000D02*
X116229000Y-89172000D01*
X116229000Y-87612000D02*
X116229000Y-86536000D01*
X116189000Y-90229000D02*
X116189000Y-89172000D01*
X116189000Y-87612000D02*
X116189000Y-86555000D01*
X116149000Y-90209000D02*
X116149000Y-89172000D01*
X116149000Y-87612000D02*
X116149000Y-86575000D01*
X116109000Y-90188000D02*
X116109000Y-89172000D01*
X116109000Y-87612000D02*
X116109000Y-86596000D01*
X116069000Y-90165000D02*
X116069000Y-89172000D01*
X116069000Y-87612000D02*
X116069000Y-86619000D01*
X116029000Y-90142000D02*
X116029000Y-89172000D01*
X116029000Y-87612000D02*
X116029000Y-86642000D01*
X115989000Y-90117000D02*
X115989000Y-89172000D01*
X115989000Y-87612000D02*
X115989000Y-86667000D01*
X115949000Y-90091000D02*
X115949000Y-89172000D01*
X115949000Y-87612000D02*
X115949000Y-86693000D01*
X115909000Y-90064000D02*
X115909000Y-89172000D01*
X115909000Y-87612000D02*
X115909000Y-86720000D01*
X115869000Y-90035000D02*
X115869000Y-89172000D01*
X115869000Y-87612000D02*
X115869000Y-86749000D01*
X115829000Y-90005000D02*
X115829000Y-89172000D01*
X115829000Y-87612000D02*
X115829000Y-86779000D01*
X115789000Y-89973000D02*
X115789000Y-89172000D01*
X115789000Y-87612000D02*
X115789000Y-86811000D01*
X115749000Y-89939000D02*
X115749000Y-89172000D01*
X115749000Y-87612000D02*
X115749000Y-86845000D01*
X115709000Y-89904000D02*
X115709000Y-89172000D01*
X115709000Y-87612000D02*
X115709000Y-86880000D01*
X115669000Y-89867000D02*
X115669000Y-89172000D01*
X115669000Y-87612000D02*
X115669000Y-86917000D01*
X115629000Y-89828000D02*
X115629000Y-89172000D01*
X115629000Y-87612000D02*
X115629000Y-86956000D01*
X115589000Y-89787000D02*
X115589000Y-89172000D01*
X115589000Y-87612000D02*
X115589000Y-86997000D01*
X115549000Y-89743000D02*
X115549000Y-89172000D01*
X115549000Y-87612000D02*
X115549000Y-87041000D01*
X115509000Y-89697000D02*
X115509000Y-89172000D01*
X115509000Y-87612000D02*
X115509000Y-87087000D01*
X115469000Y-89648000D02*
X115469000Y-89172000D01*
X115469000Y-87612000D02*
X115469000Y-87136000D01*
X115429000Y-89596000D02*
X115429000Y-89172000D01*
X115429000Y-87612000D02*
X115429000Y-87188000D01*
X115389000Y-89540000D02*
X115389000Y-89172000D01*
X115389000Y-87612000D02*
X115389000Y-87244000D01*
X115349000Y-89480000D02*
X115349000Y-89172000D01*
X115349000Y-87612000D02*
X115349000Y-87304000D01*
X115309000Y-89415000D02*
X115309000Y-87369000D01*
X115269000Y-89344000D02*
X115269000Y-87440000D01*
X115229000Y-89266000D02*
X115229000Y-87518000D01*
X115189000Y-89178000D02*
X115189000Y-87606000D01*
X115149000Y-89078000D02*
X115149000Y-87706000D01*
X115109000Y-88959000D02*
X115109000Y-87825000D01*
X115069000Y-88807000D02*
X115069000Y-87977000D01*
X115029000Y-88557000D02*
X115029000Y-88227000D01*
X119810000Y-88392000D02*
X118910000Y-88392000D01*
X119360000Y-88842000D02*
X119360000Y-87942000D01*
X119360000Y-80714000D02*
X119360000Y-79814000D01*
X119810000Y-80264000D02*
X118910000Y-80264000D01*
X115029000Y-80429000D02*
X115029000Y-80099000D01*
X115069000Y-80679000D02*
X115069000Y-79849000D01*
X115109000Y-80831000D02*
X115109000Y-79697000D01*
X115149000Y-80950000D02*
X115149000Y-79578000D01*
X115189000Y-81050000D02*
X115189000Y-79478000D01*
X115229000Y-81138000D02*
X115229000Y-79390000D01*
X115269000Y-81216000D02*
X115269000Y-79312000D01*
X115309000Y-81287000D02*
X115309000Y-79241000D01*
X115349000Y-79484000D02*
X115349000Y-79176000D01*
X115349000Y-81352000D02*
X115349000Y-81044000D01*
X115389000Y-79484000D02*
X115389000Y-79116000D01*
X115389000Y-81412000D02*
X115389000Y-81044000D01*
X115429000Y-79484000D02*
X115429000Y-79060000D01*
X115429000Y-81468000D02*
X115429000Y-81044000D01*
X115469000Y-79484000D02*
X115469000Y-79008000D01*
X115469000Y-81520000D02*
X115469000Y-81044000D01*
X115509000Y-79484000D02*
X115509000Y-78959000D01*
X115509000Y-81569000D02*
X115509000Y-81044000D01*
X115549000Y-79484000D02*
X115549000Y-78913000D01*
X115549000Y-81615000D02*
X115549000Y-81044000D01*
X115589000Y-79484000D02*
X115589000Y-78869000D01*
X115589000Y-81659000D02*
X115589000Y-81044000D01*
X115629000Y-79484000D02*
X115629000Y-78828000D01*
X115629000Y-81700000D02*
X115629000Y-81044000D01*
X115669000Y-79484000D02*
X115669000Y-78789000D01*
X115669000Y-81739000D02*
X115669000Y-81044000D01*
X115709000Y-79484000D02*
X115709000Y-78752000D01*
X115709000Y-81776000D02*
X115709000Y-81044000D01*
X115749000Y-79484000D02*
X115749000Y-78717000D01*
X115749000Y-81811000D02*
X115749000Y-81044000D01*
X115789000Y-79484000D02*
X115789000Y-78683000D01*
X115789000Y-81845000D02*
X115789000Y-81044000D01*
X115829000Y-79484000D02*
X115829000Y-78651000D01*
X115829000Y-81877000D02*
X115829000Y-81044000D01*
X115869000Y-79484000D02*
X115869000Y-78621000D01*
X115869000Y-81907000D02*
X115869000Y-81044000D01*
X115909000Y-79484000D02*
X115909000Y-78592000D01*
X115909000Y-81936000D02*
X115909000Y-81044000D01*
X115949000Y-79484000D02*
X115949000Y-78565000D01*
X115949000Y-81963000D02*
X115949000Y-81044000D01*
X115989000Y-79484000D02*
X115989000Y-78539000D01*
X115989000Y-81989000D02*
X115989000Y-81044000D01*
X116029000Y-79484000D02*
X116029000Y-78514000D01*
X116029000Y-82014000D02*
X116029000Y-81044000D01*
X116069000Y-79484000D02*
X116069000Y-78491000D01*
X116069000Y-82037000D02*
X116069000Y-81044000D01*
X116109000Y-79484000D02*
X116109000Y-78468000D01*
X116109000Y-82060000D02*
X116109000Y-81044000D01*
X116149000Y-79484000D02*
X116149000Y-78447000D01*
X116149000Y-82081000D02*
X116149000Y-81044000D01*
X116189000Y-79484000D02*
X116189000Y-78427000D01*
X116189000Y-82101000D02*
X116189000Y-81044000D01*
X116229000Y-79484000D02*
X116229000Y-78408000D01*
X116229000Y-82120000D02*
X116229000Y-81044000D01*
X116269000Y-79484000D02*
X116269000Y-78390000D01*
X116269000Y-82138000D02*
X116269000Y-81044000D01*
X116309000Y-79484000D02*
X116309000Y-78373000D01*
X116309000Y-82155000D02*
X116309000Y-81044000D01*
X116349000Y-79484000D02*
X116349000Y-78357000D01*
X116349000Y-82171000D02*
X116349000Y-81044000D01*
X116389000Y-79484000D02*
X116389000Y-78341000D01*
X116389000Y-82187000D02*
X116389000Y-81044000D01*
X116430000Y-79484000D02*
X116430000Y-78327000D01*
X116430000Y-82201000D02*
X116430000Y-81044000D01*
X116470000Y-79484000D02*
X116470000Y-78314000D01*
X116470000Y-82214000D02*
X116470000Y-81044000D01*
X116510000Y-79484000D02*
X116510000Y-78301000D01*
X116510000Y-82227000D02*
X116510000Y-81044000D01*
X116550000Y-79484000D02*
X116550000Y-78290000D01*
X116550000Y-82238000D02*
X116550000Y-81044000D01*
X116590000Y-79484000D02*
X116590000Y-78279000D01*
X116590000Y-82249000D02*
X116590000Y-81044000D01*
X116630000Y-79484000D02*
X116630000Y-78269000D01*
X116630000Y-82259000D02*
X116630000Y-81044000D01*
X116670000Y-79484000D02*
X116670000Y-78260000D01*
X116670000Y-82268000D02*
X116670000Y-81044000D01*
X116710000Y-79484000D02*
X116710000Y-78252000D01*
X116710000Y-82276000D02*
X116710000Y-81044000D01*
X116750000Y-79484000D02*
X116750000Y-78245000D01*
X116750000Y-82283000D02*
X116750000Y-81044000D01*
X116790000Y-79484000D02*
X116790000Y-78238000D01*
X116790000Y-82290000D02*
X116790000Y-81044000D01*
X116830000Y-79484000D02*
X116830000Y-78232000D01*
X116830000Y-82296000D02*
X116830000Y-81044000D01*
X116870000Y-79484000D02*
X116870000Y-78227000D01*
X116870000Y-82301000D02*
X116870000Y-81044000D01*
X116910000Y-82305000D02*
X116910000Y-78223000D01*
X116950000Y-82308000D02*
X116950000Y-78220000D01*
X116990000Y-82311000D02*
X116990000Y-78217000D01*
X117030000Y-82313000D02*
X117030000Y-78215000D01*
X117070000Y-82314000D02*
X117070000Y-78214000D01*
X117110000Y-82314000D02*
X117110000Y-78214000D01*
X115263564Y-79284830D02*
G75*
G03X115264004Y-81244000I1846436J-979170D01*
G01*
X115263564Y-79284830D02*
G75*
G02X118955996Y-79284000I1846436J-979170D01*
G01*
X115263564Y-81243170D02*
G75*
G03X118955996Y-81244000I1846436J979170D01*
G01*
X128716000Y-93156000D02*
X125916000Y-93156000D01*
X128716000Y-91756000D02*
X125916000Y-91756000D01*
X128716000Y-93156000D02*
X128716000Y-91756000D01*
X141740000Y-71462000D02*
X142740000Y-71462000D01*
X142740000Y-69762000D02*
X141740000Y-69762000D01*
X146312000Y-67906000D02*
X147312000Y-67906000D01*
X147312000Y-66206000D02*
X146312000Y-66206000D01*
X146312000Y-71462000D02*
X147312000Y-71462000D01*
X147312000Y-69762000D02*
X146312000Y-69762000D01*
X106046000Y-85950000D02*
X109346000Y-85950000D01*
X109346000Y-85950000D02*
X109346000Y-80550000D01*
X106046000Y-85950000D02*
X106046000Y-80550000D01*
X106046000Y-70424000D02*
X106046000Y-65024000D01*
X109346000Y-70424000D02*
X109346000Y-65024000D01*
X106046000Y-70424000D02*
X109346000Y-70424000D01*
D16*
X124726633Y-77167818D02*
X149364633Y-77167818D01*
X149364633Y-77167818D02*
X149364633Y-91391818D01*
X149364633Y-91391818D02*
X124726633Y-91391818D01*
X124726633Y-91391818D02*
X124726633Y-77167818D01*
D17*
X127774633Y-79199818D02*
X125234633Y-79199818D01*
X125234633Y-79199818D02*
X125234633Y-81739818D01*
X125234633Y-81739818D02*
X125234633Y-89359818D01*
X125234633Y-89359818D02*
X130314633Y-89359818D01*
X130314633Y-89359818D02*
X130314633Y-79199818D01*
X130314633Y-79199818D02*
X127774633Y-79199818D01*
D13*
X62310000Y-86090000D02*
X65410000Y-86090000D01*
X62310000Y-62090000D02*
X62310000Y-86090000D01*
X72310000Y-62090000D02*
X69210000Y-62090000D01*
X72310000Y-86090000D02*
X72310000Y-62090000D01*
X69210000Y-86090000D02*
X72310000Y-86090000D01*
X65410000Y-62090000D02*
X62310000Y-62090000D01*
X64810000Y-84090000D02*
X65410000Y-84090000D01*
X64810000Y-64090000D02*
X64810000Y-84090000D01*
X69810000Y-64090000D02*
X69210000Y-64090000D01*
X69810000Y-84090000D02*
X69810000Y-64090000D01*
X69210000Y-84090000D02*
X69810000Y-84090000D01*
X65410000Y-64090000D02*
X64810000Y-64090000D01*
X64810000Y-69590000D02*
X69810000Y-69590000D01*
X64810000Y-78590000D02*
X69810000Y-78590000D01*
X67310000Y-78590000D02*
X67310000Y-69590000D01*
X62310000Y-68090000D02*
X64810000Y-68090000D01*
X72310000Y-68090000D02*
X69810000Y-68090000D01*
X72310000Y-80090000D02*
X69810000Y-80090000D01*
X64810000Y-80090000D02*
X62310000Y-80090000D01*
X112462000Y-94174000D02*
X112462000Y-96834000D01*
X122682000Y-94174000D02*
X112462000Y-94174000D01*
X122682000Y-96834000D02*
X112462000Y-96834000D01*
X122682000Y-94174000D02*
X122682000Y-96834000D01*
X123952000Y-94174000D02*
X125282000Y-94174000D01*
X125282000Y-94174000D02*
X125282000Y-95504000D01*
X109026000Y-94174000D02*
X109026000Y-95504000D01*
X107696000Y-94174000D02*
X109026000Y-94174000D01*
X106426000Y-94174000D02*
X106426000Y-96834000D01*
X106426000Y-96834000D02*
X96206000Y-96834000D01*
X106426000Y-94174000D02*
X96206000Y-94174000D01*
X96206000Y-94174000D02*
X96206000Y-96834000D01*
X121040000Y-55210000D02*
X121040000Y-54010000D01*
X122800000Y-54010000D02*
X122800000Y-55210000D01*
X142376000Y-85436000D02*
X142376000Y-84236000D01*
X144136000Y-84236000D02*
X144136000Y-85436000D01*
X139564000Y-88808000D02*
X139564000Y-90008000D01*
X137804000Y-90008000D02*
X137804000Y-88808000D01*
X144136000Y-79156000D02*
X144136000Y-80356000D01*
X142376000Y-80356000D02*
X142376000Y-79156000D01*
X123860000Y-62112000D02*
X125060000Y-62112000D01*
X125060000Y-63872000D02*
X123860000Y-63872000D01*
X108340000Y-55210000D02*
X108340000Y-54010000D01*
X110100000Y-54010000D02*
X110100000Y-55210000D01*
X142376000Y-90008000D02*
X142376000Y-88808000D01*
X144136000Y-88808000D02*
X144136000Y-90008000D01*
X132724000Y-90008000D02*
X132724000Y-88808000D01*
X134484000Y-88808000D02*
X134484000Y-90008000D01*
X123860000Y-65160000D02*
X125060000Y-65160000D01*
X125060000Y-66920000D02*
X123860000Y-66920000D01*
X113990000Y-55370000D02*
X113990000Y-53910000D01*
X117150000Y-55370000D02*
X117150000Y-53210000D01*
X117150000Y-55370000D02*
X116220000Y-55370000D01*
X113990000Y-55370000D02*
X114920000Y-55370000D01*
X101290000Y-55370000D02*
X102220000Y-55370000D01*
X104450000Y-55370000D02*
X103520000Y-55370000D01*
X104450000Y-55370000D02*
X104450000Y-53210000D01*
X101290000Y-55370000D02*
X101290000Y-53910000D01*
X59690000Y-62230000D02*
X59690000Y-46990000D01*
X52070000Y-62230000D02*
X52070000Y-46990000D01*
X58420000Y-62230000D02*
X58420000Y-46990000D01*
X59690000Y-46990000D02*
X52070000Y-46990000D01*
X59690000Y-62230000D02*
X52070000Y-62230000D01*
X59690000Y-79248000D02*
X52070000Y-79248000D01*
X59690000Y-64008000D02*
X52070000Y-64008000D01*
X58420000Y-79248000D02*
X58420000Y-64008000D01*
X52070000Y-79248000D02*
X52070000Y-64008000D01*
X59690000Y-79248000D02*
X59690000Y-64008000D01*
X75692000Y-91186000D02*
X60452000Y-91186000D01*
X75692000Y-98806000D02*
X60452000Y-98806000D01*
X75692000Y-92456000D02*
X60452000Y-92456000D01*
X60452000Y-91186000D02*
X60452000Y-98806000D01*
X75692000Y-91186000D02*
X75692000Y-98806000D01*
D15*
X62420000Y-52340000D02*
X62420000Y-59340000D01*
X65820000Y-52340000D02*
X65820000Y-59340000D01*
X65820000Y-59340000D02*
X62420000Y-59340000D01*
X65820000Y-52340000D02*
X62420000Y-52340000D01*
X65820000Y-43450000D02*
X62420000Y-43450000D01*
X65820000Y-50450000D02*
X62420000Y-50450000D01*
X65820000Y-43450000D02*
X65820000Y-50450000D01*
X62420000Y-43450000D02*
X62420000Y-50450000D01*
X107973904Y-60470380D02*
X107973904Y-59470380D01*
X108212000Y-59470380D01*
X108354857Y-59518000D01*
X108450095Y-59613238D01*
X108497714Y-59708476D01*
X108545333Y-59898952D01*
X108545333Y-60041809D01*
X108497714Y-60232285D01*
X108450095Y-60327523D01*
X108354857Y-60422761D01*
X108212000Y-60470380D01*
X107973904Y-60470380D01*
X109450095Y-59470380D02*
X108973904Y-59470380D01*
X108926285Y-59946571D01*
X108973904Y-59898952D01*
X109069142Y-59851333D01*
X109307238Y-59851333D01*
X109402476Y-59898952D01*
X109450095Y-59946571D01*
X109497714Y-60041809D01*
X109497714Y-60279904D01*
X109450095Y-60375142D01*
X109402476Y-60422761D01*
X109307238Y-60470380D01*
X109069142Y-60470380D01*
X108973904Y-60422761D01*
X108926285Y-60375142D01*
X105529142Y-60396380D02*
X105052952Y-60396380D01*
X105052952Y-59396380D01*
X105862476Y-59872571D02*
X106195809Y-59872571D01*
X106338666Y-60396380D02*
X105862476Y-60396380D01*
X105862476Y-59396380D01*
X106338666Y-59396380D01*
X106767238Y-60396380D02*
X106767238Y-59396380D01*
X107005333Y-59396380D01*
X107148190Y-59444000D01*
X107243428Y-59539238D01*
X107291047Y-59634476D01*
X107338666Y-59824952D01*
X107338666Y-59967809D01*
X107291047Y-60158285D01*
X107243428Y-60253523D01*
X107148190Y-60348761D01*
X107005333Y-60396380D01*
X106767238Y-60396380D01*
X107973904Y-75710380D02*
X107973904Y-74710380D01*
X108212000Y-74710380D01*
X108354857Y-74758000D01*
X108450095Y-74853238D01*
X108497714Y-74948476D01*
X108545333Y-75138952D01*
X108545333Y-75281809D01*
X108497714Y-75472285D01*
X108450095Y-75567523D01*
X108354857Y-75662761D01*
X108212000Y-75710380D01*
X107973904Y-75710380D01*
X109402476Y-74710380D02*
X109212000Y-74710380D01*
X109116761Y-74758000D01*
X109069142Y-74805619D01*
X108973904Y-74948476D01*
X108926285Y-75138952D01*
X108926285Y-75519904D01*
X108973904Y-75615142D01*
X109021523Y-75662761D01*
X109116761Y-75710380D01*
X109307238Y-75710380D01*
X109402476Y-75662761D01*
X109450095Y-75615142D01*
X109497714Y-75519904D01*
X109497714Y-75281809D01*
X109450095Y-75186571D01*
X109402476Y-75138952D01*
X109307238Y-75091333D01*
X109116761Y-75091333D01*
X109021523Y-75138952D01*
X108973904Y-75186571D01*
X108926285Y-75281809D01*
X105529142Y-75636380D02*
X105052952Y-75636380D01*
X105052952Y-74636380D01*
X105862476Y-75112571D02*
X106195809Y-75112571D01*
X106338666Y-75636380D02*
X105862476Y-75636380D01*
X105862476Y-74636380D01*
X106338666Y-74636380D01*
X106767238Y-75636380D02*
X106767238Y-74636380D01*
X107005333Y-74636380D01*
X107148190Y-74684000D01*
X107243428Y-74779238D01*
X107291047Y-74874476D01*
X107338666Y-75064952D01*
X107338666Y-75207809D01*
X107291047Y-75398285D01*
X107243428Y-75493523D01*
X107148190Y-75588761D01*
X107005333Y-75636380D01*
X106767238Y-75636380D01*
X114370380Y-77858857D02*
X113894190Y-78192190D01*
X114370380Y-78430285D02*
X113370380Y-78430285D01*
X113370380Y-78049333D01*
X113418000Y-77954095D01*
X113465619Y-77906476D01*
X113560857Y-77858857D01*
X113703714Y-77858857D01*
X113798952Y-77906476D01*
X113846571Y-77954095D01*
X113894190Y-78049333D01*
X113894190Y-78430285D01*
X114370380Y-76906476D02*
X114370380Y-77477904D01*
X114370380Y-77192190D02*
X113370380Y-77192190D01*
X113513238Y-77287428D01*
X113608476Y-77382666D01*
X113656095Y-77477904D01*
X113370380Y-76573142D02*
X113370380Y-75954095D01*
X113751333Y-76287428D01*
X113751333Y-76144571D01*
X113798952Y-76049333D01*
X113846571Y-76001714D01*
X113941809Y-75954095D01*
X114179904Y-75954095D01*
X114275142Y-76001714D01*
X114322761Y-76049333D01*
X114370380Y-76144571D01*
X114370380Y-76430285D01*
X114322761Y-76525523D01*
X114275142Y-76573142D01*
X111728380Y-79636952D02*
X111633142Y-79589333D01*
X111585523Y-79541714D01*
X111537904Y-79446476D01*
X111537904Y-79398857D01*
X111585523Y-79303619D01*
X111633142Y-79256000D01*
X111728380Y-79208380D01*
X111918857Y-79208380D01*
X112014095Y-79256000D01*
X112061714Y-79303619D01*
X112109333Y-79398857D01*
X112109333Y-79446476D01*
X112061714Y-79541714D01*
X112014095Y-79589333D01*
X111918857Y-79636952D01*
X111728380Y-79636952D01*
X111633142Y-79684571D01*
X111585523Y-79732190D01*
X111537904Y-79827428D01*
X111537904Y-80017904D01*
X111585523Y-80113142D01*
X111633142Y-80160761D01*
X111728380Y-80208380D01*
X111918857Y-80208380D01*
X112014095Y-80160761D01*
X112061714Y-80113142D01*
X112109333Y-80017904D01*
X112109333Y-79827428D01*
X112061714Y-79732190D01*
X112014095Y-79684571D01*
X111918857Y-79636952D01*
X112490285Y-79303619D02*
X112537904Y-79256000D01*
X112633142Y-79208380D01*
X112871238Y-79208380D01*
X112966476Y-79256000D01*
X113014095Y-79303619D01*
X113061714Y-79398857D01*
X113061714Y-79494095D01*
X113014095Y-79636952D01*
X112442666Y-80208380D01*
X113061714Y-80208380D01*
X113680761Y-79208380D02*
X113776000Y-79208380D01*
X113871238Y-79256000D01*
X113918857Y-79303619D01*
X113966476Y-79398857D01*
X114014095Y-79589333D01*
X114014095Y-79827428D01*
X113966476Y-80017904D01*
X113918857Y-80113142D01*
X113871238Y-80160761D01*
X113776000Y-80208380D01*
X113680761Y-80208380D01*
X113585523Y-80160761D01*
X113537904Y-80113142D01*
X113490285Y-80017904D01*
X113442666Y-79827428D01*
X113442666Y-79589333D01*
X113490285Y-79398857D01*
X113537904Y-79303619D01*
X113585523Y-79256000D01*
X113680761Y-79208380D01*
X114370380Y-62618857D02*
X113894190Y-62952190D01*
X114370380Y-63190285D02*
X113370380Y-63190285D01*
X113370380Y-62809333D01*
X113418000Y-62714095D01*
X113465619Y-62666476D01*
X113560857Y-62618857D01*
X113703714Y-62618857D01*
X113798952Y-62666476D01*
X113846571Y-62714095D01*
X113894190Y-62809333D01*
X113894190Y-63190285D01*
X114370380Y-61666476D02*
X114370380Y-62237904D01*
X114370380Y-61952190D02*
X113370380Y-61952190D01*
X113513238Y-62047428D01*
X113608476Y-62142666D01*
X113656095Y-62237904D01*
X113465619Y-61285523D02*
X113418000Y-61237904D01*
X113370380Y-61142666D01*
X113370380Y-60904571D01*
X113418000Y-60809333D01*
X113465619Y-60761714D01*
X113560857Y-60714095D01*
X113656095Y-60714095D01*
X113798952Y-60761714D01*
X114370380Y-61333142D01*
X114370380Y-60714095D01*
X111728380Y-64396952D02*
X111633142Y-64349333D01*
X111585523Y-64301714D01*
X111537904Y-64206476D01*
X111537904Y-64158857D01*
X111585523Y-64063619D01*
X111633142Y-64016000D01*
X111728380Y-63968380D01*
X111918857Y-63968380D01*
X112014095Y-64016000D01*
X112061714Y-64063619D01*
X112109333Y-64158857D01*
X112109333Y-64206476D01*
X112061714Y-64301714D01*
X112014095Y-64349333D01*
X111918857Y-64396952D01*
X111728380Y-64396952D01*
X111633142Y-64444571D01*
X111585523Y-64492190D01*
X111537904Y-64587428D01*
X111537904Y-64777904D01*
X111585523Y-64873142D01*
X111633142Y-64920761D01*
X111728380Y-64968380D01*
X111918857Y-64968380D01*
X112014095Y-64920761D01*
X112061714Y-64873142D01*
X112109333Y-64777904D01*
X112109333Y-64587428D01*
X112061714Y-64492190D01*
X112014095Y-64444571D01*
X111918857Y-64396952D01*
X112490285Y-64063619D02*
X112537904Y-64016000D01*
X112633142Y-63968380D01*
X112871238Y-63968380D01*
X112966476Y-64016000D01*
X113014095Y-64063619D01*
X113061714Y-64158857D01*
X113061714Y-64254095D01*
X113014095Y-64396952D01*
X112442666Y-64968380D01*
X113061714Y-64968380D01*
X113680761Y-63968380D02*
X113776000Y-63968380D01*
X113871238Y-64016000D01*
X113918857Y-64063619D01*
X113966476Y-64158857D01*
X114014095Y-64349333D01*
X114014095Y-64587428D01*
X113966476Y-64777904D01*
X113918857Y-64873142D01*
X113871238Y-64920761D01*
X113776000Y-64968380D01*
X113680761Y-64968380D01*
X113585523Y-64920761D01*
X113537904Y-64873142D01*
X113490285Y-64777904D01*
X113442666Y-64587428D01*
X113442666Y-64349333D01*
X113490285Y-64158857D01*
X113537904Y-64063619D01*
X113585523Y-64016000D01*
X113680761Y-63968380D01*
X130429142Y-71306571D02*
X130429142Y-72306571D01*
X129786285Y-71306571D02*
X129786285Y-72092285D01*
X129857714Y-72235142D01*
X130000571Y-72306571D01*
X130214857Y-72306571D01*
X130357714Y-72235142D01*
X130429142Y-72163714D01*
X131143428Y-72306571D02*
X131143428Y-70806571D01*
X131714857Y-70806571D01*
X131857714Y-70878000D01*
X131929142Y-70949428D01*
X132000571Y-71092285D01*
X132000571Y-71306571D01*
X131929142Y-71449428D01*
X131857714Y-71520857D01*
X131714857Y-71592285D01*
X131143428Y-71592285D01*
X133429142Y-72306571D02*
X132572000Y-72306571D01*
X133000571Y-72306571D02*
X133000571Y-70806571D01*
X132857714Y-71020857D01*
X132714857Y-71163714D01*
X132572000Y-71235142D01*
X128997428Y-61718000D02*
X129711714Y-61718000D01*
X128854571Y-62146571D02*
X129354571Y-60646571D01*
X129854571Y-62146571D01*
X130354571Y-62146571D02*
X130354571Y-61146571D01*
X130354571Y-61432285D02*
X130426000Y-61289428D01*
X130497428Y-61218000D01*
X130640285Y-61146571D01*
X130783142Y-61146571D01*
X131926000Y-62146571D02*
X131926000Y-60646571D01*
X131926000Y-62075142D02*
X131783142Y-62146571D01*
X131497428Y-62146571D01*
X131354571Y-62075142D01*
X131283142Y-62003714D01*
X131211714Y-61860857D01*
X131211714Y-61432285D01*
X131283142Y-61289428D01*
X131354571Y-61218000D01*
X131497428Y-61146571D01*
X131783142Y-61146571D01*
X131926000Y-61218000D01*
X133283142Y-61146571D02*
X133283142Y-62146571D01*
X132640285Y-61146571D02*
X132640285Y-61932285D01*
X132711714Y-62075142D01*
X132854571Y-62146571D01*
X133068857Y-62146571D01*
X133211714Y-62075142D01*
X133283142Y-62003714D01*
X133997428Y-62146571D02*
X133997428Y-61146571D01*
X133997428Y-60646571D02*
X133926000Y-60718000D01*
X133997428Y-60789428D01*
X134068857Y-60718000D01*
X133997428Y-60646571D01*
X133997428Y-60789428D01*
X134711714Y-61146571D02*
X134711714Y-62146571D01*
X134711714Y-61289428D02*
X134783142Y-61218000D01*
X134926000Y-61146571D01*
X135140285Y-61146571D01*
X135283142Y-61218000D01*
X135354571Y-61360857D01*
X135354571Y-62146571D01*
X136283142Y-62146571D02*
X136140285Y-62075142D01*
X136068857Y-62003714D01*
X135997428Y-61860857D01*
X135997428Y-61432285D01*
X136068857Y-61289428D01*
X136140285Y-61218000D01*
X136283142Y-61146571D01*
X136497428Y-61146571D01*
X136640285Y-61218000D01*
X136711714Y-61289428D01*
X136783142Y-61432285D01*
X136783142Y-61860857D01*
X136711714Y-62003714D01*
X136640285Y-62075142D01*
X136497428Y-62146571D01*
X136283142Y-62146571D01*
X138568857Y-62146571D02*
X138568857Y-60646571D01*
X139140285Y-60646571D01*
X139283142Y-60718000D01*
X139354571Y-60789428D01*
X139426000Y-60932285D01*
X139426000Y-61146571D01*
X139354571Y-61289428D01*
X139283142Y-61360857D01*
X139140285Y-61432285D01*
X138568857Y-61432285D01*
X140068857Y-62146571D02*
X140068857Y-61146571D01*
X140068857Y-61432285D02*
X140140285Y-61289428D01*
X140211714Y-61218000D01*
X140354571Y-61146571D01*
X140497428Y-61146571D01*
X141211714Y-62146571D02*
X141068857Y-62075142D01*
X140997428Y-62003714D01*
X140926000Y-61860857D01*
X140926000Y-61432285D01*
X140997428Y-61289428D01*
X141068857Y-61218000D01*
X141211714Y-61146571D01*
X141426000Y-61146571D01*
X141568857Y-61218000D01*
X141640285Y-61289428D01*
X141711714Y-61432285D01*
X141711714Y-61860857D01*
X141640285Y-62003714D01*
X141568857Y-62075142D01*
X141426000Y-62146571D01*
X141211714Y-62146571D01*
X143497428Y-62146571D02*
X143497428Y-60646571D01*
X143997428Y-61718000D01*
X144497428Y-60646571D01*
X144497428Y-62146571D01*
X145211714Y-62146571D02*
X145211714Y-61146571D01*
X145211714Y-60646571D02*
X145140285Y-60718000D01*
X145211714Y-60789428D01*
X145283142Y-60718000D01*
X145211714Y-60646571D01*
X145211714Y-60789428D01*
X145926000Y-61146571D02*
X145926000Y-62146571D01*
X145926000Y-61289428D02*
X145997428Y-61218000D01*
X146140285Y-61146571D01*
X146354571Y-61146571D01*
X146497428Y-61218000D01*
X146568857Y-61360857D01*
X146568857Y-62146571D01*
X147283142Y-62146571D02*
X147283142Y-61146571D01*
X147283142Y-60646571D02*
X147211714Y-60718000D01*
X147283142Y-60789428D01*
X147354571Y-60718000D01*
X147283142Y-60646571D01*
X147283142Y-60789428D01*
X133729047Y-30828571D02*
X133871904Y-30876190D01*
X133919523Y-30923809D01*
X133967142Y-31019047D01*
X133967142Y-31161904D01*
X133919523Y-31257142D01*
X133871904Y-31304761D01*
X133776666Y-31352380D01*
X133395714Y-31352380D01*
X133395714Y-30352380D01*
X133729047Y-30352380D01*
X133824285Y-30400000D01*
X133871904Y-30447619D01*
X133919523Y-30542857D01*
X133919523Y-30638095D01*
X133871904Y-30733333D01*
X133824285Y-30780952D01*
X133729047Y-30828571D01*
X133395714Y-30828571D01*
X134300476Y-30352380D02*
X134967142Y-30352380D01*
X134300476Y-31352380D01*
X134967142Y-31352380D01*
X135871904Y-31352380D02*
X135300476Y-31352380D01*
X135586190Y-31352380D02*
X135586190Y-30352380D01*
X135490952Y-30495238D01*
X135395714Y-30590476D01*
X135300476Y-30638095D01*
X132681428Y-45428571D02*
X132824285Y-45476190D01*
X132871904Y-45523809D01*
X132919523Y-45619047D01*
X132919523Y-45761904D01*
X132871904Y-45857142D01*
X132824285Y-45904761D01*
X132729047Y-45952380D01*
X132348095Y-45952380D01*
X132348095Y-44952380D01*
X132681428Y-44952380D01*
X132776666Y-45000000D01*
X132824285Y-45047619D01*
X132871904Y-45142857D01*
X132871904Y-45238095D01*
X132824285Y-45333333D01*
X132776666Y-45380952D01*
X132681428Y-45428571D01*
X132348095Y-45428571D01*
X133776666Y-45285714D02*
X133776666Y-45952380D01*
X133348095Y-45285714D02*
X133348095Y-45809523D01*
X133395714Y-45904761D01*
X133490952Y-45952380D01*
X133633809Y-45952380D01*
X133729047Y-45904761D01*
X133776666Y-45857142D01*
X134157619Y-45285714D02*
X134681428Y-45285714D01*
X134157619Y-45952380D01*
X134681428Y-45952380D01*
X134967142Y-45285714D02*
X135490952Y-45285714D01*
X134967142Y-45952380D01*
X135490952Y-45952380D01*
X136252857Y-45904761D02*
X136157619Y-45952380D01*
X135967142Y-45952380D01*
X135871904Y-45904761D01*
X135824285Y-45809523D01*
X135824285Y-45428571D01*
X135871904Y-45333333D01*
X135967142Y-45285714D01*
X136157619Y-45285714D01*
X136252857Y-45333333D01*
X136300476Y-45428571D01*
X136300476Y-45523809D01*
X135824285Y-45619047D01*
X136729047Y-45952380D02*
X136729047Y-45285714D01*
X136729047Y-45476190D02*
X136776666Y-45380952D01*
X136824285Y-45333333D01*
X136919523Y-45285714D01*
X137014761Y-45285714D01*
X130419047Y-35631428D02*
X131180952Y-35631428D01*
X130800000Y-36012380D02*
X130800000Y-35250476D01*
X131096380Y-83057904D02*
X131905904Y-83057904D01*
X132001142Y-83010285D01*
X132048761Y-82962666D01*
X132096380Y-82867428D01*
X132096380Y-82676952D01*
X132048761Y-82581714D01*
X132001142Y-82534095D01*
X131905904Y-82486476D01*
X131096380Y-82486476D01*
X131429714Y-81581714D02*
X132096380Y-81581714D01*
X131048761Y-81819809D02*
X131763047Y-82057904D01*
X131763047Y-81438857D01*
X140374666Y-87486476D02*
X140374666Y-87010285D01*
X140660380Y-87581714D02*
X139660380Y-87248380D01*
X140660380Y-86915047D01*
X140660380Y-86581714D02*
X139660380Y-86581714D01*
X140374666Y-86248380D01*
X139660380Y-85915047D01*
X140660380Y-85915047D01*
X140612761Y-85486476D02*
X140660380Y-85343619D01*
X140660380Y-85105523D01*
X140612761Y-85010285D01*
X140565142Y-84962666D01*
X140469904Y-84915047D01*
X140374666Y-84915047D01*
X140279428Y-84962666D01*
X140231809Y-85010285D01*
X140184190Y-85105523D01*
X140136571Y-85296000D01*
X140088952Y-85391238D01*
X140041333Y-85438857D01*
X139946095Y-85486476D01*
X139850857Y-85486476D01*
X139755619Y-85438857D01*
X139708000Y-85391238D01*
X139660380Y-85296000D01*
X139660380Y-85057904D01*
X139708000Y-84915047D01*
X140660380Y-83962666D02*
X140660380Y-84534095D01*
X140660380Y-84248380D02*
X139660380Y-84248380D01*
X139803238Y-84343619D01*
X139898476Y-84438857D01*
X139946095Y-84534095D01*
X140660380Y-83010285D02*
X140660380Y-83581714D01*
X140660380Y-83296000D02*
X139660380Y-83296000D01*
X139803238Y-83391238D01*
X139898476Y-83486476D01*
X139946095Y-83581714D01*
X140660380Y-82057904D02*
X140660380Y-82629333D01*
X140660380Y-82343619D02*
X139660380Y-82343619D01*
X139803238Y-82438857D01*
X139898476Y-82534095D01*
X139946095Y-82629333D01*
X139660380Y-81724571D02*
X139660380Y-81057904D01*
X140660380Y-81486476D01*
X140279428Y-80676952D02*
X140279428Y-79915047D01*
X139660380Y-79534095D02*
X139660380Y-78915047D01*
X140041333Y-79248380D01*
X140041333Y-79105523D01*
X140088952Y-79010285D01*
X140136571Y-78962666D01*
X140231809Y-78915047D01*
X140469904Y-78915047D01*
X140565142Y-78962666D01*
X140612761Y-79010285D01*
X140660380Y-79105523D01*
X140660380Y-79391238D01*
X140612761Y-79486476D01*
X140565142Y-79534095D01*
X139660380Y-78629333D02*
X140660380Y-78296000D01*
X139660380Y-77962666D01*
X139660380Y-77724571D02*
X139660380Y-77105523D01*
X140041333Y-77438857D01*
X140041333Y-77296000D01*
X140088952Y-77200761D01*
X140136571Y-77153142D01*
X140231809Y-77105523D01*
X140469904Y-77105523D01*
X140565142Y-77153142D01*
X140612761Y-77200761D01*
X140660380Y-77296000D01*
X140660380Y-77581714D01*
X140612761Y-77676952D01*
X140565142Y-77724571D01*
X73914095Y-27900380D02*
X73914095Y-28709904D01*
X73961714Y-28805142D01*
X74009333Y-28852761D01*
X74104571Y-28900380D01*
X74295047Y-28900380D01*
X74390285Y-28852761D01*
X74437904Y-28805142D01*
X74485523Y-28709904D01*
X74485523Y-27900380D01*
X74914095Y-27995619D02*
X74961714Y-27948000D01*
X75056952Y-27900380D01*
X75295047Y-27900380D01*
X75390285Y-27948000D01*
X75437904Y-27995619D01*
X75485523Y-28090857D01*
X75485523Y-28186095D01*
X75437904Y-28328952D01*
X74866476Y-28900380D01*
X75485523Y-28900380D01*
X69691714Y-58480380D02*
X69215523Y-58480380D01*
X69215523Y-57480380D01*
X70596476Y-58385142D02*
X70548857Y-58432761D01*
X70406000Y-58480380D01*
X70310761Y-58480380D01*
X70167904Y-58432761D01*
X70072666Y-58337523D01*
X70025047Y-58242285D01*
X69977428Y-58051809D01*
X69977428Y-57908952D01*
X70025047Y-57718476D01*
X70072666Y-57623238D01*
X70167904Y-57528000D01*
X70310761Y-57480380D01*
X70406000Y-57480380D01*
X70548857Y-57528000D01*
X70596476Y-57575619D01*
X71025047Y-58480380D02*
X71025047Y-57480380D01*
X71263142Y-57480380D01*
X71406000Y-57528000D01*
X71501238Y-57623238D01*
X71548857Y-57718476D01*
X71596476Y-57908952D01*
X71596476Y-58051809D01*
X71548857Y-58242285D01*
X71501238Y-58337523D01*
X71406000Y-58432761D01*
X71263142Y-58480380D01*
X71025047Y-58480380D01*
X72025047Y-58099428D02*
X72786952Y-58099428D01*
X73786952Y-58480380D02*
X73215523Y-58480380D01*
X73501238Y-58480380D02*
X73501238Y-57480380D01*
X73406000Y-57623238D01*
X73310761Y-57718476D01*
X73215523Y-57766095D01*
X74644095Y-57480380D02*
X74453619Y-57480380D01*
X74358380Y-57528000D01*
X74310761Y-57575619D01*
X74215523Y-57718476D01*
X74167904Y-57908952D01*
X74167904Y-58289904D01*
X74215523Y-58385142D01*
X74263142Y-58432761D01*
X74358380Y-58480380D01*
X74548857Y-58480380D01*
X74644095Y-58432761D01*
X74691714Y-58385142D01*
X74739333Y-58289904D01*
X74739333Y-58051809D01*
X74691714Y-57956571D01*
X74644095Y-57908952D01*
X74548857Y-57861333D01*
X74358380Y-57861333D01*
X74263142Y-57908952D01*
X74215523Y-57956571D01*
X74167904Y-58051809D01*
X75358380Y-57480380D02*
X75453619Y-57480380D01*
X75548857Y-57528000D01*
X75596476Y-57575619D01*
X75644095Y-57670857D01*
X75691714Y-57861333D01*
X75691714Y-58099428D01*
X75644095Y-58289904D01*
X75596476Y-58385142D01*
X75548857Y-58432761D01*
X75453619Y-58480380D01*
X75358380Y-58480380D01*
X75263142Y-58432761D01*
X75215523Y-58385142D01*
X75167904Y-58289904D01*
X75120285Y-58099428D01*
X75120285Y-57861333D01*
X75167904Y-57670857D01*
X75215523Y-57575619D01*
X75263142Y-57528000D01*
X75358380Y-57480380D01*
X76072666Y-57575619D02*
X76120285Y-57528000D01*
X76215523Y-57480380D01*
X76453619Y-57480380D01*
X76548857Y-57528000D01*
X76596476Y-57575619D01*
X76644095Y-57670857D01*
X76644095Y-57766095D01*
X76596476Y-57908952D01*
X76025047Y-58480380D01*
X76644095Y-58480380D01*
X83764380Y-91162095D02*
X82764380Y-91162095D01*
X82764380Y-90924000D01*
X82812000Y-90781142D01*
X82907238Y-90685904D01*
X83002476Y-90638285D01*
X83192952Y-90590666D01*
X83335809Y-90590666D01*
X83526285Y-90638285D01*
X83621523Y-90685904D01*
X83716761Y-90781142D01*
X83764380Y-90924000D01*
X83764380Y-91162095D01*
X83097714Y-89733523D02*
X83764380Y-89733523D01*
X82716761Y-89971619D02*
X83431047Y-90209714D01*
X83431047Y-89590666D01*
X80660952Y-89876380D02*
X80184761Y-89876380D01*
X80137142Y-90352571D01*
X80184761Y-90304952D01*
X80280000Y-90257333D01*
X80518095Y-90257333D01*
X80613333Y-90304952D01*
X80660952Y-90352571D01*
X80708571Y-90447809D01*
X80708571Y-90685904D01*
X80660952Y-90781142D01*
X80613333Y-90828761D01*
X80518095Y-90876380D01*
X80280000Y-90876380D01*
X80184761Y-90828761D01*
X80137142Y-90781142D01*
X81041904Y-90209714D02*
X81280000Y-90876380D01*
X81518095Y-90209714D01*
X82422857Y-90876380D02*
X81851428Y-90876380D01*
X82137142Y-90876380D02*
X82137142Y-89876380D01*
X82041904Y-90019238D01*
X81946666Y-90114476D01*
X81851428Y-90162095D01*
X69136380Y-34123238D02*
X68660190Y-34456571D01*
X69136380Y-34694666D02*
X68136380Y-34694666D01*
X68136380Y-34313714D01*
X68184000Y-34218476D01*
X68231619Y-34170857D01*
X68326857Y-34123238D01*
X68469714Y-34123238D01*
X68564952Y-34170857D01*
X68612571Y-34218476D01*
X68660190Y-34313714D01*
X68660190Y-34694666D01*
X68136380Y-33837523D02*
X69136380Y-33504190D01*
X68136380Y-33170857D01*
X69136380Y-32313714D02*
X69136380Y-32885142D01*
X69136380Y-32599428D02*
X68136380Y-32599428D01*
X68279238Y-32694666D01*
X68374476Y-32789904D01*
X68422095Y-32885142D01*
X61806380Y-34123238D02*
X61806380Y-34694666D01*
X61806380Y-34408952D02*
X60806380Y-34408952D01*
X60949238Y-34504190D01*
X61044476Y-34599428D01*
X61092095Y-34694666D01*
X60806380Y-33504190D02*
X60806380Y-33408952D01*
X60854000Y-33313714D01*
X60901619Y-33266095D01*
X60996857Y-33218476D01*
X61187333Y-33170857D01*
X61425428Y-33170857D01*
X61615904Y-33218476D01*
X61711142Y-33266095D01*
X61758761Y-33313714D01*
X61806380Y-33408952D01*
X61806380Y-33504190D01*
X61758761Y-33599428D01*
X61711142Y-33647047D01*
X61615904Y-33694666D01*
X61425428Y-33742285D01*
X61187333Y-33742285D01*
X60996857Y-33694666D01*
X60901619Y-33647047D01*
X60854000Y-33599428D01*
X60806380Y-33504190D01*
X61806380Y-32742285D02*
X60806380Y-32742285D01*
X61425428Y-32647047D02*
X61806380Y-32361333D01*
X61139714Y-32361333D02*
X61520666Y-32742285D01*
X80590380Y-93606857D02*
X80114190Y-93940190D01*
X80590380Y-94178285D02*
X79590380Y-94178285D01*
X79590380Y-93797333D01*
X79638000Y-93702095D01*
X79685619Y-93654476D01*
X79780857Y-93606857D01*
X79923714Y-93606857D01*
X80018952Y-93654476D01*
X80066571Y-93702095D01*
X80114190Y-93797333D01*
X80114190Y-94178285D01*
X80590380Y-92654476D02*
X80590380Y-93225904D01*
X80590380Y-92940190D02*
X79590380Y-92940190D01*
X79733238Y-93035428D01*
X79828476Y-93130666D01*
X79876095Y-93225904D01*
X80590380Y-91702095D02*
X80590380Y-92273523D01*
X80590380Y-91987809D02*
X79590380Y-91987809D01*
X79733238Y-92083047D01*
X79828476Y-92178285D01*
X79876095Y-92273523D01*
X83323714Y-93725904D02*
X83990380Y-93725904D01*
X82942761Y-93964000D02*
X83657047Y-94202095D01*
X83657047Y-93583047D01*
X82990380Y-93297333D02*
X82990380Y-92630666D01*
X83990380Y-93059238D01*
X82990380Y-92059238D02*
X82990380Y-91964000D01*
X83038000Y-91868761D01*
X83085619Y-91821142D01*
X83180857Y-91773523D01*
X83371333Y-91725904D01*
X83609428Y-91725904D01*
X83799904Y-91773523D01*
X83895142Y-91821142D01*
X83942761Y-91868761D01*
X83990380Y-91964000D01*
X83990380Y-92059238D01*
X83942761Y-92154476D01*
X83895142Y-92202095D01*
X83799904Y-92249714D01*
X83609428Y-92297333D01*
X83371333Y-92297333D01*
X83180857Y-92249714D01*
X83085619Y-92202095D01*
X83038000Y-92154476D01*
X82990380Y-92059238D01*
X80590380Y-97670857D02*
X80114190Y-98004190D01*
X80590380Y-98242285D02*
X79590380Y-98242285D01*
X79590380Y-97861333D01*
X79638000Y-97766095D01*
X79685619Y-97718476D01*
X79780857Y-97670857D01*
X79923714Y-97670857D01*
X80018952Y-97718476D01*
X80066571Y-97766095D01*
X80114190Y-97861333D01*
X80114190Y-98242285D01*
X80590380Y-96718476D02*
X80590380Y-97289904D01*
X80590380Y-97004190D02*
X79590380Y-97004190D01*
X79733238Y-97099428D01*
X79828476Y-97194666D01*
X79876095Y-97289904D01*
X79590380Y-96099428D02*
X79590380Y-96004190D01*
X79638000Y-95908952D01*
X79685619Y-95861333D01*
X79780857Y-95813714D01*
X79971333Y-95766095D01*
X80209428Y-95766095D01*
X80399904Y-95813714D01*
X80495142Y-95861333D01*
X80542761Y-95908952D01*
X80590380Y-96004190D01*
X80590380Y-96099428D01*
X80542761Y-96194666D01*
X80495142Y-96242285D01*
X80399904Y-96289904D01*
X80209428Y-96337523D01*
X79971333Y-96337523D01*
X79780857Y-96289904D01*
X79685619Y-96242285D01*
X79638000Y-96194666D01*
X79590380Y-96099428D01*
X83323714Y-97789904D02*
X83990380Y-97789904D01*
X82942761Y-98028000D02*
X83657047Y-98266095D01*
X83657047Y-97647047D01*
X82990380Y-97361333D02*
X82990380Y-96694666D01*
X83990380Y-97123238D01*
X82990380Y-96123238D02*
X82990380Y-96028000D01*
X83038000Y-95932761D01*
X83085619Y-95885142D01*
X83180857Y-95837523D01*
X83371333Y-95789904D01*
X83609428Y-95789904D01*
X83799904Y-95837523D01*
X83895142Y-95885142D01*
X83942761Y-95932761D01*
X83990380Y-96028000D01*
X83990380Y-96123238D01*
X83942761Y-96218476D01*
X83895142Y-96266095D01*
X83799904Y-96313714D01*
X83609428Y-96361333D01*
X83371333Y-96361333D01*
X83180857Y-96313714D01*
X83085619Y-96266095D01*
X83038000Y-96218476D01*
X82990380Y-96123238D01*
D14*
X86836380Y-95148904D02*
X87645904Y-95148904D01*
X87741142Y-95101285D01*
X87788761Y-95053666D01*
X87836380Y-94958428D01*
X87836380Y-94767952D01*
X87788761Y-94672714D01*
X87741142Y-94625095D01*
X87645904Y-94577476D01*
X86836380Y-94577476D01*
X86836380Y-93625095D02*
X86836380Y-94101285D01*
X87312571Y-94148904D01*
X87264952Y-94101285D01*
X87217333Y-94006047D01*
X87217333Y-93767952D01*
X87264952Y-93672714D01*
X87312571Y-93625095D01*
X87407809Y-93577476D01*
X87645904Y-93577476D01*
X87741142Y-93625095D01*
X87788761Y-93672714D01*
X87836380Y-93767952D01*
X87836380Y-94006047D01*
X87788761Y-94101285D01*
X87741142Y-94148904D01*
X94813380Y-98270289D02*
X93813380Y-98270289D01*
X93813380Y-97889336D01*
X93861000Y-97794098D01*
X93908619Y-97746479D01*
X94003857Y-97698860D01*
X94146714Y-97698860D01*
X94241952Y-97746479D01*
X94289571Y-97794098D01*
X94337190Y-97889336D01*
X94337190Y-98270289D01*
X94241952Y-97127432D02*
X94194333Y-97222670D01*
X94146714Y-97270289D01*
X94051476Y-97317908D01*
X94003857Y-97317908D01*
X93908619Y-97270289D01*
X93861000Y-97222670D01*
X93813380Y-97127432D01*
X93813380Y-96936955D01*
X93861000Y-96841717D01*
X93908619Y-96794098D01*
X94003857Y-96746479D01*
X94051476Y-96746479D01*
X94146714Y-96794098D01*
X94194333Y-96841717D01*
X94241952Y-96936955D01*
X94241952Y-97127432D01*
X94289571Y-97222670D01*
X94337190Y-97270289D01*
X94432428Y-97317908D01*
X94622904Y-97317908D01*
X94718142Y-97270289D01*
X94765761Y-97222670D01*
X94813380Y-97127432D01*
X94813380Y-96936955D01*
X94765761Y-96841717D01*
X94718142Y-96794098D01*
X94622904Y-96746479D01*
X94432428Y-96746479D01*
X94337190Y-96794098D01*
X94289571Y-96841717D01*
X94241952Y-96936955D01*
X93908619Y-96365527D02*
X93861000Y-96317908D01*
X93813380Y-96222670D01*
X93813380Y-95984574D01*
X93861000Y-95889336D01*
X93908619Y-95841717D01*
X94003857Y-95794098D01*
X94099095Y-95794098D01*
X94241952Y-95841717D01*
X94813380Y-96413146D01*
X94813380Y-95794098D01*
X94289571Y-95032193D02*
X94337190Y-94889336D01*
X94384809Y-94841717D01*
X94480047Y-94794098D01*
X94622904Y-94794098D01*
X94718142Y-94841717D01*
X94765761Y-94889336D01*
X94813380Y-94984574D01*
X94813380Y-95365527D01*
X93813380Y-95365527D01*
X93813380Y-95032193D01*
X93861000Y-94936955D01*
X93908619Y-94889336D01*
X94003857Y-94841717D01*
X94099095Y-94841717D01*
X94194333Y-94889336D01*
X94241952Y-94936955D01*
X94289571Y-95032193D01*
X94289571Y-95365527D01*
X93813380Y-94460765D02*
X93813380Y-93794098D01*
X94813380Y-94222670D01*
X94813380Y-92889336D02*
X94813380Y-93460765D01*
X94813380Y-93175051D02*
X93813380Y-93175051D01*
X93956238Y-93270289D01*
X94051476Y-93365527D01*
X94099095Y-93460765D01*
X93813380Y-91984574D02*
X93813380Y-92460765D01*
X94289571Y-92508384D01*
X94241952Y-92460765D01*
X94194333Y-92365527D01*
X94194333Y-92127432D01*
X94241952Y-92032193D01*
X94289571Y-91984574D01*
X94384809Y-91936955D01*
X94622904Y-91936955D01*
X94718142Y-91984574D01*
X94765761Y-92032193D01*
X94813380Y-92127432D01*
X94813380Y-92365527D01*
X94765761Y-92460765D01*
X94718142Y-92508384D01*
X94813380Y-91508384D02*
X93813380Y-91508384D01*
X93813380Y-91270289D01*
X93861000Y-91127432D01*
X93956238Y-91032193D01*
X94051476Y-90984574D01*
X94241952Y-90936955D01*
X94384809Y-90936955D01*
X94575285Y-90984574D01*
X94670523Y-91032193D01*
X94765761Y-91127432D01*
X94813380Y-91270289D01*
X94813380Y-91508384D01*
D15*
X77152571Y-90368380D02*
X76819238Y-89892190D01*
X76581142Y-90368380D02*
X76581142Y-89368380D01*
X76962095Y-89368380D01*
X77057333Y-89416000D01*
X77104952Y-89463619D01*
X77152571Y-89558857D01*
X77152571Y-89701714D01*
X77104952Y-89796952D01*
X77057333Y-89844571D01*
X76962095Y-89892190D01*
X76581142Y-89892190D01*
X78057333Y-90368380D02*
X77581142Y-90368380D01*
X77581142Y-89368380D01*
X78343047Y-89463619D02*
X78390666Y-89416000D01*
X78485904Y-89368380D01*
X78724000Y-89368380D01*
X78819238Y-89416000D01*
X78866857Y-89463619D01*
X78914476Y-89558857D01*
X78914476Y-89654095D01*
X78866857Y-89796952D01*
X78295428Y-90368380D01*
X78914476Y-90368380D01*
X77152571Y-75128380D02*
X76819238Y-74652190D01*
X76581142Y-75128380D02*
X76581142Y-74128380D01*
X76962095Y-74128380D01*
X77057333Y-74176000D01*
X77104952Y-74223619D01*
X77152571Y-74318857D01*
X77152571Y-74461714D01*
X77104952Y-74556952D01*
X77057333Y-74604571D01*
X76962095Y-74652190D01*
X76581142Y-74652190D01*
X78057333Y-75128380D02*
X77581142Y-75128380D01*
X77581142Y-74128380D01*
X78914476Y-75128380D02*
X78343047Y-75128380D01*
X78628761Y-75128380D02*
X78628761Y-74128380D01*
X78533523Y-74271238D01*
X78438285Y-74366476D01*
X78343047Y-74414095D01*
X89408095Y-39822380D02*
X89408095Y-40631904D01*
X89455714Y-40727142D01*
X89503333Y-40774761D01*
X89598571Y-40822380D01*
X89789047Y-40822380D01*
X89884285Y-40774761D01*
X89931904Y-40727142D01*
X89979523Y-40631904D01*
X89979523Y-39822380D01*
X90979523Y-40822380D02*
X90408095Y-40822380D01*
X90693809Y-40822380D02*
X90693809Y-39822380D01*
X90598571Y-39965238D01*
X90503333Y-40060476D01*
X90408095Y-40108095D01*
X86336666Y-38822380D02*
X86336666Y-37822380D01*
X86336666Y-38298571D02*
X86908095Y-38298571D01*
X86908095Y-38822380D02*
X86908095Y-37822380D01*
X87860476Y-38822380D02*
X87384285Y-38822380D01*
X87384285Y-37822380D01*
X88193809Y-38822380D02*
X88193809Y-37822380D01*
X88765238Y-38822380D02*
X88336666Y-38250952D01*
X88765238Y-37822380D02*
X88193809Y-38393809D01*
X89193809Y-38441428D02*
X89955714Y-38441428D01*
X90431904Y-38822380D02*
X90431904Y-37822380D01*
X90812857Y-37822380D01*
X90908095Y-37870000D01*
X90955714Y-37917619D01*
X91003333Y-38012857D01*
X91003333Y-38155714D01*
X90955714Y-38250952D01*
X90908095Y-38298571D01*
X90812857Y-38346190D01*
X90431904Y-38346190D01*
X91431904Y-38822380D02*
X91431904Y-37822380D01*
X91765238Y-38536666D01*
X92098571Y-37822380D01*
X92098571Y-38822380D01*
X92765238Y-37822380D02*
X92860476Y-37822380D01*
X92955714Y-37870000D01*
X93003333Y-37917619D01*
X93050952Y-38012857D01*
X93098571Y-38203333D01*
X93098571Y-38441428D01*
X93050952Y-38631904D01*
X93003333Y-38727142D01*
X92955714Y-38774761D01*
X92860476Y-38822380D01*
X92765238Y-38822380D01*
X92670000Y-38774761D01*
X92622380Y-38727142D01*
X92574761Y-38631904D01*
X92527142Y-38441428D01*
X92527142Y-38203333D01*
X92574761Y-38012857D01*
X92622380Y-37917619D01*
X92670000Y-37870000D01*
X92765238Y-37822380D01*
X94050952Y-38822380D02*
X93479523Y-38822380D01*
X93765238Y-38822380D02*
X93765238Y-37822380D01*
X93670000Y-37965238D01*
X93574761Y-38060476D01*
X93479523Y-38108095D01*
X139954095Y-20328380D02*
X139954095Y-19328380D01*
X139954095Y-19804571D02*
X140525523Y-19804571D01*
X140525523Y-20328380D02*
X140525523Y-19328380D01*
X140906476Y-19328380D02*
X141525523Y-19328380D01*
X141192190Y-19709333D01*
X141335047Y-19709333D01*
X141430285Y-19756952D01*
X141477904Y-19804571D01*
X141525523Y-19899809D01*
X141525523Y-20137904D01*
X141477904Y-20233142D01*
X141430285Y-20280761D01*
X141335047Y-20328380D01*
X141049333Y-20328380D01*
X140954095Y-20280761D01*
X140906476Y-20233142D01*
X54102095Y-20328380D02*
X54102095Y-19328380D01*
X54102095Y-19804571D02*
X54673523Y-19804571D01*
X54673523Y-20328380D02*
X54673523Y-19328380D01*
X55578285Y-19661714D02*
X55578285Y-20328380D01*
X55340190Y-19280761D02*
X55102095Y-19995047D01*
X55721142Y-19995047D01*
X57364380Y-86185333D02*
X58078666Y-86185333D01*
X58221523Y-86232952D01*
X58316761Y-86328190D01*
X58364380Y-86471047D01*
X58364380Y-86566285D01*
X57364380Y-85280571D02*
X57364380Y-85471047D01*
X57412000Y-85566285D01*
X57459619Y-85613904D01*
X57602476Y-85709142D01*
X57792952Y-85756761D01*
X58173904Y-85756761D01*
X58269142Y-85709142D01*
X58316761Y-85661523D01*
X58364380Y-85566285D01*
X58364380Y-85375809D01*
X58316761Y-85280571D01*
X58269142Y-85232952D01*
X58173904Y-85185333D01*
X57935809Y-85185333D01*
X57840571Y-85232952D01*
X57792952Y-85280571D01*
X57745333Y-85375809D01*
X57745333Y-85566285D01*
X57792952Y-85661523D01*
X57840571Y-85709142D01*
X57935809Y-85756761D01*
X53792380Y-90280571D02*
X52792380Y-90280571D01*
X53792380Y-89709142D01*
X52792380Y-89709142D01*
X53744761Y-88852000D02*
X53792380Y-88947238D01*
X53792380Y-89137714D01*
X53744761Y-89232952D01*
X53649523Y-89280571D01*
X53268571Y-89280571D01*
X53173333Y-89232952D01*
X53125714Y-89137714D01*
X53125714Y-88947238D01*
X53173333Y-88852000D01*
X53268571Y-88804380D01*
X53363809Y-88804380D01*
X53459047Y-89280571D01*
X53125714Y-88518666D02*
X53125714Y-88137714D01*
X52792380Y-88375809D02*
X53649523Y-88375809D01*
X53744761Y-88328190D01*
X53792380Y-88232952D01*
X53792380Y-88137714D01*
X53125714Y-87899619D02*
X53125714Y-87375809D01*
X53792380Y-87899619D01*
X53792380Y-87375809D01*
X53744761Y-87042476D02*
X53792380Y-86947238D01*
X53792380Y-86756761D01*
X53744761Y-86661523D01*
X53649523Y-86613904D01*
X53601904Y-86613904D01*
X53506666Y-86661523D01*
X53459047Y-86756761D01*
X53459047Y-86899619D01*
X53411428Y-86994857D01*
X53316190Y-87042476D01*
X53268571Y-87042476D01*
X53173333Y-86994857D01*
X53125714Y-86899619D01*
X53125714Y-86756761D01*
X53173333Y-86661523D01*
X53744761Y-85756761D02*
X53792380Y-85852000D01*
X53792380Y-86042476D01*
X53744761Y-86137714D01*
X53697142Y-86185333D01*
X53601904Y-86232952D01*
X53316190Y-86232952D01*
X53220952Y-86185333D01*
X53173333Y-86137714D01*
X53125714Y-86042476D01*
X53125714Y-85852000D01*
X53173333Y-85756761D01*
X53792380Y-85328190D02*
X52792380Y-85328190D01*
X53792380Y-84899619D02*
X53268571Y-84899619D01*
X53173333Y-84947238D01*
X53125714Y-85042476D01*
X53125714Y-85185333D01*
X53173333Y-85280571D01*
X53220952Y-85328190D01*
X53792380Y-83994857D02*
X53268571Y-83994857D01*
X53173333Y-84042476D01*
X53125714Y-84137714D01*
X53125714Y-84328190D01*
X53173333Y-84423428D01*
X53744761Y-83994857D02*
X53792380Y-84090095D01*
X53792380Y-84328190D01*
X53744761Y-84423428D01*
X53649523Y-84471047D01*
X53554285Y-84471047D01*
X53459047Y-84423428D01*
X53411428Y-84328190D01*
X53411428Y-84090095D01*
X53363809Y-83994857D01*
X53792380Y-83375809D02*
X53744761Y-83471047D01*
X53649523Y-83518666D01*
X52792380Y-83518666D01*
X53125714Y-83137714D02*
X53125714Y-82756761D01*
X52792380Y-82994857D02*
X53649523Y-82994857D01*
X53744761Y-82947238D01*
X53792380Y-82852000D01*
X53792380Y-82756761D01*
X53744761Y-82042476D02*
X53792380Y-82137714D01*
X53792380Y-82328190D01*
X53744761Y-82423428D01*
X53649523Y-82471047D01*
X53268571Y-82471047D01*
X53173333Y-82423428D01*
X53125714Y-82328190D01*
X53125714Y-82137714D01*
X53173333Y-82042476D01*
X53268571Y-81994857D01*
X53363809Y-81994857D01*
X53459047Y-82471047D01*
X53792380Y-81566285D02*
X53125714Y-81566285D01*
X53316190Y-81566285D02*
X53220952Y-81518666D01*
X53173333Y-81471047D01*
X53125714Y-81375809D01*
X53125714Y-81280571D01*
X127436571Y-97075428D02*
X127436571Y-96742095D01*
X127960380Y-96599238D02*
X127960380Y-97075428D01*
X126960380Y-97075428D01*
X126960380Y-96599238D01*
X127293714Y-96170666D02*
X127960380Y-96170666D01*
X127388952Y-96170666D02*
X127341333Y-96123047D01*
X127293714Y-96027809D01*
X127293714Y-95884952D01*
X127341333Y-95789714D01*
X127436571Y-95742095D01*
X127960380Y-95742095D01*
X127912761Y-94837333D02*
X127960380Y-94932571D01*
X127960380Y-95123047D01*
X127912761Y-95218285D01*
X127865142Y-95265904D01*
X127769904Y-95313523D01*
X127484190Y-95313523D01*
X127388952Y-95265904D01*
X127341333Y-95218285D01*
X127293714Y-95123047D01*
X127293714Y-94932571D01*
X127341333Y-94837333D01*
X127960380Y-93884952D02*
X127960380Y-94456380D01*
X127960380Y-94170666D02*
X126960380Y-94170666D01*
X127103238Y-94265904D01*
X127198476Y-94361142D01*
X127246095Y-94456380D01*
X116943333Y-92059142D02*
X116895714Y-92106761D01*
X116752857Y-92154380D01*
X116657619Y-92154380D01*
X116514761Y-92106761D01*
X116419523Y-92011523D01*
X116371904Y-91916285D01*
X116324285Y-91725809D01*
X116324285Y-91582952D01*
X116371904Y-91392476D01*
X116419523Y-91297238D01*
X116514761Y-91202000D01*
X116657619Y-91154380D01*
X116752857Y-91154380D01*
X116895714Y-91202000D01*
X116943333Y-91249619D01*
X117800476Y-91487714D02*
X117800476Y-92154380D01*
X117562380Y-91106761D02*
X117324285Y-91821047D01*
X117943333Y-91821047D01*
X114990952Y-84629619D02*
X115038571Y-84582000D01*
X115133809Y-84534380D01*
X115371904Y-84534380D01*
X115467142Y-84582000D01*
X115514761Y-84629619D01*
X115562380Y-84724857D01*
X115562380Y-84820095D01*
X115514761Y-84962952D01*
X114943333Y-85534380D01*
X115562380Y-85534380D01*
X115943333Y-84629619D02*
X115990952Y-84582000D01*
X116086190Y-84534380D01*
X116324285Y-84534380D01*
X116419523Y-84582000D01*
X116467142Y-84629619D01*
X116514761Y-84724857D01*
X116514761Y-84820095D01*
X116467142Y-84962952D01*
X115895714Y-85534380D01*
X116514761Y-85534380D01*
X117133809Y-84534380D02*
X117229047Y-84534380D01*
X117324285Y-84582000D01*
X117371904Y-84629619D01*
X117419523Y-84724857D01*
X117467142Y-84915333D01*
X117467142Y-85153428D01*
X117419523Y-85343904D01*
X117371904Y-85439142D01*
X117324285Y-85486761D01*
X117229047Y-85534380D01*
X117133809Y-85534380D01*
X117038571Y-85486761D01*
X116990952Y-85439142D01*
X116943333Y-85343904D01*
X116895714Y-85153428D01*
X116895714Y-84915333D01*
X116943333Y-84724857D01*
X116990952Y-84629619D01*
X117038571Y-84582000D01*
X117133809Y-84534380D01*
X118324285Y-84867714D02*
X118324285Y-85534380D01*
X117895714Y-84867714D02*
X117895714Y-85391523D01*
X117943333Y-85486761D01*
X118038571Y-85534380D01*
X118181428Y-85534380D01*
X118276666Y-85486761D01*
X118324285Y-85439142D01*
X119133809Y-85010571D02*
X118800476Y-85010571D01*
X118800476Y-85534380D02*
X118800476Y-84534380D01*
X119276666Y-84534380D01*
X116943333Y-83931142D02*
X116895714Y-83978761D01*
X116752857Y-84026380D01*
X116657619Y-84026380D01*
X116514761Y-83978761D01*
X116419523Y-83883523D01*
X116371904Y-83788285D01*
X116324285Y-83597809D01*
X116324285Y-83454952D01*
X116371904Y-83264476D01*
X116419523Y-83169238D01*
X116514761Y-83074000D01*
X116657619Y-83026380D01*
X116752857Y-83026380D01*
X116895714Y-83074000D01*
X116943333Y-83121619D01*
X117895714Y-84026380D02*
X117324285Y-84026380D01*
X117610000Y-84026380D02*
X117610000Y-83026380D01*
X117514761Y-83169238D01*
X117419523Y-83264476D01*
X117324285Y-83312095D01*
X115562380Y-77406380D02*
X114990952Y-77406380D01*
X115276666Y-77406380D02*
X115276666Y-76406380D01*
X115181428Y-76549238D01*
X115086190Y-76644476D01*
X114990952Y-76692095D01*
X116181428Y-76406380D02*
X116276666Y-76406380D01*
X116371904Y-76454000D01*
X116419523Y-76501619D01*
X116467142Y-76596857D01*
X116514761Y-76787333D01*
X116514761Y-77025428D01*
X116467142Y-77215904D01*
X116419523Y-77311142D01*
X116371904Y-77358761D01*
X116276666Y-77406380D01*
X116181428Y-77406380D01*
X116086190Y-77358761D01*
X116038571Y-77311142D01*
X115990952Y-77215904D01*
X115943333Y-77025428D01*
X115943333Y-76787333D01*
X115990952Y-76596857D01*
X116038571Y-76501619D01*
X116086190Y-76454000D01*
X116181428Y-76406380D01*
X117133809Y-76406380D02*
X117229047Y-76406380D01*
X117324285Y-76454000D01*
X117371904Y-76501619D01*
X117419523Y-76596857D01*
X117467142Y-76787333D01*
X117467142Y-77025428D01*
X117419523Y-77215904D01*
X117371904Y-77311142D01*
X117324285Y-77358761D01*
X117229047Y-77406380D01*
X117133809Y-77406380D01*
X117038571Y-77358761D01*
X116990952Y-77311142D01*
X116943333Y-77215904D01*
X116895714Y-77025428D01*
X116895714Y-76787333D01*
X116943333Y-76596857D01*
X116990952Y-76501619D01*
X117038571Y-76454000D01*
X117133809Y-76406380D01*
X118324285Y-76739714D02*
X118324285Y-77406380D01*
X117895714Y-76739714D02*
X117895714Y-77263523D01*
X117943333Y-77358761D01*
X118038571Y-77406380D01*
X118181428Y-77406380D01*
X118276666Y-77358761D01*
X118324285Y-77311142D01*
X119133809Y-76882571D02*
X118800476Y-76882571D01*
X118800476Y-77406380D02*
X118800476Y-76406380D01*
X119276666Y-76406380D01*
X122705904Y-92400380D02*
X122705904Y-91400380D01*
X122944000Y-91400380D01*
X123086857Y-91448000D01*
X123182095Y-91543238D01*
X123229714Y-91638476D01*
X123277333Y-91828952D01*
X123277333Y-91971809D01*
X123229714Y-92162285D01*
X123182095Y-92257523D01*
X123086857Y-92352761D01*
X122944000Y-92400380D01*
X122705904Y-92400380D01*
X123610666Y-91400380D02*
X124229714Y-91400380D01*
X123896380Y-91781333D01*
X124039238Y-91781333D01*
X124134476Y-91828952D01*
X124182095Y-91876571D01*
X124229714Y-91971809D01*
X124229714Y-92209904D01*
X124182095Y-92305142D01*
X124134476Y-92352761D01*
X124039238Y-92400380D01*
X123753523Y-92400380D01*
X123658285Y-92352761D01*
X123610666Y-92305142D01*
X122717142Y-93416380D02*
X122240952Y-93416380D01*
X122240952Y-92416380D01*
X123050476Y-92892571D02*
X123383809Y-92892571D01*
X123526666Y-93416380D02*
X123050476Y-93416380D01*
X123050476Y-92416380D01*
X123526666Y-92416380D01*
X123955238Y-93416380D02*
X123955238Y-92416380D01*
X124193333Y-92416380D01*
X124336190Y-92464000D01*
X124431428Y-92559238D01*
X124479047Y-92654476D01*
X124526666Y-92844952D01*
X124526666Y-92987809D01*
X124479047Y-93178285D01*
X124431428Y-93273523D01*
X124336190Y-93368761D01*
X124193333Y-93416380D01*
X123955238Y-93416380D01*
X142073333Y-69469142D02*
X142025714Y-69516761D01*
X141882857Y-69564380D01*
X141787619Y-69564380D01*
X141644761Y-69516761D01*
X141549523Y-69421523D01*
X141501904Y-69326285D01*
X141454285Y-69135809D01*
X141454285Y-68992952D01*
X141501904Y-68802476D01*
X141549523Y-68707238D01*
X141644761Y-68612000D01*
X141787619Y-68564380D01*
X141882857Y-68564380D01*
X142025714Y-68612000D01*
X142073333Y-68659619D01*
X142454285Y-68659619D02*
X142501904Y-68612000D01*
X142597142Y-68564380D01*
X142835238Y-68564380D01*
X142930476Y-68612000D01*
X142978095Y-68659619D01*
X143025714Y-68754857D01*
X143025714Y-68850095D01*
X142978095Y-68992952D01*
X142406666Y-69564380D01*
X143025714Y-69564380D01*
X140692380Y-72814380D02*
X140120952Y-72814380D01*
X140406666Y-72814380D02*
X140406666Y-71814380D01*
X140311428Y-71957238D01*
X140216190Y-72052476D01*
X140120952Y-72100095D01*
X141311428Y-71814380D02*
X141406666Y-71814380D01*
X141501904Y-71862000D01*
X141549523Y-71909619D01*
X141597142Y-72004857D01*
X141644761Y-72195333D01*
X141644761Y-72433428D01*
X141597142Y-72623904D01*
X141549523Y-72719142D01*
X141501904Y-72766761D01*
X141406666Y-72814380D01*
X141311428Y-72814380D01*
X141216190Y-72766761D01*
X141168571Y-72719142D01*
X141120952Y-72623904D01*
X141073333Y-72433428D01*
X141073333Y-72195333D01*
X141120952Y-72004857D01*
X141168571Y-71909619D01*
X141216190Y-71862000D01*
X141311428Y-71814380D01*
X142263809Y-71814380D02*
X142359047Y-71814380D01*
X142454285Y-71862000D01*
X142501904Y-71909619D01*
X142549523Y-72004857D01*
X142597142Y-72195333D01*
X142597142Y-72433428D01*
X142549523Y-72623904D01*
X142501904Y-72719142D01*
X142454285Y-72766761D01*
X142359047Y-72814380D01*
X142263809Y-72814380D01*
X142168571Y-72766761D01*
X142120952Y-72719142D01*
X142073333Y-72623904D01*
X142025714Y-72433428D01*
X142025714Y-72195333D01*
X142073333Y-72004857D01*
X142120952Y-71909619D01*
X142168571Y-71862000D01*
X142263809Y-71814380D01*
X143025714Y-72147714D02*
X143025714Y-72814380D01*
X143025714Y-72242952D02*
X143073333Y-72195333D01*
X143168571Y-72147714D01*
X143311428Y-72147714D01*
X143406666Y-72195333D01*
X143454285Y-72290571D01*
X143454285Y-72814380D01*
X144263809Y-72290571D02*
X143930476Y-72290571D01*
X143930476Y-72814380D02*
X143930476Y-71814380D01*
X144406666Y-71814380D01*
X143597333Y-67413142D02*
X143549714Y-67460761D01*
X143406857Y-67508380D01*
X143311619Y-67508380D01*
X143168761Y-67460761D01*
X143073523Y-67365523D01*
X143025904Y-67270285D01*
X142978285Y-67079809D01*
X142978285Y-66936952D01*
X143025904Y-66746476D01*
X143073523Y-66651238D01*
X143168761Y-66556000D01*
X143311619Y-66508380D01*
X143406857Y-66508380D01*
X143549714Y-66556000D01*
X143597333Y-66603619D01*
X143930666Y-66508380D02*
X144549714Y-66508380D01*
X144216380Y-66889333D01*
X144359238Y-66889333D01*
X144454476Y-66936952D01*
X144502095Y-66984571D01*
X144549714Y-67079809D01*
X144549714Y-67317904D01*
X144502095Y-67413142D01*
X144454476Y-67460761D01*
X144359238Y-67508380D01*
X144073523Y-67508380D01*
X143978285Y-67460761D01*
X143930666Y-67413142D01*
X145264380Y-65758380D02*
X144692952Y-65758380D01*
X144978666Y-65758380D02*
X144978666Y-64758380D01*
X144883428Y-64901238D01*
X144788190Y-64996476D01*
X144692952Y-65044095D01*
X145883428Y-64758380D02*
X145978666Y-64758380D01*
X146073904Y-64806000D01*
X146121523Y-64853619D01*
X146169142Y-64948857D01*
X146216761Y-65139333D01*
X146216761Y-65377428D01*
X146169142Y-65567904D01*
X146121523Y-65663142D01*
X146073904Y-65710761D01*
X145978666Y-65758380D01*
X145883428Y-65758380D01*
X145788190Y-65710761D01*
X145740571Y-65663142D01*
X145692952Y-65567904D01*
X145645333Y-65377428D01*
X145645333Y-65139333D01*
X145692952Y-64948857D01*
X145740571Y-64853619D01*
X145788190Y-64806000D01*
X145883428Y-64758380D01*
X146835809Y-64758380D02*
X146931047Y-64758380D01*
X147026285Y-64806000D01*
X147073904Y-64853619D01*
X147121523Y-64948857D01*
X147169142Y-65139333D01*
X147169142Y-65377428D01*
X147121523Y-65567904D01*
X147073904Y-65663142D01*
X147026285Y-65710761D01*
X146931047Y-65758380D01*
X146835809Y-65758380D01*
X146740571Y-65710761D01*
X146692952Y-65663142D01*
X146645333Y-65567904D01*
X146597714Y-65377428D01*
X146597714Y-65139333D01*
X146645333Y-64948857D01*
X146692952Y-64853619D01*
X146740571Y-64806000D01*
X146835809Y-64758380D01*
X147597714Y-65091714D02*
X147597714Y-65758380D01*
X147597714Y-65186952D02*
X147645333Y-65139333D01*
X147740571Y-65091714D01*
X147883428Y-65091714D01*
X147978666Y-65139333D01*
X148026285Y-65234571D01*
X148026285Y-65758380D01*
X148835809Y-65234571D02*
X148502476Y-65234571D01*
X148502476Y-65758380D02*
X148502476Y-64758380D01*
X148978666Y-64758380D01*
X146645333Y-69469142D02*
X146597714Y-69516761D01*
X146454857Y-69564380D01*
X146359619Y-69564380D01*
X146216761Y-69516761D01*
X146121523Y-69421523D01*
X146073904Y-69326285D01*
X146026285Y-69135809D01*
X146026285Y-68992952D01*
X146073904Y-68802476D01*
X146121523Y-68707238D01*
X146216761Y-68612000D01*
X146359619Y-68564380D01*
X146454857Y-68564380D01*
X146597714Y-68612000D01*
X146645333Y-68659619D01*
X147550095Y-68564380D02*
X147073904Y-68564380D01*
X147026285Y-69040571D01*
X147073904Y-68992952D01*
X147169142Y-68945333D01*
X147407238Y-68945333D01*
X147502476Y-68992952D01*
X147550095Y-69040571D01*
X147597714Y-69135809D01*
X147597714Y-69373904D01*
X147550095Y-69469142D01*
X147502476Y-69516761D01*
X147407238Y-69564380D01*
X147169142Y-69564380D01*
X147073904Y-69516761D01*
X147026285Y-69469142D01*
X145264380Y-72814380D02*
X144692952Y-72814380D01*
X144978666Y-72814380D02*
X144978666Y-71814380D01*
X144883428Y-71957238D01*
X144788190Y-72052476D01*
X144692952Y-72100095D01*
X145883428Y-71814380D02*
X145978666Y-71814380D01*
X146073904Y-71862000D01*
X146121523Y-71909619D01*
X146169142Y-72004857D01*
X146216761Y-72195333D01*
X146216761Y-72433428D01*
X146169142Y-72623904D01*
X146121523Y-72719142D01*
X146073904Y-72766761D01*
X145978666Y-72814380D01*
X145883428Y-72814380D01*
X145788190Y-72766761D01*
X145740571Y-72719142D01*
X145692952Y-72623904D01*
X145645333Y-72433428D01*
X145645333Y-72195333D01*
X145692952Y-72004857D01*
X145740571Y-71909619D01*
X145788190Y-71862000D01*
X145883428Y-71814380D01*
X146835809Y-71814380D02*
X146931047Y-71814380D01*
X147026285Y-71862000D01*
X147073904Y-71909619D01*
X147121523Y-72004857D01*
X147169142Y-72195333D01*
X147169142Y-72433428D01*
X147121523Y-72623904D01*
X147073904Y-72719142D01*
X147026285Y-72766761D01*
X146931047Y-72814380D01*
X146835809Y-72814380D01*
X146740571Y-72766761D01*
X146692952Y-72719142D01*
X146645333Y-72623904D01*
X146597714Y-72433428D01*
X146597714Y-72195333D01*
X146645333Y-72004857D01*
X146692952Y-71909619D01*
X146740571Y-71862000D01*
X146835809Y-71814380D01*
X147597714Y-72147714D02*
X147597714Y-72814380D01*
X147597714Y-72242952D02*
X147645333Y-72195333D01*
X147740571Y-72147714D01*
X147883428Y-72147714D01*
X147978666Y-72195333D01*
X148026285Y-72290571D01*
X148026285Y-72814380D01*
X148835809Y-72290571D02*
X148502476Y-72290571D01*
X148502476Y-72814380D02*
X148502476Y-71814380D01*
X148978666Y-71814380D01*
X106957904Y-88336380D02*
X106957904Y-87336380D01*
X107196000Y-87336380D01*
X107338857Y-87384000D01*
X107434095Y-87479238D01*
X107481714Y-87574476D01*
X107529333Y-87764952D01*
X107529333Y-87907809D01*
X107481714Y-88098285D01*
X107434095Y-88193523D01*
X107338857Y-88288761D01*
X107196000Y-88336380D01*
X106957904Y-88336380D01*
X107910285Y-87431619D02*
X107957904Y-87384000D01*
X108053142Y-87336380D01*
X108291238Y-87336380D01*
X108386476Y-87384000D01*
X108434095Y-87431619D01*
X108481714Y-87526857D01*
X108481714Y-87622095D01*
X108434095Y-87764952D01*
X107862666Y-88336380D01*
X108481714Y-88336380D01*
X110688380Y-84660857D02*
X110688380Y-85232285D01*
X110688380Y-84946571D02*
X109688380Y-84946571D01*
X109831238Y-85041809D01*
X109926476Y-85137047D01*
X109974095Y-85232285D01*
X110688380Y-84232285D02*
X109688380Y-84232285D01*
X110688380Y-83660857D01*
X109688380Y-83660857D01*
X110021714Y-82756095D02*
X110688380Y-82756095D01*
X109640761Y-82994190D02*
X110355047Y-83232285D01*
X110355047Y-82613238D01*
X109688380Y-82041809D02*
X109688380Y-81946571D01*
X109736000Y-81851333D01*
X109783619Y-81803714D01*
X109878857Y-81756095D01*
X110069333Y-81708476D01*
X110307428Y-81708476D01*
X110497904Y-81756095D01*
X110593142Y-81803714D01*
X110640761Y-81851333D01*
X110688380Y-81946571D01*
X110688380Y-82041809D01*
X110640761Y-82137047D01*
X110593142Y-82184666D01*
X110497904Y-82232285D01*
X110307428Y-82279904D01*
X110069333Y-82279904D01*
X109878857Y-82232285D01*
X109783619Y-82184666D01*
X109736000Y-82137047D01*
X109688380Y-82041809D01*
X109688380Y-81089428D02*
X109688380Y-80994190D01*
X109736000Y-80898952D01*
X109783619Y-80851333D01*
X109878857Y-80803714D01*
X110069333Y-80756095D01*
X110307428Y-80756095D01*
X110497904Y-80803714D01*
X110593142Y-80851333D01*
X110640761Y-80898952D01*
X110688380Y-80994190D01*
X110688380Y-81089428D01*
X110640761Y-81184666D01*
X110593142Y-81232285D01*
X110497904Y-81279904D01*
X110307428Y-81327523D01*
X110069333Y-81327523D01*
X109878857Y-81279904D01*
X109783619Y-81232285D01*
X109736000Y-81184666D01*
X109688380Y-81089428D01*
X110688380Y-79803714D02*
X110688380Y-80375142D01*
X110688380Y-80089428D02*
X109688380Y-80089428D01*
X109831238Y-80184666D01*
X109926476Y-80279904D01*
X109974095Y-80375142D01*
X106957904Y-73096380D02*
X106957904Y-72096380D01*
X107196000Y-72096380D01*
X107338857Y-72144000D01*
X107434095Y-72239238D01*
X107481714Y-72334476D01*
X107529333Y-72524952D01*
X107529333Y-72667809D01*
X107481714Y-72858285D01*
X107434095Y-72953523D01*
X107338857Y-73048761D01*
X107196000Y-73096380D01*
X106957904Y-73096380D01*
X108481714Y-73096380D02*
X107910285Y-73096380D01*
X108196000Y-73096380D02*
X108196000Y-72096380D01*
X108100761Y-72239238D01*
X108005523Y-72334476D01*
X107910285Y-72382095D01*
X110688380Y-69674857D02*
X110688380Y-70246285D01*
X110688380Y-69960571D02*
X109688380Y-69960571D01*
X109831238Y-70055809D01*
X109926476Y-70151047D01*
X109974095Y-70246285D01*
X110688380Y-69246285D02*
X109688380Y-69246285D01*
X110688380Y-68674857D01*
X109688380Y-68674857D01*
X110021714Y-67770095D02*
X110688380Y-67770095D01*
X109640761Y-68008190D02*
X110355047Y-68246285D01*
X110355047Y-67627238D01*
X109688380Y-67055809D02*
X109688380Y-66960571D01*
X109736000Y-66865333D01*
X109783619Y-66817714D01*
X109878857Y-66770095D01*
X110069333Y-66722476D01*
X110307428Y-66722476D01*
X110497904Y-66770095D01*
X110593142Y-66817714D01*
X110640761Y-66865333D01*
X110688380Y-66960571D01*
X110688380Y-67055809D01*
X110640761Y-67151047D01*
X110593142Y-67198666D01*
X110497904Y-67246285D01*
X110307428Y-67293904D01*
X110069333Y-67293904D01*
X109878857Y-67246285D01*
X109783619Y-67198666D01*
X109736000Y-67151047D01*
X109688380Y-67055809D01*
X109688380Y-66103428D02*
X109688380Y-66008190D01*
X109736000Y-65912952D01*
X109783619Y-65865333D01*
X109878857Y-65817714D01*
X110069333Y-65770095D01*
X110307428Y-65770095D01*
X110497904Y-65817714D01*
X110593142Y-65865333D01*
X110640761Y-65912952D01*
X110688380Y-66008190D01*
X110688380Y-66103428D01*
X110640761Y-66198666D01*
X110593142Y-66246285D01*
X110497904Y-66293904D01*
X110307428Y-66341523D01*
X110069333Y-66341523D01*
X109878857Y-66293904D01*
X109783619Y-66246285D01*
X109736000Y-66198666D01*
X109688380Y-66103428D01*
X110688380Y-64817714D02*
X110688380Y-65389142D01*
X110688380Y-65103428D02*
X109688380Y-65103428D01*
X109831238Y-65198666D01*
X109926476Y-65293904D01*
X109974095Y-65389142D01*
X122174095Y-77684380D02*
X122174095Y-78493904D01*
X122221714Y-78589142D01*
X122269333Y-78636761D01*
X122364571Y-78684380D01*
X122555047Y-78684380D01*
X122650285Y-78636761D01*
X122697904Y-78589142D01*
X122745523Y-78493904D01*
X122745523Y-77684380D01*
X123126476Y-77684380D02*
X123745523Y-77684380D01*
X123412190Y-78065333D01*
X123555047Y-78065333D01*
X123650285Y-78112952D01*
X123697904Y-78160571D01*
X123745523Y-78255809D01*
X123745523Y-78493904D01*
X123697904Y-78589142D01*
X123650285Y-78636761D01*
X123555047Y-78684380D01*
X123269333Y-78684380D01*
X123174095Y-78636761D01*
X123126476Y-78589142D01*
X147756571Y-88391428D02*
X147756571Y-88058095D01*
X148280380Y-87915238D02*
X148280380Y-88391428D01*
X147280380Y-88391428D01*
X147280380Y-87915238D01*
X148232761Y-87534285D02*
X148280380Y-87391428D01*
X148280380Y-87153333D01*
X148232761Y-87058095D01*
X148185142Y-87010476D01*
X148089904Y-86962857D01*
X147994666Y-86962857D01*
X147899428Y-87010476D01*
X147851809Y-87058095D01*
X147804190Y-87153333D01*
X147756571Y-87343809D01*
X147708952Y-87439047D01*
X147661333Y-87486666D01*
X147566095Y-87534285D01*
X147470857Y-87534285D01*
X147375619Y-87486666D01*
X147328000Y-87439047D01*
X147280380Y-87343809D01*
X147280380Y-87105714D01*
X147328000Y-86962857D01*
X148280380Y-86534285D02*
X147280380Y-86534285D01*
X147280380Y-86153333D01*
X147328000Y-86058095D01*
X147375619Y-86010476D01*
X147470857Y-85962857D01*
X147613714Y-85962857D01*
X147708952Y-86010476D01*
X147756571Y-86058095D01*
X147804190Y-86153333D01*
X147804190Y-86534285D01*
X147899428Y-85534285D02*
X147899428Y-84772380D01*
X147280380Y-84105714D02*
X147280380Y-84010476D01*
X147328000Y-83915238D01*
X147375619Y-83867619D01*
X147470857Y-83820000D01*
X147661333Y-83772380D01*
X147899428Y-83772380D01*
X148089904Y-83820000D01*
X148185142Y-83867619D01*
X148232761Y-83915238D01*
X148280380Y-84010476D01*
X148280380Y-84105714D01*
X148232761Y-84200952D01*
X148185142Y-84248571D01*
X148089904Y-84296190D01*
X147899428Y-84343809D01*
X147661333Y-84343809D01*
X147470857Y-84296190D01*
X147375619Y-84248571D01*
X147328000Y-84200952D01*
X147280380Y-84105714D01*
X148280380Y-82820000D02*
X148280380Y-83391428D01*
X148280380Y-83105714D02*
X147280380Y-83105714D01*
X147423238Y-83200952D01*
X147518476Y-83296190D01*
X147566095Y-83391428D01*
X147613714Y-82486666D02*
X148280380Y-82248571D01*
X147613714Y-82010476D01*
X147280380Y-81439047D02*
X147280380Y-81343809D01*
X147328000Y-81248571D01*
X147375619Y-81200952D01*
X147470857Y-81153333D01*
X147661333Y-81105714D01*
X147899428Y-81105714D01*
X148089904Y-81153333D01*
X148185142Y-81200952D01*
X148232761Y-81248571D01*
X148280380Y-81343809D01*
X148280380Y-81439047D01*
X148232761Y-81534285D01*
X148185142Y-81581904D01*
X148089904Y-81629523D01*
X147899428Y-81677142D01*
X147661333Y-81677142D01*
X147470857Y-81629523D01*
X147375619Y-81581904D01*
X147328000Y-81534285D01*
X147280380Y-81439047D01*
X148280380Y-80629523D02*
X148280380Y-80439047D01*
X148232761Y-80343809D01*
X148185142Y-80296190D01*
X148042285Y-80200952D01*
X147851809Y-80153333D01*
X147470857Y-80153333D01*
X147375619Y-80200952D01*
X147328000Y-80248571D01*
X147280380Y-80343809D01*
X147280380Y-80534285D01*
X147328000Y-80629523D01*
X147375619Y-80677142D01*
X147470857Y-80724761D01*
X147708952Y-80724761D01*
X147804190Y-80677142D01*
X147851809Y-80629523D01*
X147899428Y-80534285D01*
X147899428Y-80343809D01*
X147851809Y-80248571D01*
X147804190Y-80200952D01*
X147708952Y-80153333D01*
X147280380Y-79534285D02*
X147280380Y-79439047D01*
X147328000Y-79343809D01*
X147375619Y-79296190D01*
X147470857Y-79248571D01*
X147661333Y-79200952D01*
X147899428Y-79200952D01*
X148089904Y-79248571D01*
X148185142Y-79296190D01*
X148232761Y-79343809D01*
X148280380Y-79439047D01*
X148280380Y-79534285D01*
X148232761Y-79629523D01*
X148185142Y-79677142D01*
X148089904Y-79724761D01*
X147899428Y-79772380D01*
X147661333Y-79772380D01*
X147470857Y-79724761D01*
X147375619Y-79677142D01*
X147328000Y-79629523D01*
X147280380Y-79534285D01*
X63682571Y-74247333D02*
X63682571Y-74580666D01*
X64206380Y-74580666D02*
X63206380Y-74580666D01*
X63206380Y-74104476D01*
X64206380Y-73199714D02*
X64206380Y-73771142D01*
X64206380Y-73485428D02*
X63206380Y-73485428D01*
X63349238Y-73580666D01*
X63444476Y-73675904D01*
X63492095Y-73771142D01*
X112950666Y-92416380D02*
X112950666Y-93130666D01*
X112903047Y-93273523D01*
X112807809Y-93368761D01*
X112664952Y-93416380D01*
X112569714Y-93416380D01*
X113903047Y-92416380D02*
X113426857Y-92416380D01*
X113379238Y-92892571D01*
X113426857Y-92844952D01*
X113522095Y-92797333D01*
X113760190Y-92797333D01*
X113855428Y-92844952D01*
X113903047Y-92892571D01*
X113950666Y-92987809D01*
X113950666Y-93225904D01*
X113903047Y-93321142D01*
X113855428Y-93368761D01*
X113760190Y-93416380D01*
X113522095Y-93416380D01*
X113426857Y-93368761D01*
X113379238Y-93321142D01*
X96694666Y-92416380D02*
X96694666Y-93130666D01*
X96647047Y-93273523D01*
X96551809Y-93368761D01*
X96408952Y-93416380D01*
X96313714Y-93416380D01*
X97599428Y-92749714D02*
X97599428Y-93416380D01*
X97361333Y-92368761D02*
X97123238Y-93083047D01*
X97742285Y-93083047D01*
X121836842Y-57297283D02*
X121503509Y-56821093D01*
X121265413Y-57297283D02*
X121265413Y-56297283D01*
X121646366Y-56297283D01*
X121741604Y-56344903D01*
X121789223Y-56392522D01*
X121836842Y-56487760D01*
X121836842Y-56630617D01*
X121789223Y-56725855D01*
X121741604Y-56773474D01*
X121646366Y-56821093D01*
X121265413Y-56821093D01*
X122217794Y-56392522D02*
X122265413Y-56344903D01*
X122360651Y-56297283D01*
X122598747Y-56297283D01*
X122693985Y-56344903D01*
X122741604Y-56392522D01*
X122789223Y-56487760D01*
X122789223Y-56582998D01*
X122741604Y-56725855D01*
X122170175Y-57297283D01*
X122789223Y-57297283D01*
X120848380Y-54729047D02*
X120848380Y-55300476D01*
X120848380Y-55014761D02*
X119848380Y-55014761D01*
X119991238Y-55110000D01*
X120086476Y-55205238D01*
X120134095Y-55300476D01*
X120848380Y-54300476D02*
X119848380Y-54300476D01*
X120467428Y-54205238D02*
X120848380Y-53919523D01*
X120181714Y-53919523D02*
X120562666Y-54300476D01*
X145358380Y-85002666D02*
X144882190Y-85336000D01*
X145358380Y-85574095D02*
X144358380Y-85574095D01*
X144358380Y-85193142D01*
X144406000Y-85097904D01*
X144453619Y-85050285D01*
X144548857Y-85002666D01*
X144691714Y-85002666D01*
X144786952Y-85050285D01*
X144834571Y-85097904D01*
X144882190Y-85193142D01*
X144882190Y-85574095D01*
X144358380Y-84669333D02*
X144358380Y-84002666D01*
X145358380Y-84431238D01*
X141958380Y-84955047D02*
X141958380Y-85526476D01*
X141958380Y-85240761D02*
X140958380Y-85240761D01*
X141101238Y-85336000D01*
X141196476Y-85431238D01*
X141244095Y-85526476D01*
X141958380Y-84526476D02*
X140958380Y-84526476D01*
X141577428Y-84431238D02*
X141958380Y-84145523D01*
X141291714Y-84145523D02*
X141672666Y-84526476D01*
X140786380Y-89574666D02*
X140310190Y-89908000D01*
X140786380Y-90146095D02*
X139786380Y-90146095D01*
X139786380Y-89765142D01*
X139834000Y-89669904D01*
X139881619Y-89622285D01*
X139976857Y-89574666D01*
X140119714Y-89574666D01*
X140214952Y-89622285D01*
X140262571Y-89669904D01*
X140310190Y-89765142D01*
X140310190Y-90146095D01*
X139786380Y-88717523D02*
X139786380Y-88908000D01*
X139834000Y-89003238D01*
X139881619Y-89050857D01*
X140024476Y-89146095D01*
X140214952Y-89193714D01*
X140595904Y-89193714D01*
X140691142Y-89146095D01*
X140738761Y-89098476D01*
X140786380Y-89003238D01*
X140786380Y-88812761D01*
X140738761Y-88717523D01*
X140691142Y-88669904D01*
X140595904Y-88622285D01*
X140357809Y-88622285D01*
X140262571Y-88669904D01*
X140214952Y-88717523D01*
X140167333Y-88812761D01*
X140167333Y-89003238D01*
X140214952Y-89098476D01*
X140262571Y-89146095D01*
X140357809Y-89193714D01*
X137386380Y-90003238D02*
X137386380Y-90574666D01*
X137386380Y-90288952D02*
X136386380Y-90288952D01*
X136529238Y-90384190D01*
X136624476Y-90479428D01*
X136672095Y-90574666D01*
X136386380Y-89384190D02*
X136386380Y-89288952D01*
X136434000Y-89193714D01*
X136481619Y-89146095D01*
X136576857Y-89098476D01*
X136767333Y-89050857D01*
X137005428Y-89050857D01*
X137195904Y-89098476D01*
X137291142Y-89146095D01*
X137338761Y-89193714D01*
X137386380Y-89288952D01*
X137386380Y-89384190D01*
X137338761Y-89479428D01*
X137291142Y-89527047D01*
X137195904Y-89574666D01*
X137005428Y-89622285D01*
X136767333Y-89622285D01*
X136576857Y-89574666D01*
X136481619Y-89527047D01*
X136434000Y-89479428D01*
X136386380Y-89384190D01*
X137386380Y-88622285D02*
X136386380Y-88622285D01*
X137005428Y-88527047D02*
X137386380Y-88241333D01*
X136719714Y-88241333D02*
X137100666Y-88622285D01*
X145232380Y-79922666D02*
X144756190Y-80256000D01*
X145232380Y-80494095D02*
X144232380Y-80494095D01*
X144232380Y-80113142D01*
X144280000Y-80017904D01*
X144327619Y-79970285D01*
X144422857Y-79922666D01*
X144565714Y-79922666D01*
X144660952Y-79970285D01*
X144708571Y-80017904D01*
X144756190Y-80113142D01*
X144756190Y-80494095D01*
X144232380Y-79017904D02*
X144232380Y-79494095D01*
X144708571Y-79541714D01*
X144660952Y-79494095D01*
X144613333Y-79398857D01*
X144613333Y-79160761D01*
X144660952Y-79065523D01*
X144708571Y-79017904D01*
X144803809Y-78970285D01*
X145041904Y-78970285D01*
X145137142Y-79017904D01*
X145184761Y-79065523D01*
X145232380Y-79160761D01*
X145232380Y-79398857D01*
X145184761Y-79494095D01*
X145137142Y-79541714D01*
X142184380Y-80351238D02*
X142184380Y-80922666D01*
X142184380Y-80636952D02*
X141184380Y-80636952D01*
X141327238Y-80732190D01*
X141422476Y-80827428D01*
X141470095Y-80922666D01*
X141184380Y-79732190D02*
X141184380Y-79636952D01*
X141232000Y-79541714D01*
X141279619Y-79494095D01*
X141374857Y-79446476D01*
X141565333Y-79398857D01*
X141803428Y-79398857D01*
X141993904Y-79446476D01*
X142089142Y-79494095D01*
X142136761Y-79541714D01*
X142184380Y-79636952D01*
X142184380Y-79732190D01*
X142136761Y-79827428D01*
X142089142Y-79875047D01*
X141993904Y-79922666D01*
X141803428Y-79970285D01*
X141565333Y-79970285D01*
X141374857Y-79922666D01*
X141279619Y-79875047D01*
X141232000Y-79827428D01*
X141184380Y-79732190D01*
X142184380Y-78970285D02*
X141184380Y-78970285D01*
X141803428Y-78875047D02*
X142184380Y-78589333D01*
X141517714Y-78589333D02*
X141898666Y-78970285D01*
X126944380Y-63158666D02*
X126468190Y-63492000D01*
X126944380Y-63730095D02*
X125944380Y-63730095D01*
X125944380Y-63349142D01*
X125992000Y-63253904D01*
X126039619Y-63206285D01*
X126134857Y-63158666D01*
X126277714Y-63158666D01*
X126372952Y-63206285D01*
X126420571Y-63253904D01*
X126468190Y-63349142D01*
X126468190Y-63730095D01*
X126277714Y-62301523D02*
X126944380Y-62301523D01*
X125896761Y-62539619D02*
X126611047Y-62777714D01*
X126611047Y-62158666D01*
X123769523Y-61027714D02*
X123769523Y-61694380D01*
X123531428Y-60646761D02*
X123293333Y-61361047D01*
X123912380Y-61361047D01*
X124293333Y-61694380D02*
X124293333Y-60694380D01*
X124388571Y-61313428D02*
X124674285Y-61694380D01*
X124674285Y-61027714D02*
X124293333Y-61408666D01*
X125007619Y-60694380D02*
X125674285Y-60694380D01*
X125245714Y-61694380D01*
X109136842Y-57231283D02*
X108803509Y-56755093D01*
X108565413Y-57231283D02*
X108565413Y-56231283D01*
X108946366Y-56231283D01*
X109041604Y-56278903D01*
X109089223Y-56326522D01*
X109136842Y-56421760D01*
X109136842Y-56564617D01*
X109089223Y-56659855D01*
X109041604Y-56707474D01*
X108946366Y-56755093D01*
X108565413Y-56755093D01*
X110089223Y-57231283D02*
X109517794Y-57231283D01*
X109803509Y-57231283D02*
X109803509Y-56231283D01*
X109708270Y-56374141D01*
X109613032Y-56469379D01*
X109517794Y-56516998D01*
X108148380Y-54729047D02*
X108148380Y-55300476D01*
X108148380Y-55014761D02*
X107148380Y-55014761D01*
X107291238Y-55110000D01*
X107386476Y-55205238D01*
X107434095Y-55300476D01*
X108148380Y-54300476D02*
X107148380Y-54300476D01*
X107767428Y-54205238D02*
X108148380Y-53919523D01*
X107481714Y-53919523D02*
X107862666Y-54300476D01*
X145232380Y-89574666D02*
X144756190Y-89908000D01*
X145232380Y-90146095D02*
X144232380Y-90146095D01*
X144232380Y-89765142D01*
X144280000Y-89669904D01*
X144327619Y-89622285D01*
X144422857Y-89574666D01*
X144565714Y-89574666D01*
X144660952Y-89622285D01*
X144708571Y-89669904D01*
X144756190Y-89765142D01*
X144756190Y-90146095D01*
X144660952Y-89003238D02*
X144613333Y-89098476D01*
X144565714Y-89146095D01*
X144470476Y-89193714D01*
X144422857Y-89193714D01*
X144327619Y-89146095D01*
X144280000Y-89098476D01*
X144232380Y-89003238D01*
X144232380Y-88812761D01*
X144280000Y-88717523D01*
X144327619Y-88669904D01*
X144422857Y-88622285D01*
X144470476Y-88622285D01*
X144565714Y-88669904D01*
X144613333Y-88717523D01*
X144660952Y-88812761D01*
X144660952Y-89003238D01*
X144708571Y-89098476D01*
X144756190Y-89146095D01*
X144851428Y-89193714D01*
X145041904Y-89193714D01*
X145137142Y-89146095D01*
X145184761Y-89098476D01*
X145232380Y-89003238D01*
X145232380Y-88812761D01*
X145184761Y-88717523D01*
X145137142Y-88669904D01*
X145041904Y-88622285D01*
X144851428Y-88622285D01*
X144756190Y-88669904D01*
X144708571Y-88717523D01*
X144660952Y-88812761D01*
X142184380Y-90003238D02*
X142184380Y-90574666D01*
X142184380Y-90288952D02*
X141184380Y-90288952D01*
X141327238Y-90384190D01*
X141422476Y-90479428D01*
X141470095Y-90574666D01*
X142184380Y-89574666D02*
X141184380Y-89574666D01*
X141803428Y-89479428D02*
X142184380Y-89193714D01*
X141517714Y-89193714D02*
X141898666Y-89574666D01*
X141612952Y-88622285D02*
X141565333Y-88717523D01*
X141517714Y-88765142D01*
X141422476Y-88812761D01*
X141374857Y-88812761D01*
X141279619Y-88765142D01*
X141232000Y-88717523D01*
X141184380Y-88622285D01*
X141184380Y-88431809D01*
X141232000Y-88336571D01*
X141279619Y-88288952D01*
X141374857Y-88241333D01*
X141422476Y-88241333D01*
X141517714Y-88288952D01*
X141565333Y-88336571D01*
X141612952Y-88431809D01*
X141612952Y-88622285D01*
X141660571Y-88717523D01*
X141708190Y-88765142D01*
X141803428Y-88812761D01*
X141993904Y-88812761D01*
X142089142Y-88765142D01*
X142136761Y-88717523D01*
X142184380Y-88622285D01*
X142184380Y-88431809D01*
X142136761Y-88336571D01*
X142089142Y-88288952D01*
X141993904Y-88241333D01*
X141803428Y-88241333D01*
X141708190Y-88288952D01*
X141660571Y-88336571D01*
X141612952Y-88431809D01*
X135706380Y-89574666D02*
X135230190Y-89908000D01*
X135706380Y-90146095D02*
X134706380Y-90146095D01*
X134706380Y-89765142D01*
X134754000Y-89669904D01*
X134801619Y-89622285D01*
X134896857Y-89574666D01*
X135039714Y-89574666D01*
X135134952Y-89622285D01*
X135182571Y-89669904D01*
X135230190Y-89765142D01*
X135230190Y-90146095D01*
X135706380Y-89098476D02*
X135706380Y-88908000D01*
X135658761Y-88812761D01*
X135611142Y-88765142D01*
X135468285Y-88669904D01*
X135277809Y-88622285D01*
X134896857Y-88622285D01*
X134801619Y-88669904D01*
X134754000Y-88717523D01*
X134706380Y-88812761D01*
X134706380Y-89003238D01*
X134754000Y-89098476D01*
X134801619Y-89146095D01*
X134896857Y-89193714D01*
X135134952Y-89193714D01*
X135230190Y-89146095D01*
X135277809Y-89098476D01*
X135325428Y-89003238D01*
X135325428Y-88812761D01*
X135277809Y-88717523D01*
X135230190Y-88669904D01*
X135134952Y-88622285D01*
X131401619Y-91146095D02*
X131354000Y-91098476D01*
X131306380Y-91003238D01*
X131306380Y-90765142D01*
X131354000Y-90669904D01*
X131401619Y-90622285D01*
X131496857Y-90574666D01*
X131592095Y-90574666D01*
X131734952Y-90622285D01*
X132306380Y-91193714D01*
X132306380Y-90574666D01*
X131401619Y-90193714D02*
X131354000Y-90146095D01*
X131306380Y-90050857D01*
X131306380Y-89812761D01*
X131354000Y-89717523D01*
X131401619Y-89669904D01*
X131496857Y-89622285D01*
X131592095Y-89622285D01*
X131734952Y-89669904D01*
X132306380Y-90241333D01*
X132306380Y-89622285D01*
X131306380Y-89003238D02*
X131306380Y-88908000D01*
X131354000Y-88812761D01*
X131401619Y-88765142D01*
X131496857Y-88717523D01*
X131687333Y-88669904D01*
X131925428Y-88669904D01*
X132115904Y-88717523D01*
X132211142Y-88765142D01*
X132258761Y-88812761D01*
X132306380Y-88908000D01*
X132306380Y-89003238D01*
X132258761Y-89098476D01*
X132211142Y-89146095D01*
X132115904Y-89193714D01*
X131925428Y-89241333D01*
X131687333Y-89241333D01*
X131496857Y-89193714D01*
X131401619Y-89146095D01*
X131354000Y-89098476D01*
X131306380Y-89003238D01*
X132306380Y-87669904D02*
X131830190Y-88003238D01*
X132306380Y-88241333D02*
X131306380Y-88241333D01*
X131306380Y-87860380D01*
X131354000Y-87765142D01*
X131401619Y-87717523D01*
X131496857Y-87669904D01*
X131639714Y-87669904D01*
X131734952Y-87717523D01*
X131782571Y-87765142D01*
X131830190Y-87860380D01*
X131830190Y-88241333D01*
X126944380Y-66206666D02*
X126468190Y-66540000D01*
X126944380Y-66778095D02*
X125944380Y-66778095D01*
X125944380Y-66397142D01*
X125992000Y-66301904D01*
X126039619Y-66254285D01*
X126134857Y-66206666D01*
X126277714Y-66206666D01*
X126372952Y-66254285D01*
X126420571Y-66301904D01*
X126468190Y-66397142D01*
X126468190Y-66778095D01*
X125944380Y-65873333D02*
X125944380Y-65254285D01*
X126325333Y-65587619D01*
X126325333Y-65444761D01*
X126372952Y-65349523D01*
X126420571Y-65301904D01*
X126515809Y-65254285D01*
X126753904Y-65254285D01*
X126849142Y-65301904D01*
X126896761Y-65349523D01*
X126944380Y-65444761D01*
X126944380Y-65730476D01*
X126896761Y-65825714D01*
X126849142Y-65873333D01*
X123769523Y-67857714D02*
X123769523Y-68524380D01*
X123531428Y-67476761D02*
X123293333Y-68191047D01*
X123912380Y-68191047D01*
X124293333Y-68524380D02*
X124293333Y-67524380D01*
X124388571Y-68143428D02*
X124674285Y-68524380D01*
X124674285Y-67857714D02*
X124293333Y-68238666D01*
X125007619Y-67524380D02*
X125674285Y-67524380D01*
X125245714Y-68524380D01*
X116407252Y-57494716D02*
X116312014Y-57447097D01*
X116216776Y-57351858D01*
X116073919Y-57209001D01*
X115978681Y-57161382D01*
X115883443Y-57161382D01*
X115931062Y-57399477D02*
X115835824Y-57351858D01*
X115740586Y-57256620D01*
X115692967Y-57066144D01*
X115692967Y-56732811D01*
X115740586Y-56542335D01*
X115835824Y-56447097D01*
X115931062Y-56399477D01*
X116121538Y-56399477D01*
X116216776Y-56447097D01*
X116312014Y-56542335D01*
X116359633Y-56732811D01*
X116359633Y-57066144D01*
X116312014Y-57256620D01*
X116216776Y-57351858D01*
X116121538Y-57399477D01*
X115931062Y-57399477D01*
X116740586Y-56494716D02*
X116788205Y-56447097D01*
X116883443Y-56399477D01*
X117121538Y-56399477D01*
X117216776Y-56447097D01*
X117264395Y-56494716D01*
X117312014Y-56589954D01*
X117312014Y-56685192D01*
X117264395Y-56828049D01*
X116692967Y-57399477D01*
X117312014Y-57399477D01*
X112998571Y-58459333D02*
X113046190Y-58316476D01*
X113093809Y-58268857D01*
X113189047Y-58221238D01*
X113331904Y-58221238D01*
X113427142Y-58268857D01*
X113474761Y-58316476D01*
X113522380Y-58411714D01*
X113522380Y-58792666D01*
X112522380Y-58792666D01*
X112522380Y-58459333D01*
X112570000Y-58364095D01*
X112617619Y-58316476D01*
X112712857Y-58268857D01*
X112808095Y-58268857D01*
X112903333Y-58316476D01*
X112950952Y-58364095D01*
X112998571Y-58459333D01*
X112998571Y-58792666D01*
X113427142Y-57221238D02*
X113474761Y-57268857D01*
X113522380Y-57411714D01*
X113522380Y-57506952D01*
X113474761Y-57649809D01*
X113379523Y-57745047D01*
X113284285Y-57792666D01*
X113093809Y-57840285D01*
X112950952Y-57840285D01*
X112760476Y-57792666D01*
X112665238Y-57745047D01*
X112570000Y-57649809D01*
X112522380Y-57506952D01*
X112522380Y-57411714D01*
X112570000Y-57268857D01*
X112617619Y-57221238D01*
X112950952Y-56649809D02*
X112903333Y-56745047D01*
X112855714Y-56792666D01*
X112760476Y-56840285D01*
X112712857Y-56840285D01*
X112617619Y-56792666D01*
X112570000Y-56745047D01*
X112522380Y-56649809D01*
X112522380Y-56459333D01*
X112570000Y-56364095D01*
X112617619Y-56316476D01*
X112712857Y-56268857D01*
X112760476Y-56268857D01*
X112855714Y-56316476D01*
X112903333Y-56364095D01*
X112950952Y-56459333D01*
X112950952Y-56649809D01*
X112998571Y-56745047D01*
X113046190Y-56792666D01*
X113141428Y-56840285D01*
X113331904Y-56840285D01*
X113427142Y-56792666D01*
X113474761Y-56745047D01*
X113522380Y-56649809D01*
X113522380Y-56459333D01*
X113474761Y-56364095D01*
X113427142Y-56316476D01*
X113331904Y-56268857D01*
X113141428Y-56268857D01*
X113046190Y-56316476D01*
X112998571Y-56364095D01*
X112950952Y-56459333D01*
X112855714Y-55411714D02*
X113522380Y-55411714D01*
X112474761Y-55649809D02*
X113189047Y-55887904D01*
X113189047Y-55268857D01*
X112522380Y-54459333D02*
X112522380Y-54649809D01*
X112570000Y-54745047D01*
X112617619Y-54792666D01*
X112760476Y-54887904D01*
X112950952Y-54935523D01*
X113331904Y-54935523D01*
X113427142Y-54887904D01*
X113474761Y-54840285D01*
X113522380Y-54745047D01*
X113522380Y-54554571D01*
X113474761Y-54459333D01*
X113427142Y-54411714D01*
X113331904Y-54364095D01*
X113093809Y-54364095D01*
X112998571Y-54411714D01*
X112950952Y-54459333D01*
X112903333Y-54554571D01*
X112903333Y-54745047D01*
X112950952Y-54840285D01*
X112998571Y-54887904D01*
X113093809Y-54935523D01*
X112998571Y-53602190D02*
X113046190Y-53459333D01*
X113093809Y-53411714D01*
X113189047Y-53364095D01*
X113331904Y-53364095D01*
X113427142Y-53411714D01*
X113474761Y-53459333D01*
X113522380Y-53554571D01*
X113522380Y-53935523D01*
X112522380Y-53935523D01*
X112522380Y-53602190D01*
X112570000Y-53506952D01*
X112617619Y-53459333D01*
X112712857Y-53411714D01*
X112808095Y-53411714D01*
X112903333Y-53459333D01*
X112950952Y-53506952D01*
X112998571Y-53602190D01*
X112998571Y-53935523D01*
X113474761Y-52983142D02*
X113522380Y-52840285D01*
X113522380Y-52602190D01*
X113474761Y-52506952D01*
X113427142Y-52459333D01*
X113331904Y-52411714D01*
X113236666Y-52411714D01*
X113141428Y-52459333D01*
X113093809Y-52506952D01*
X113046190Y-52602190D01*
X112998571Y-52792666D01*
X112950952Y-52887904D01*
X112903333Y-52935523D01*
X112808095Y-52983142D01*
X112712857Y-52983142D01*
X112617619Y-52935523D01*
X112570000Y-52887904D01*
X112522380Y-52792666D01*
X112522380Y-52554571D01*
X112570000Y-52411714D01*
X102691252Y-52922716D02*
X102596014Y-52875097D01*
X102500776Y-52779858D01*
X102357919Y-52637001D01*
X102262681Y-52589382D01*
X102167443Y-52589382D01*
X102215062Y-52827477D02*
X102119824Y-52779858D01*
X102024586Y-52684620D01*
X101976967Y-52494144D01*
X101976967Y-52160811D01*
X102024586Y-51970335D01*
X102119824Y-51875097D01*
X102215062Y-51827477D01*
X102405538Y-51827477D01*
X102500776Y-51875097D01*
X102596014Y-51970335D01*
X102643633Y-52160811D01*
X102643633Y-52494144D01*
X102596014Y-52684620D01*
X102500776Y-52779858D01*
X102405538Y-52827477D01*
X102215062Y-52827477D01*
X103596014Y-52827477D02*
X103024586Y-52827477D01*
X103310300Y-52827477D02*
X103310300Y-51827477D01*
X103215062Y-51970335D01*
X103119824Y-52065573D01*
X103024586Y-52113192D01*
X100298571Y-57443333D02*
X100346190Y-57300476D01*
X100393809Y-57252857D01*
X100489047Y-57205238D01*
X100631904Y-57205238D01*
X100727142Y-57252857D01*
X100774761Y-57300476D01*
X100822380Y-57395714D01*
X100822380Y-57776666D01*
X99822380Y-57776666D01*
X99822380Y-57443333D01*
X99870000Y-57348095D01*
X99917619Y-57300476D01*
X100012857Y-57252857D01*
X100108095Y-57252857D01*
X100203333Y-57300476D01*
X100250952Y-57348095D01*
X100298571Y-57443333D01*
X100298571Y-57776666D01*
X100727142Y-56205238D02*
X100774761Y-56252857D01*
X100822380Y-56395714D01*
X100822380Y-56490952D01*
X100774761Y-56633809D01*
X100679523Y-56729047D01*
X100584285Y-56776666D01*
X100393809Y-56824285D01*
X100250952Y-56824285D01*
X100060476Y-56776666D01*
X99965238Y-56729047D01*
X99870000Y-56633809D01*
X99822380Y-56490952D01*
X99822380Y-56395714D01*
X99870000Y-56252857D01*
X99917619Y-56205238D01*
X100250952Y-55633809D02*
X100203333Y-55729047D01*
X100155714Y-55776666D01*
X100060476Y-55824285D01*
X100012857Y-55824285D01*
X99917619Y-55776666D01*
X99870000Y-55729047D01*
X99822380Y-55633809D01*
X99822380Y-55443333D01*
X99870000Y-55348095D01*
X99917619Y-55300476D01*
X100012857Y-55252857D01*
X100060476Y-55252857D01*
X100155714Y-55300476D01*
X100203333Y-55348095D01*
X100250952Y-55443333D01*
X100250952Y-55633809D01*
X100298571Y-55729047D01*
X100346190Y-55776666D01*
X100441428Y-55824285D01*
X100631904Y-55824285D01*
X100727142Y-55776666D01*
X100774761Y-55729047D01*
X100822380Y-55633809D01*
X100822380Y-55443333D01*
X100774761Y-55348095D01*
X100727142Y-55300476D01*
X100631904Y-55252857D01*
X100441428Y-55252857D01*
X100346190Y-55300476D01*
X100298571Y-55348095D01*
X100250952Y-55443333D01*
X100155714Y-54395714D02*
X100822380Y-54395714D01*
X99774761Y-54633809D02*
X100489047Y-54871904D01*
X100489047Y-54252857D01*
X99822380Y-53443333D02*
X99822380Y-53633809D01*
X99870000Y-53729047D01*
X99917619Y-53776666D01*
X100060476Y-53871904D01*
X100250952Y-53919523D01*
X100631904Y-53919523D01*
X100727142Y-53871904D01*
X100774761Y-53824285D01*
X100822380Y-53729047D01*
X100822380Y-53538571D01*
X100774761Y-53443333D01*
X100727142Y-53395714D01*
X100631904Y-53348095D01*
X100393809Y-53348095D01*
X100298571Y-53395714D01*
X100250952Y-53443333D01*
X100203333Y-53538571D01*
X100203333Y-53729047D01*
X100250952Y-53824285D01*
X100298571Y-53871904D01*
X100393809Y-53919523D01*
X100298571Y-52586190D02*
X100346190Y-52443333D01*
X100393809Y-52395714D01*
X100489047Y-52348095D01*
X100631904Y-52348095D01*
X100727142Y-52395714D01*
X100774761Y-52443333D01*
X100822380Y-52538571D01*
X100822380Y-52919523D01*
X99822380Y-52919523D01*
X99822380Y-52586190D01*
X99870000Y-52490952D01*
X99917619Y-52443333D01*
X100012857Y-52395714D01*
X100108095Y-52395714D01*
X100203333Y-52443333D01*
X100250952Y-52490952D01*
X100298571Y-52586190D01*
X100298571Y-52919523D01*
X100774761Y-51967142D02*
X100822380Y-51824285D01*
X100822380Y-51586190D01*
X100774761Y-51490952D01*
X100727142Y-51443333D01*
X100631904Y-51395714D01*
X100536666Y-51395714D01*
X100441428Y-51443333D01*
X100393809Y-51490952D01*
X100346190Y-51586190D01*
X100298571Y-51776666D01*
X100250952Y-51871904D01*
X100203333Y-51919523D01*
X100108095Y-51967142D01*
X100012857Y-51967142D01*
X99917619Y-51919523D01*
X99870000Y-51871904D01*
X99822380Y-51776666D01*
X99822380Y-51538571D01*
X99870000Y-51395714D01*
X52792380Y-52403333D02*
X53506666Y-52403333D01*
X53649523Y-52450952D01*
X53744761Y-52546190D01*
X53792380Y-52689047D01*
X53792380Y-52784285D01*
X53792380Y-51403333D02*
X53792380Y-51974761D01*
X53792380Y-51689047D02*
X52792380Y-51689047D01*
X52935238Y-51784285D01*
X53030476Y-51879523D01*
X53078095Y-51974761D01*
X53792380Y-60634380D02*
X53792380Y-61110571D01*
X52792380Y-61110571D01*
X53125714Y-59872476D02*
X53792380Y-59872476D01*
X53125714Y-60301047D02*
X53649523Y-60301047D01*
X53744761Y-60253428D01*
X53792380Y-60158190D01*
X53792380Y-60015333D01*
X53744761Y-59920095D01*
X53697142Y-59872476D01*
X52792380Y-60253428D02*
X52840000Y-60205809D01*
X52887619Y-60253428D01*
X52840000Y-60301047D01*
X52792380Y-60253428D01*
X52887619Y-60253428D01*
X52792380Y-59872476D02*
X52840000Y-59824857D01*
X52887619Y-59872476D01*
X52840000Y-59920095D01*
X52792380Y-59872476D01*
X52887619Y-59872476D01*
X53125714Y-59539142D02*
X53125714Y-59158190D01*
X53792380Y-59396285D02*
X52935238Y-59396285D01*
X52840000Y-59348666D01*
X52792380Y-59253428D01*
X52792380Y-59158190D01*
X53125714Y-58967714D02*
X53125714Y-58586761D01*
X52792380Y-58824857D02*
X53649523Y-58824857D01*
X53744761Y-58777238D01*
X53792380Y-58682000D01*
X53792380Y-58586761D01*
X53744761Y-57872476D02*
X53792380Y-57967714D01*
X53792380Y-58158190D01*
X53744761Y-58253428D01*
X53649523Y-58301047D01*
X53268571Y-58301047D01*
X53173333Y-58253428D01*
X53125714Y-58158190D01*
X53125714Y-57967714D01*
X53173333Y-57872476D01*
X53268571Y-57824857D01*
X53363809Y-57824857D01*
X53459047Y-58301047D01*
X53792380Y-57396285D02*
X53125714Y-57396285D01*
X53316190Y-57396285D02*
X53220952Y-57348666D01*
X53173333Y-57301047D01*
X53125714Y-57205809D01*
X53125714Y-57110571D01*
X52792380Y-66373333D02*
X53506666Y-66373333D01*
X53649523Y-66420952D01*
X53744761Y-66516190D01*
X53792380Y-66659047D01*
X53792380Y-66754285D01*
X52887619Y-65944761D02*
X52840000Y-65897142D01*
X52792380Y-65801904D01*
X52792380Y-65563809D01*
X52840000Y-65468571D01*
X52887619Y-65420952D01*
X52982857Y-65373333D01*
X53078095Y-65373333D01*
X53220952Y-65420952D01*
X53792380Y-65992380D01*
X53792380Y-65373333D01*
X53268571Y-78191809D02*
X53268571Y-77858476D01*
X53792380Y-77715619D02*
X53792380Y-78191809D01*
X52792380Y-78191809D01*
X52792380Y-77715619D01*
X53125714Y-77287047D02*
X53792380Y-77287047D01*
X53220952Y-77287047D02*
X53173333Y-77239428D01*
X53125714Y-77144190D01*
X53125714Y-77001333D01*
X53173333Y-76906095D01*
X53268571Y-76858476D01*
X53792380Y-76858476D01*
X53125714Y-76525142D02*
X53125714Y-76144190D01*
X52792380Y-76382285D02*
X53649523Y-76382285D01*
X53744761Y-76334666D01*
X53792380Y-76239428D01*
X53792380Y-76144190D01*
X53125714Y-75953714D02*
X53125714Y-75572761D01*
X53792380Y-75810857D02*
X52935238Y-75810857D01*
X52840000Y-75763238D01*
X52792380Y-75668000D01*
X52792380Y-75572761D01*
X53744761Y-74858476D02*
X53792380Y-74953714D01*
X53792380Y-75144190D01*
X53744761Y-75239428D01*
X53649523Y-75287047D01*
X53268571Y-75287047D01*
X53173333Y-75239428D01*
X53125714Y-75144190D01*
X53125714Y-74953714D01*
X53173333Y-74858476D01*
X53268571Y-74810857D01*
X53363809Y-74810857D01*
X53459047Y-75287047D01*
X53125714Y-73953714D02*
X53792380Y-73953714D01*
X53125714Y-74382285D02*
X53649523Y-74382285D01*
X53744761Y-74334666D01*
X53792380Y-74239428D01*
X53792380Y-74096571D01*
X53744761Y-74001333D01*
X53697142Y-73953714D01*
X53744761Y-73048952D02*
X53792380Y-73144190D01*
X53792380Y-73334666D01*
X53744761Y-73429904D01*
X53697142Y-73477523D01*
X53601904Y-73525142D01*
X53316190Y-73525142D01*
X53220952Y-73477523D01*
X53173333Y-73429904D01*
X53125714Y-73334666D01*
X53125714Y-73144190D01*
X53173333Y-73048952D01*
X53792380Y-72620380D02*
X52792380Y-72620380D01*
X53792380Y-72191809D02*
X53268571Y-72191809D01*
X53173333Y-72239428D01*
X53125714Y-72334666D01*
X53125714Y-72477523D01*
X53173333Y-72572761D01*
X53220952Y-72620380D01*
X53125714Y-71858476D02*
X53125714Y-71477523D01*
X52792380Y-71715619D02*
X53649523Y-71715619D01*
X53744761Y-71668000D01*
X53792380Y-71572761D01*
X53792380Y-71477523D01*
X53744761Y-70763238D02*
X53792380Y-70858476D01*
X53792380Y-71048952D01*
X53744761Y-71144190D01*
X53649523Y-71191809D01*
X53268571Y-71191809D01*
X53173333Y-71144190D01*
X53125714Y-71048952D01*
X53125714Y-70858476D01*
X53173333Y-70763238D01*
X53268571Y-70715619D01*
X53363809Y-70715619D01*
X53459047Y-71191809D01*
X53792380Y-70287047D02*
X53125714Y-70287047D01*
X53316190Y-70287047D02*
X53220952Y-70239428D01*
X53173333Y-70191809D01*
X53125714Y-70096571D01*
X53125714Y-70001333D01*
X65198666Y-91908380D02*
X65198666Y-92622666D01*
X65151047Y-92765523D01*
X65055809Y-92860761D01*
X64912952Y-92908380D01*
X64817714Y-92908380D01*
X65579619Y-91908380D02*
X66198666Y-91908380D01*
X65865333Y-92289333D01*
X66008190Y-92289333D01*
X66103428Y-92336952D01*
X66151047Y-92384571D01*
X66198666Y-92479809D01*
X66198666Y-92717904D01*
X66151047Y-92813142D01*
X66103428Y-92860761D01*
X66008190Y-92908380D01*
X65722476Y-92908380D01*
X65627238Y-92860761D01*
X65579619Y-92813142D01*
X61872380Y-56435238D02*
X61396190Y-56768571D01*
X61872380Y-57006666D02*
X60872380Y-57006666D01*
X60872380Y-56625714D01*
X60920000Y-56530476D01*
X60967619Y-56482857D01*
X61062857Y-56435238D01*
X61205714Y-56435238D01*
X61300952Y-56482857D01*
X61348571Y-56530476D01*
X61396190Y-56625714D01*
X61396190Y-57006666D01*
X60872380Y-56149523D02*
X61872380Y-55816190D01*
X60872380Y-55482857D01*
X60872380Y-55244761D02*
X60872380Y-54625714D01*
X61253333Y-54959047D01*
X61253333Y-54816190D01*
X61300952Y-54720952D01*
X61348571Y-54673333D01*
X61443809Y-54625714D01*
X61681904Y-54625714D01*
X61777142Y-54673333D01*
X61824761Y-54720952D01*
X61872380Y-54816190D01*
X61872380Y-55101904D01*
X61824761Y-55197142D01*
X61777142Y-55244761D01*
X66605714Y-57030476D02*
X67272380Y-57030476D01*
X66224761Y-57268571D02*
X66939047Y-57506666D01*
X66939047Y-56887619D01*
X66367619Y-56554285D02*
X66320000Y-56506666D01*
X66272380Y-56411428D01*
X66272380Y-56173333D01*
X66320000Y-56078095D01*
X66367619Y-56030476D01*
X66462857Y-55982857D01*
X66558095Y-55982857D01*
X66700952Y-56030476D01*
X67272380Y-56601904D01*
X67272380Y-55982857D01*
X66272380Y-55363809D02*
X66272380Y-55268571D01*
X66320000Y-55173333D01*
X66367619Y-55125714D01*
X66462857Y-55078095D01*
X66653333Y-55030476D01*
X66891428Y-55030476D01*
X67081904Y-55078095D01*
X67177142Y-55125714D01*
X67224761Y-55173333D01*
X67272380Y-55268571D01*
X67272380Y-55363809D01*
X67224761Y-55459047D01*
X67177142Y-55506666D01*
X67081904Y-55554285D01*
X66891428Y-55601904D01*
X66653333Y-55601904D01*
X66462857Y-55554285D01*
X66367619Y-55506666D01*
X66320000Y-55459047D01*
X66272380Y-55363809D01*
X66272380Y-54744761D02*
X67272380Y-54411428D01*
X66272380Y-54078095D01*
X61872380Y-47545238D02*
X61396190Y-47878571D01*
X61872380Y-48116666D02*
X60872380Y-48116666D01*
X60872380Y-47735714D01*
X60920000Y-47640476D01*
X60967619Y-47592857D01*
X61062857Y-47545238D01*
X61205714Y-47545238D01*
X61300952Y-47592857D01*
X61348571Y-47640476D01*
X61396190Y-47735714D01*
X61396190Y-48116666D01*
X60872380Y-47259523D02*
X61872380Y-46926190D01*
X60872380Y-46592857D01*
X60967619Y-46307142D02*
X60920000Y-46259523D01*
X60872380Y-46164285D01*
X60872380Y-45926190D01*
X60920000Y-45830952D01*
X60967619Y-45783333D01*
X61062857Y-45735714D01*
X61158095Y-45735714D01*
X61300952Y-45783333D01*
X61872380Y-46354761D01*
X61872380Y-45735714D01*
X66605714Y-48140476D02*
X67272380Y-48140476D01*
X66224761Y-48378571D02*
X66939047Y-48616666D01*
X66939047Y-47997619D01*
X66367619Y-47664285D02*
X66320000Y-47616666D01*
X66272380Y-47521428D01*
X66272380Y-47283333D01*
X66320000Y-47188095D01*
X66367619Y-47140476D01*
X66462857Y-47092857D01*
X66558095Y-47092857D01*
X66700952Y-47140476D01*
X67272380Y-47711904D01*
X67272380Y-47092857D01*
X66272380Y-46473809D02*
X66272380Y-46378571D01*
X66320000Y-46283333D01*
X66367619Y-46235714D01*
X66462857Y-46188095D01*
X66653333Y-46140476D01*
X66891428Y-46140476D01*
X67081904Y-46188095D01*
X67177142Y-46235714D01*
X67224761Y-46283333D01*
X67272380Y-46378571D01*
X67272380Y-46473809D01*
X67224761Y-46569047D01*
X67177142Y-46616666D01*
X67081904Y-46664285D01*
X66891428Y-46711904D01*
X66653333Y-46711904D01*
X66462857Y-46664285D01*
X66367619Y-46616666D01*
X66320000Y-46569047D01*
X66272380Y-46473809D01*
X66272380Y-45854761D02*
X67272380Y-45521428D01*
X66272380Y-45188095D01*
M02*
