G04 #@! TF.GenerationSoftware,KiCad,Pcbnew,(2018-02-09 revision dba198e57)-makepkg*
G04 #@! TF.CreationDate,2018-02-17T15:50:05+01:00*
G04 #@! TF.ProjectId,Kellerklima,4B656C6C65726B6C696D612E6B696361,rev?*
G04 #@! TF.SameCoordinates,Original*
G04 #@! TF.FileFunction,Soldermask,Top*
G04 #@! TF.FilePolarity,Negative*
%FSLAX46Y46*%
G04 Gerber Fmt 4.6, Leading zero omitted, Abs format (unit mm)*
G04 Created by KiCad (PCBNEW (2018-02-09 revision dba198e57)-makepkg) date 02/17/18 15:50:05*
%MOMM*%
%LPD*%
G01*
G04 APERTURE LIST*
%ADD10R,1.600000X1.600000*%
%ADD11R,1.700000X1.100000*%
%ADD12C,1.924000*%
%ADD13C,1.900000*%
%ADD14C,2.400000*%
%ADD15R,2.400000X2.400000*%
%ADD16R,1.900000X2.400000*%
%ADD17R,4.200000X2.400000*%
%ADD18C,3.400000*%
%ADD19O,2.200000X3.000000*%
%ADD20R,2.200000X3.000000*%
%ADD21O,2.000000X2.000000*%
%ADD22R,2.000000X2.000000*%
%ADD23C,1.840000*%
%ADD24R,1.000000X2.600000*%
%ADD25C,2.900000*%
%ADD26C,6.400000*%
%ADD27R,3.400000X3.400000*%
%ADD28O,2.100000X2.100000*%
%ADD29R,2.100000X2.100000*%
%ADD30C,1.600000*%
%ADD31R,1.400000X1.650000*%
%ADD32R,2.200000X2.900000*%
%ADD33R,2.127200X2.127200*%
%ADD34O,2.127200X2.127200*%
%ADD35O,2.900000X4.400000*%
%ADD36R,1.100000X1.700000*%
%ADD37R,1.200000X1.300000*%
%ADD38C,2.000000*%
G04 APERTURE END LIST*
D10*
X109812000Y-61468000D03*
X107612000Y-61468000D03*
X107612000Y-76708000D03*
X109812000Y-76708000D03*
D11*
X112268000Y-76266000D03*
X112268000Y-78166000D03*
X112268000Y-62926000D03*
X112268000Y-61026000D03*
D12*
X119126000Y-69596000D03*
X119126000Y-72136000D03*
D13*
X125349000Y-71755000D03*
X127889000Y-71755000D03*
X135763000Y-71755000D03*
X138303000Y-71755000D03*
D12*
X119126000Y-74676000D03*
X121666000Y-74676000D03*
X124206000Y-74676000D03*
X126746000Y-74676000D03*
X129286000Y-74676000D03*
X131826000Y-74676000D03*
X134366000Y-74676000D03*
X136906000Y-74676000D03*
X139446000Y-74676000D03*
X141986000Y-74676000D03*
X144526000Y-74676000D03*
X147066000Y-74676000D03*
X119126000Y-59436000D03*
X121666000Y-59436000D03*
X124206000Y-59436000D03*
X126746000Y-59436000D03*
X129286000Y-59436000D03*
X131826000Y-59436000D03*
X134366000Y-59436000D03*
X136906000Y-59436000D03*
X139446000Y-59436000D03*
X141986000Y-59436000D03*
X144526000Y-59436000D03*
X147066000Y-59436000D03*
D14*
X138410000Y-38100000D03*
D15*
X130810000Y-38100000D03*
D16*
X133844000Y-85446000D03*
X138444000Y-85446000D03*
X136144000Y-85446000D03*
D17*
X136144000Y-79146000D03*
D18*
X146716000Y-23368000D03*
X146715480Y-54368700D03*
X71716900Y-54368700D03*
X71716900Y-23368000D03*
D19*
X115316000Y-23368000D03*
X112776000Y-23368000D03*
X110236000Y-23368000D03*
X107696000Y-23368000D03*
X105156000Y-23368000D03*
X102616000Y-23368000D03*
X100076000Y-23368000D03*
X97536000Y-23368000D03*
X94996000Y-23368000D03*
X92456000Y-23368000D03*
X89916000Y-23368000D03*
X87376000Y-23368000D03*
X84836000Y-23368000D03*
X82296000Y-23368000D03*
X79756000Y-23368000D03*
D20*
X77216000Y-23368000D03*
D21*
X85344000Y-98552000D03*
D22*
X85344000Y-90932000D03*
D23*
X65024000Y-30988000D03*
X65024000Y-33528000D03*
X65024000Y-36068000D03*
D11*
X81788000Y-93914000D03*
X81788000Y-92014000D03*
X81788000Y-96078000D03*
X81788000Y-97978000D03*
D24*
X89789000Y-97327432D03*
X89789000Y-91927432D03*
X88519000Y-97327432D03*
X91059000Y-97327432D03*
X92329000Y-97327432D03*
X88519000Y-91927432D03*
X91059000Y-91927432D03*
X92329000Y-91927432D03*
D18*
X102870000Y-86360000D03*
X102870000Y-78740000D03*
X82550000Y-86360000D03*
X77550000Y-78740000D03*
X87550000Y-78740000D03*
X87550000Y-86360000D03*
X82550000Y-78740000D03*
X77550000Y-86360000D03*
X77550000Y-71120000D03*
X82550000Y-63500000D03*
X87550000Y-71120000D03*
X87550000Y-63500000D03*
X77550000Y-63500000D03*
X82550000Y-71120000D03*
X102870000Y-63500000D03*
X102870000Y-71120000D03*
D25*
X75470000Y-36870000D03*
X75470000Y-41870000D03*
X104870000Y-31670000D03*
X104870000Y-47070000D03*
D26*
X146304000Y-96012000D03*
X140716000Y-23876000D03*
X54864000Y-23876000D03*
X54864000Y-96012000D03*
D18*
X55880000Y-83312000D03*
D27*
X55880000Y-88392000D03*
D28*
X140208000Y-95504000D03*
X137668000Y-95504000D03*
X135128000Y-95504000D03*
X132588000Y-95504000D03*
D29*
X130048000Y-95504000D03*
D10*
X118110000Y-88392000D03*
D30*
X116110000Y-88392000D03*
X116110000Y-80264000D03*
D10*
X118110000Y-80264000D03*
X128016000Y-92456000D03*
X125816000Y-92456000D03*
D31*
X143240000Y-70612000D03*
X141240000Y-70612000D03*
X147812000Y-67056000D03*
X145812000Y-67056000D03*
X147812000Y-70612000D03*
X145812000Y-70612000D03*
D32*
X107696000Y-84550000D03*
X107696000Y-80550000D03*
X107696000Y-65024000D03*
X107696000Y-69024000D03*
D33*
X126504633Y-80469818D03*
D34*
X129044633Y-80469818D03*
X126504633Y-83009818D03*
X129044633Y-83009818D03*
X126504633Y-85549818D03*
X129044633Y-85549818D03*
X126504633Y-88089818D03*
X129044633Y-88089818D03*
D35*
X67310000Y-85090000D03*
X67310000Y-63090000D03*
D29*
X123952000Y-95504000D03*
D28*
X121412000Y-95504000D03*
X118872000Y-95504000D03*
X116332000Y-95504000D03*
X113792000Y-95504000D03*
X97536000Y-95504000D03*
X100076000Y-95504000D03*
X102616000Y-95504000D03*
X105156000Y-95504000D03*
D29*
X107696000Y-95504000D03*
D11*
X121920000Y-53660000D03*
X121920000Y-55560000D03*
X143256000Y-83886000D03*
X143256000Y-85786000D03*
X138684000Y-90358000D03*
X138684000Y-88458000D03*
X143256000Y-80706000D03*
X143256000Y-78806000D03*
D36*
X125410000Y-62992000D03*
X123510000Y-62992000D03*
D11*
X109220000Y-53660000D03*
X109220000Y-55560000D03*
X143256000Y-88458000D03*
X143256000Y-90358000D03*
X133604000Y-88458000D03*
X133604000Y-90358000D03*
D36*
X125410000Y-66040000D03*
X123510000Y-66040000D03*
D37*
X115570000Y-55610000D03*
X114620000Y-53610000D03*
X116520000Y-53610000D03*
X103820000Y-53610000D03*
X101920000Y-53610000D03*
X102870000Y-55610000D03*
D18*
X55880000Y-49530000D03*
X55880000Y-54610000D03*
D27*
X55880000Y-59690000D03*
X55880000Y-76708000D03*
D18*
X55880000Y-71628000D03*
X55880000Y-66548000D03*
X62992000Y-94996000D03*
X68072000Y-94996000D03*
D27*
X73152000Y-94996000D03*
D38*
X64770000Y-53340000D03*
X63470000Y-58340000D03*
X63470000Y-49450000D03*
X64770000Y-44450000D03*
M02*
