M48
;DRILL file {KiCad (5.0.2)-1} date 28/02/2019 14:55:01
;FORMAT={-:-/ absolute / inch / decimal}
FMAT,2
INCH,TZ
T1C0.0157
T2C0.0236
T3C0.0300
T4C0.0315
T5C0.0394
T6C0.0400
T7C0.0472
T8C0.0512
T9C0.0591
T10C0.0598
T11C0.1181
%
G90
G05
T1
X2.4Y-2.04
X2.68Y-3.02
X2.96Y-2.06
X3.54Y-3.74
X3.58Y-3.7
X3.66Y-3.74
X3.94Y-3.36
X3.9402Y-3.5398
X4.Y-3.64
X4.3797Y-3.1397
X4.38Y-3.3
X4.5Y-3.5
X4.65Y-2.1
X4.74Y-2.48
X4.75Y-2.2
X4.8Y-3.62
X4.98Y-2.76
X5.04Y-2.6
X5.1Y-3.6
X5.1915Y-3.0992
X5.1915Y-3.5
X5.25Y-3.1
X5.3Y-3.3
X5.55Y-3.
X5.6Y-3.1
X5.65Y-3.6
T2
X4.5713Y-3.16
X4.65Y-3.16
X4.935Y-2.825
X5.035Y-2.825
X5.345Y-2.825
X5.445Y-2.825
X4.5713Y-3.48
X4.65Y-3.48
X2.4988Y-1.9469
X2.55Y-1.75
X2.4988Y-2.2969
X2.55Y-2.1
T3
X4.69Y-2.34
X4.69Y-2.74
X4.69Y-2.84
X4.69Y-2.94
X4.79Y-2.34
X4.79Y-2.94
X4.89Y-2.34
X4.89Y-2.94
X4.99Y-2.34
X4.99Y-2.94
X5.09Y-2.34
X5.09Y-2.94
X5.19Y-2.34
X5.19Y-2.94
X5.29Y-2.34
X5.29Y-2.94
X5.39Y-2.34
X5.39Y-2.94
X5.49Y-2.34
X5.49Y-2.94
X5.59Y-2.34
X5.59Y-2.94
X5.69Y-2.34
X5.69Y-2.94
X5.79Y-2.34
X5.79Y-2.94
T4
X2.56Y-1.22
X2.56Y-1.32
X2.56Y-1.42
X3.36Y-3.58
X3.36Y-3.88
T5
X3.84Y-3.76
X3.94Y-3.76
X4.04Y-3.76
X4.14Y-3.76
X4.24Y-3.76
X2.9713Y-1.4516
X2.9713Y-1.6484
X4.1287Y-1.2469
X4.1287Y-1.8531
X5.15Y-1.5
X5.4492Y-1.5
X4.48Y-3.76
X4.58Y-3.76
X4.68Y-3.76
X4.78Y-3.76
X4.88Y-3.76
X5.12Y-3.76
X5.22Y-3.76
X5.32Y-3.76
X5.42Y-3.76
X5.52Y-3.76
T6
X4.9805Y-3.1681
X4.9805Y-3.2681
X4.9805Y-3.3681
X4.9805Y-3.4681
X5.0805Y-3.1681
X5.0805Y-3.2681
X5.0805Y-3.3681
X5.0805Y-3.4681
T7
X3.04Y-0.92
X3.14Y-0.92
X3.24Y-0.92
X3.34Y-0.92
X3.44Y-0.92
X3.54Y-0.92
X3.64Y-0.92
X3.74Y-0.92
X3.84Y-0.92
X3.94Y-0.92
X4.04Y-0.92
X4.14Y-0.92
X4.24Y-0.92
X4.34Y-0.92
X4.44Y-0.92
X4.54Y-0.92
T8
X3.0531Y-2.5
X3.0531Y-2.8
X3.25Y-2.5
X3.25Y-2.8
X3.4469Y-2.5
X3.4469Y-2.8
X4.05Y-2.5
X4.05Y-2.8
X3.0531Y-3.1
X3.0531Y-3.4
X3.25Y-3.1
X3.25Y-3.4
X3.4469Y-3.1
X3.4469Y-3.4
X4.05Y-3.1
X4.05Y-3.4
T9
X2.65Y-2.4839
X2.65Y-3.35
T10
X2.2Y-1.95
X2.2Y-2.15
X2.2Y-2.35
X2.48Y-3.74
X2.68Y-3.74
X2.88Y-3.74
X2.2Y-3.28
X2.2Y-3.48
X2.2Y-2.62
X2.2Y-2.82
X2.2Y-3.02
T11
X2.8235Y-0.92
X2.8235Y-2.1405
X5.7762Y-2.1405
X5.7762Y-0.92
T0
M30
