G04 #@! TF.GenerationSoftware,KiCad,Pcbnew,(5.0.2)-1*
G04 #@! TF.CreationDate,2019-02-28T14:54:57+01:00*
G04 #@! TF.ProjectId,Kellerklima,4b656c6c-6572-46b6-9c69-6d612e6b6963,rev?*
G04 #@! TF.SameCoordinates,Original*
G04 #@! TF.FileFunction,Paste,Top*
G04 #@! TF.FilePolarity,Positive*
%FSLAX46Y46*%
G04 Gerber Fmt 4.6, Leading zero omitted, Abs format (unit mm)*
G04 Created by KiCad (PCBNEW (5.0.2)-1) date 28/02/2019 14:54:57*
%MOMM*%
%LPD*%
G01*
G04 APERTURE LIST*
%ADD10R,1.200000X1.200000*%
%ADD11R,1.300000X0.700000*%
%ADD12R,1.500000X2.000000*%
%ADD13R,3.800000X2.000000*%
%ADD14R,0.600000X2.200000*%
%ADD15R,1.000000X1.250000*%
%ADD16R,1.800000X2.500000*%
%ADD17R,0.700000X1.300000*%
%ADD18R,0.800000X0.900000*%
G04 APERTURE END LIST*
D10*
G04 #@! TO.C,D5*
X109812000Y-61468000D03*
X107612000Y-61468000D03*
G04 #@! TD*
G04 #@! TO.C,D6*
X107612000Y-76708000D03*
X109812000Y-76708000D03*
G04 #@! TD*
D11*
G04 #@! TO.C,R13*
X112268000Y-76266000D03*
X112268000Y-78166000D03*
G04 #@! TD*
G04 #@! TO.C,R12*
X112268000Y-62926000D03*
X112268000Y-61026000D03*
G04 #@! TD*
D12*
G04 #@! TO.C,U4*
X133844000Y-85446000D03*
X138444000Y-85446000D03*
X136144000Y-85446000D03*
D13*
X136144000Y-79146000D03*
G04 #@! TD*
D11*
G04 #@! TO.C,R11*
X81788000Y-93914000D03*
X81788000Y-92014000D03*
G04 #@! TD*
G04 #@! TO.C,R10*
X81788000Y-96078000D03*
X81788000Y-97978000D03*
G04 #@! TD*
D14*
G04 #@! TO.C,U5*
X89789000Y-97327432D03*
X89789000Y-91927432D03*
X88519000Y-97327432D03*
X91059000Y-97327432D03*
X92329000Y-97327432D03*
X88519000Y-91927432D03*
X91059000Y-91927432D03*
X92329000Y-91927432D03*
G04 #@! TD*
D10*
G04 #@! TO.C,D3*
X128016000Y-92456000D03*
X125816000Y-92456000D03*
G04 #@! TD*
D15*
G04 #@! TO.C,C2*
X143240000Y-70612000D03*
X141240000Y-70612000D03*
G04 #@! TD*
G04 #@! TO.C,C3*
X147812000Y-67056000D03*
X145812000Y-67056000D03*
G04 #@! TD*
G04 #@! TO.C,C5*
X147812000Y-70612000D03*
X145812000Y-70612000D03*
G04 #@! TD*
D16*
G04 #@! TO.C,D2*
X107696000Y-84550000D03*
X107696000Y-80550000D03*
G04 #@! TD*
G04 #@! TO.C,D1*
X107696000Y-65024000D03*
X107696000Y-69024000D03*
G04 #@! TD*
D11*
G04 #@! TO.C,R2*
X121920000Y-53660000D03*
X121920000Y-55560000D03*
G04 #@! TD*
G04 #@! TO.C,R7*
X143256000Y-83886000D03*
X143256000Y-85786000D03*
G04 #@! TD*
G04 #@! TO.C,R6*
X138684000Y-90358000D03*
X138684000Y-88458000D03*
G04 #@! TD*
G04 #@! TO.C,R5*
X143256000Y-80706000D03*
X143256000Y-78806000D03*
G04 #@! TD*
D17*
G04 #@! TO.C,R4*
X125410000Y-62992000D03*
X123510000Y-62992000D03*
G04 #@! TD*
D11*
G04 #@! TO.C,R1*
X109220000Y-53660000D03*
X109220000Y-55560000D03*
G04 #@! TD*
G04 #@! TO.C,R8*
X143256000Y-88458000D03*
X143256000Y-90358000D03*
G04 #@! TD*
G04 #@! TO.C,R9*
X133604000Y-88458000D03*
X133604000Y-90358000D03*
G04 #@! TD*
D17*
G04 #@! TO.C,R3*
X125410000Y-66040000D03*
X123510000Y-66040000D03*
G04 #@! TD*
D18*
G04 #@! TO.C,Q2*
X115570000Y-55610000D03*
X114620000Y-53610000D03*
X116520000Y-53610000D03*
G04 #@! TD*
G04 #@! TO.C,Q1*
X103820000Y-53610000D03*
X101920000Y-53610000D03*
X102870000Y-55610000D03*
G04 #@! TD*
M02*
