G04 #@! TF.GenerationSoftware,KiCad,Pcbnew,(2018-02-09 revision dba198e57)-makepkg*
G04 #@! TF.CreationDate,2018-02-17T15:50:05+01:00*
G04 #@! TF.ProjectId,Kellerklima,4B656C6C65726B6C696D612E6B696361,rev?*
G04 #@! TF.SameCoordinates,Original*
G04 #@! TF.FileFunction,Paste,Top*
G04 #@! TF.FilePolarity,Positive*
%FSLAX46Y46*%
G04 Gerber Fmt 4.6, Leading zero omitted, Abs format (unit mm)*
G04 Created by KiCad (PCBNEW (2018-02-09 revision dba198e57)-makepkg) date 02/17/18 15:50:05*
%MOMM*%
%LPD*%
G01*
G04 APERTURE LIST*
%ADD10R,1.200000X1.200000*%
%ADD11R,1.300000X0.700000*%
%ADD12R,1.500000X2.000000*%
%ADD13R,3.800000X2.000000*%
%ADD14R,0.600000X2.200000*%
%ADD15R,1.000000X1.250000*%
%ADD16R,1.800000X2.500000*%
%ADD17R,0.700000X1.300000*%
%ADD18R,0.800000X0.900000*%
G04 APERTURE END LIST*
D10*
X109812000Y-61468000D03*
X107612000Y-61468000D03*
X107612000Y-76708000D03*
X109812000Y-76708000D03*
D11*
X112268000Y-76266000D03*
X112268000Y-78166000D03*
X112268000Y-62926000D03*
X112268000Y-61026000D03*
D12*
X133844000Y-85446000D03*
X138444000Y-85446000D03*
X136144000Y-85446000D03*
D13*
X136144000Y-79146000D03*
D11*
X81788000Y-93914000D03*
X81788000Y-92014000D03*
X81788000Y-96078000D03*
X81788000Y-97978000D03*
D14*
X89789000Y-97327432D03*
X89789000Y-91927432D03*
X88519000Y-97327432D03*
X91059000Y-97327432D03*
X92329000Y-97327432D03*
X88519000Y-91927432D03*
X91059000Y-91927432D03*
X92329000Y-91927432D03*
D10*
X128016000Y-92456000D03*
X125816000Y-92456000D03*
D15*
X143240000Y-70612000D03*
X141240000Y-70612000D03*
X147812000Y-67056000D03*
X145812000Y-67056000D03*
X147812000Y-70612000D03*
X145812000Y-70612000D03*
D16*
X107696000Y-84550000D03*
X107696000Y-80550000D03*
X107696000Y-65024000D03*
X107696000Y-69024000D03*
D11*
X121920000Y-53660000D03*
X121920000Y-55560000D03*
X143256000Y-83886000D03*
X143256000Y-85786000D03*
X138684000Y-90358000D03*
X138684000Y-88458000D03*
X143256000Y-80706000D03*
X143256000Y-78806000D03*
D17*
X125410000Y-62992000D03*
X123510000Y-62992000D03*
D11*
X109220000Y-53660000D03*
X109220000Y-55560000D03*
X143256000Y-88458000D03*
X143256000Y-90358000D03*
X133604000Y-88458000D03*
X133604000Y-90358000D03*
D17*
X125410000Y-66040000D03*
X123510000Y-66040000D03*
D18*
X115570000Y-55610000D03*
X114620000Y-53610000D03*
X116520000Y-53610000D03*
X103820000Y-53610000D03*
X101920000Y-53610000D03*
X102870000Y-55610000D03*
M02*
