M48
;DRILL file {KiCad (2018-02-09 revision dba198e57)-makepkg} date 02/17/18 15:50:12
;FORMAT={2:4/ absolute / inch / suppress trailing zeros}
FMAT,2
INCH,LZ
T1C0.0157
T2C0.0236
T3C0.0300
T4C0.0315
T5C0.0394
T6C0.0400
T7C0.0472
T8C0.0512
T9C0.0591
T10C0.0598
T11C0.1181
T12C0.1181
%
G90
G05
M72
T1
X024Y-0204
X0268Y-0302
X0296Y-0206
X0354Y-0374
X0358Y-037
X0366Y-0374
X0394Y-0336
X039402Y-035398
X04Y-0364
X043797Y-031397
X0438Y-033
X045Y-035
X0465Y-021
X0474Y-0248
X0475Y-022
X048Y-0362
X0498Y-0276
X0504Y-026
X051Y-036
X051915Y-030992
X051915Y-035
X0525Y-031
X053Y-033
X0555Y-03
X056Y-031
X0565Y-036
T2
X045713Y-0316
X0465Y-0316
X04935Y-02825
X05035Y-02825
X05345Y-02825
X05445Y-02825
X024988Y-022969
X0255Y-021
X024988Y-019469
X0255Y-0175
X045713Y-0348
X0465Y-0348
T3
X0469Y-0234
X0469Y-0274
X0469Y-0284
X0469Y-0294
X0479Y-0234
X0479Y-0294
X0489Y-0234
X0489Y-0294
X0499Y-0234
X0499Y-0294
X0509Y-0234
X0509Y-0294
X0519Y-0234
X0519Y-0294
X0529Y-0234
X0529Y-0294
X0539Y-0234
X0539Y-0294
X0549Y-0234
X0549Y-0294
X0559Y-0234
X0559Y-0294
X0569Y-0234
X0569Y-0294
X0579Y-0234
X0579Y-0294
T4
X0336Y-0358
X0336Y-0388
X0256Y-0122
X0256Y-0132
X0256Y-0142
T5
X0384Y-0376
X0394Y-0376
X029713Y-014516
X029713Y-016484
X041287Y-012469
X0404Y-0376
X0414Y-0376
X0424Y-0376
X041287Y-018531
X0515Y-015
X054492Y-015
X0448Y-0376
X0458Y-0376
X0468Y-0376
X0478Y-0376
X0488Y-0376
X0512Y-0376
X0522Y-0376
X0532Y-0376
X0542Y-0376
X0552Y-0376
T6
X049805Y-031681
X049805Y-032681
X049805Y-033681
X049805Y-034681
X050805Y-031681
X050805Y-032681
X050805Y-033681
X050805Y-034681
T7
X0304Y-0092
X0314Y-0092
X0324Y-0092
X0334Y-0092
X0344Y-0092
X0354Y-0092
X0364Y-0092
X0374Y-0092
X0384Y-0092
X0394Y-0092
X0404Y-0092
X0414Y-0092
X0424Y-0092
X0434Y-0092
X0444Y-0092
X0454Y-0092
T8
X030531Y-031
X030531Y-034
X0325Y-031
X0325Y-034
X034469Y-031
X034469Y-034
X030531Y-025
X0325Y-025
X0325Y-028
X034469Y-025
X034469Y-028
X0405Y-025
X0405Y-031
X0405Y-034
X030531Y-028
X0405Y-028
T9
X0265Y-024839
X0265Y-0335
T10
X022Y-0195
X022Y-0215
X022Y-0235
X022Y-0262
X022Y-0282
X022Y-0302
X0248Y-0374
X0268Y-0374
X0288Y-0374
X022Y-0328
X022Y-0348
T11
X028235Y-0092
X028235Y-021405
X057762Y-021405
X057762Y-0092
T12
X0216Y-0378
X0216Y-0094
X0554Y-0094
X0576Y-0378
T0
M30
